<?xml version="1.0" encoding="UTF-8" standalone="no"?>
<!DOCTYPE svg PUBLIC "-//W3C//DTD SVG 1.1//EN"
 "http://www.w3.org/Graphics/SVG/1.1/DTD/svg11.dtd">
<!-- Generated by graphviz version 2.36.0 (20140111.2315)
 -->
<!-- Title: controllers_diagram Pages: 1 -->
<svg width="1758pt" height="1208pt"
 viewBox="0.00 0.00 1757.86 1207.87" xmlns="http://www.w3.org/2000/svg" xmlns:xlink="http://www.w3.org/1999/xlink">
<g id="graph0" class="graph" transform="scale(1 1) rotate(0) translate(4 1203.87)">
<title>controllers_diagram</title>
<polygon fill="white" stroke="none" points="-4,4 -4,-1203.87 1753.86,-1203.87 1753.86,4 -4,4"/>
<!-- _diagram_info -->
<g id="node1" class="node"><title>_diagram_info</title>
<text text-anchor="start" x="980" y="-63.6" font-family="Times,serif" font-size="13.00">Controllers diagram</text>
<text text-anchor="start" x="980" y="-49.6" font-family="Times,serif" font-size="13.00">Date: Mar 30 2015 &#45; 18:22</text>
<text text-anchor="start" x="980" y="-35.6" font-family="Times,serif" font-size="13.00">Migration version: 20150204132935</text>
<text text-anchor="start" x="980" y="-21.6" font-family="Times,serif" font-size="13.00">Generated by RailRoady 1.3.0</text>
<text text-anchor="start" x="980" y="-7.6" font-family="Times,serif" font-size="13.00">http://railroady.prestonlee.com</text>
</g>
<!-- HomeController -->
<g id="node2" class="node"><title>HomeController</title>
<ellipse fill="none" stroke="black" cx="75.4514" cy="-505.293" rx="68.7879" ry="18"/>
<text text-anchor="middle" x="75.4514" y="-501.593" font-family="Times,serif" font-size="14.00">HomeController</text>
</g>
<!-- MetersController -->
<g id="node3" class="node"><title>MetersController</title>
<ellipse fill="none" stroke="black" cx="1145.39" cy="-516.6" rx="71.4873" ry="18"/>
<text text-anchor="middle" x="1145.39" y="-512.9" font-family="Times,serif" font-size="14.00">MetersController</text>
</g>
<!-- EnergyTypesController -->
<g id="node4" class="node"><title>EnergyTypesController</title>
<ellipse fill="none" stroke="black" cx="745.274" cy="-126" rx="93.6835" ry="18"/>
<text text-anchor="middle" x="745.274" y="-122.3" font-family="Times,serif" font-size="14.00">EnergyTypesController</text>
</g>
<!-- IntervalsController -->
<g id="node5" class="node"><title>IntervalsController</title>
<ellipse fill="none" stroke="black" cx="861.665" cy="-892.447" rx="77.1866" ry="18"/>
<text text-anchor="middle" x="861.665" y="-888.747" font-family="Times,serif" font-size="14.00">IntervalsController</text>
</g>
<!-- ClusteringsController -->
<g id="node6" class="node"><title>ClusteringsController</title>
<ellipse fill="none" stroke="black" cx="984.595" cy="-682.323" rx="87.1846" ry="18"/>
<text text-anchor="middle" x="984.595" y="-678.623" font-family="Times,serif" font-size="14.00">ClusteringsController</text>
</g>
<!-- ClustersController -->
<g id="node7" class="node"><title>ClustersController</title>
<ellipse fill="none" stroke="black" cx="460.546" cy="-661.818" rx="75.2868" ry="18"/>
<text text-anchor="middle" x="460.546" y="-658.118" font-family="Times,serif" font-size="14.00">ClustersController</text>
</g>
<!-- DataPointsController -->
<g id="node8" class="node"><title>DataPointsController</title>
<ellipse fill="none" stroke="black" cx="465.931" cy="-133.408" rx="85.2851" ry="18"/>
<text text-anchor="middle" x="465.931" y="-129.708" font-family="Times,serif" font-size="14.00">DataPointsController</text>
</g>
<!-- IntellenMockController -->
<g id="node9" class="node"><title>IntellenMockController</title>
<ellipse fill="none" stroke="black" cx="1620.93" cy="-199.58" rx="94.7833" ry="18"/>
<text text-anchor="middle" x="1620.93" y="-195.88" font-family="Times,serif" font-size="14.00">IntellenMockController</text>
</g>
<!-- MarketPricesController -->
<g id="node10" class="node"><title>MarketPricesController</title>
<ellipse fill="none" stroke="black" cx="624.224" cy="-434.284" rx="94.4839" ry="18"/>
<text text-anchor="middle" x="624.224" y="-430.584" font-family="Times,serif" font-size="14.00">MarketPricesController</text>
</g>
<!-- ConnectionTypesController -->
<g id="node11" class="node"><title>ConnectionTypesController</title>
<ellipse fill="none" stroke="black" cx="992.698" cy="-146.708" rx="108.581" ry="18"/>
<text text-anchor="middle" x="992.698" y="-143.008" font-family="Times,serif" font-size="14.00">ConnectionTypesController</text>
</g>
<!-- ProsumersController -->
<g id="node12" class="node"><title>ProsumersController</title>
<ellipse fill="none" stroke="black" cx="809.564" cy="-390.488" rx="84.485" ry="18"/>
<text text-anchor="middle" x="809.564" y="-386.788" font-family="Times,serif" font-size="14.00">ProsumersController</text>
</g>
<!-- MachinesController -->
<g id="node13" class="node"><title>MachinesController</title>
<ellipse fill="none" stroke="black" cx="81.2428" cy="-812.443" rx="81.4863" ry="18"/>
<text text-anchor="middle" x="81.2428" y="-808.743" font-family="Times,serif" font-size="14.00">MachinesController</text>
</g>
<!-- DayAheadHoursController -->
<g id="node14" class="node"><title>DayAheadHoursController</title>
<ellipse fill="none" stroke="black" cx="1370.48" cy="-470.595" rx="105.881" ry="18"/>
<text text-anchor="middle" x="1370.48" y="-466.895" font-family="Times,serif" font-size="14.00">DayAheadHoursController</text>
</g>
<!-- BuildingTypesController -->
<g id="node15" class="node"><title>BuildingTypesController</title>
<ellipse fill="none" stroke="black" cx="1322.4" cy="-804.199" rx="98.5829" ry="18"/>
<text text-anchor="middle" x="1322.4" y="-800.499" font-family="Times,serif" font-size="14.00">BuildingTypesController</text>
</g>
<!-- ApplicationController -->
<g id="node16" class="node"><title>ApplicationController</title>
<ellipse fill="none" stroke="black" cx="752.731" cy="-647.373" rx="88.2844" ry="18"/>
<text text-anchor="middle" x="752.731" y="-643.673" font-family="Times,serif" font-size="14.00">ApplicationController</text>
</g>
<!-- ApplicationController&#45;&gt;HomeController -->
<g id="edge1" class="edge"><title>ApplicationController&#45;&gt;HomeController</title>
<path fill="none" stroke="black" d="M691.132,-634.451C559.719,-606.883 253.739,-542.694 129.415,-516.613"/>
</g>
<!-- ApplicationController&#45;&gt;MetersController -->
<g id="edge2" class="edge"><title>ApplicationController&#45;&gt;MetersController</title>
<path fill="none" stroke="black" d="M798.928,-631.987C875.457,-606.5 1027.48,-555.87 1102.07,-531.028"/>
</g>
<!-- ApplicationController&#45;&gt;EnergyTypesController -->
<g id="edge3" class="edge"><title>ApplicationController&#45;&gt;EnergyTypesController</title>
<path fill="none" stroke="black" d="M749.454,-629.378C742.112,-587.578 724.875,-480.602 723.474,-390.339 722.033,-297.564 736.366,-187.068 742.534,-144.226"/>
</g>
<!-- ApplicationController&#45;&gt;IntervalsController -->
<g id="edge4" class="edge"><title>ApplicationController&#45;&gt;IntervalsController</title>
<path fill="none" stroke="black" d="M760.741,-665.394C780.886,-710.716 833.485,-829.049 853.643,-874.399"/>
</g>
<!-- ApplicationController&#45;&gt;ClusteringsController -->
<g id="edge5" class="edge"><title>ApplicationController&#45;&gt;ClusteringsController</title>
<path fill="none" stroke="black" d="M823.873,-658.097C852.494,-662.411 885.419,-667.374 913.986,-671.68"/>
</g>
<!-- ApplicationController&#45;&gt;ClustersController -->
<g id="edge6" class="edge"><title>ApplicationController&#45;&gt;ClustersController</title>
<path fill="none" stroke="black" d="M666.646,-651.629C624.731,-653.701 574.839,-656.167 534.642,-658.155"/>
</g>
<!-- ApplicationController&#45;&gt;DataPointsController -->
<g id="edge7" class="edge"><title>ApplicationController&#45;&gt;DataPointsController</title>
<path fill="none" stroke="black" d="M753.187,-629.335C753.472,-591.423 750.574,-501.441 720.065,-434.339 662.894,-308.593 537.718,-193.924 487.452,-151.143"/>
</g>
<!-- ApplicationController&#45;&gt;IntellenMockController -->
<g id="edge8" class="edge"><title>ApplicationController&#45;&gt;IntellenMockController</title>
<path fill="none" stroke="black" d="M785.442,-630.501C922.546,-559.787 1450.16,-287.659 1587.89,-216.622"/>
</g>
<!-- ApplicationController&#45;&gt;MarketPricesController -->
<g id="edge9" class="edge"><title>ApplicationController&#45;&gt;MarketPricesController</title>
<path fill="none" stroke="black" d="M741.774,-629.205C717.496,-588.947 659.406,-492.622 635.153,-452.406"/>
</g>
<!-- ApplicationController&#45;&gt;ConnectionTypesController -->
<g id="edge10" class="edge"><title>ApplicationController&#45;&gt;ConnectionTypesController</title>
<path fill="none" stroke="black" d="M763.784,-629.433C788.961,-588.183 851.782,-483.032 895.654,-390.637 934.752,-308.294 971.991,-205.73 986.412,-164.798"/>
</g>
<!-- ApplicationController&#45;&gt;ProsumersController -->
<g id="edge11" class="edge"><title>ApplicationController&#45;&gt;ProsumersController</title>
<path fill="none" stroke="black" d="M756.727,-629.31C767.162,-582.143 795.142,-455.676 805.572,-408.532"/>
</g>
<!-- ApplicationController&#45;&gt;MachinesController -->
<g id="edge12" class="edge"><title>ApplicationController&#45;&gt;MachinesController</title>
<path fill="none" stroke="black" d="M696.059,-661.305C568.636,-692.629 260.901,-768.278 135.648,-799.069"/>
</g>
<!-- ApplicationController&#45;&gt;DayAheadHoursController -->
<g id="edge13" class="edge"><title>ApplicationController&#45;&gt;DayAheadHoursController</title>
<path fill="none" stroke="black" d="M810.266,-633.7C895.324,-613.156 1059.4,-572.261 1196.94,-530.495 1241.16,-517.066 1290.96,-499.633 1325.84,-487.039"/>
</g>
<!-- ApplicationController&#45;&gt;BuildingTypesController -->
<g id="edge14" class="edge"><title>ApplicationController&#45;&gt;BuildingTypesController</title>
<path fill="none" stroke="black" d="M803.259,-662.213C836.761,-671.99 881.717,-684.991 921.524,-696.103 1044.24,-730.358 1188.6,-768.84 1266.21,-789.383"/>
</g>
<!-- StreamController -->
<g id="node17" class="node"><title>StreamController</title>
<ellipse fill="none" stroke="black" cx="978.46" cy="-440.238" rx="72.2875" ry="18"/>
<text text-anchor="middle" x="978.46" y="-436.538" font-family="Times,serif" font-size="14.00">StreamController</text>
</g>
<!-- ApplicationController&#45;&gt;StreamController -->
<g id="edge15" class="edge"><title>ApplicationController&#45;&gt;StreamController</title>
<path fill="none" stroke="black" d="M771.976,-629.713C814.623,-590.579 916.662,-496.946 959.263,-457.854"/>
</g>
<!-- UsersController -->
<g id="node18" class="node"><title>UsersController</title>
<ellipse fill="none" stroke="black" cx="1262.64" cy="-148.418" rx="66.8882" ry="18"/>
<text text-anchor="middle" x="1262.64" y="-144.718" font-family="Times,serif" font-size="14.00">UsersController</text>
</g>
<!-- ApplicationController&#45;&gt;UsersController -->
<g id="edge16" class="edge"><title>ApplicationController&#45;&gt;UsersController</title>
<path fill="none" stroke="black" d="M763.758,-629.292C787.097,-591.777 844.325,-503.688 904.718,-440.13 1017.09,-321.872 1176.98,-207.293 1237.83,-165.271"/>
</g>
<!-- EnergyPricesController -->
<g id="node19" class="node"><title>EnergyPricesController</title>
<ellipse fill="none" stroke="black" cx="395.283" cy="-900.128" rx="93.6835" ry="18"/>
<text text-anchor="middle" x="395.283" y="-896.428" font-family="Times,serif" font-size="14.00">EnergyPricesController</text>
</g>
<!-- ApplicationController&#45;&gt;EnergyPricesController -->
<g id="edge17" class="edge"><title>ApplicationController&#45;&gt;EnergyPricesController</title>
<path fill="none" stroke="black" d="M728.162,-664.746C662.862,-710.921 485.52,-836.321 420.024,-882.634"/>
</g>
<!-- CloudPlatformController -->
<g id="node20" class="node"><title>CloudPlatformController</title>
<ellipse fill="none" stroke="black" cx="101.35" cy="-1153.41" rx="99.3824" ry="18"/>
<text text-anchor="middle" x="101.35" y="-1149.71" font-family="Times,serif" font-size="14.00">CloudPlatformController</text>
</g>
<!-- ApplicationController&#45;&gt;CloudPlatformController -->
<g id="edge18" class="edge"><title>ApplicationController&#45;&gt;CloudPlatformController</title>
<path fill="none" stroke="black" d="M736.584,-665.129C696.99,-708.163 590.963,-820.37 490.471,-900.312 364.967,-1000.15 199.451,-1097.71 131.967,-1136.2"/>
</g>
<!-- DayAheadsController -->
<g id="node21" class="node"><title>DayAheadsController</title>
<ellipse fill="none" stroke="black" cx="651.847" cy="-878.1" rx="87.9851" ry="18"/>
<text text-anchor="middle" x="651.847" y="-874.4" font-family="Times,serif" font-size="14.00">DayAheadsController</text>
</g>
<!-- ApplicationController&#45;&gt;DayAheadsController -->
<g id="edge19" class="edge"><title>ApplicationController&#45;&gt;DayAheadsController</title>
<path fill="none" stroke="black" d="M744.814,-665.478C725.956,-708.609 678.548,-817.033 659.727,-860.079"/>
</g>
<!-- RolesController -->
<g id="node22" class="node"><title>RolesController</title>
<ellipse fill="none" stroke="black" cx="380.393" cy="-422.778" rx="66.8882" ry="18"/>
<text text-anchor="middle" x="380.393" y="-419.078" font-family="Times,serif" font-size="14.00">RolesController</text>
</g>
<!-- ApplicationController&#45;&gt;RolesController -->
<g id="edge20" class="edge"><title>ApplicationController&#45;&gt;RolesController</title>
<path fill="none" stroke="black" d="M724.439,-630.308C654.944,-588.388 476.532,-480.769 407.883,-439.36"/>
</g>
<!-- LoginController -->
<g id="node23" class="node"><title>LoginController</title>
<ellipse fill="none" stroke="black" cx="97.8758" cy="-159.144" rx="67.6881" ry="18"/>
<text text-anchor="middle" x="97.8758" y="-155.444" font-family="Times,serif" font-size="14.00">LoginController</text>
</g>
<!-- ApplicationController&#45;&gt;LoginController -->
<g id="edge21" class="edge"><title>ApplicationController&#45;&gt;LoginController</title>
<path fill="none" stroke="black" d="M729.424,-629.997C627.578,-554.065 222.192,-251.828 120.903,-176.312"/>
</g>
<!-- DeviseController -->
<g id="node24" class="node"><title>DeviseController</title>
<ellipse fill="none" stroke="black" cx="1085.12" cy="-898.386" rx="71.4873" ry="18"/>
<text text-anchor="middle" x="1085.12" y="-894.686" font-family="Times,serif" font-size="14.00">DeviseController</text>
</g>
<!-- ApplicationController&#45;&gt;DeviseController -->
<g id="edge22" class="edge"><title>ApplicationController&#45;&gt;DeviseController</title>
<path fill="none" stroke="black" d="M775.839,-664.825C836.789,-710.853 1001.38,-835.153 1062.16,-881.05"/>
</g>
<!-- Devise::OmniauthCallbacksController -->
<g id="node25" class="node"><title>Devise::OmniauthCallbacksController</title>
<ellipse fill="none" stroke="black" cx="1275.84" cy="-1161.08" rx="146.474" ry="18"/>
<text text-anchor="middle" x="1275.84" y="-1157.38" font-family="Times,serif" font-size="14.00">Devise::OmniauthCallbacksController</text>
</g>
<!-- DeviseController&#45;&gt;Devise::OmniauthCallbacksController -->
<g id="edge23" class="edge"><title>DeviseController&#45;&gt;Devise::OmniauthCallbacksController</title>
<path fill="none" stroke="black" d="M1098.23,-916.442C1133.07,-964.432 1227.69,-1094.76 1262.64,-1142.9"/>
</g>
<!-- Devise::PasswordsController -->
<g id="node26" class="node"><title>Devise::PasswordsController</title>
<ellipse fill="none" stroke="black" cx="993.915" cy="-1179.04" rx="113.18" ry="18"/>
<text text-anchor="middle" x="993.915" y="-1175.34" font-family="Times,serif" font-size="14.00">Devise::PasswordsController</text>
</g>
<!-- DeviseController&#45;&gt;Devise::PasswordsController -->
<g id="edge24" class="edge"><title>DeviseController&#45;&gt;Devise::PasswordsController</title>
<path fill="none" stroke="black" d="M1079.27,-916.369C1062.84,-966.94 1016.35,-1110.01 999.828,-1160.84"/>
</g>
<!-- Devise::SessionsController -->
<g id="node27" class="node"><title>Devise::SessionsController</title>
<ellipse fill="none" stroke="black" cx="1643.27" cy="-665.668" rx="106.681" ry="18"/>
<text text-anchor="middle" x="1643.27" y="-661.968" font-family="Times,serif" font-size="14.00">Devise::SessionsController</text>
</g>
<!-- DeviseController&#45;&gt;Devise::SessionsController -->
<g id="edge25" class="edge"><title>DeviseController&#45;&gt;Devise::SessionsController</title>
<path fill="none" stroke="black" d="M1107.61,-881.163C1134.13,-861.271 1179.93,-828.2 1222.01,-804.125 1336.94,-738.366 1487.6,-698.469 1574.09,-679.367"/>
</g>
<!-- Devise::UnlocksController -->
<g id="node28" class="node"><title>Devise::UnlocksController</title>
<ellipse fill="none" stroke="black" cx="1616.55" cy="-1106.76" rx="105.082" ry="18"/>
<text text-anchor="middle" x="1616.55" y="-1103.06" font-family="Times,serif" font-size="14.00">Devise::UnlocksController</text>
</g>
<!-- DeviseController&#45;&gt;Devise::UnlocksController -->
<g id="edge26" class="edge"><title>DeviseController&#45;&gt;Devise::UnlocksController</title>
<path fill="none" stroke="black" d="M1123.76,-913.539C1220.74,-951.562 1473.78,-1050.78 1574.4,-1090.23"/>
</g>
<!-- Devise::RegistrationsController -->
<g id="node29" class="node"><title>Devise::RegistrationsController</title>
<ellipse fill="none" stroke="black" cx="475.998" cy="-1181.87" rx="122.379" ry="18"/>
<text text-anchor="middle" x="475.998" y="-1178.17" font-family="Times,serif" font-size="14.00">Devise::RegistrationsController</text>
</g>
<!-- DeviseController&#45;&gt;Devise::RegistrationsController -->
<g id="edge27" class="edge"><title>DeviseController&#45;&gt;Devise::RegistrationsController</title>
<path fill="none" stroke="black" d="M1051.06,-914.234C945.334,-963.44 623.23,-1113.35 513.258,-1164.53"/>
</g>
<!-- Devise::ConfirmationsController -->
<g id="node30" class="node"><title>Devise::ConfirmationsController</title>
<ellipse fill="none" stroke="black" cx="751.997" cy="-1168.52" rx="127.277" ry="18"/>
<text text-anchor="middle" x="751.997" y="-1164.82" font-family="Times,serif" font-size="14.00">Devise::ConfirmationsController</text>
</g>
<!-- DeviseController&#45;&gt;Devise::ConfirmationsController -->
<g id="edge28" class="edge"><title>DeviseController&#45;&gt;Devise::ConfirmationsController</title>
<path fill="none" stroke="black" d="M1063.77,-915.695C1003.89,-964.253 834.739,-1101.42 774.03,-1150.65"/>
</g>
</g>
</svg>
