<?xml version="1.0" encoding="UTF-8" standalone="no"?>
<!DOCTYPE svg PUBLIC "-//W3C//DTD SVG 1.1//EN"
 "http://www.w3.org/Graphics/SVG/1.1/DTD/svg11.dtd">
<!-- Generated by graphviz version 2.36.0 (20140111.2315)
 -->
<!-- Title: controllers_diagram Pages: 1 -->
<svg width="1062pt" height="1111pt"
 viewBox="0.00 0.00 1062.00 1111.00" xmlns="http://www.w3.org/2000/svg" xmlns:xlink="http://www.w3.org/1999/xlink">
<g id="graph0" class="graph" transform="scale(1 1) rotate(0) translate(4 1107)">
<title>controllers_diagram</title>
<polygon fill="white" stroke="none" points="-4,4 -4,-1107 1058,-1107 1058,4 -4,4"/>
<!-- _diagram_info -->
<g id="node1" class="node"><title>_diagram_info</title>
<text text-anchor="start" x="730" y="-120.6" font-family="Times,serif" font-size="13.00">Controllers diagram</text>
<text text-anchor="start" x="730" y="-106.6" font-family="Times,serif" font-size="13.00">Date: Apr 24 2015 &#45; 10:38</text>
<text text-anchor="start" x="730" y="-92.6" font-family="Times,serif" font-size="13.00">Migration version: 20150331090654</text>
<text text-anchor="start" x="730" y="-78.6" font-family="Times,serif" font-size="13.00">Generated by RailRoady 1.3.0</text>
<text text-anchor="start" x="730" y="-64.6" font-family="Times,serif" font-size="13.00">http://railroady.prestonlee.com</text>
</g>
<!-- HomeController -->
<g id="node2" class="node"><title>HomeController</title>
<path fill="none" stroke="black" d="M658,-931.5C658,-931.5 744,-931.5 744,-931.5 750,-931.5 756,-937.5 756,-943.5 756,-943.5 756,-1087.5 756,-1087.5 756,-1093.5 750,-1099.5 744,-1099.5 744,-1099.5 658,-1099.5 658,-1099.5 652,-1099.5 646,-1093.5 646,-1087.5 646,-1087.5 646,-943.5 646,-943.5 646,-937.5 652,-931.5 658,-931.5"/>
<text text-anchor="middle" x="701" y="-1084.3" font-family="Times,serif" font-size="14.00">HomeController</text>
<polyline fill="none" stroke="black" points="646,-1076.5 756,-1076.5 "/>
<text text-anchor="start" x="654" y="-1061.3" font-family="Times,serif" font-size="14.00">energyPrice</text>
<text text-anchor="start" x="654" y="-1046.3" font-family="Times,serif" font-size="14.00">energyType</text>
<text text-anchor="start" x="654" y="-1031.3" font-family="Times,serif" font-size="14.00">index</text>
<text text-anchor="start" x="654" y="-1016.3" font-family="Times,serif" font-size="14.00">top5Consumers</text>
<text text-anchor="start" x="654" y="-1001.3" font-family="Times,serif" font-size="14.00">top5Producers</text>
<text text-anchor="start" x="654" y="-986.3" font-family="Times,serif" font-size="14.00">totalProsumption</text>
<polyline fill="none" stroke="black" points="646,-978.5 756,-978.5 "/>
<polyline fill="none" stroke="black" points="646,-954.5 756,-954.5 "/>
<text text-anchor="start" x="654" y="-939.3" font-family="Times,serif" font-size="14.00">_layout</text>
</g>
<!-- MetersController -->
<g id="node3" class="node"><title>MetersController</title>
<path fill="none" stroke="black" d="M88,-475.5C88,-475.5 174,-475.5 174,-475.5 180,-475.5 186,-481.5 186,-487.5 186,-487.5 186,-676.5 186,-676.5 186,-682.5 180,-688.5 174,-688.5 174,-688.5 88,-688.5 88,-688.5 82,-688.5 76,-682.5 76,-676.5 76,-676.5 76,-487.5 76,-487.5 76,-481.5 82,-475.5 88,-475.5"/>
<text text-anchor="middle" x="131" y="-673.3" font-family="Times,serif" font-size="14.00">MetersController</text>
<polyline fill="none" stroke="black" points="76,-665.5 186,-665.5 "/>
<text text-anchor="start" x="84" y="-650.3" font-family="Times,serif" font-size="14.00">create</text>
<text text-anchor="start" x="84" y="-635.3" font-family="Times,serif" font-size="14.00">destroy</text>
<text text-anchor="start" x="84" y="-620.3" font-family="Times,serif" font-size="14.00">edit</text>
<text text-anchor="start" x="84" y="-605.3" font-family="Times,serif" font-size="14.00">index</text>
<text text-anchor="start" x="84" y="-590.3" font-family="Times,serif" font-size="14.00">new</text>
<text text-anchor="start" x="84" y="-575.3" font-family="Times,serif" font-size="14.00">show</text>
<text text-anchor="start" x="84" y="-560.3" font-family="Times,serif" font-size="14.00">update</text>
<polyline fill="none" stroke="black" points="76,-552.5 186,-552.5 "/>
<polyline fill="none" stroke="black" points="76,-528.5 186,-528.5 "/>
<text text-anchor="start" x="84" y="-513.3" font-family="Times,serif" font-size="14.00">_layout</text>
<text text-anchor="start" x="84" y="-498.3" font-family="Times,serif" font-size="14.00">meter_params</text>
<text text-anchor="start" x="84" y="-483.3" font-family="Times,serif" font-size="14.00">set_meter</text>
</g>
<!-- EnergyTypesController -->
<g id="node4" class="node"><title>EnergyTypesController</title>
<path fill="none" stroke="black" d="M240,-722.5C240,-722.5 360,-722.5 360,-722.5 366,-722.5 372,-728.5 372,-734.5 372,-734.5 372,-923.5 372,-923.5 372,-929.5 366,-935.5 360,-935.5 360,-935.5 240,-935.5 240,-935.5 234,-935.5 228,-929.5 228,-923.5 228,-923.5 228,-734.5 228,-734.5 228,-728.5 234,-722.5 240,-722.5"/>
<text text-anchor="middle" x="300" y="-920.3" font-family="Times,serif" font-size="14.00">EnergyTypesController</text>
<polyline fill="none" stroke="black" points="228,-912.5 372,-912.5 "/>
<text text-anchor="start" x="236" y="-897.3" font-family="Times,serif" font-size="14.00">create</text>
<text text-anchor="start" x="236" y="-882.3" font-family="Times,serif" font-size="14.00">destroy</text>
<text text-anchor="start" x="236" y="-867.3" font-family="Times,serif" font-size="14.00">edit</text>
<text text-anchor="start" x="236" y="-852.3" font-family="Times,serif" font-size="14.00">index</text>
<text text-anchor="start" x="236" y="-837.3" font-family="Times,serif" font-size="14.00">new</text>
<text text-anchor="start" x="236" y="-822.3" font-family="Times,serif" font-size="14.00">show</text>
<text text-anchor="start" x="236" y="-807.3" font-family="Times,serif" font-size="14.00">update</text>
<polyline fill="none" stroke="black" points="228,-799.5 372,-799.5 "/>
<polyline fill="none" stroke="black" points="228,-775.5 372,-775.5 "/>
<text text-anchor="start" x="236" y="-760.3" font-family="Times,serif" font-size="14.00">_layout</text>
<text text-anchor="start" x="236" y="-745.3" font-family="Times,serif" font-size="14.00">energy_type_params</text>
<text text-anchor="start" x="236" y="-730.3" font-family="Times,serif" font-size="14.00">set_energy_type</text>
</g>
<!-- IntervalsController -->
<g id="node5" class="node"><title>IntervalsController</title>
<path fill="none" stroke="black" d="M582,-133.5C582,-133.5 677,-133.5 677,-133.5 683,-133.5 689,-139.5 689,-145.5 689,-145.5 689,-334.5 689,-334.5 689,-340.5 683,-346.5 677,-346.5 677,-346.5 582,-346.5 582,-346.5 576,-346.5 570,-340.5 570,-334.5 570,-334.5 570,-145.5 570,-145.5 570,-139.5 576,-133.5 582,-133.5"/>
<text text-anchor="middle" x="629.5" y="-331.3" font-family="Times,serif" font-size="14.00">IntervalsController</text>
<polyline fill="none" stroke="black" points="570,-323.5 689,-323.5 "/>
<text text-anchor="start" x="578" y="-308.3" font-family="Times,serif" font-size="14.00">create</text>
<text text-anchor="start" x="578" y="-293.3" font-family="Times,serif" font-size="14.00">destroy</text>
<text text-anchor="start" x="578" y="-278.3" font-family="Times,serif" font-size="14.00">edit</text>
<text text-anchor="start" x="578" y="-263.3" font-family="Times,serif" font-size="14.00">index</text>
<text text-anchor="start" x="578" y="-248.3" font-family="Times,serif" font-size="14.00">new</text>
<text text-anchor="start" x="578" y="-233.3" font-family="Times,serif" font-size="14.00">show</text>
<text text-anchor="start" x="578" y="-218.3" font-family="Times,serif" font-size="14.00">update</text>
<polyline fill="none" stroke="black" points="570,-210.5 689,-210.5 "/>
<polyline fill="none" stroke="black" points="570,-186.5 689,-186.5 "/>
<text text-anchor="start" x="578" y="-171.3" font-family="Times,serif" font-size="14.00">_layout</text>
<text text-anchor="start" x="578" y="-156.3" font-family="Times,serif" font-size="14.00">interval_params</text>
<text text-anchor="start" x="578" y="-141.3" font-family="Times,serif" font-size="14.00">set_interval</text>
</g>
<!-- ClusteringsController -->
<g id="node6" class="node"><title>ClusteringsController</title>
<path fill="none" stroke="black" d="M411,-323.5C411,-323.5 521,-323.5 521,-323.5 527,-323.5 533,-329.5 533,-335.5 533,-335.5 533,-614.5 533,-614.5 533,-620.5 527,-626.5 521,-626.5 521,-626.5 411,-626.5 411,-626.5 405,-626.5 399,-620.5 399,-614.5 399,-614.5 399,-335.5 399,-335.5 399,-329.5 405,-323.5 411,-323.5"/>
<text text-anchor="middle" x="466" y="-611.3" font-family="Times,serif" font-size="14.00">ClusteringsController</text>
<polyline fill="none" stroke="black" points="399,-603.5 533,-603.5 "/>
<text text-anchor="start" x="407" y="-588.3" font-family="Times,serif" font-size="14.00">apply</text>
<text text-anchor="start" x="407" y="-573.3" font-family="Times,serif" font-size="14.00">confirm</text>
<text text-anchor="start" x="407" y="-558.3" font-family="Times,serif" font-size="14.00">create</text>
<text text-anchor="start" x="407" y="-543.3" font-family="Times,serif" font-size="14.00">destroy</text>
<text text-anchor="start" x="407" y="-528.3" font-family="Times,serif" font-size="14.00">edit</text>
<text text-anchor="start" x="407" y="-513.3" font-family="Times,serif" font-size="14.00">index</text>
<text text-anchor="start" x="407" y="-498.3" font-family="Times,serif" font-size="14.00">new</text>
<text text-anchor="start" x="407" y="-483.3" font-family="Times,serif" font-size="14.00">new_from_existing</text>
<text text-anchor="start" x="407" y="-468.3" font-family="Times,serif" font-size="14.00">save</text>
<text text-anchor="start" x="407" y="-453.3" font-family="Times,serif" font-size="14.00">select</text>
<text text-anchor="start" x="407" y="-438.3" font-family="Times,serif" font-size="14.00">show</text>
<text text-anchor="start" x="407" y="-423.3" font-family="Times,serif" font-size="14.00">update</text>
<polyline fill="none" stroke="black" points="399,-415.5 533,-415.5 "/>
<polyline fill="none" stroke="black" points="399,-391.5 533,-391.5 "/>
<text text-anchor="start" x="407" y="-376.3" font-family="Times,serif" font-size="14.00">_layout</text>
<text text-anchor="start" x="407" y="-361.3" font-family="Times,serif" font-size="14.00">algorithms</text>
<text text-anchor="start" x="407" y="-346.3" font-family="Times,serif" font-size="14.00">clustering_params</text>
<text text-anchor="start" x="407" y="-331.3" font-family="Times,serif" font-size="14.00">set_clustering</text>
</g>
<!-- ClustersController -->
<g id="node7" class="node"><title>ClustersController</title>
<path fill="none" stroke="black" d="M88,-874.5C88,-874.5 180,-874.5 180,-874.5 186,-874.5 192,-880.5 192,-886.5 192,-886.5 192,-1090.5 192,-1090.5 192,-1096.5 186,-1102.5 180,-1102.5 180,-1102.5 88,-1102.5 88,-1102.5 82,-1102.5 76,-1096.5 76,-1090.5 76,-1090.5 76,-886.5 76,-886.5 76,-880.5 82,-874.5 88,-874.5"/>
<text text-anchor="middle" x="134" y="-1087.3" font-family="Times,serif" font-size="14.00">ClustersController</text>
<polyline fill="none" stroke="black" points="76,-1079.5 192,-1079.5 "/>
<text text-anchor="start" x="84" y="-1064.3" font-family="Times,serif" font-size="14.00">addprosumer</text>
<text text-anchor="start" x="84" y="-1049.3" font-family="Times,serif" font-size="14.00">create</text>
<text text-anchor="start" x="84" y="-1034.3" font-family="Times,serif" font-size="14.00">destroy</text>
<text text-anchor="start" x="84" y="-1019.3" font-family="Times,serif" font-size="14.00">edit</text>
<text text-anchor="start" x="84" y="-1004.3" font-family="Times,serif" font-size="14.00">index</text>
<text text-anchor="start" x="84" y="-989.3" font-family="Times,serif" font-size="14.00">new</text>
<text text-anchor="start" x="84" y="-974.3" font-family="Times,serif" font-size="14.00">show</text>
<text text-anchor="start" x="84" y="-959.3" font-family="Times,serif" font-size="14.00">update</text>
<polyline fill="none" stroke="black" points="76,-951.5 192,-951.5 "/>
<polyline fill="none" stroke="black" points="76,-927.5 192,-927.5 "/>
<text text-anchor="start" x="84" y="-912.3" font-family="Times,serif" font-size="14.00">_layout</text>
<text text-anchor="start" x="84" y="-897.3" font-family="Times,serif" font-size="14.00">cluster_params</text>
<text text-anchor="start" x="84" y="-882.3" font-family="Times,serif" font-size="14.00">set_cluster</text>
</g>
<!-- DataPointsController -->
<g id="node8" class="node"><title>DataPointsController</title>
<path fill="none" stroke="black" d="M240,-437.5C240,-437.5 347,-437.5 347,-437.5 353,-437.5 359,-443.5 359,-449.5 359,-449.5 359,-668.5 359,-668.5 359,-674.5 353,-680.5 347,-680.5 347,-680.5 240,-680.5 240,-680.5 234,-680.5 228,-674.5 228,-668.5 228,-668.5 228,-449.5 228,-449.5 228,-443.5 234,-437.5 240,-437.5"/>
<text text-anchor="middle" x="293.5" y="-665.3" font-family="Times,serif" font-size="14.00">DataPointsController</text>
<polyline fill="none" stroke="black" points="228,-657.5 359,-657.5 "/>
<text text-anchor="start" x="236" y="-642.3" font-family="Times,serif" font-size="14.00">create</text>
<text text-anchor="start" x="236" y="-627.3" font-family="Times,serif" font-size="14.00">destroy</text>
<text text-anchor="start" x="236" y="-612.3" font-family="Times,serif" font-size="14.00">edit</text>
<text text-anchor="start" x="236" y="-597.3" font-family="Times,serif" font-size="14.00">index</text>
<text text-anchor="start" x="236" y="-582.3" font-family="Times,serif" font-size="14.00">new</text>
<text text-anchor="start" x="236" y="-567.3" font-family="Times,serif" font-size="14.00">show</text>
<text text-anchor="start" x="236" y="-552.3" font-family="Times,serif" font-size="14.00">update</text>
<polyline fill="none" stroke="black" points="228,-544.5 359,-544.5 "/>
<polyline fill="none" stroke="black" points="228,-520.5 359,-520.5 "/>
<text text-anchor="start" x="236" y="-505.3" font-family="Times,serif" font-size="14.00">_layout</text>
<text text-anchor="start" x="236" y="-490.3" font-family="Times,serif" font-size="14.00">data_point_params</text>
<text text-anchor="start" x="236" y="-475.3" font-family="Times,serif" font-size="14.00">set_data_point</text>
<text text-anchor="start" x="236" y="-460.3" font-family="Times,serif" font-size="14.00">sort_column</text>
<text text-anchor="start" x="236" y="-445.3" font-family="Times,serif" font-size="14.00">sort_direction</text>
</g>
<!-- IntellenMockController -->
<g id="node9" class="node"><title>IntellenMockController</title>
<path fill="none" stroke="black" d="M50,-722.5C50,-722.5 172,-722.5 172,-722.5 178,-722.5 184,-728.5 184,-734.5 184,-734.5 184,-818.5 184,-818.5 184,-824.5 178,-830.5 172,-830.5 172,-830.5 50,-830.5 50,-830.5 44,-830.5 38,-824.5 38,-818.5 38,-818.5 38,-734.5 38,-734.5 38,-728.5 44,-722.5 50,-722.5"/>
<text text-anchor="middle" x="111" y="-815.3" font-family="Times,serif" font-size="14.00">IntellenMockController</text>
<polyline fill="none" stroke="black" points="38,-807.5 184,-807.5 "/>
<text text-anchor="start" x="46" y="-792.3" font-family="Times,serif" font-size="14.00">getdata</text>
<text text-anchor="start" x="46" y="-777.3" font-family="Times,serif" font-size="14.00">getdayahead</text>
<polyline fill="none" stroke="black" points="38,-769.5 184,-769.5 "/>
<polyline fill="none" stroke="black" points="38,-745.5 184,-745.5 "/>
<text text-anchor="start" x="46" y="-730.3" font-family="Times,serif" font-size="14.00">_layout</text>
</g>
<!-- MarketPricesController -->
<g id="node10" class="node"><title>MarketPricesController</title>
<path fill="none" stroke="black" d="M202,-190.5C202,-190.5 323,-190.5 323,-190.5 329,-190.5 335,-196.5 335,-202.5 335,-202.5 335,-391.5 335,-391.5 335,-397.5 329,-403.5 323,-403.5 323,-403.5 202,-403.5 202,-403.5 196,-403.5 190,-397.5 190,-391.5 190,-391.5 190,-202.5 190,-202.5 190,-196.5 196,-190.5 202,-190.5"/>
<text text-anchor="middle" x="262.5" y="-388.3" font-family="Times,serif" font-size="14.00">MarketPricesController</text>
<polyline fill="none" stroke="black" points="190,-380.5 335,-380.5 "/>
<text text-anchor="start" x="198" y="-365.3" font-family="Times,serif" font-size="14.00">MBProvisional</text>
<text text-anchor="start" x="198" y="-350.3" font-family="Times,serif" font-size="14.00">ancillary</text>
<text text-anchor="start" x="198" y="-335.3" font-family="Times,serif" font-size="14.00">dayAhead</text>
<text text-anchor="start" x="198" y="-320.3" font-family="Times,serif" font-size="14.00">efficiencyCertificates</text>
<text text-anchor="start" x="198" y="-305.3" font-family="Times,serif" font-size="14.00">greenCertificates</text>
<text text-anchor="start" x="198" y="-290.3" font-family="Times,serif" font-size="14.00">index</text>
<text text-anchor="start" x="198" y="-275.3" font-family="Times,serif" font-size="14.00">intraDayPrices</text>
<text text-anchor="start" x="198" y="-260.3" font-family="Times,serif" font-size="14.00">intraDayVolumes</text>
<text text-anchor="start" x="198" y="-245.3" font-family="Times,serif" font-size="14.00">regions</text>
<polyline fill="none" stroke="black" points="190,-237.5 335,-237.5 "/>
<polyline fill="none" stroke="black" points="190,-213.5 335,-213.5 "/>
<text text-anchor="start" x="198" y="-198.3" font-family="Times,serif" font-size="14.00">_layout</text>
</g>
<!-- ConnectionTypesController -->
<g id="node11" class="node"><title>ConnectionTypesController</title>
<path fill="none" stroke="black" d="M582,-380.5C582,-380.5 725,-380.5 725,-380.5 731,-380.5 737,-386.5 737,-392.5 737,-392.5 737,-581.5 737,-581.5 737,-587.5 731,-593.5 725,-593.5 725,-593.5 582,-593.5 582,-593.5 576,-593.5 570,-587.5 570,-581.5 570,-581.5 570,-392.5 570,-392.5 570,-386.5 576,-380.5 582,-380.5"/>
<text text-anchor="middle" x="653.5" y="-578.3" font-family="Times,serif" font-size="14.00">ConnectionTypesController</text>
<polyline fill="none" stroke="black" points="570,-570.5 737,-570.5 "/>
<text text-anchor="start" x="578" y="-555.3" font-family="Times,serif" font-size="14.00">create</text>
<text text-anchor="start" x="578" y="-540.3" font-family="Times,serif" font-size="14.00">destroy</text>
<text text-anchor="start" x="578" y="-525.3" font-family="Times,serif" font-size="14.00">edit</text>
<text text-anchor="start" x="578" y="-510.3" font-family="Times,serif" font-size="14.00">index</text>
<text text-anchor="start" x="578" y="-495.3" font-family="Times,serif" font-size="14.00">new</text>
<text text-anchor="start" x="578" y="-480.3" font-family="Times,serif" font-size="14.00">show</text>
<text text-anchor="start" x="578" y="-465.3" font-family="Times,serif" font-size="14.00">update</text>
<polyline fill="none" stroke="black" points="570,-457.5 737,-457.5 "/>
<polyline fill="none" stroke="black" points="570,-433.5 737,-433.5 "/>
<text text-anchor="start" x="578" y="-418.3" font-family="Times,serif" font-size="14.00">_layout</text>
<text text-anchor="start" x="578" y="-403.3" font-family="Times,serif" font-size="14.00">connection_type_params</text>
<text text-anchor="start" x="578" y="-388.3" font-family="Times,serif" font-size="14.00">set_connection_type</text>
</g>
<!-- ProsumersController -->
<g id="node12" class="node"><title>ProsumersController</title>
<path fill="none" stroke="black" d="M639,-627.5C639,-627.5 745,-627.5 745,-627.5 751,-627.5 757,-633.5 757,-639.5 757,-639.5 757,-873.5 757,-873.5 757,-879.5 751,-885.5 745,-885.5 745,-885.5 639,-885.5 639,-885.5 633,-885.5 627,-879.5 627,-873.5 627,-873.5 627,-639.5 627,-639.5 627,-633.5 633,-627.5 639,-627.5"/>
<text text-anchor="middle" x="692" y="-870.3" font-family="Times,serif" font-size="14.00">ProsumersController</text>
<polyline fill="none" stroke="black" points="627,-862.5 757,-862.5 "/>
<text text-anchor="start" x="635" y="-847.3" font-family="Times,serif" font-size="14.00">create</text>
<text text-anchor="start" x="635" y="-832.3" font-family="Times,serif" font-size="14.00">destroy</text>
<text text-anchor="start" x="635" y="-817.3" font-family="Times,serif" font-size="14.00">edit</text>
<text text-anchor="start" x="635" y="-802.3" font-family="Times,serif" font-size="14.00">index</text>
<text text-anchor="start" x="635" y="-787.3" font-family="Times,serif" font-size="14.00">new</text>
<text text-anchor="start" x="635" y="-772.3" font-family="Times,serif" font-size="14.00">removefromcluster</text>
<text text-anchor="start" x="635" y="-757.3" font-family="Times,serif" font-size="14.00">show</text>
<text text-anchor="start" x="635" y="-742.3" font-family="Times,serif" font-size="14.00">update</text>
<polyline fill="none" stroke="black" points="627,-734.5 757,-734.5 "/>
<polyline fill="none" stroke="black" points="627,-710.5 757,-710.5 "/>
<text text-anchor="start" x="635" y="-695.3" font-family="Times,serif" font-size="14.00">_layout</text>
<text text-anchor="start" x="635" y="-680.3" font-family="Times,serif" font-size="14.00">prosumer_params</text>
<text text-anchor="start" x="635" y="-665.3" font-family="Times,serif" font-size="14.00">set_prosumer</text>
<text text-anchor="start" x="635" y="-650.3" font-family="Times,serif" font-size="14.00">sort_column</text>
<text text-anchor="start" x="635" y="-635.3" font-family="Times,serif" font-size="14.00">sort_direction</text>
</g>
<!-- MachinesController -->
<g id="node13" class="node"><title>MachinesController</title>
<path fill="none" stroke="black" d="M525,-0.5C525,-0.5 626,-0.5 626,-0.5 632,-0.5 638,-6.5 638,-12.5 638,-12.5 638,-81.5 638,-81.5 638,-87.5 632,-93.5 626,-93.5 626,-93.5 525,-93.5 525,-93.5 519,-93.5 513,-87.5 513,-81.5 513,-81.5 513,-12.5 513,-12.5 513,-6.5 519,-0.5 525,-0.5"/>
<text text-anchor="middle" x="575.5" y="-78.3" font-family="Times,serif" font-size="14.00">MachinesController</text>
<polyline fill="none" stroke="black" points="513,-70.5 638,-70.5 "/>
<text text-anchor="start" x="521" y="-55.3" font-family="Times,serif" font-size="14.00">index</text>
<polyline fill="none" stroke="black" points="513,-47.5 638,-47.5 "/>
<polyline fill="none" stroke="black" points="513,-23.5 638,-23.5 "/>
<text text-anchor="start" x="521" y="-8.3" font-family="Times,serif" font-size="14.00">_layout</text>
</g>
<!-- DayAheadHoursController -->
<g id="node14" class="node"><title>DayAheadHoursController</title>
<path fill="none" stroke="black" d="M430,-665.5C430,-665.5 569,-665.5 569,-665.5 575,-665.5 581,-671.5 581,-677.5 581,-677.5 581,-866.5 581,-866.5 581,-872.5 575,-878.5 569,-878.5 569,-878.5 430,-878.5 430,-878.5 424,-878.5 418,-872.5 418,-866.5 418,-866.5 418,-677.5 418,-677.5 418,-671.5 424,-665.5 430,-665.5"/>
<text text-anchor="middle" x="499.5" y="-863.3" font-family="Times,serif" font-size="14.00">DayAheadHoursController</text>
<polyline fill="none" stroke="black" points="418,-855.5 581,-855.5 "/>
<text text-anchor="start" x="426" y="-840.3" font-family="Times,serif" font-size="14.00">create</text>
<text text-anchor="start" x="426" y="-825.3" font-family="Times,serif" font-size="14.00">destroy</text>
<text text-anchor="start" x="426" y="-810.3" font-family="Times,serif" font-size="14.00">edit</text>
<text text-anchor="start" x="426" y="-795.3" font-family="Times,serif" font-size="14.00">index</text>
<text text-anchor="start" x="426" y="-780.3" font-family="Times,serif" font-size="14.00">new</text>
<text text-anchor="start" x="426" y="-765.3" font-family="Times,serif" font-size="14.00">show</text>
<text text-anchor="start" x="426" y="-750.3" font-family="Times,serif" font-size="14.00">update</text>
<polyline fill="none" stroke="black" points="418,-742.5 581,-742.5 "/>
<polyline fill="none" stroke="black" points="418,-718.5 581,-718.5 "/>
<text text-anchor="start" x="426" y="-703.3" font-family="Times,serif" font-size="14.00">_layout</text>
<text text-anchor="start" x="426" y="-688.3" font-family="Times,serif" font-size="14.00">day_ahead_hour_params</text>
<text text-anchor="start" x="426" y="-673.3" font-family="Times,serif" font-size="14.00">set_day_ahead_hour</text>
</g>
<!-- BuildingTypesController -->
<g id="node15" class="node"><title>BuildingTypesController</title>
<path fill="none" stroke="black" d="M791,-171.5C791,-171.5 919,-171.5 919,-171.5 925,-171.5 931,-177.5 931,-183.5 931,-183.5 931,-372.5 931,-372.5 931,-378.5 925,-384.5 919,-384.5 919,-384.5 791,-384.5 791,-384.5 785,-384.5 779,-378.5 779,-372.5 779,-372.5 779,-183.5 779,-183.5 779,-177.5 785,-171.5 791,-171.5"/>
<text text-anchor="middle" x="855" y="-369.3" font-family="Times,serif" font-size="14.00">BuildingTypesController</text>
<polyline fill="none" stroke="black" points="779,-361.5 931,-361.5 "/>
<text text-anchor="start" x="787" y="-346.3" font-family="Times,serif" font-size="14.00">create</text>
<text text-anchor="start" x="787" y="-331.3" font-family="Times,serif" font-size="14.00">destroy</text>
<text text-anchor="start" x="787" y="-316.3" font-family="Times,serif" font-size="14.00">edit</text>
<text text-anchor="start" x="787" y="-301.3" font-family="Times,serif" font-size="14.00">index</text>
<text text-anchor="start" x="787" y="-286.3" font-family="Times,serif" font-size="14.00">new</text>
<text text-anchor="start" x="787" y="-271.3" font-family="Times,serif" font-size="14.00">show</text>
<text text-anchor="start" x="787" y="-256.3" font-family="Times,serif" font-size="14.00">update</text>
<polyline fill="none" stroke="black" points="779,-248.5 931,-248.5 "/>
<polyline fill="none" stroke="black" points="779,-224.5 931,-224.5 "/>
<text text-anchor="start" x="787" y="-209.3" font-family="Times,serif" font-size="14.00">_layout</text>
<text text-anchor="start" x="787" y="-194.3" font-family="Times,serif" font-size="14.00">building_type_params</text>
<text text-anchor="start" x="787" y="-179.3" font-family="Times,serif" font-size="14.00">set_building_type</text>
</g>
<!-- ApplicationController -->
<g id="node16" class="node"><title>ApplicationController</title>
<path fill="none" stroke="black" d="M430,-912.5C430,-912.5 582,-912.5 582,-912.5 588,-912.5 594,-918.5 594,-924.5 594,-924.5 594,-1023.5 594,-1023.5 594,-1029.5 588,-1035.5 582,-1035.5 582,-1035.5 430,-1035.5 430,-1035.5 424,-1035.5 418,-1029.5 418,-1023.5 418,-1023.5 418,-924.5 418,-924.5 418,-918.5 424,-912.5 430,-912.5"/>
<text text-anchor="middle" x="506" y="-1020.3" font-family="Times,serif" font-size="14.00">ApplicationController</text>
<polyline fill="none" stroke="black" points="418,-1012.5 594,-1012.5 "/>
<text text-anchor="start" x="426" y="-997.3" font-family="Times,serif" font-size="14.00">after_sign_in_path_for</text>
<text text-anchor="start" x="426" y="-982.3" font-family="Times,serif" font-size="14.00">after_sign_out_path_for</text>
<polyline fill="none" stroke="black" points="418,-974.5 594,-974.5 "/>
<polyline fill="none" stroke="black" points="418,-950.5 594,-950.5 "/>
<text text-anchor="start" x="426" y="-935.3" font-family="Times,serif" font-size="14.00">_layout</text>
<text text-anchor="start" x="426" y="-920.3" font-family="Times,serif" font-size="14.00">do_not_check_authorization?</text>
</g>
<!-- StreamController -->
<g id="node17" class="node"><title>StreamController</title>
<path fill="none" stroke="black" d="M202,-19.5C202,-19.5 289,-19.5 289,-19.5 295,-19.5 301,-25.5 301,-31.5 301,-31.5 301,-145.5 301,-145.5 301,-151.5 295,-157.5 289,-157.5 289,-157.5 202,-157.5 202,-157.5 196,-157.5 190,-151.5 190,-145.5 190,-145.5 190,-31.5 190,-31.5 190,-25.5 196,-19.5 202,-19.5"/>
<text text-anchor="middle" x="245.5" y="-142.3" font-family="Times,serif" font-size="14.00">StreamController</text>
<polyline fill="none" stroke="black" points="190,-134.5 301,-134.5 "/>
<text text-anchor="start" x="198" y="-119.3" font-family="Times,serif" font-size="14.00">addevent</text>
<text text-anchor="start" x="198" y="-104.3" font-family="Times,serif" font-size="14.00">clusterfeed</text>
<text text-anchor="start" x="198" y="-89.3" font-family="Times,serif" font-size="14.00">meter</text>
<text text-anchor="start" x="198" y="-74.3" font-family="Times,serif" font-size="14.00">prosumer</text>
<polyline fill="none" stroke="black" points="190,-66.5 301,-66.5 "/>
<polyline fill="none" stroke="black" points="190,-42.5 301,-42.5 "/>
<text text-anchor="start" x="198" y="-27.3" font-family="Times,serif" font-size="14.00">_layout</text>
</g>
<!-- UsersController -->
<g id="node18" class="node"><title>UsersController</title>
<path fill="none" stroke="black" d="M392,-76.5C392,-76.5 471,-76.5 471,-76.5 477,-76.5 483,-82.5 483,-88.5 483,-88.5 483,-277.5 483,-277.5 483,-283.5 477,-289.5 471,-289.5 471,-289.5 392,-289.5 392,-289.5 386,-289.5 380,-283.5 380,-277.5 380,-277.5 380,-88.5 380,-88.5 380,-82.5 386,-76.5 392,-76.5"/>
<text text-anchor="middle" x="431.5" y="-274.3" font-family="Times,serif" font-size="14.00">UsersController</text>
<polyline fill="none" stroke="black" points="380,-266.5 483,-266.5 "/>
<text text-anchor="start" x="388" y="-251.3" font-family="Times,serif" font-size="14.00">create</text>
<text text-anchor="start" x="388" y="-236.3" font-family="Times,serif" font-size="14.00">destroy</text>
<text text-anchor="start" x="388" y="-221.3" font-family="Times,serif" font-size="14.00">edit</text>
<text text-anchor="start" x="388" y="-206.3" font-family="Times,serif" font-size="14.00">index</text>
<text text-anchor="start" x="388" y="-191.3" font-family="Times,serif" font-size="14.00">new</text>
<text text-anchor="start" x="388" y="-176.3" font-family="Times,serif" font-size="14.00">show</text>
<text text-anchor="start" x="388" y="-161.3" font-family="Times,serif" font-size="14.00">update</text>
<polyline fill="none" stroke="black" points="380,-153.5 483,-153.5 "/>
<polyline fill="none" stroke="black" points="380,-129.5 483,-129.5 "/>
<text text-anchor="start" x="388" y="-114.3" font-family="Times,serif" font-size="14.00">_layout</text>
<text text-anchor="start" x="388" y="-99.3" font-family="Times,serif" font-size="14.00">set_user</text>
<text text-anchor="start" x="388" y="-84.3" font-family="Times,serif" font-size="14.00">user_params</text>
</g>
<!-- EnergyPricesController -->
<g id="node19" class="node"><title>EnergyPricesController</title>
<path fill="none" stroke="black" d="M810,-418.5C810,-418.5 930,-418.5 930,-418.5 936,-418.5 942,-424.5 942,-430.5 942,-430.5 942,-619.5 942,-619.5 942,-625.5 936,-631.5 930,-631.5 930,-631.5 810,-631.5 810,-631.5 804,-631.5 798,-625.5 798,-619.5 798,-619.5 798,-430.5 798,-430.5 798,-424.5 804,-418.5 810,-418.5"/>
<text text-anchor="middle" x="870" y="-616.3" font-family="Times,serif" font-size="14.00">EnergyPricesController</text>
<polyline fill="none" stroke="black" points="798,-608.5 942,-608.5 "/>
<text text-anchor="start" x="806" y="-593.3" font-family="Times,serif" font-size="14.00">create</text>
<text text-anchor="start" x="806" y="-578.3" font-family="Times,serif" font-size="14.00">destroy</text>
<text text-anchor="start" x="806" y="-563.3" font-family="Times,serif" font-size="14.00">edit</text>
<text text-anchor="start" x="806" y="-548.3" font-family="Times,serif" font-size="14.00">index</text>
<text text-anchor="start" x="806" y="-533.3" font-family="Times,serif" font-size="14.00">new</text>
<text text-anchor="start" x="806" y="-518.3" font-family="Times,serif" font-size="14.00">show</text>
<text text-anchor="start" x="806" y="-503.3" font-family="Times,serif" font-size="14.00">update</text>
<polyline fill="none" stroke="black" points="798,-495.5 942,-495.5 "/>
<polyline fill="none" stroke="black" points="798,-471.5 942,-471.5 "/>
<text text-anchor="start" x="806" y="-456.3" font-family="Times,serif" font-size="14.00">_layout</text>
<text text-anchor="start" x="806" y="-441.3" font-family="Times,serif" font-size="14.00">energy_price_params</text>
<text text-anchor="start" x="806" y="-426.3" font-family="Times,serif" font-size="14.00">set_energy_price</text>
</g>
<!-- CloudPlatformController -->
<g id="node20" class="node"><title>CloudPlatformController</title>
<path fill="none" stroke="black" d="M12,-19.5C12,-19.5 141,-19.5 141,-19.5 147,-19.5 153,-25.5 153,-31.5 153,-31.5 153,-175.5 153,-175.5 153,-181.5 147,-187.5 141,-187.5 141,-187.5 12,-187.5 12,-187.5 6,-187.5 -5.68434e-14,-181.5 -5.68434e-14,-175.5 -5.68434e-14,-175.5 -5.68434e-14,-31.5 -5.68434e-14,-31.5 -5.68434e-14,-25.5 6,-19.5 12,-19.5"/>
<text text-anchor="middle" x="76.5" y="-172.3" font-family="Times,serif" font-size="14.00">CloudPlatformController</text>
<polyline fill="none" stroke="black" points="-5.68434e-14,-164.5 153,-164.5 "/>
<text text-anchor="start" x="8" y="-149.3" font-family="Times,serif" font-size="14.00">chart</text>
<text text-anchor="start" x="8" y="-134.3" font-family="Times,serif" font-size="14.00">chartData</text>
<text text-anchor="start" x="8" y="-119.3" font-family="Times,serif" font-size="14.00">delete</text>
<text text-anchor="start" x="8" y="-104.3" font-family="Times,serif" font-size="14.00">execute</text>
<text text-anchor="start" x="8" y="-89.3" font-family="Times,serif" font-size="14.00">index</text>
<text text-anchor="start" x="8" y="-74.3" font-family="Times,serif" font-size="14.00">instances</text>
<polyline fill="none" stroke="black" points="-5.68434e-14,-66.5 153,-66.5 "/>
<polyline fill="none" stroke="black" points="-5.68434e-14,-42.5 153,-42.5 "/>
<text text-anchor="start" x="8" y="-27.3" font-family="Times,serif" font-size="14.00">_layout</text>
</g>
<!-- DayAheadsController -->
<g id="node21" class="node"><title>DayAheadsController</title>
<path fill="none" stroke="black" d="M810,-665.5C810,-665.5 921,-665.5 921,-665.5 927,-665.5 933,-671.5 933,-677.5 933,-677.5 933,-896.5 933,-896.5 933,-902.5 927,-908.5 921,-908.5 921,-908.5 810,-908.5 810,-908.5 804,-908.5 798,-902.5 798,-896.5 798,-896.5 798,-677.5 798,-677.5 798,-671.5 804,-665.5 810,-665.5"/>
<text text-anchor="middle" x="865.5" y="-893.3" font-family="Times,serif" font-size="14.00">DayAheadsController</text>
<polyline fill="none" stroke="black" points="798,-885.5 933,-885.5 "/>
<text text-anchor="start" x="806" y="-870.3" font-family="Times,serif" font-size="14.00">create</text>
<text text-anchor="start" x="806" y="-855.3" font-family="Times,serif" font-size="14.00">destroy</text>
<text text-anchor="start" x="806" y="-840.3" font-family="Times,serif" font-size="14.00">edit</text>
<text text-anchor="start" x="806" y="-825.3" font-family="Times,serif" font-size="14.00">index</text>
<text text-anchor="start" x="806" y="-810.3" font-family="Times,serif" font-size="14.00">new</text>
<text text-anchor="start" x="806" y="-795.3" font-family="Times,serif" font-size="14.00">show</text>
<text text-anchor="start" x="806" y="-780.3" font-family="Times,serif" font-size="14.00">update</text>
<polyline fill="none" stroke="black" points="798,-772.5 933,-772.5 "/>
<polyline fill="none" stroke="black" points="798,-748.5 933,-748.5 "/>
<text text-anchor="start" x="806" y="-733.3" font-family="Times,serif" font-size="14.00">_layout</text>
<text text-anchor="start" x="806" y="-718.3" font-family="Times,serif" font-size="14.00">day_ahead_params</text>
<text text-anchor="start" x="806" y="-703.3" font-family="Times,serif" font-size="14.00">set_day_ahead</text>
<text text-anchor="start" x="806" y="-688.3" font-family="Times,serif" font-size="14.00">sort_column</text>
<text text-anchor="start" x="806" y="-673.3" font-family="Times,serif" font-size="14.00">sort_direction</text>
</g>
<!-- RolesController -->
<g id="node22" class="node"><title>RolesController</title>
<path fill="none" stroke="black" d="M69,-228.5C69,-228.5 148,-228.5 148,-228.5 154,-228.5 160,-234.5 160,-240.5 160,-240.5 160,-429.5 160,-429.5 160,-435.5 154,-441.5 148,-441.5 148,-441.5 69,-441.5 69,-441.5 63,-441.5 57,-435.5 57,-429.5 57,-429.5 57,-240.5 57,-240.5 57,-234.5 63,-228.5 69,-228.5"/>
<text text-anchor="middle" x="108.5" y="-426.3" font-family="Times,serif" font-size="14.00">RolesController</text>
<polyline fill="none" stroke="black" points="57,-418.5 160,-418.5 "/>
<text text-anchor="start" x="65" y="-403.3" font-family="Times,serif" font-size="14.00">create</text>
<text text-anchor="start" x="65" y="-388.3" font-family="Times,serif" font-size="14.00">destroy</text>
<text text-anchor="start" x="65" y="-373.3" font-family="Times,serif" font-size="14.00">edit</text>
<text text-anchor="start" x="65" y="-358.3" font-family="Times,serif" font-size="14.00">index</text>
<text text-anchor="start" x="65" y="-343.3" font-family="Times,serif" font-size="14.00">new</text>
<text text-anchor="start" x="65" y="-328.3" font-family="Times,serif" font-size="14.00">show</text>
<text text-anchor="start" x="65" y="-313.3" font-family="Times,serif" font-size="14.00">update</text>
<polyline fill="none" stroke="black" points="57,-305.5 160,-305.5 "/>
<polyline fill="none" stroke="black" points="57,-281.5 160,-281.5 "/>
<text text-anchor="start" x="65" y="-266.3" font-family="Times,serif" font-size="14.00">_layout</text>
<text text-anchor="start" x="65" y="-251.3" font-family="Times,serif" font-size="14.00">role_params</text>
<text text-anchor="start" x="65" y="-236.3" font-family="Times,serif" font-size="14.00">set_role</text>
</g>
<!-- LoginController -->
<g id="node23" class="node"><title>LoginController</title>
<path fill="none" stroke="black" d="M962,-950.5C962,-950.5 1042,-950.5 1042,-950.5 1048,-950.5 1054,-956.5 1054,-962.5 1054,-962.5 1054,-1061.5 1054,-1061.5 1054,-1067.5 1048,-1073.5 1042,-1073.5 1042,-1073.5 962,-1073.5 962,-1073.5 956,-1073.5 950,-1067.5 950,-1061.5 950,-1061.5 950,-962.5 950,-962.5 950,-956.5 956,-950.5 962,-950.5"/>
<text text-anchor="middle" x="1002" y="-1058.3" font-family="Times,serif" font-size="14.00">LoginController</text>
<polyline fill="none" stroke="black" points="950,-1050.5 1054,-1050.5 "/>
<text text-anchor="start" x="958" y="-1035.3" font-family="Times,serif" font-size="14.00">index</text>
<text text-anchor="start" x="958" y="-1020.3" font-family="Times,serif" font-size="14.00">signin</text>
<text text-anchor="start" x="958" y="-1005.3" font-family="Times,serif" font-size="14.00">signout</text>
<polyline fill="none" stroke="black" points="950,-997.5 1054,-997.5 "/>
<polyline fill="none" stroke="black" points="950,-973.5 1054,-973.5 "/>
<text text-anchor="start" x="958" y="-958.3" font-family="Times,serif" font-size="14.00">_layout</text>
</g>
</g>
</svg>
