<?xml version="1.0" encoding="UTF-8" standalone="no"?>
<!DOCTYPE svg PUBLIC "-//W3C//DTD SVG 1.1//EN"
 "http://www.w3.org/Graphics/SVG/1.1/DTD/svg11.dtd">
<!-- Generated by graphviz version 2.36.0 (20140111.2315)
 -->
<!-- Title: controllers_diagram Pages: 1 -->
<svg width="1069pt" height="1108pt"
 viewBox="0.00 0.00 1069.00 1108.00" xmlns="http://www.w3.org/2000/svg" xmlns:xlink="http://www.w3.org/1999/xlink">
<g id="graph0" class="graph" transform="scale(1 1) rotate(0) translate(4 1104)">
<title>controllers_diagram</title>
<polygon fill="white" stroke="none" points="-4,4 -4,-1104 1065,-1104 1065,4 -4,4"/>
<!-- _diagram_info -->
<g id="node1" class="node"><title>_diagram_info</title>
<text text-anchor="start" x="84" y="-139.6" font-family="Times,serif" font-size="13.00">Controllers diagram</text>
<text text-anchor="start" x="84" y="-125.6" font-family="Times,serif" font-size="13.00">Date: Mar 30 2015 &#45; 18:16</text>
<text text-anchor="start" x="84" y="-111.6" font-family="Times,serif" font-size="13.00">Migration version: 20150204132935</text>
<text text-anchor="start" x="84" y="-97.6" font-family="Times,serif" font-size="13.00">Generated by RailRoady 1.3.0</text>
<text text-anchor="start" x="84" y="-83.6" font-family="Times,serif" font-size="13.00">http://railroady.prestonlee.com</text>
</g>
<!-- HomeController -->
<g id="node2" class="node"><title>HomeController</title>
<path fill="none" stroke="black" d="M658,-931.5C658,-931.5 744,-931.5 744,-931.5 750,-931.5 756,-937.5 756,-943.5 756,-943.5 756,-1087.5 756,-1087.5 756,-1093.5 750,-1099.5 744,-1099.5 744,-1099.5 658,-1099.5 658,-1099.5 652,-1099.5 646,-1093.5 646,-1087.5 646,-1087.5 646,-943.5 646,-943.5 646,-937.5 652,-931.5 658,-931.5"/>
<text text-anchor="middle" x="701" y="-1084.3" font-family="Times,serif" font-size="14.00">HomeController</text>
<polyline fill="none" stroke="black" points="646,-1076.5 756,-1076.5 "/>
<text text-anchor="start" x="654" y="-1061.3" font-family="Times,serif" font-size="14.00">energyPrice</text>
<text text-anchor="start" x="654" y="-1046.3" font-family="Times,serif" font-size="14.00">energyType</text>
<text text-anchor="start" x="654" y="-1031.3" font-family="Times,serif" font-size="14.00">index</text>
<text text-anchor="start" x="654" y="-1016.3" font-family="Times,serif" font-size="14.00">top5Consumers</text>
<text text-anchor="start" x="654" y="-1001.3" font-family="Times,serif" font-size="14.00">top5Producers</text>
<text text-anchor="start" x="654" y="-986.3" font-family="Times,serif" font-size="14.00">totalProsumption</text>
<polyline fill="none" stroke="black" points="646,-978.5 756,-978.5 "/>
<polyline fill="none" stroke="black" points="646,-954.5 756,-954.5 "/>
<text text-anchor="start" x="654" y="-939.3" font-family="Times,serif" font-size="14.00">_layout</text>
</g>
<!-- MetersController -->
<g id="node3" class="node"><title>MetersController</title>
<path fill="none" stroke="black" d="M582,-133.5C582,-133.5 668,-133.5 668,-133.5 674,-133.5 680,-139.5 680,-145.5 680,-145.5 680,-334.5 680,-334.5 680,-340.5 674,-346.5 668,-346.5 668,-346.5 582,-346.5 582,-346.5 576,-346.5 570,-340.5 570,-334.5 570,-334.5 570,-145.5 570,-145.5 570,-139.5 576,-133.5 582,-133.5"/>
<text text-anchor="middle" x="625" y="-331.3" font-family="Times,serif" font-size="14.00">MetersController</text>
<polyline fill="none" stroke="black" points="570,-323.5 680,-323.5 "/>
<text text-anchor="start" x="578" y="-308.3" font-family="Times,serif" font-size="14.00">create</text>
<text text-anchor="start" x="578" y="-293.3" font-family="Times,serif" font-size="14.00">destroy</text>
<text text-anchor="start" x="578" y="-278.3" font-family="Times,serif" font-size="14.00">edit</text>
<text text-anchor="start" x="578" y="-263.3" font-family="Times,serif" font-size="14.00">index</text>
<text text-anchor="start" x="578" y="-248.3" font-family="Times,serif" font-size="14.00">new</text>
<text text-anchor="start" x="578" y="-233.3" font-family="Times,serif" font-size="14.00">show</text>
<text text-anchor="start" x="578" y="-218.3" font-family="Times,serif" font-size="14.00">update</text>
<polyline fill="none" stroke="black" points="570,-210.5 680,-210.5 "/>
<polyline fill="none" stroke="black" points="570,-186.5 680,-186.5 "/>
<text text-anchor="start" x="578" y="-171.3" font-family="Times,serif" font-size="14.00">_layout</text>
<text text-anchor="start" x="578" y="-156.3" font-family="Times,serif" font-size="14.00">meter_params</text>
<text text-anchor="start" x="578" y="-141.3" font-family="Times,serif" font-size="14.00">set_meter</text>
</g>
<!-- EnergyTypesController -->
<g id="node4" class="node"><title>EnergyTypesController</title>
<path fill="none" stroke="black" d="M240,-722.5C240,-722.5 360,-722.5 360,-722.5 366,-722.5 372,-728.5 372,-734.5 372,-734.5 372,-923.5 372,-923.5 372,-929.5 366,-935.5 360,-935.5 360,-935.5 240,-935.5 240,-935.5 234,-935.5 228,-929.5 228,-923.5 228,-923.5 228,-734.5 228,-734.5 228,-728.5 234,-722.5 240,-722.5"/>
<text text-anchor="middle" x="300" y="-920.3" font-family="Times,serif" font-size="14.00">EnergyTypesController</text>
<polyline fill="none" stroke="black" points="228,-912.5 372,-912.5 "/>
<text text-anchor="start" x="236" y="-897.3" font-family="Times,serif" font-size="14.00">create</text>
<text text-anchor="start" x="236" y="-882.3" font-family="Times,serif" font-size="14.00">destroy</text>
<text text-anchor="start" x="236" y="-867.3" font-family="Times,serif" font-size="14.00">edit</text>
<text text-anchor="start" x="236" y="-852.3" font-family="Times,serif" font-size="14.00">index</text>
<text text-anchor="start" x="236" y="-837.3" font-family="Times,serif" font-size="14.00">new</text>
<text text-anchor="start" x="236" y="-822.3" font-family="Times,serif" font-size="14.00">show</text>
<text text-anchor="start" x="236" y="-807.3" font-family="Times,serif" font-size="14.00">update</text>
<polyline fill="none" stroke="black" points="228,-799.5 372,-799.5 "/>
<polyline fill="none" stroke="black" points="228,-775.5 372,-775.5 "/>
<text text-anchor="start" x="236" y="-760.3" font-family="Times,serif" font-size="14.00">_layout</text>
<text text-anchor="start" x="236" y="-745.3" font-family="Times,serif" font-size="14.00">energy_type_params</text>
<text text-anchor="start" x="236" y="-730.3" font-family="Times,serif" font-size="14.00">set_energy_type</text>
</g>
<!-- IntervalsController -->
<g id="node5" class="node"><title>IntervalsController</title>
<path fill="none" stroke="black" d="M810,-703.5C810,-703.5 905,-703.5 905,-703.5 911,-703.5 917,-709.5 917,-715.5 917,-715.5 917,-904.5 917,-904.5 917,-910.5 911,-916.5 905,-916.5 905,-916.5 810,-916.5 810,-916.5 804,-916.5 798,-910.5 798,-904.5 798,-904.5 798,-715.5 798,-715.5 798,-709.5 804,-703.5 810,-703.5"/>
<text text-anchor="middle" x="857.5" y="-901.3" font-family="Times,serif" font-size="14.00">IntervalsController</text>
<polyline fill="none" stroke="black" points="798,-893.5 917,-893.5 "/>
<text text-anchor="start" x="806" y="-878.3" font-family="Times,serif" font-size="14.00">create</text>
<text text-anchor="start" x="806" y="-863.3" font-family="Times,serif" font-size="14.00">destroy</text>
<text text-anchor="start" x="806" y="-848.3" font-family="Times,serif" font-size="14.00">edit</text>
<text text-anchor="start" x="806" y="-833.3" font-family="Times,serif" font-size="14.00">index</text>
<text text-anchor="start" x="806" y="-818.3" font-family="Times,serif" font-size="14.00">new</text>
<text text-anchor="start" x="806" y="-803.3" font-family="Times,serif" font-size="14.00">show</text>
<text text-anchor="start" x="806" y="-788.3" font-family="Times,serif" font-size="14.00">update</text>
<polyline fill="none" stroke="black" points="798,-780.5 917,-780.5 "/>
<polyline fill="none" stroke="black" points="798,-756.5 917,-756.5 "/>
<text text-anchor="start" x="806" y="-741.3" font-family="Times,serif" font-size="14.00">_layout</text>
<text text-anchor="start" x="806" y="-726.3" font-family="Times,serif" font-size="14.00">interval_params</text>
<text text-anchor="start" x="806" y="-711.3" font-family="Times,serif" font-size="14.00">set_interval</text>
</g>
<!-- ClusteringsController -->
<g id="node6" class="node"><title>ClusteringsController</title>
<path fill="none" stroke="black" d="M411,-323.5C411,-323.5 521,-323.5 521,-323.5 527,-323.5 533,-329.5 533,-335.5 533,-335.5 533,-614.5 533,-614.5 533,-620.5 527,-626.5 521,-626.5 521,-626.5 411,-626.5 411,-626.5 405,-626.5 399,-620.5 399,-614.5 399,-614.5 399,-335.5 399,-335.5 399,-329.5 405,-323.5 411,-323.5"/>
<text text-anchor="middle" x="466" y="-611.3" font-family="Times,serif" font-size="14.00">ClusteringsController</text>
<polyline fill="none" stroke="black" points="399,-603.5 533,-603.5 "/>
<text text-anchor="start" x="407" y="-588.3" font-family="Times,serif" font-size="14.00">apply</text>
<text text-anchor="start" x="407" y="-573.3" font-family="Times,serif" font-size="14.00">confirm</text>
<text text-anchor="start" x="407" y="-558.3" font-family="Times,serif" font-size="14.00">create</text>
<text text-anchor="start" x="407" y="-543.3" font-family="Times,serif" font-size="14.00">destroy</text>
<text text-anchor="start" x="407" y="-528.3" font-family="Times,serif" font-size="14.00">edit</text>
<text text-anchor="start" x="407" y="-513.3" font-family="Times,serif" font-size="14.00">index</text>
<text text-anchor="start" x="407" y="-498.3" font-family="Times,serif" font-size="14.00">new</text>
<text text-anchor="start" x="407" y="-483.3" font-family="Times,serif" font-size="14.00">new_from_existing</text>
<text text-anchor="start" x="407" y="-468.3" font-family="Times,serif" font-size="14.00">save</text>
<text text-anchor="start" x="407" y="-453.3" font-family="Times,serif" font-size="14.00">select</text>
<text text-anchor="start" x="407" y="-438.3" font-family="Times,serif" font-size="14.00">show</text>
<text text-anchor="start" x="407" y="-423.3" font-family="Times,serif" font-size="14.00">update</text>
<polyline fill="none" stroke="black" points="399,-415.5 533,-415.5 "/>
<polyline fill="none" stroke="black" points="399,-391.5 533,-391.5 "/>
<text text-anchor="start" x="407" y="-376.3" font-family="Times,serif" font-size="14.00">_layout</text>
<text text-anchor="start" x="407" y="-361.3" font-family="Times,serif" font-size="14.00">algorithms</text>
<text text-anchor="start" x="407" y="-346.3" font-family="Times,serif" font-size="14.00">clustering_params</text>
<text text-anchor="start" x="407" y="-331.3" font-family="Times,serif" font-size="14.00">set_clustering</text>
</g>
<!-- ClustersController -->
<g id="node7" class="node"><title>ClustersController</title>
<path fill="none" stroke="black" d="M88,-475.5C88,-475.5 180,-475.5 180,-475.5 186,-475.5 192,-481.5 192,-487.5 192,-487.5 192,-691.5 192,-691.5 192,-697.5 186,-703.5 180,-703.5 180,-703.5 88,-703.5 88,-703.5 82,-703.5 76,-697.5 76,-691.5 76,-691.5 76,-487.5 76,-487.5 76,-481.5 82,-475.5 88,-475.5"/>
<text text-anchor="middle" x="134" y="-688.3" font-family="Times,serif" font-size="14.00">ClustersController</text>
<polyline fill="none" stroke="black" points="76,-680.5 192,-680.5 "/>
<text text-anchor="start" x="84" y="-665.3" font-family="Times,serif" font-size="14.00">addprosumer</text>
<text text-anchor="start" x="84" y="-650.3" font-family="Times,serif" font-size="14.00">create</text>
<text text-anchor="start" x="84" y="-635.3" font-family="Times,serif" font-size="14.00">destroy</text>
<text text-anchor="start" x="84" y="-620.3" font-family="Times,serif" font-size="14.00">edit</text>
<text text-anchor="start" x="84" y="-605.3" font-family="Times,serif" font-size="14.00">index</text>
<text text-anchor="start" x="84" y="-590.3" font-family="Times,serif" font-size="14.00">new</text>
<text text-anchor="start" x="84" y="-575.3" font-family="Times,serif" font-size="14.00">show</text>
<text text-anchor="start" x="84" y="-560.3" font-family="Times,serif" font-size="14.00">update</text>
<polyline fill="none" stroke="black" points="76,-552.5 192,-552.5 "/>
<polyline fill="none" stroke="black" points="76,-528.5 192,-528.5 "/>
<text text-anchor="start" x="84" y="-513.3" font-family="Times,serif" font-size="14.00">_layout</text>
<text text-anchor="start" x="84" y="-498.3" font-family="Times,serif" font-size="14.00">cluster_params</text>
<text text-anchor="start" x="84" y="-483.3" font-family="Times,serif" font-size="14.00">set_cluster</text>
</g>
<!-- DataPointsController -->
<g id="node8" class="node"><title>DataPointsController</title>
<path fill="none" stroke="black" d="M240,-437.5C240,-437.5 347,-437.5 347,-437.5 353,-437.5 359,-443.5 359,-449.5 359,-449.5 359,-668.5 359,-668.5 359,-674.5 353,-680.5 347,-680.5 347,-680.5 240,-680.5 240,-680.5 234,-680.5 228,-674.5 228,-668.5 228,-668.5 228,-449.5 228,-449.5 228,-443.5 234,-437.5 240,-437.5"/>
<text text-anchor="middle" x="293.5" y="-665.3" font-family="Times,serif" font-size="14.00">DataPointsController</text>
<polyline fill="none" stroke="black" points="228,-657.5 359,-657.5 "/>
<text text-anchor="start" x="236" y="-642.3" font-family="Times,serif" font-size="14.00">create</text>
<text text-anchor="start" x="236" y="-627.3" font-family="Times,serif" font-size="14.00">destroy</text>
<text text-anchor="start" x="236" y="-612.3" font-family="Times,serif" font-size="14.00">edit</text>
<text text-anchor="start" x="236" y="-597.3" font-family="Times,serif" font-size="14.00">index</text>
<text text-anchor="start" x="236" y="-582.3" font-family="Times,serif" font-size="14.00">new</text>
<text text-anchor="start" x="236" y="-567.3" font-family="Times,serif" font-size="14.00">show</text>
<text text-anchor="start" x="236" y="-552.3" font-family="Times,serif" font-size="14.00">update</text>
<polyline fill="none" stroke="black" points="228,-544.5 359,-544.5 "/>
<polyline fill="none" stroke="black" points="228,-520.5 359,-520.5 "/>
<text text-anchor="start" x="236" y="-505.3" font-family="Times,serif" font-size="14.00">_layout</text>
<text text-anchor="start" x="236" y="-490.3" font-family="Times,serif" font-size="14.00">data_point_params</text>
<text text-anchor="start" x="236" y="-475.3" font-family="Times,serif" font-size="14.00">set_data_point</text>
<text text-anchor="start" x="236" y="-460.3" font-family="Times,serif" font-size="14.00">sort_column</text>
<text text-anchor="start" x="236" y="-445.3" font-family="Times,serif" font-size="14.00">sort_direction</text>
</g>
<!-- IntellenMockController -->
<g id="node9" class="node"><title>IntellenMockController</title>
<path fill="none" stroke="black" d="M924,-19.5C924,-19.5 1046,-19.5 1046,-19.5 1052,-19.5 1058,-25.5 1058,-31.5 1058,-31.5 1058,-115.5 1058,-115.5 1058,-121.5 1052,-127.5 1046,-127.5 1046,-127.5 924,-127.5 924,-127.5 918,-127.5 912,-121.5 912,-115.5 912,-115.5 912,-31.5 912,-31.5 912,-25.5 918,-19.5 924,-19.5"/>
<text text-anchor="middle" x="985" y="-112.3" font-family="Times,serif" font-size="14.00">IntellenMockController</text>
<polyline fill="none" stroke="black" points="912,-104.5 1058,-104.5 "/>
<text text-anchor="start" x="920" y="-89.3" font-family="Times,serif" font-size="14.00">getdata</text>
<text text-anchor="start" x="920" y="-74.3" font-family="Times,serif" font-size="14.00">getdayahead</text>
<polyline fill="none" stroke="black" points="912,-66.5 1058,-66.5 "/>
<polyline fill="none" stroke="black" points="912,-42.5 1058,-42.5 "/>
<text text-anchor="start" x="920" y="-27.3" font-family="Times,serif" font-size="14.00">_layout</text>
</g>
<!-- MarketPricesController -->
<g id="node10" class="node"><title>MarketPricesController</title>
<path fill="none" stroke="black" d="M734,-19.5C734,-19.5 855,-19.5 855,-19.5 861,-19.5 867,-25.5 867,-31.5 867,-31.5 867,-130.5 867,-130.5 867,-136.5 861,-142.5 855,-142.5 855,-142.5 734,-142.5 734,-142.5 728,-142.5 722,-136.5 722,-130.5 722,-130.5 722,-31.5 722,-31.5 722,-25.5 728,-19.5 734,-19.5"/>
<text text-anchor="middle" x="794.5" y="-127.3" font-family="Times,serif" font-size="14.00">MarketPricesController</text>
<polyline fill="none" stroke="black" points="722,-119.5 867,-119.5 "/>
<text text-anchor="start" x="730" y="-104.3" font-family="Times,serif" font-size="14.00">dayAhead</text>
<text text-anchor="start" x="730" y="-89.3" font-family="Times,serif" font-size="14.00">index</text>
<text text-anchor="start" x="730" y="-74.3" font-family="Times,serif" font-size="14.00">intraDay</text>
<polyline fill="none" stroke="black" points="722,-66.5 867,-66.5 "/>
<polyline fill="none" stroke="black" points="722,-42.5 867,-42.5 "/>
<text text-anchor="start" x="730" y="-27.3" font-family="Times,serif" font-size="14.00">_layout</text>
</g>
<!-- ConnectionTypesController -->
<g id="node11" class="node"><title>ConnectionTypesController</title>
<path fill="none" stroke="black" d="M582,-380.5C582,-380.5 725,-380.5 725,-380.5 731,-380.5 737,-386.5 737,-392.5 737,-392.5 737,-581.5 737,-581.5 737,-587.5 731,-593.5 725,-593.5 725,-593.5 582,-593.5 582,-593.5 576,-593.5 570,-587.5 570,-581.5 570,-581.5 570,-392.5 570,-392.5 570,-386.5 576,-380.5 582,-380.5"/>
<text text-anchor="middle" x="653.5" y="-578.3" font-family="Times,serif" font-size="14.00">ConnectionTypesController</text>
<polyline fill="none" stroke="black" points="570,-570.5 737,-570.5 "/>
<text text-anchor="start" x="578" y="-555.3" font-family="Times,serif" font-size="14.00">create</text>
<text text-anchor="start" x="578" y="-540.3" font-family="Times,serif" font-size="14.00">destroy</text>
<text text-anchor="start" x="578" y="-525.3" font-family="Times,serif" font-size="14.00">edit</text>
<text text-anchor="start" x="578" y="-510.3" font-family="Times,serif" font-size="14.00">index</text>
<text text-anchor="start" x="578" y="-495.3" font-family="Times,serif" font-size="14.00">new</text>
<text text-anchor="start" x="578" y="-480.3" font-family="Times,serif" font-size="14.00">show</text>
<text text-anchor="start" x="578" y="-465.3" font-family="Times,serif" font-size="14.00">update</text>
<polyline fill="none" stroke="black" points="570,-457.5 737,-457.5 "/>
<polyline fill="none" stroke="black" points="570,-433.5 737,-433.5 "/>
<text text-anchor="start" x="578" y="-418.3" font-family="Times,serif" font-size="14.00">_layout</text>
<text text-anchor="start" x="578" y="-403.3" font-family="Times,serif" font-size="14.00">connection_type_params</text>
<text text-anchor="start" x="578" y="-388.3" font-family="Times,serif" font-size="14.00">set_connection_type</text>
</g>
<!-- ProsumersController -->
<g id="node12" class="node"><title>ProsumersController</title>
<path fill="none" stroke="black" d="M639,-627.5C639,-627.5 745,-627.5 745,-627.5 751,-627.5 757,-633.5 757,-639.5 757,-639.5 757,-873.5 757,-873.5 757,-879.5 751,-885.5 745,-885.5 745,-885.5 639,-885.5 639,-885.5 633,-885.5 627,-879.5 627,-873.5 627,-873.5 627,-639.5 627,-639.5 627,-633.5 633,-627.5 639,-627.5"/>
<text text-anchor="middle" x="692" y="-870.3" font-family="Times,serif" font-size="14.00">ProsumersController</text>
<polyline fill="none" stroke="black" points="627,-862.5 757,-862.5 "/>
<text text-anchor="start" x="635" y="-847.3" font-family="Times,serif" font-size="14.00">create</text>
<text text-anchor="start" x="635" y="-832.3" font-family="Times,serif" font-size="14.00">destroy</text>
<text text-anchor="start" x="635" y="-817.3" font-family="Times,serif" font-size="14.00">edit</text>
<text text-anchor="start" x="635" y="-802.3" font-family="Times,serif" font-size="14.00">index</text>
<text text-anchor="start" x="635" y="-787.3" font-family="Times,serif" font-size="14.00">new</text>
<text text-anchor="start" x="635" y="-772.3" font-family="Times,serif" font-size="14.00">removefromcluster</text>
<text text-anchor="start" x="635" y="-757.3" font-family="Times,serif" font-size="14.00">show</text>
<text text-anchor="start" x="635" y="-742.3" font-family="Times,serif" font-size="14.00">update</text>
<polyline fill="none" stroke="black" points="627,-734.5 757,-734.5 "/>
<polyline fill="none" stroke="black" points="627,-710.5 757,-710.5 "/>
<text text-anchor="start" x="635" y="-695.3" font-family="Times,serif" font-size="14.00">_layout</text>
<text text-anchor="start" x="635" y="-680.3" font-family="Times,serif" font-size="14.00">prosumer_params</text>
<text text-anchor="start" x="635" y="-665.3" font-family="Times,serif" font-size="14.00">set_prosumer</text>
<text text-anchor="start" x="635" y="-650.3" font-family="Times,serif" font-size="14.00">sort_column</text>
<text text-anchor="start" x="635" y="-635.3" font-family="Times,serif" font-size="14.00">sort_direction</text>
</g>
<!-- MachinesController -->
<g id="node13" class="node"><title>MachinesController</title>
<path fill="none" stroke="black" d="M525,-0.5C525,-0.5 626,-0.5 626,-0.5 632,-0.5 638,-6.5 638,-12.5 638,-12.5 638,-81.5 638,-81.5 638,-87.5 632,-93.5 626,-93.5 626,-93.5 525,-93.5 525,-93.5 519,-93.5 513,-87.5 513,-81.5 513,-81.5 513,-12.5 513,-12.5 513,-6.5 519,-0.5 525,-0.5"/>
<text text-anchor="middle" x="575.5" y="-78.3" font-family="Times,serif" font-size="14.00">MachinesController</text>
<polyline fill="none" stroke="black" points="513,-70.5 638,-70.5 "/>
<text text-anchor="start" x="521" y="-55.3" font-family="Times,serif" font-size="14.00">index</text>
<polyline fill="none" stroke="black" points="513,-47.5 638,-47.5 "/>
<polyline fill="none" stroke="black" points="513,-23.5 638,-23.5 "/>
<text text-anchor="start" x="521" y="-8.3" font-family="Times,serif" font-size="14.00">_layout</text>
</g>
<!-- DayAheadHoursController -->
<g id="node14" class="node"><title>DayAheadHoursController</title>
<path fill="none" stroke="black" d="M430,-665.5C430,-665.5 569,-665.5 569,-665.5 575,-665.5 581,-671.5 581,-677.5 581,-677.5 581,-866.5 581,-866.5 581,-872.5 575,-878.5 569,-878.5 569,-878.5 430,-878.5 430,-878.5 424,-878.5 418,-872.5 418,-866.5 418,-866.5 418,-677.5 418,-677.5 418,-671.5 424,-665.5 430,-665.5"/>
<text text-anchor="middle" x="499.5" y="-863.3" font-family="Times,serif" font-size="14.00">DayAheadHoursController</text>
<polyline fill="none" stroke="black" points="418,-855.5 581,-855.5 "/>
<text text-anchor="start" x="426" y="-840.3" font-family="Times,serif" font-size="14.00">create</text>
<text text-anchor="start" x="426" y="-825.3" font-family="Times,serif" font-size="14.00">destroy</text>
<text text-anchor="start" x="426" y="-810.3" font-family="Times,serif" font-size="14.00">edit</text>
<text text-anchor="start" x="426" y="-795.3" font-family="Times,serif" font-size="14.00">index</text>
<text text-anchor="start" x="426" y="-780.3" font-family="Times,serif" font-size="14.00">new</text>
<text text-anchor="start" x="426" y="-765.3" font-family="Times,serif" font-size="14.00">show</text>
<text text-anchor="start" x="426" y="-750.3" font-family="Times,serif" font-size="14.00">update</text>
<polyline fill="none" stroke="black" points="418,-742.5 581,-742.5 "/>
<polyline fill="none" stroke="black" points="418,-718.5 581,-718.5 "/>
<text text-anchor="start" x="426" y="-703.3" font-family="Times,serif" font-size="14.00">_layout</text>
<text text-anchor="start" x="426" y="-688.3" font-family="Times,serif" font-size="14.00">day_ahead_hour_params</text>
<text text-anchor="start" x="426" y="-673.3" font-family="Times,serif" font-size="14.00">set_day_ahead_hour</text>
</g>
<!-- BuildingTypesController -->
<g id="node15" class="node"><title>BuildingTypesController</title>
<path fill="none" stroke="black" d="M202,-190.5C202,-190.5 330,-190.5 330,-190.5 336,-190.5 342,-196.5 342,-202.5 342,-202.5 342,-391.5 342,-391.5 342,-397.5 336,-403.5 330,-403.5 330,-403.5 202,-403.5 202,-403.5 196,-403.5 190,-397.5 190,-391.5 190,-391.5 190,-202.5 190,-202.5 190,-196.5 196,-190.5 202,-190.5"/>
<text text-anchor="middle" x="266" y="-388.3" font-family="Times,serif" font-size="14.00">BuildingTypesController</text>
<polyline fill="none" stroke="black" points="190,-380.5 342,-380.5 "/>
<text text-anchor="start" x="198" y="-365.3" font-family="Times,serif" font-size="14.00">create</text>
<text text-anchor="start" x="198" y="-350.3" font-family="Times,serif" font-size="14.00">destroy</text>
<text text-anchor="start" x="198" y="-335.3" font-family="Times,serif" font-size="14.00">edit</text>
<text text-anchor="start" x="198" y="-320.3" font-family="Times,serif" font-size="14.00">index</text>
<text text-anchor="start" x="198" y="-305.3" font-family="Times,serif" font-size="14.00">new</text>
<text text-anchor="start" x="198" y="-290.3" font-family="Times,serif" font-size="14.00">show</text>
<text text-anchor="start" x="198" y="-275.3" font-family="Times,serif" font-size="14.00">update</text>
<polyline fill="none" stroke="black" points="190,-267.5 342,-267.5 "/>
<polyline fill="none" stroke="black" points="190,-243.5 342,-243.5 "/>
<text text-anchor="start" x="198" y="-228.3" font-family="Times,serif" font-size="14.00">_layout</text>
<text text-anchor="start" x="198" y="-213.3" font-family="Times,serif" font-size="14.00">building_type_params</text>
<text text-anchor="start" x="198" y="-198.3" font-family="Times,serif" font-size="14.00">set_building_type</text>
</g>
<!-- ApplicationController -->
<g id="node16" class="node"><title>ApplicationController</title>
<path fill="none" stroke="black" d="M430,-912.5C430,-912.5 582,-912.5 582,-912.5 588,-912.5 594,-918.5 594,-924.5 594,-924.5 594,-1023.5 594,-1023.5 594,-1029.5 588,-1035.5 582,-1035.5 582,-1035.5 430,-1035.5 430,-1035.5 424,-1035.5 418,-1029.5 418,-1023.5 418,-1023.5 418,-924.5 418,-924.5 418,-918.5 424,-912.5 430,-912.5"/>
<text text-anchor="middle" x="506" y="-1020.3" font-family="Times,serif" font-size="14.00">ApplicationController</text>
<polyline fill="none" stroke="black" points="418,-1012.5 594,-1012.5 "/>
<text text-anchor="start" x="426" y="-997.3" font-family="Times,serif" font-size="14.00">after_sign_in_path_for</text>
<text text-anchor="start" x="426" y="-982.3" font-family="Times,serif" font-size="14.00">after_sign_out_path_for</text>
<polyline fill="none" stroke="black" points="418,-974.5 594,-974.5 "/>
<polyline fill="none" stroke="black" points="418,-950.5 594,-950.5 "/>
<text text-anchor="start" x="426" y="-935.3" font-family="Times,serif" font-size="14.00">_layout</text>
<text text-anchor="start" x="426" y="-920.3" font-family="Times,serif" font-size="14.00">do_not_check_authorization?</text>
</g>
<!-- StreamController -->
<g id="node17" class="node"><title>StreamController</title>
<path fill="none" stroke="black" d="M962,-703.5C962,-703.5 1049,-703.5 1049,-703.5 1055,-703.5 1061,-709.5 1061,-715.5 1061,-715.5 1061,-829.5 1061,-829.5 1061,-835.5 1055,-841.5 1049,-841.5 1049,-841.5 962,-841.5 962,-841.5 956,-841.5 950,-835.5 950,-829.5 950,-829.5 950,-715.5 950,-715.5 950,-709.5 956,-703.5 962,-703.5"/>
<text text-anchor="middle" x="1005.5" y="-826.3" font-family="Times,serif" font-size="14.00">StreamController</text>
<polyline fill="none" stroke="black" points="950,-818.5 1061,-818.5 "/>
<text text-anchor="start" x="958" y="-803.3" font-family="Times,serif" font-size="14.00">addevent</text>
<text text-anchor="start" x="958" y="-788.3" font-family="Times,serif" font-size="14.00">clusterfeed</text>
<text text-anchor="start" x="958" y="-773.3" font-family="Times,serif" font-size="14.00">meter</text>
<text text-anchor="start" x="958" y="-758.3" font-family="Times,serif" font-size="14.00">prosumer</text>
<polyline fill="none" stroke="black" points="950,-750.5 1061,-750.5 "/>
<polyline fill="none" stroke="black" points="950,-726.5 1061,-726.5 "/>
<text text-anchor="start" x="958" y="-711.3" font-family="Times,serif" font-size="14.00">_layout</text>
</g>
<!-- UsersController -->
<g id="node18" class="node"><title>UsersController</title>
<path fill="none" stroke="black" d="M107,-855.5C107,-855.5 186,-855.5 186,-855.5 192,-855.5 198,-861.5 198,-867.5 198,-867.5 198,-1056.5 198,-1056.5 198,-1062.5 192,-1068.5 186,-1068.5 186,-1068.5 107,-1068.5 107,-1068.5 101,-1068.5 95,-1062.5 95,-1056.5 95,-1056.5 95,-867.5 95,-867.5 95,-861.5 101,-855.5 107,-855.5"/>
<text text-anchor="middle" x="146.5" y="-1053.3" font-family="Times,serif" font-size="14.00">UsersController</text>
<polyline fill="none" stroke="black" points="95,-1045.5 198,-1045.5 "/>
<text text-anchor="start" x="103" y="-1030.3" font-family="Times,serif" font-size="14.00">create</text>
<text text-anchor="start" x="103" y="-1015.3" font-family="Times,serif" font-size="14.00">destroy</text>
<text text-anchor="start" x="103" y="-1000.3" font-family="Times,serif" font-size="14.00">edit</text>
<text text-anchor="start" x="103" y="-985.3" font-family="Times,serif" font-size="14.00">index</text>
<text text-anchor="start" x="103" y="-970.3" font-family="Times,serif" font-size="14.00">new</text>
<text text-anchor="start" x="103" y="-955.3" font-family="Times,serif" font-size="14.00">show</text>
<text text-anchor="start" x="103" y="-940.3" font-family="Times,serif" font-size="14.00">update</text>
<polyline fill="none" stroke="black" points="95,-932.5 198,-932.5 "/>
<polyline fill="none" stroke="black" points="95,-908.5 198,-908.5 "/>
<text text-anchor="start" x="103" y="-893.3" font-family="Times,serif" font-size="14.00">_layout</text>
<text text-anchor="start" x="103" y="-878.3" font-family="Times,serif" font-size="14.00">set_user</text>
<text text-anchor="start" x="103" y="-863.3" font-family="Times,serif" font-size="14.00">user_params</text>
</g>
<!-- EnergyPricesController -->
<g id="node19" class="node"><title>EnergyPricesController</title>
<path fill="none" stroke="black" d="M791,-171.5C791,-171.5 911,-171.5 911,-171.5 917,-171.5 923,-177.5 923,-183.5 923,-183.5 923,-372.5 923,-372.5 923,-378.5 917,-384.5 911,-384.5 911,-384.5 791,-384.5 791,-384.5 785,-384.5 779,-378.5 779,-372.5 779,-372.5 779,-183.5 779,-183.5 779,-177.5 785,-171.5 791,-171.5"/>
<text text-anchor="middle" x="851" y="-369.3" font-family="Times,serif" font-size="14.00">EnergyPricesController</text>
<polyline fill="none" stroke="black" points="779,-361.5 923,-361.5 "/>
<text text-anchor="start" x="787" y="-346.3" font-family="Times,serif" font-size="14.00">create</text>
<text text-anchor="start" x="787" y="-331.3" font-family="Times,serif" font-size="14.00">destroy</text>
<text text-anchor="start" x="787" y="-316.3" font-family="Times,serif" font-size="14.00">edit</text>
<text text-anchor="start" x="787" y="-301.3" font-family="Times,serif" font-size="14.00">index</text>
<text text-anchor="start" x="787" y="-286.3" font-family="Times,serif" font-size="14.00">new</text>
<text text-anchor="start" x="787" y="-271.3" font-family="Times,serif" font-size="14.00">show</text>
<text text-anchor="start" x="787" y="-256.3" font-family="Times,serif" font-size="14.00">update</text>
<polyline fill="none" stroke="black" points="779,-248.5 923,-248.5 "/>
<polyline fill="none" stroke="black" points="779,-224.5 923,-224.5 "/>
<text text-anchor="start" x="787" y="-209.3" font-family="Times,serif" font-size="14.00">_layout</text>
<text text-anchor="start" x="787" y="-194.3" font-family="Times,serif" font-size="14.00">energy_price_params</text>
<text text-anchor="start" x="787" y="-179.3" font-family="Times,serif" font-size="14.00">set_energy_price</text>
</g>
<!-- CloudPlatformController -->
<g id="node20" class="node"><title>CloudPlatformController</title>
<path fill="none" stroke="black" d="M12,-285.5C12,-285.5 141,-285.5 141,-285.5 147,-285.5 153,-291.5 153,-297.5 153,-297.5 153,-426.5 153,-426.5 153,-432.5 147,-438.5 141,-438.5 141,-438.5 12,-438.5 12,-438.5 6,-438.5 -5.68434e-14,-432.5 -5.68434e-14,-426.5 -5.68434e-14,-426.5 -5.68434e-14,-297.5 -5.68434e-14,-297.5 -5.68434e-14,-291.5 6,-285.5 12,-285.5"/>
<text text-anchor="middle" x="76.5" y="-423.3" font-family="Times,serif" font-size="14.00">CloudPlatformController</text>
<polyline fill="none" stroke="black" points="-5.68434e-14,-415.5 153,-415.5 "/>
<text text-anchor="start" x="8" y="-400.3" font-family="Times,serif" font-size="14.00">delete</text>
<text text-anchor="start" x="8" y="-385.3" font-family="Times,serif" font-size="14.00">execute</text>
<text text-anchor="start" x="8" y="-370.3" font-family="Times,serif" font-size="14.00">index</text>
<text text-anchor="start" x="8" y="-355.3" font-family="Times,serif" font-size="14.00">instances</text>
<text text-anchor="start" x="8" y="-340.3" font-family="Times,serif" font-size="14.00">responses</text>
<polyline fill="none" stroke="black" points="-5.68434e-14,-332.5 153,-332.5 "/>
<polyline fill="none" stroke="black" points="-5.68434e-14,-308.5 153,-308.5 "/>
<text text-anchor="start" x="8" y="-293.3" font-family="Times,serif" font-size="14.00">_layout</text>
</g>
<!-- DayAheadsController -->
<g id="node21" class="node"><title>DayAheadsController</title>
<path fill="none" stroke="black" d="M810,-418.5C810,-418.5 921,-418.5 921,-418.5 927,-418.5 933,-424.5 933,-430.5 933,-430.5 933,-649.5 933,-649.5 933,-655.5 927,-661.5 921,-661.5 921,-661.5 810,-661.5 810,-661.5 804,-661.5 798,-655.5 798,-649.5 798,-649.5 798,-430.5 798,-430.5 798,-424.5 804,-418.5 810,-418.5"/>
<text text-anchor="middle" x="865.5" y="-646.3" font-family="Times,serif" font-size="14.00">DayAheadsController</text>
<polyline fill="none" stroke="black" points="798,-638.5 933,-638.5 "/>
<text text-anchor="start" x="806" y="-623.3" font-family="Times,serif" font-size="14.00">create</text>
<text text-anchor="start" x="806" y="-608.3" font-family="Times,serif" font-size="14.00">destroy</text>
<text text-anchor="start" x="806" y="-593.3" font-family="Times,serif" font-size="14.00">edit</text>
<text text-anchor="start" x="806" y="-578.3" font-family="Times,serif" font-size="14.00">index</text>
<text text-anchor="start" x="806" y="-563.3" font-family="Times,serif" font-size="14.00">new</text>
<text text-anchor="start" x="806" y="-548.3" font-family="Times,serif" font-size="14.00">show</text>
<text text-anchor="start" x="806" y="-533.3" font-family="Times,serif" font-size="14.00">update</text>
<polyline fill="none" stroke="black" points="798,-525.5 933,-525.5 "/>
<polyline fill="none" stroke="black" points="798,-501.5 933,-501.5 "/>
<text text-anchor="start" x="806" y="-486.3" font-family="Times,serif" font-size="14.00">_layout</text>
<text text-anchor="start" x="806" y="-471.3" font-family="Times,serif" font-size="14.00">day_ahead_params</text>
<text text-anchor="start" x="806" y="-456.3" font-family="Times,serif" font-size="14.00">set_day_ahead</text>
<text text-anchor="start" x="806" y="-441.3" font-family="Times,serif" font-size="14.00">sort_column</text>
<text text-anchor="start" x="806" y="-426.3" font-family="Times,serif" font-size="14.00">sort_direction</text>
</g>
<!-- RolesController -->
<g id="node22" class="node"><title>RolesController</title>
<path fill="none" stroke="black" d="M392,-76.5C392,-76.5 471,-76.5 471,-76.5 477,-76.5 483,-82.5 483,-88.5 483,-88.5 483,-277.5 483,-277.5 483,-283.5 477,-289.5 471,-289.5 471,-289.5 392,-289.5 392,-289.5 386,-289.5 380,-283.5 380,-277.5 380,-277.5 380,-88.5 380,-88.5 380,-82.5 386,-76.5 392,-76.5"/>
<text text-anchor="middle" x="431.5" y="-274.3" font-family="Times,serif" font-size="14.00">RolesController</text>
<polyline fill="none" stroke="black" points="380,-266.5 483,-266.5 "/>
<text text-anchor="start" x="388" y="-251.3" font-family="Times,serif" font-size="14.00">create</text>
<text text-anchor="start" x="388" y="-236.3" font-family="Times,serif" font-size="14.00">destroy</text>
<text text-anchor="start" x="388" y="-221.3" font-family="Times,serif" font-size="14.00">edit</text>
<text text-anchor="start" x="388" y="-206.3" font-family="Times,serif" font-size="14.00">index</text>
<text text-anchor="start" x="388" y="-191.3" font-family="Times,serif" font-size="14.00">new</text>
<text text-anchor="start" x="388" y="-176.3" font-family="Times,serif" font-size="14.00">show</text>
<text text-anchor="start" x="388" y="-161.3" font-family="Times,serif" font-size="14.00">update</text>
<polyline fill="none" stroke="black" points="380,-153.5 483,-153.5 "/>
<polyline fill="none" stroke="black" points="380,-129.5 483,-129.5 "/>
<text text-anchor="start" x="388" y="-114.3" font-family="Times,serif" font-size="14.00">_layout</text>
<text text-anchor="start" x="388" y="-99.3" font-family="Times,serif" font-size="14.00">role_params</text>
<text text-anchor="start" x="388" y="-84.3" font-family="Times,serif" font-size="14.00">set_role</text>
</g>
<!-- LoginController -->
<g id="node23" class="node"><title>LoginController</title>
<path fill="none" stroke="black" d="M962,-874.5C962,-874.5 1042,-874.5 1042,-874.5 1048,-874.5 1054,-880.5 1054,-886.5 1054,-886.5 1054,-985.5 1054,-985.5 1054,-991.5 1048,-997.5 1042,-997.5 1042,-997.5 962,-997.5 962,-997.5 956,-997.5 950,-991.5 950,-985.5 950,-985.5 950,-886.5 950,-886.5 950,-880.5 956,-874.5 962,-874.5"/>
<text text-anchor="middle" x="1002" y="-982.3" font-family="Times,serif" font-size="14.00">LoginController</text>
<polyline fill="none" stroke="black" points="950,-974.5 1054,-974.5 "/>
<text text-anchor="start" x="958" y="-959.3" font-family="Times,serif" font-size="14.00">index</text>
<text text-anchor="start" x="958" y="-944.3" font-family="Times,serif" font-size="14.00">signin</text>
<text text-anchor="start" x="958" y="-929.3" font-family="Times,serif" font-size="14.00">signout</text>
<polyline fill="none" stroke="black" points="950,-921.5 1054,-921.5 "/>
<polyline fill="none" stroke="black" points="950,-897.5 1054,-897.5 "/>
<text text-anchor="start" x="958" y="-882.3" font-family="Times,serif" font-size="14.00">_layout</text>
</g>
</g>
</svg>
