<?xml version="1.0" encoding="UTF-8" standalone="no"?>
<!DOCTYPE svg PUBLIC "-//W3C//DTD SVG 1.1//EN"
 "http://www.w3.org/Graphics/SVG/1.1/DTD/svg11.dtd">
<!-- Generated by graphviz version 2.36.0 (20140111.2315)
 -->
<!-- Title: controllers_diagram Pages: 1 -->
<svg width="1065pt" height="1096pt"
 viewBox="0.00 0.00 1065.00 1096.00" xmlns="http://www.w3.org/2000/svg" xmlns:xlink="http://www.w3.org/1999/xlink">
<g id="graph0" class="graph" transform="scale(1 1) rotate(0) translate(4 1092)">
<title>controllers_diagram</title>
<polygon fill="white" stroke="none" points="-4,4 -4,-1092 1061,-1092 1061,4 -4,4"/>
<!-- _diagram_info -->
<g id="node1" class="node"><title>_diagram_info</title>
<text text-anchor="start" x="673" y="-158.6" font-family="Times,serif" font-size="13.00">Controllers diagram</text>
<text text-anchor="start" x="673" y="-144.6" font-family="Times,serif" font-size="13.00">Date: Jan 30 2015 &#45; 14:39</text>
<text text-anchor="start" x="673" y="-130.6" font-family="Times,serif" font-size="13.00">Migration version: 20150112090723</text>
<text text-anchor="start" x="673" y="-116.6" font-family="Times,serif" font-size="13.00">Generated by RailRoady 1.3.0</text>
<text text-anchor="start" x="673" y="-102.6" font-family="Times,serif" font-size="13.00">http://railroady.prestonlee.com</text>
</g>
<!-- HomeController -->
<g id="node2" class="node"><title>HomeController</title>
<path fill="none" stroke="black" d="M50,-912.5C50,-912.5 136,-912.5 136,-912.5 142,-912.5 148,-918.5 148,-924.5 148,-924.5 148,-1068.5 148,-1068.5 148,-1074.5 142,-1080.5 136,-1080.5 136,-1080.5 50,-1080.5 50,-1080.5 44,-1080.5 38,-1074.5 38,-1068.5 38,-1068.5 38,-924.5 38,-924.5 38,-918.5 44,-912.5 50,-912.5"/>
<text text-anchor="middle" x="93" y="-1065.3" font-family="Times,serif" font-size="14.00">HomeController</text>
<polyline fill="none" stroke="black" points="38,-1057.5 148,-1057.5 "/>
<text text-anchor="start" x="46" y="-1042.3" font-family="Times,serif" font-size="14.00">energyPrice</text>
<text text-anchor="start" x="46" y="-1027.3" font-family="Times,serif" font-size="14.00">energyType</text>
<text text-anchor="start" x="46" y="-1012.3" font-family="Times,serif" font-size="14.00">index</text>
<text text-anchor="start" x="46" y="-997.3" font-family="Times,serif" font-size="14.00">top5Consumers</text>
<text text-anchor="start" x="46" y="-982.3" font-family="Times,serif" font-size="14.00">top5Producers</text>
<text text-anchor="start" x="46" y="-967.3" font-family="Times,serif" font-size="14.00">totalProsumption</text>
<polyline fill="none" stroke="black" points="38,-959.5 148,-959.5 "/>
<polyline fill="none" stroke="black" points="38,-935.5 148,-935.5 "/>
<text text-anchor="start" x="46" y="-920.3" font-family="Times,serif" font-size="14.00">_layout</text>
</g>
<!-- MetersController -->
<g id="node3" class="node"><title>MetersController</title>
<path fill="none" stroke="black" d="M525,-133.5C525,-133.5 611,-133.5 611,-133.5 617,-133.5 623,-139.5 623,-145.5 623,-145.5 623,-334.5 623,-334.5 623,-340.5 617,-346.5 611,-346.5 611,-346.5 525,-346.5 525,-346.5 519,-346.5 513,-340.5 513,-334.5 513,-334.5 513,-145.5 513,-145.5 513,-139.5 519,-133.5 525,-133.5"/>
<text text-anchor="middle" x="568" y="-331.3" font-family="Times,serif" font-size="14.00">MetersController</text>
<polyline fill="none" stroke="black" points="513,-323.5 623,-323.5 "/>
<text text-anchor="start" x="521" y="-308.3" font-family="Times,serif" font-size="14.00">create</text>
<text text-anchor="start" x="521" y="-293.3" font-family="Times,serif" font-size="14.00">destroy</text>
<text text-anchor="start" x="521" y="-278.3" font-family="Times,serif" font-size="14.00">edit</text>
<text text-anchor="start" x="521" y="-263.3" font-family="Times,serif" font-size="14.00">index</text>
<text text-anchor="start" x="521" y="-248.3" font-family="Times,serif" font-size="14.00">new</text>
<text text-anchor="start" x="521" y="-233.3" font-family="Times,serif" font-size="14.00">show</text>
<text text-anchor="start" x="521" y="-218.3" font-family="Times,serif" font-size="14.00">update</text>
<polyline fill="none" stroke="black" points="513,-210.5 623,-210.5 "/>
<polyline fill="none" stroke="black" points="513,-186.5 623,-186.5 "/>
<text text-anchor="start" x="521" y="-171.3" font-family="Times,serif" font-size="14.00">_layout</text>
<text text-anchor="start" x="521" y="-156.3" font-family="Times,serif" font-size="14.00">meter_params</text>
<text text-anchor="start" x="521" y="-141.3" font-family="Times,serif" font-size="14.00">set_meter</text>
</g>
<!-- MeasurementsController -->
<g id="node4" class="node"><title>MeasurementsController</title>
<path fill="none" stroke="black" d="M658,-684.5C658,-684.5 786,-684.5 786,-684.5 792,-684.5 798,-690.5 798,-696.5 798,-696.5 798,-885.5 798,-885.5 798,-891.5 792,-897.5 786,-897.5 786,-897.5 658,-897.5 658,-897.5 652,-897.5 646,-891.5 646,-885.5 646,-885.5 646,-696.5 646,-696.5 646,-690.5 652,-684.5 658,-684.5"/>
<text text-anchor="middle" x="722" y="-882.3" font-family="Times,serif" font-size="14.00">MeasurementsController</text>
<polyline fill="none" stroke="black" points="646,-874.5 798,-874.5 "/>
<text text-anchor="start" x="654" y="-859.3" font-family="Times,serif" font-size="14.00">create</text>
<text text-anchor="start" x="654" y="-844.3" font-family="Times,serif" font-size="14.00">destroy</text>
<text text-anchor="start" x="654" y="-829.3" font-family="Times,serif" font-size="14.00">edit</text>
<text text-anchor="start" x="654" y="-814.3" font-family="Times,serif" font-size="14.00">index</text>
<text text-anchor="start" x="654" y="-799.3" font-family="Times,serif" font-size="14.00">new</text>
<text text-anchor="start" x="654" y="-784.3" font-family="Times,serif" font-size="14.00">show</text>
<text text-anchor="start" x="654" y="-769.3" font-family="Times,serif" font-size="14.00">update</text>
<polyline fill="none" stroke="black" points="646,-761.5 798,-761.5 "/>
<polyline fill="none" stroke="black" points="646,-737.5 798,-737.5 "/>
<text text-anchor="start" x="654" y="-722.3" font-family="Times,serif" font-size="14.00">_layout</text>
<text text-anchor="start" x="654" y="-707.3" font-family="Times,serif" font-size="14.00">measurement_params</text>
<text text-anchor="start" x="654" y="-692.3" font-family="Times,serif" font-size="14.00">set_measurement</text>
</g>
<!-- EnergyTypesController -->
<g id="node5" class="node"><title>EnergyTypesController</title>
<path fill="none" stroke="black" d="M183,-494.5C183,-494.5 303,-494.5 303,-494.5 309,-494.5 315,-500.5 315,-506.5 315,-506.5 315,-695.5 315,-695.5 315,-701.5 309,-707.5 303,-707.5 303,-707.5 183,-707.5 183,-707.5 177,-707.5 171,-701.5 171,-695.5 171,-695.5 171,-506.5 171,-506.5 171,-500.5 177,-494.5 183,-494.5"/>
<text text-anchor="middle" x="243" y="-692.3" font-family="Times,serif" font-size="14.00">EnergyTypesController</text>
<polyline fill="none" stroke="black" points="171,-684.5 315,-684.5 "/>
<text text-anchor="start" x="179" y="-669.3" font-family="Times,serif" font-size="14.00">create</text>
<text text-anchor="start" x="179" y="-654.3" font-family="Times,serif" font-size="14.00">destroy</text>
<text text-anchor="start" x="179" y="-639.3" font-family="Times,serif" font-size="14.00">edit</text>
<text text-anchor="start" x="179" y="-624.3" font-family="Times,serif" font-size="14.00">index</text>
<text text-anchor="start" x="179" y="-609.3" font-family="Times,serif" font-size="14.00">new</text>
<text text-anchor="start" x="179" y="-594.3" font-family="Times,serif" font-size="14.00">show</text>
<text text-anchor="start" x="179" y="-579.3" font-family="Times,serif" font-size="14.00">update</text>
<polyline fill="none" stroke="black" points="171,-571.5 315,-571.5 "/>
<polyline fill="none" stroke="black" points="171,-547.5 315,-547.5 "/>
<text text-anchor="start" x="179" y="-532.3" font-family="Times,serif" font-size="14.00">_layout</text>
<text text-anchor="start" x="179" y="-517.3" font-family="Times,serif" font-size="14.00">energy_type_params</text>
<text text-anchor="start" x="179" y="-502.3" font-family="Times,serif" font-size="14.00">set_energy_type</text>
</g>
<!-- IntervalsController -->
<g id="node6" class="node"><title>IntervalsController</title>
<path fill="none" stroke="black" d="M373,-133.5C373,-133.5 468,-133.5 468,-133.5 474,-133.5 480,-139.5 480,-145.5 480,-145.5 480,-334.5 480,-334.5 480,-340.5 474,-346.5 468,-346.5 468,-346.5 373,-346.5 373,-346.5 367,-346.5 361,-340.5 361,-334.5 361,-334.5 361,-145.5 361,-145.5 361,-139.5 367,-133.5 373,-133.5"/>
<text text-anchor="middle" x="420.5" y="-331.3" font-family="Times,serif" font-size="14.00">IntervalsController</text>
<polyline fill="none" stroke="black" points="361,-323.5 480,-323.5 "/>
<text text-anchor="start" x="369" y="-308.3" font-family="Times,serif" font-size="14.00">create</text>
<text text-anchor="start" x="369" y="-293.3" font-family="Times,serif" font-size="14.00">destroy</text>
<text text-anchor="start" x="369" y="-278.3" font-family="Times,serif" font-size="14.00">edit</text>
<text text-anchor="start" x="369" y="-263.3" font-family="Times,serif" font-size="14.00">index</text>
<text text-anchor="start" x="369" y="-248.3" font-family="Times,serif" font-size="14.00">new</text>
<text text-anchor="start" x="369" y="-233.3" font-family="Times,serif" font-size="14.00">show</text>
<text text-anchor="start" x="369" y="-218.3" font-family="Times,serif" font-size="14.00">update</text>
<polyline fill="none" stroke="black" points="361,-210.5 480,-210.5 "/>
<polyline fill="none" stroke="black" points="361,-186.5 480,-186.5 "/>
<text text-anchor="start" x="369" y="-171.3" font-family="Times,serif" font-size="14.00">_layout</text>
<text text-anchor="start" x="369" y="-156.3" font-family="Times,serif" font-size="14.00">interval_params</text>
<text text-anchor="start" x="369" y="-141.3" font-family="Times,serif" font-size="14.00">set_interval</text>
</g>
<!-- ClustersController -->
<g id="node7" class="node"><title>ClustersController</title>
<path fill="none" stroke="black" d="M848,-741.5C848,-741.5 940,-741.5 940,-741.5 946,-741.5 952,-747.5 952,-753.5 952,-753.5 952,-957.5 952,-957.5 952,-963.5 946,-969.5 940,-969.5 940,-969.5 848,-969.5 848,-969.5 842,-969.5 836,-963.5 836,-957.5 836,-957.5 836,-753.5 836,-753.5 836,-747.5 842,-741.5 848,-741.5"/>
<text text-anchor="middle" x="894" y="-954.3" font-family="Times,serif" font-size="14.00">ClustersController</text>
<polyline fill="none" stroke="black" points="836,-946.5 952,-946.5 "/>
<text text-anchor="start" x="844" y="-931.3" font-family="Times,serif" font-size="14.00">addprosumer</text>
<text text-anchor="start" x="844" y="-916.3" font-family="Times,serif" font-size="14.00">create</text>
<text text-anchor="start" x="844" y="-901.3" font-family="Times,serif" font-size="14.00">destroy</text>
<text text-anchor="start" x="844" y="-886.3" font-family="Times,serif" font-size="14.00">edit</text>
<text text-anchor="start" x="844" y="-871.3" font-family="Times,serif" font-size="14.00">index</text>
<text text-anchor="start" x="844" y="-856.3" font-family="Times,serif" font-size="14.00">new</text>
<text text-anchor="start" x="844" y="-841.3" font-family="Times,serif" font-size="14.00">show</text>
<text text-anchor="start" x="844" y="-826.3" font-family="Times,serif" font-size="14.00">update</text>
<polyline fill="none" stroke="black" points="836,-818.5 952,-818.5 "/>
<polyline fill="none" stroke="black" points="836,-794.5 952,-794.5 "/>
<text text-anchor="start" x="844" y="-779.3" font-family="Times,serif" font-size="14.00">_layout</text>
<text text-anchor="start" x="844" y="-764.3" font-family="Times,serif" font-size="14.00">cluster_params</text>
<text text-anchor="start" x="844" y="-749.3" font-family="Times,serif" font-size="14.00">set_cluster</text>
</g>
<!-- DataPointsController -->
<g id="node8" class="node"><title>DataPointsController</title>
<path fill="none" stroke="black" d="M202,-760.5C202,-760.5 309,-760.5 309,-760.5 315,-760.5 321,-766.5 321,-772.5 321,-772.5 321,-991.5 321,-991.5 321,-997.5 315,-1003.5 309,-1003.5 309,-1003.5 202,-1003.5 202,-1003.5 196,-1003.5 190,-997.5 190,-991.5 190,-991.5 190,-772.5 190,-772.5 190,-766.5 196,-760.5 202,-760.5"/>
<text text-anchor="middle" x="255.5" y="-988.3" font-family="Times,serif" font-size="14.00">DataPointsController</text>
<polyline fill="none" stroke="black" points="190,-980.5 321,-980.5 "/>
<text text-anchor="start" x="198" y="-965.3" font-family="Times,serif" font-size="14.00">create</text>
<text text-anchor="start" x="198" y="-950.3" font-family="Times,serif" font-size="14.00">destroy</text>
<text text-anchor="start" x="198" y="-935.3" font-family="Times,serif" font-size="14.00">edit</text>
<text text-anchor="start" x="198" y="-920.3" font-family="Times,serif" font-size="14.00">index</text>
<text text-anchor="start" x="198" y="-905.3" font-family="Times,serif" font-size="14.00">new</text>
<text text-anchor="start" x="198" y="-890.3" font-family="Times,serif" font-size="14.00">show</text>
<text text-anchor="start" x="198" y="-875.3" font-family="Times,serif" font-size="14.00">update</text>
<polyline fill="none" stroke="black" points="190,-867.5 321,-867.5 "/>
<polyline fill="none" stroke="black" points="190,-843.5 321,-843.5 "/>
<text text-anchor="start" x="198" y="-828.3" font-family="Times,serif" font-size="14.00">_layout</text>
<text text-anchor="start" x="198" y="-813.3" font-family="Times,serif" font-size="14.00">data_point_params</text>
<text text-anchor="start" x="198" y="-798.3" font-family="Times,serif" font-size="14.00">set_data_point</text>
<text text-anchor="start" x="198" y="-783.3" font-family="Times,serif" font-size="14.00">sort_column</text>
<text text-anchor="start" x="198" y="-768.3" font-family="Times,serif" font-size="14.00">sort_direction</text>
</g>
<!-- IntellenMockController -->
<g id="node9" class="node"><title>IntellenMockController</title>
<path fill="none" stroke="black" d="M12,-760.5C12,-760.5 134,-760.5 134,-760.5 140,-760.5 146,-766.5 146,-772.5 146,-772.5 146,-856.5 146,-856.5 146,-862.5 140,-868.5 134,-868.5 134,-868.5 12,-868.5 12,-868.5 6,-868.5 0,-862.5 0,-856.5 0,-856.5 0,-772.5 0,-772.5 0,-766.5 6,-760.5 12,-760.5"/>
<text text-anchor="middle" x="73" y="-853.3" font-family="Times,serif" font-size="14.00">IntellenMockController</text>
<polyline fill="none" stroke="black" points="0,-845.5 146,-845.5 "/>
<text text-anchor="start" x="8" y="-830.3" font-family="Times,serif" font-size="14.00">getdata</text>
<text text-anchor="start" x="8" y="-815.3" font-family="Times,serif" font-size="14.00">getdayahead</text>
<polyline fill="none" stroke="black" points="0,-807.5 146,-807.5 "/>
<polyline fill="none" stroke="black" points="0,-783.5 146,-783.5 "/>
<text text-anchor="start" x="8" y="-768.3" font-family="Times,serif" font-size="14.00">_layout</text>
</g>
<!-- MarketPricesController -->
<g id="node10" class="node"><title>MarketPricesController</title>
<path fill="none" stroke="black" d="M924,-38.5C924,-38.5 1045,-38.5 1045,-38.5 1051,-38.5 1057,-44.5 1057,-50.5 1057,-50.5 1057,-149.5 1057,-149.5 1057,-155.5 1051,-161.5 1045,-161.5 1045,-161.5 924,-161.5 924,-161.5 918,-161.5 912,-155.5 912,-149.5 912,-149.5 912,-50.5 912,-50.5 912,-44.5 918,-38.5 924,-38.5"/>
<text text-anchor="middle" x="984.5" y="-146.3" font-family="Times,serif" font-size="14.00">MarketPricesController</text>
<polyline fill="none" stroke="black" points="912,-138.5 1057,-138.5 "/>
<text text-anchor="start" x="920" y="-123.3" font-family="Times,serif" font-size="14.00">dayAhead</text>
<text text-anchor="start" x="920" y="-108.3" font-family="Times,serif" font-size="14.00">index</text>
<text text-anchor="start" x="920" y="-93.3" font-family="Times,serif" font-size="14.00">intraDay</text>
<polyline fill="none" stroke="black" points="912,-85.5 1057,-85.5 "/>
<polyline fill="none" stroke="black" points="912,-61.5 1057,-61.5 "/>
<text text-anchor="start" x="920" y="-46.3" font-family="Times,serif" font-size="14.00">_layout</text>
</g>
<!-- ConnectionTypesController -->
<g id="node11" class="node"><title>ConnectionTypesController</title>
<path fill="none" stroke="black" d="M373,-380.5C373,-380.5 516,-380.5 516,-380.5 522,-380.5 528,-386.5 528,-392.5 528,-392.5 528,-581.5 528,-581.5 528,-587.5 522,-593.5 516,-593.5 516,-593.5 373,-593.5 373,-593.5 367,-593.5 361,-587.5 361,-581.5 361,-581.5 361,-392.5 361,-392.5 361,-386.5 367,-380.5 373,-380.5"/>
<text text-anchor="middle" x="444.5" y="-578.3" font-family="Times,serif" font-size="14.00">ConnectionTypesController</text>
<polyline fill="none" stroke="black" points="361,-570.5 528,-570.5 "/>
<text text-anchor="start" x="369" y="-555.3" font-family="Times,serif" font-size="14.00">create</text>
<text text-anchor="start" x="369" y="-540.3" font-family="Times,serif" font-size="14.00">destroy</text>
<text text-anchor="start" x="369" y="-525.3" font-family="Times,serif" font-size="14.00">edit</text>
<text text-anchor="start" x="369" y="-510.3" font-family="Times,serif" font-size="14.00">index</text>
<text text-anchor="start" x="369" y="-495.3" font-family="Times,serif" font-size="14.00">new</text>
<text text-anchor="start" x="369" y="-480.3" font-family="Times,serif" font-size="14.00">show</text>
<text text-anchor="start" x="369" y="-465.3" font-family="Times,serif" font-size="14.00">update</text>
<polyline fill="none" stroke="black" points="361,-457.5 528,-457.5 "/>
<polyline fill="none" stroke="black" points="361,-433.5 528,-433.5 "/>
<text text-anchor="start" x="369" y="-418.3" font-family="Times,serif" font-size="14.00">_layout</text>
<text text-anchor="start" x="369" y="-403.3" font-family="Times,serif" font-size="14.00">connection_type_params</text>
<text text-anchor="start" x="369" y="-388.3" font-family="Times,serif" font-size="14.00">set_connection_type</text>
</g>
<!-- ProsumersController -->
<g id="node12" class="node"><title>ProsumersController</title>
<path fill="none" stroke="black" d="M582,-380.5C582,-380.5 688,-380.5 688,-380.5 694,-380.5 700,-386.5 700,-392.5 700,-392.5 700,-626.5 700,-626.5 700,-632.5 694,-638.5 688,-638.5 688,-638.5 582,-638.5 582,-638.5 576,-638.5 570,-632.5 570,-626.5 570,-626.5 570,-392.5 570,-392.5 570,-386.5 576,-380.5 582,-380.5"/>
<text text-anchor="middle" x="635" y="-623.3" font-family="Times,serif" font-size="14.00">ProsumersController</text>
<polyline fill="none" stroke="black" points="570,-615.5 700,-615.5 "/>
<text text-anchor="start" x="578" y="-600.3" font-family="Times,serif" font-size="14.00">create</text>
<text text-anchor="start" x="578" y="-585.3" font-family="Times,serif" font-size="14.00">destroy</text>
<text text-anchor="start" x="578" y="-570.3" font-family="Times,serif" font-size="14.00">edit</text>
<text text-anchor="start" x="578" y="-555.3" font-family="Times,serif" font-size="14.00">index</text>
<text text-anchor="start" x="578" y="-540.3" font-family="Times,serif" font-size="14.00">new</text>
<text text-anchor="start" x="578" y="-525.3" font-family="Times,serif" font-size="14.00">removefromcluster</text>
<text text-anchor="start" x="578" y="-510.3" font-family="Times,serif" font-size="14.00">show</text>
<text text-anchor="start" x="578" y="-495.3" font-family="Times,serif" font-size="14.00">update</text>
<polyline fill="none" stroke="black" points="570,-487.5 700,-487.5 "/>
<polyline fill="none" stroke="black" points="570,-463.5 700,-463.5 "/>
<text text-anchor="start" x="578" y="-448.3" font-family="Times,serif" font-size="14.00">_layout</text>
<text text-anchor="start" x="578" y="-433.3" font-family="Times,serif" font-size="14.00">prosumer_params</text>
<text text-anchor="start" x="578" y="-418.3" font-family="Times,serif" font-size="14.00">set_prosumer</text>
<text text-anchor="start" x="578" y="-403.3" font-family="Times,serif" font-size="14.00">sort_column</text>
<text text-anchor="start" x="578" y="-388.3" font-family="Times,serif" font-size="14.00">sort_direction</text>
</g>
<!-- MachinesController -->
<g id="node13" class="node"><title>MachinesController</title>
<path fill="none" stroke="black" d="M468,-0.5C468,-0.5 569,-0.5 569,-0.5 575,-0.5 581,-6.5 581,-12.5 581,-12.5 581,-81.5 581,-81.5 581,-87.5 575,-93.5 569,-93.5 569,-93.5 468,-93.5 468,-93.5 462,-93.5 456,-87.5 456,-81.5 456,-81.5 456,-12.5 456,-12.5 456,-6.5 462,-0.5 468,-0.5"/>
<text text-anchor="middle" x="518.5" y="-78.3" font-family="Times,serif" font-size="14.00">MachinesController</text>
<polyline fill="none" stroke="black" points="456,-70.5 581,-70.5 "/>
<text text-anchor="start" x="464" y="-55.3" font-family="Times,serif" font-size="14.00">index</text>
<polyline fill="none" stroke="black" points="456,-47.5 581,-47.5 "/>
<polyline fill="none" stroke="black" points="456,-23.5 581,-23.5 "/>
<text text-anchor="start" x="464" y="-8.3" font-family="Times,serif" font-size="14.00">_layout</text>
</g>
<!-- ClusteringController -->
<g id="node14" class="node"><title>ClusteringController</title>
<path fill="none" stroke="black" d="M12,-494.5C12,-494.5 116,-494.5 116,-494.5 122,-494.5 128,-500.5 128,-506.5 128,-506.5 128,-635.5 128,-635.5 128,-641.5 122,-647.5 116,-647.5 116,-647.5 12,-647.5 12,-647.5 6,-647.5 0,-641.5 0,-635.5 0,-635.5 0,-506.5 0,-506.5 0,-500.5 6,-494.5 12,-494.5"/>
<text text-anchor="middle" x="64" y="-632.3" font-family="Times,serif" font-size="14.00">ClusteringController</text>
<polyline fill="none" stroke="black" points="0,-624.5 128,-624.5 "/>
<text text-anchor="start" x="8" y="-609.3" font-family="Times,serif" font-size="14.00">confirm</text>
<text text-anchor="start" x="8" y="-594.3" font-family="Times,serif" font-size="14.00">edit</text>
<text text-anchor="start" x="8" y="-579.3" font-family="Times,serif" font-size="14.00">save</text>
<text text-anchor="start" x="8" y="-564.3" font-family="Times,serif" font-size="14.00">select</text>
<polyline fill="none" stroke="black" points="0,-556.5 128,-556.5 "/>
<polyline fill="none" stroke="black" points="0,-532.5 128,-532.5 "/>
<text text-anchor="start" x="8" y="-517.3" font-family="Times,serif" font-size="14.00">_layout</text>
<text text-anchor="start" x="8" y="-502.3" font-family="Times,serif" font-size="14.00">algorithms</text>
</g>
<!-- DayAheadHoursController -->
<g id="node15" class="node"><title>DayAheadHoursController</title>
<path fill="none" stroke="black" d="M373,-627.5C373,-627.5 512,-627.5 512,-627.5 518,-627.5 524,-633.5 524,-639.5 524,-639.5 524,-828.5 524,-828.5 524,-834.5 518,-840.5 512,-840.5 512,-840.5 373,-840.5 373,-840.5 367,-840.5 361,-834.5 361,-828.5 361,-828.5 361,-639.5 361,-639.5 361,-633.5 367,-627.5 373,-627.5"/>
<text text-anchor="middle" x="442.5" y="-825.3" font-family="Times,serif" font-size="14.00">DayAheadHoursController</text>
<polyline fill="none" stroke="black" points="361,-817.5 524,-817.5 "/>
<text text-anchor="start" x="369" y="-802.3" font-family="Times,serif" font-size="14.00">create</text>
<text text-anchor="start" x="369" y="-787.3" font-family="Times,serif" font-size="14.00">destroy</text>
<text text-anchor="start" x="369" y="-772.3" font-family="Times,serif" font-size="14.00">edit</text>
<text text-anchor="start" x="369" y="-757.3" font-family="Times,serif" font-size="14.00">index</text>
<text text-anchor="start" x="369" y="-742.3" font-family="Times,serif" font-size="14.00">new</text>
<text text-anchor="start" x="369" y="-727.3" font-family="Times,serif" font-size="14.00">show</text>
<text text-anchor="start" x="369" y="-712.3" font-family="Times,serif" font-size="14.00">update</text>
<polyline fill="none" stroke="black" points="361,-704.5 524,-704.5 "/>
<polyline fill="none" stroke="black" points="361,-680.5 524,-680.5 "/>
<text text-anchor="start" x="369" y="-665.3" font-family="Times,serif" font-size="14.00">_layout</text>
<text text-anchor="start" x="369" y="-650.3" font-family="Times,serif" font-size="14.00">day_ahead_hour_params</text>
<text text-anchor="start" x="369" y="-635.3" font-family="Times,serif" font-size="14.00">set_day_ahead_hour</text>
</g>
<!-- BuildingTypesController -->
<g id="node16" class="node"><title>BuildingTypesController</title>
<path fill="none" stroke="black" d="M183,-247.5C183,-247.5 311,-247.5 311,-247.5 317,-247.5 323,-253.5 323,-259.5 323,-259.5 323,-448.5 323,-448.5 323,-454.5 317,-460.5 311,-460.5 311,-460.5 183,-460.5 183,-460.5 177,-460.5 171,-454.5 171,-448.5 171,-448.5 171,-259.5 171,-259.5 171,-253.5 177,-247.5 183,-247.5"/>
<text text-anchor="middle" x="247" y="-445.3" font-family="Times,serif" font-size="14.00">BuildingTypesController</text>
<polyline fill="none" stroke="black" points="171,-437.5 323,-437.5 "/>
<text text-anchor="start" x="179" y="-422.3" font-family="Times,serif" font-size="14.00">create</text>
<text text-anchor="start" x="179" y="-407.3" font-family="Times,serif" font-size="14.00">destroy</text>
<text text-anchor="start" x="179" y="-392.3" font-family="Times,serif" font-size="14.00">edit</text>
<text text-anchor="start" x="179" y="-377.3" font-family="Times,serif" font-size="14.00">index</text>
<text text-anchor="start" x="179" y="-362.3" font-family="Times,serif" font-size="14.00">new</text>
<text text-anchor="start" x="179" y="-347.3" font-family="Times,serif" font-size="14.00">show</text>
<text text-anchor="start" x="179" y="-332.3" font-family="Times,serif" font-size="14.00">update</text>
<polyline fill="none" stroke="black" points="171,-324.5 323,-324.5 "/>
<polyline fill="none" stroke="black" points="171,-300.5 323,-300.5 "/>
<text text-anchor="start" x="179" y="-285.3" font-family="Times,serif" font-size="14.00">_layout</text>
<text text-anchor="start" x="179" y="-270.3" font-family="Times,serif" font-size="14.00">building_type_params</text>
<text text-anchor="start" x="179" y="-255.3" font-family="Times,serif" font-size="14.00">set_building_type</text>
</g>
<!-- ApplicationController -->
<g id="node17" class="node"><title>ApplicationController</title>
<path fill="none" stroke="black" d="M69,-95.5C69,-95.5 221,-95.5 221,-95.5 227,-95.5 233,-101.5 233,-107.5 233,-107.5 233,-206.5 233,-206.5 233,-212.5 227,-218.5 221,-218.5 221,-218.5 69,-218.5 69,-218.5 63,-218.5 57,-212.5 57,-206.5 57,-206.5 57,-107.5 57,-107.5 57,-101.5 63,-95.5 69,-95.5"/>
<text text-anchor="middle" x="145" y="-203.3" font-family="Times,serif" font-size="14.00">ApplicationController</text>
<polyline fill="none" stroke="black" points="57,-195.5 233,-195.5 "/>
<text text-anchor="start" x="65" y="-180.3" font-family="Times,serif" font-size="14.00">after_sign_in_path_for</text>
<text text-anchor="start" x="65" y="-165.3" font-family="Times,serif" font-size="14.00">after_sign_out_path_for</text>
<polyline fill="none" stroke="black" points="57,-157.5 233,-157.5 "/>
<polyline fill="none" stroke="black" points="57,-133.5 233,-133.5 "/>
<text text-anchor="start" x="65" y="-118.3" font-family="Times,serif" font-size="14.00">_layout</text>
<text text-anchor="start" x="65" y="-103.3" font-family="Times,serif" font-size="14.00">do_not_check_authorization?</text>
</g>
<!-- StreamController -->
<g id="node18" class="node"><title>StreamController</title>
<path fill="none" stroke="black" d="M31,-323.5C31,-323.5 118,-323.5 118,-323.5 124,-323.5 130,-329.5 130,-335.5 130,-335.5 130,-449.5 130,-449.5 130,-455.5 124,-461.5 118,-461.5 118,-461.5 31,-461.5 31,-461.5 25,-461.5 19,-455.5 19,-449.5 19,-449.5 19,-335.5 19,-335.5 19,-329.5 25,-323.5 31,-323.5"/>
<text text-anchor="middle" x="74.5" y="-446.3" font-family="Times,serif" font-size="14.00">StreamController</text>
<polyline fill="none" stroke="black" points="19,-438.5 130,-438.5 "/>
<text text-anchor="start" x="27" y="-423.3" font-family="Times,serif" font-size="14.00">addevent</text>
<text text-anchor="start" x="27" y="-408.3" font-family="Times,serif" font-size="14.00">clusterfeed</text>
<text text-anchor="start" x="27" y="-393.3" font-family="Times,serif" font-size="14.00">meter</text>
<text text-anchor="start" x="27" y="-378.3" font-family="Times,serif" font-size="14.00">prosumer</text>
<polyline fill="none" stroke="black" points="19,-370.5 130,-370.5 "/>
<polyline fill="none" stroke="black" points="19,-346.5 130,-346.5 "/>
<text text-anchor="start" x="27" y="-331.3" font-family="Times,serif" font-size="14.00">_layout</text>
</g>
<!-- UsersController -->
<g id="node19" class="node"><title>UsersController</title>
<path fill="none" stroke="black" d="M525,-874.5C525,-874.5 604,-874.5 604,-874.5 610,-874.5 616,-880.5 616,-886.5 616,-886.5 616,-1075.5 616,-1075.5 616,-1081.5 610,-1087.5 604,-1087.5 604,-1087.5 525,-1087.5 525,-1087.5 519,-1087.5 513,-1081.5 513,-1075.5 513,-1075.5 513,-886.5 513,-886.5 513,-880.5 519,-874.5 525,-874.5"/>
<text text-anchor="middle" x="564.5" y="-1072.3" font-family="Times,serif" font-size="14.00">UsersController</text>
<polyline fill="none" stroke="black" points="513,-1064.5 616,-1064.5 "/>
<text text-anchor="start" x="521" y="-1049.3" font-family="Times,serif" font-size="14.00">create</text>
<text text-anchor="start" x="521" y="-1034.3" font-family="Times,serif" font-size="14.00">destroy</text>
<text text-anchor="start" x="521" y="-1019.3" font-family="Times,serif" font-size="14.00">edit</text>
<text text-anchor="start" x="521" y="-1004.3" font-family="Times,serif" font-size="14.00">index</text>
<text text-anchor="start" x="521" y="-989.3" font-family="Times,serif" font-size="14.00">new</text>
<text text-anchor="start" x="521" y="-974.3" font-family="Times,serif" font-size="14.00">show</text>
<text text-anchor="start" x="521" y="-959.3" font-family="Times,serif" font-size="14.00">update</text>
<polyline fill="none" stroke="black" points="513,-951.5 616,-951.5 "/>
<polyline fill="none" stroke="black" points="513,-927.5 616,-927.5 "/>
<text text-anchor="start" x="521" y="-912.3" font-family="Times,serif" font-size="14.00">_layout</text>
<text text-anchor="start" x="521" y="-897.3" font-family="Times,serif" font-size="14.00">set_user</text>
<text text-anchor="start" x="521" y="-882.3" font-family="Times,serif" font-size="14.00">user_params</text>
</g>
<!-- EnergyPricesController -->
<g id="node20" class="node"><title>EnergyPricesController</title>
<path fill="none" stroke="black" d="M753,-209.5C753,-209.5 873,-209.5 873,-209.5 879,-209.5 885,-215.5 885,-221.5 885,-221.5 885,-410.5 885,-410.5 885,-416.5 879,-422.5 873,-422.5 873,-422.5 753,-422.5 753,-422.5 747,-422.5 741,-416.5 741,-410.5 741,-410.5 741,-221.5 741,-221.5 741,-215.5 747,-209.5 753,-209.5"/>
<text text-anchor="middle" x="813" y="-407.3" font-family="Times,serif" font-size="14.00">EnergyPricesController</text>
<polyline fill="none" stroke="black" points="741,-399.5 885,-399.5 "/>
<text text-anchor="start" x="749" y="-384.3" font-family="Times,serif" font-size="14.00">create</text>
<text text-anchor="start" x="749" y="-369.3" font-family="Times,serif" font-size="14.00">destroy</text>
<text text-anchor="start" x="749" y="-354.3" font-family="Times,serif" font-size="14.00">edit</text>
<text text-anchor="start" x="749" y="-339.3" font-family="Times,serif" font-size="14.00">index</text>
<text text-anchor="start" x="749" y="-324.3" font-family="Times,serif" font-size="14.00">new</text>
<text text-anchor="start" x="749" y="-309.3" font-family="Times,serif" font-size="14.00">show</text>
<text text-anchor="start" x="749" y="-294.3" font-family="Times,serif" font-size="14.00">update</text>
<polyline fill="none" stroke="black" points="741,-286.5 885,-286.5 "/>
<polyline fill="none" stroke="black" points="741,-262.5 885,-262.5 "/>
<text text-anchor="start" x="749" y="-247.3" font-family="Times,serif" font-size="14.00">_layout</text>
<text text-anchor="start" x="749" y="-232.3" font-family="Times,serif" font-size="14.00">energy_price_params</text>
<text text-anchor="start" x="749" y="-217.3" font-family="Times,serif" font-size="14.00">set_energy_price</text>
</g>
<!-- CloudPlatformController -->
<g id="node21" class="node"><title>CloudPlatformController</title>
<path fill="none" stroke="black" d="M658,-931.5C658,-931.5 787,-931.5 787,-931.5 793,-931.5 799,-937.5 799,-943.5 799,-943.5 799,-1072.5 799,-1072.5 799,-1078.5 793,-1084.5 787,-1084.5 787,-1084.5 658,-1084.5 658,-1084.5 652,-1084.5 646,-1078.5 646,-1072.5 646,-1072.5 646,-943.5 646,-943.5 646,-937.5 652,-931.5 658,-931.5"/>
<text text-anchor="middle" x="722.5" y="-1069.3" font-family="Times,serif" font-size="14.00">CloudPlatformController</text>
<polyline fill="none" stroke="black" points="646,-1061.5 799,-1061.5 "/>
<text text-anchor="start" x="654" y="-1046.3" font-family="Times,serif" font-size="14.00">delete</text>
<text text-anchor="start" x="654" y="-1031.3" font-family="Times,serif" font-size="14.00">execute</text>
<text text-anchor="start" x="654" y="-1016.3" font-family="Times,serif" font-size="14.00">index</text>
<text text-anchor="start" x="654" y="-1001.3" font-family="Times,serif" font-size="14.00">instances</text>
<text text-anchor="start" x="654" y="-986.3" font-family="Times,serif" font-size="14.00">responses</text>
<polyline fill="none" stroke="black" points="646,-978.5 799,-978.5 "/>
<polyline fill="none" stroke="black" points="646,-954.5 799,-954.5 "/>
<text text-anchor="start" x="654" y="-939.3" font-family="Times,serif" font-size="14.00">_layout</text>
</g>
<!-- DayAheadsController -->
<g id="node22" class="node"><title>DayAheadsController</title>
<path fill="none" stroke="black" d="M848,-456.5C848,-456.5 959,-456.5 959,-456.5 965,-456.5 971,-462.5 971,-468.5 971,-468.5 971,-687.5 971,-687.5 971,-693.5 965,-699.5 959,-699.5 959,-699.5 848,-699.5 848,-699.5 842,-699.5 836,-693.5 836,-687.5 836,-687.5 836,-468.5 836,-468.5 836,-462.5 842,-456.5 848,-456.5"/>
<text text-anchor="middle" x="903.5" y="-684.3" font-family="Times,serif" font-size="14.00">DayAheadsController</text>
<polyline fill="none" stroke="black" points="836,-676.5 971,-676.5 "/>
<text text-anchor="start" x="844" y="-661.3" font-family="Times,serif" font-size="14.00">create</text>
<text text-anchor="start" x="844" y="-646.3" font-family="Times,serif" font-size="14.00">destroy</text>
<text text-anchor="start" x="844" y="-631.3" font-family="Times,serif" font-size="14.00">edit</text>
<text text-anchor="start" x="844" y="-616.3" font-family="Times,serif" font-size="14.00">index</text>
<text text-anchor="start" x="844" y="-601.3" font-family="Times,serif" font-size="14.00">new</text>
<text text-anchor="start" x="844" y="-586.3" font-family="Times,serif" font-size="14.00">show</text>
<text text-anchor="start" x="844" y="-571.3" font-family="Times,serif" font-size="14.00">update</text>
<polyline fill="none" stroke="black" points="836,-563.5 971,-563.5 "/>
<polyline fill="none" stroke="black" points="836,-539.5 971,-539.5 "/>
<text text-anchor="start" x="844" y="-524.3" font-family="Times,serif" font-size="14.00">_layout</text>
<text text-anchor="start" x="844" y="-509.3" font-family="Times,serif" font-size="14.00">day_ahead_params</text>
<text text-anchor="start" x="844" y="-494.3" font-family="Times,serif" font-size="14.00">set_day_ahead</text>
<text text-anchor="start" x="844" y="-479.3" font-family="Times,serif" font-size="14.00">sort_column</text>
<text text-anchor="start" x="844" y="-464.3" font-family="Times,serif" font-size="14.00">sort_direction</text>
</g>
<!-- RolesController -->
<g id="node23" class="node"><title>RolesController</title>
<path fill="none" stroke="black" d="M392,-874.5C392,-874.5 471,-874.5 471,-874.5 477,-874.5 483,-880.5 483,-886.5 483,-886.5 483,-1075.5 483,-1075.5 483,-1081.5 477,-1087.5 471,-1087.5 471,-1087.5 392,-1087.5 392,-1087.5 386,-1087.5 380,-1081.5 380,-1075.5 380,-1075.5 380,-886.5 380,-886.5 380,-880.5 386,-874.5 392,-874.5"/>
<text text-anchor="middle" x="431.5" y="-1072.3" font-family="Times,serif" font-size="14.00">RolesController</text>
<polyline fill="none" stroke="black" points="380,-1064.5 483,-1064.5 "/>
<text text-anchor="start" x="388" y="-1049.3" font-family="Times,serif" font-size="14.00">create</text>
<text text-anchor="start" x="388" y="-1034.3" font-family="Times,serif" font-size="14.00">destroy</text>
<text text-anchor="start" x="388" y="-1019.3" font-family="Times,serif" font-size="14.00">edit</text>
<text text-anchor="start" x="388" y="-1004.3" font-family="Times,serif" font-size="14.00">index</text>
<text text-anchor="start" x="388" y="-989.3" font-family="Times,serif" font-size="14.00">new</text>
<text text-anchor="start" x="388" y="-974.3" font-family="Times,serif" font-size="14.00">show</text>
<text text-anchor="start" x="388" y="-959.3" font-family="Times,serif" font-size="14.00">update</text>
<polyline fill="none" stroke="black" points="380,-951.5 483,-951.5 "/>
<polyline fill="none" stroke="black" points="380,-927.5 483,-927.5 "/>
<text text-anchor="start" x="388" y="-912.3" font-family="Times,serif" font-size="14.00">_layout</text>
<text text-anchor="start" x="388" y="-897.3" font-family="Times,serif" font-size="14.00">role_params</text>
<text text-anchor="start" x="388" y="-882.3" font-family="Times,serif" font-size="14.00">set_role</text>
</g>
<!-- LoginController -->
<g id="node24" class="node"><title>LoginController</title>
<path fill="none" stroke="black" d="M943,-190.5C943,-190.5 1023,-190.5 1023,-190.5 1029,-190.5 1035,-196.5 1035,-202.5 1035,-202.5 1035,-301.5 1035,-301.5 1035,-307.5 1029,-313.5 1023,-313.5 1023,-313.5 943,-313.5 943,-313.5 937,-313.5 931,-307.5 931,-301.5 931,-301.5 931,-202.5 931,-202.5 931,-196.5 937,-190.5 943,-190.5"/>
<text text-anchor="middle" x="983" y="-298.3" font-family="Times,serif" font-size="14.00">LoginController</text>
<polyline fill="none" stroke="black" points="931,-290.5 1035,-290.5 "/>
<text text-anchor="start" x="939" y="-275.3" font-family="Times,serif" font-size="14.00">index</text>
<text text-anchor="start" x="939" y="-260.3" font-family="Times,serif" font-size="14.00">signin</text>
<text text-anchor="start" x="939" y="-245.3" font-family="Times,serif" font-size="14.00">signout</text>
<polyline fill="none" stroke="black" points="931,-237.5 1035,-237.5 "/>
<polyline fill="none" stroke="black" points="931,-213.5 1035,-213.5 "/>
<text text-anchor="start" x="939" y="-198.3" font-family="Times,serif" font-size="14.00">_layout</text>
</g>
</g>
</svg>
