<?xml version="1.0" encoding="UTF-8" standalone="no"?>
<!DOCTYPE svg PUBLIC "-//W3C//DTD SVG 1.1//EN"
 "http://www.w3.org/Graphics/SVG/1.1/DTD/svg11.dtd">
<!-- Generated by graphviz version 2.36.0 (20140111.2315)
 -->
<!-- Title: controllers_diagram Pages: 1 -->
<svg width="1073pt" height="1112pt"
 viewBox="0.00 0.00 1073.00 1112.00" xmlns="http://www.w3.org/2000/svg" xmlns:xlink="http://www.w3.org/1999/xlink">
<g id="graph0" class="graph" transform="scale(1 1) rotate(0) translate(4 1108)">
<title>controllers_diagram</title>
<polygon fill="white" stroke="none" points="-4,4 -4,-1108 1069,-1108 1069,4 -4,4"/>
<!-- _diagram_info -->
<g id="node1" class="node"><title>_diagram_info</title>
<text text-anchor="start" x="46" y="-139.6" font-family="Times,serif" font-size="13.00">Controllers diagram</text>
<text text-anchor="start" x="46" y="-125.6" font-family="Times,serif" font-size="13.00">Date: Mar 26 2015 &#45; 11:28</text>
<text text-anchor="start" x="46" y="-111.6" font-family="Times,serif" font-size="13.00">Migration version: 20150204132935</text>
<text text-anchor="start" x="46" y="-97.6" font-family="Times,serif" font-size="13.00">Generated by RailRoady 1.3.0</text>
<text text-anchor="start" x="46" y="-83.6" font-family="Times,serif" font-size="13.00">http://railroady.prestonlee.com</text>
</g>
<!-- HomeController -->
<g id="node2" class="node"><title>HomeController</title>
<path fill="none" stroke="black" d="M620,-931.5C620,-931.5 706,-931.5 706,-931.5 712,-931.5 718,-937.5 718,-943.5 718,-943.5 718,-1087.5 718,-1087.5 718,-1093.5 712,-1099.5 706,-1099.5 706,-1099.5 620,-1099.5 620,-1099.5 614,-1099.5 608,-1093.5 608,-1087.5 608,-1087.5 608,-943.5 608,-943.5 608,-937.5 614,-931.5 620,-931.5"/>
<text text-anchor="middle" x="663" y="-1084.3" font-family="Times,serif" font-size="14.00">HomeController</text>
<polyline fill="none" stroke="black" points="608,-1076.5 718,-1076.5 "/>
<text text-anchor="start" x="616" y="-1061.3" font-family="Times,serif" font-size="14.00">energyPrice</text>
<text text-anchor="start" x="616" y="-1046.3" font-family="Times,serif" font-size="14.00">energyType</text>
<text text-anchor="start" x="616" y="-1031.3" font-family="Times,serif" font-size="14.00">index</text>
<text text-anchor="start" x="616" y="-1016.3" font-family="Times,serif" font-size="14.00">top5Consumers</text>
<text text-anchor="start" x="616" y="-1001.3" font-family="Times,serif" font-size="14.00">top5Producers</text>
<text text-anchor="start" x="616" y="-986.3" font-family="Times,serif" font-size="14.00">totalProsumption</text>
<polyline fill="none" stroke="black" points="608,-978.5 718,-978.5 "/>
<polyline fill="none" stroke="black" points="608,-954.5 718,-954.5 "/>
<text text-anchor="start" x="616" y="-939.3" font-family="Times,serif" font-size="14.00">_layout</text>
</g>
<!-- MetersController -->
<g id="node3" class="node"><title>MetersController</title>
<path fill="none" stroke="black" d="M335,-76.5C335,-76.5 421,-76.5 421,-76.5 427,-76.5 433,-82.5 433,-88.5 433,-88.5 433,-277.5 433,-277.5 433,-283.5 427,-289.5 421,-289.5 421,-289.5 335,-289.5 335,-289.5 329,-289.5 323,-283.5 323,-277.5 323,-277.5 323,-88.5 323,-88.5 323,-82.5 329,-76.5 335,-76.5"/>
<text text-anchor="middle" x="378" y="-274.3" font-family="Times,serif" font-size="14.00">MetersController</text>
<polyline fill="none" stroke="black" points="323,-266.5 433,-266.5 "/>
<text text-anchor="start" x="331" y="-251.3" font-family="Times,serif" font-size="14.00">create</text>
<text text-anchor="start" x="331" y="-236.3" font-family="Times,serif" font-size="14.00">destroy</text>
<text text-anchor="start" x="331" y="-221.3" font-family="Times,serif" font-size="14.00">edit</text>
<text text-anchor="start" x="331" y="-206.3" font-family="Times,serif" font-size="14.00">index</text>
<text text-anchor="start" x="331" y="-191.3" font-family="Times,serif" font-size="14.00">new</text>
<text text-anchor="start" x="331" y="-176.3" font-family="Times,serif" font-size="14.00">show</text>
<text text-anchor="start" x="331" y="-161.3" font-family="Times,serif" font-size="14.00">update</text>
<polyline fill="none" stroke="black" points="323,-153.5 433,-153.5 "/>
<polyline fill="none" stroke="black" points="323,-129.5 433,-129.5 "/>
<text text-anchor="start" x="331" y="-114.3" font-family="Times,serif" font-size="14.00">_layout</text>
<text text-anchor="start" x="331" y="-99.3" font-family="Times,serif" font-size="14.00">meter_params</text>
<text text-anchor="start" x="331" y="-84.3" font-family="Times,serif" font-size="14.00">set_meter</text>
</g>
<!-- MeasurementsController -->
<g id="node4" class="node"><title>MeasurementsController</title>
<path fill="none" stroke="black" d="M202,-722.5C202,-722.5 330,-722.5 330,-722.5 336,-722.5 342,-728.5 342,-734.5 342,-734.5 342,-923.5 342,-923.5 342,-929.5 336,-935.5 330,-935.5 330,-935.5 202,-935.5 202,-935.5 196,-935.5 190,-929.5 190,-923.5 190,-923.5 190,-734.5 190,-734.5 190,-728.5 196,-722.5 202,-722.5"/>
<text text-anchor="middle" x="266" y="-920.3" font-family="Times,serif" font-size="14.00">MeasurementsController</text>
<polyline fill="none" stroke="black" points="190,-912.5 342,-912.5 "/>
<text text-anchor="start" x="198" y="-897.3" font-family="Times,serif" font-size="14.00">create</text>
<text text-anchor="start" x="198" y="-882.3" font-family="Times,serif" font-size="14.00">destroy</text>
<text text-anchor="start" x="198" y="-867.3" font-family="Times,serif" font-size="14.00">edit</text>
<text text-anchor="start" x="198" y="-852.3" font-family="Times,serif" font-size="14.00">index</text>
<text text-anchor="start" x="198" y="-837.3" font-family="Times,serif" font-size="14.00">new</text>
<text text-anchor="start" x="198" y="-822.3" font-family="Times,serif" font-size="14.00">show</text>
<text text-anchor="start" x="198" y="-807.3" font-family="Times,serif" font-size="14.00">update</text>
<polyline fill="none" stroke="black" points="190,-799.5 342,-799.5 "/>
<polyline fill="none" stroke="black" points="190,-775.5 342,-775.5 "/>
<text text-anchor="start" x="198" y="-760.3" font-family="Times,serif" font-size="14.00">_layout</text>
<text text-anchor="start" x="198" y="-745.3" font-family="Times,serif" font-size="14.00">measurement_params</text>
<text text-anchor="start" x="198" y="-730.3" font-family="Times,serif" font-size="14.00">set_measurement</text>
</g>
<!-- EnergyTypesController -->
<g id="node5" class="node"><title>EnergyTypesController</title>
<path fill="none" stroke="black" d="M183,-475.5C183,-475.5 303,-475.5 303,-475.5 309,-475.5 315,-481.5 315,-487.5 315,-487.5 315,-676.5 315,-676.5 315,-682.5 309,-688.5 303,-688.5 303,-688.5 183,-688.5 183,-688.5 177,-688.5 171,-682.5 171,-676.5 171,-676.5 171,-487.5 171,-487.5 171,-481.5 177,-475.5 183,-475.5"/>
<text text-anchor="middle" x="243" y="-673.3" font-family="Times,serif" font-size="14.00">EnergyTypesController</text>
<polyline fill="none" stroke="black" points="171,-665.5 315,-665.5 "/>
<text text-anchor="start" x="179" y="-650.3" font-family="Times,serif" font-size="14.00">create</text>
<text text-anchor="start" x="179" y="-635.3" font-family="Times,serif" font-size="14.00">destroy</text>
<text text-anchor="start" x="179" y="-620.3" font-family="Times,serif" font-size="14.00">edit</text>
<text text-anchor="start" x="179" y="-605.3" font-family="Times,serif" font-size="14.00">index</text>
<text text-anchor="start" x="179" y="-590.3" font-family="Times,serif" font-size="14.00">new</text>
<text text-anchor="start" x="179" y="-575.3" font-family="Times,serif" font-size="14.00">show</text>
<text text-anchor="start" x="179" y="-560.3" font-family="Times,serif" font-size="14.00">update</text>
<polyline fill="none" stroke="black" points="171,-552.5 315,-552.5 "/>
<polyline fill="none" stroke="black" points="171,-528.5 315,-528.5 "/>
<text text-anchor="start" x="179" y="-513.3" font-family="Times,serif" font-size="14.00">_layout</text>
<text text-anchor="start" x="179" y="-498.3" font-family="Times,serif" font-size="14.00">energy_type_params</text>
<text text-anchor="start" x="179" y="-483.3" font-family="Times,serif" font-size="14.00">set_energy_type</text>
</g>
<!-- IntervalsController -->
<g id="node6" class="node"><title>IntervalsController</title>
<path fill="none" stroke="black" d="M544,-133.5C544,-133.5 639,-133.5 639,-133.5 645,-133.5 651,-139.5 651,-145.5 651,-145.5 651,-334.5 651,-334.5 651,-340.5 645,-346.5 639,-346.5 639,-346.5 544,-346.5 544,-346.5 538,-346.5 532,-340.5 532,-334.5 532,-334.5 532,-145.5 532,-145.5 532,-139.5 538,-133.5 544,-133.5"/>
<text text-anchor="middle" x="591.5" y="-331.3" font-family="Times,serif" font-size="14.00">IntervalsController</text>
<polyline fill="none" stroke="black" points="532,-323.5 651,-323.5 "/>
<text text-anchor="start" x="540" y="-308.3" font-family="Times,serif" font-size="14.00">create</text>
<text text-anchor="start" x="540" y="-293.3" font-family="Times,serif" font-size="14.00">destroy</text>
<text text-anchor="start" x="540" y="-278.3" font-family="Times,serif" font-size="14.00">edit</text>
<text text-anchor="start" x="540" y="-263.3" font-family="Times,serif" font-size="14.00">index</text>
<text text-anchor="start" x="540" y="-248.3" font-family="Times,serif" font-size="14.00">new</text>
<text text-anchor="start" x="540" y="-233.3" font-family="Times,serif" font-size="14.00">show</text>
<text text-anchor="start" x="540" y="-218.3" font-family="Times,serif" font-size="14.00">update</text>
<polyline fill="none" stroke="black" points="532,-210.5 651,-210.5 "/>
<polyline fill="none" stroke="black" points="532,-186.5 651,-186.5 "/>
<text text-anchor="start" x="540" y="-171.3" font-family="Times,serif" font-size="14.00">_layout</text>
<text text-anchor="start" x="540" y="-156.3" font-family="Times,serif" font-size="14.00">interval_params</text>
<text text-anchor="start" x="540" y="-141.3" font-family="Times,serif" font-size="14.00">set_interval</text>
</g>
<!-- ClusteringsController -->
<g id="node7" class="node"><title>ClusteringsController</title>
<path fill="none" stroke="black" d="M373,-323.5C373,-323.5 483,-323.5 483,-323.5 489,-323.5 495,-329.5 495,-335.5 495,-335.5 495,-614.5 495,-614.5 495,-620.5 489,-626.5 483,-626.5 483,-626.5 373,-626.5 373,-626.5 367,-626.5 361,-620.5 361,-614.5 361,-614.5 361,-335.5 361,-335.5 361,-329.5 367,-323.5 373,-323.5"/>
<text text-anchor="middle" x="428" y="-611.3" font-family="Times,serif" font-size="14.00">ClusteringsController</text>
<polyline fill="none" stroke="black" points="361,-603.5 495,-603.5 "/>
<text text-anchor="start" x="369" y="-588.3" font-family="Times,serif" font-size="14.00">apply</text>
<text text-anchor="start" x="369" y="-573.3" font-family="Times,serif" font-size="14.00">confirm</text>
<text text-anchor="start" x="369" y="-558.3" font-family="Times,serif" font-size="14.00">create</text>
<text text-anchor="start" x="369" y="-543.3" font-family="Times,serif" font-size="14.00">destroy</text>
<text text-anchor="start" x="369" y="-528.3" font-family="Times,serif" font-size="14.00">edit</text>
<text text-anchor="start" x="369" y="-513.3" font-family="Times,serif" font-size="14.00">index</text>
<text text-anchor="start" x="369" y="-498.3" font-family="Times,serif" font-size="14.00">new</text>
<text text-anchor="start" x="369" y="-483.3" font-family="Times,serif" font-size="14.00">new_from_existing</text>
<text text-anchor="start" x="369" y="-468.3" font-family="Times,serif" font-size="14.00">save</text>
<text text-anchor="start" x="369" y="-453.3" font-family="Times,serif" font-size="14.00">select</text>
<text text-anchor="start" x="369" y="-438.3" font-family="Times,serif" font-size="14.00">show</text>
<text text-anchor="start" x="369" y="-423.3" font-family="Times,serif" font-size="14.00">update</text>
<polyline fill="none" stroke="black" points="361,-415.5 495,-415.5 "/>
<polyline fill="none" stroke="black" points="361,-391.5 495,-391.5 "/>
<text text-anchor="start" x="369" y="-376.3" font-family="Times,serif" font-size="14.00">_layout</text>
<text text-anchor="start" x="369" y="-361.3" font-family="Times,serif" font-size="14.00">algorithms</text>
<text text-anchor="start" x="369" y="-346.3" font-family="Times,serif" font-size="14.00">clustering_params</text>
<text text-anchor="start" x="369" y="-331.3" font-family="Times,serif" font-size="14.00">set_clustering</text>
</g>
<!-- ClustersController -->
<g id="node8" class="node"><title>ClustersController</title>
<path fill="none" stroke="black" d="M50,-874.5C50,-874.5 142,-874.5 142,-874.5 148,-874.5 154,-880.5 154,-886.5 154,-886.5 154,-1090.5 154,-1090.5 154,-1096.5 148,-1102.5 142,-1102.5 142,-1102.5 50,-1102.5 50,-1102.5 44,-1102.5 38,-1096.5 38,-1090.5 38,-1090.5 38,-886.5 38,-886.5 38,-880.5 44,-874.5 50,-874.5"/>
<text text-anchor="middle" x="96" y="-1087.3" font-family="Times,serif" font-size="14.00">ClustersController</text>
<polyline fill="none" stroke="black" points="38,-1079.5 154,-1079.5 "/>
<text text-anchor="start" x="46" y="-1064.3" font-family="Times,serif" font-size="14.00">addprosumer</text>
<text text-anchor="start" x="46" y="-1049.3" font-family="Times,serif" font-size="14.00">create</text>
<text text-anchor="start" x="46" y="-1034.3" font-family="Times,serif" font-size="14.00">destroy</text>
<text text-anchor="start" x="46" y="-1019.3" font-family="Times,serif" font-size="14.00">edit</text>
<text text-anchor="start" x="46" y="-1004.3" font-family="Times,serif" font-size="14.00">index</text>
<text text-anchor="start" x="46" y="-989.3" font-family="Times,serif" font-size="14.00">new</text>
<text text-anchor="start" x="46" y="-974.3" font-family="Times,serif" font-size="14.00">show</text>
<text text-anchor="start" x="46" y="-959.3" font-family="Times,serif" font-size="14.00">update</text>
<polyline fill="none" stroke="black" points="38,-951.5 154,-951.5 "/>
<polyline fill="none" stroke="black" points="38,-927.5 154,-927.5 "/>
<text text-anchor="start" x="46" y="-912.3" font-family="Times,serif" font-size="14.00">_layout</text>
<text text-anchor="start" x="46" y="-897.3" font-family="Times,serif" font-size="14.00">cluster_params</text>
<text text-anchor="start" x="46" y="-882.3" font-family="Times,serif" font-size="14.00">set_cluster</text>
</g>
<!-- DataPointsController -->
<g id="node9" class="node"><title>DataPointsController</title>
<path fill="none" stroke="black" d="M164,-190.5C164,-190.5 271,-190.5 271,-190.5 277,-190.5 283,-196.5 283,-202.5 283,-202.5 283,-421.5 283,-421.5 283,-427.5 277,-433.5 271,-433.5 271,-433.5 164,-433.5 164,-433.5 158,-433.5 152,-427.5 152,-421.5 152,-421.5 152,-202.5 152,-202.5 152,-196.5 158,-190.5 164,-190.5"/>
<text text-anchor="middle" x="217.5" y="-418.3" font-family="Times,serif" font-size="14.00">DataPointsController</text>
<polyline fill="none" stroke="black" points="152,-410.5 283,-410.5 "/>
<text text-anchor="start" x="160" y="-395.3" font-family="Times,serif" font-size="14.00">create</text>
<text text-anchor="start" x="160" y="-380.3" font-family="Times,serif" font-size="14.00">destroy</text>
<text text-anchor="start" x="160" y="-365.3" font-family="Times,serif" font-size="14.00">edit</text>
<text text-anchor="start" x="160" y="-350.3" font-family="Times,serif" font-size="14.00">index</text>
<text text-anchor="start" x="160" y="-335.3" font-family="Times,serif" font-size="14.00">new</text>
<text text-anchor="start" x="160" y="-320.3" font-family="Times,serif" font-size="14.00">show</text>
<text text-anchor="start" x="160" y="-305.3" font-family="Times,serif" font-size="14.00">update</text>
<polyline fill="none" stroke="black" points="152,-297.5 283,-297.5 "/>
<polyline fill="none" stroke="black" points="152,-273.5 283,-273.5 "/>
<text text-anchor="start" x="160" y="-258.3" font-family="Times,serif" font-size="14.00">_layout</text>
<text text-anchor="start" x="160" y="-243.3" font-family="Times,serif" font-size="14.00">data_point_params</text>
<text text-anchor="start" x="160" y="-228.3" font-family="Times,serif" font-size="14.00">set_data_point</text>
<text text-anchor="start" x="160" y="-213.3" font-family="Times,serif" font-size="14.00">sort_column</text>
<text text-anchor="start" x="160" y="-198.3" font-family="Times,serif" font-size="14.00">sort_direction</text>
</g>
<!-- IntellenMockController -->
<g id="node10" class="node"><title>IntellenMockController</title>
<path fill="none" stroke="black" d="M696,-19.5C696,-19.5 818,-19.5 818,-19.5 824,-19.5 830,-25.5 830,-31.5 830,-31.5 830,-115.5 830,-115.5 830,-121.5 824,-127.5 818,-127.5 818,-127.5 696,-127.5 696,-127.5 690,-127.5 684,-121.5 684,-115.5 684,-115.5 684,-31.5 684,-31.5 684,-25.5 690,-19.5 696,-19.5"/>
<text text-anchor="middle" x="757" y="-112.3" font-family="Times,serif" font-size="14.00">IntellenMockController</text>
<polyline fill="none" stroke="black" points="684,-104.5 830,-104.5 "/>
<text text-anchor="start" x="692" y="-89.3" font-family="Times,serif" font-size="14.00">getdata</text>
<text text-anchor="start" x="692" y="-74.3" font-family="Times,serif" font-size="14.00">getdayahead</text>
<polyline fill="none" stroke="black" points="684,-66.5 830,-66.5 "/>
<polyline fill="none" stroke="black" points="684,-42.5 830,-42.5 "/>
<text text-anchor="start" x="692" y="-27.3" font-family="Times,serif" font-size="14.00">_layout</text>
</g>
<!-- MarketPricesController -->
<g id="node11" class="node"><title>MarketPricesController</title>
<path fill="none" stroke="black" d="M12,-722.5C12,-722.5 133,-722.5 133,-722.5 139,-722.5 145,-728.5 145,-734.5 145,-734.5 145,-833.5 145,-833.5 145,-839.5 139,-845.5 133,-845.5 133,-845.5 12,-845.5 12,-845.5 6,-845.5 -5.68434e-14,-839.5 -5.68434e-14,-833.5 -5.68434e-14,-833.5 -5.68434e-14,-734.5 -5.68434e-14,-734.5 -5.68434e-14,-728.5 6,-722.5 12,-722.5"/>
<text text-anchor="middle" x="72.5" y="-830.3" font-family="Times,serif" font-size="14.00">MarketPricesController</text>
<polyline fill="none" stroke="black" points="-5.68434e-14,-822.5 145,-822.5 "/>
<text text-anchor="start" x="8" y="-807.3" font-family="Times,serif" font-size="14.00">dayAhead</text>
<text text-anchor="start" x="8" y="-792.3" font-family="Times,serif" font-size="14.00">index</text>
<text text-anchor="start" x="8" y="-777.3" font-family="Times,serif" font-size="14.00">intraDay</text>
<polyline fill="none" stroke="black" points="-5.68434e-14,-769.5 145,-769.5 "/>
<polyline fill="none" stroke="black" points="-5.68434e-14,-745.5 145,-745.5 "/>
<text text-anchor="start" x="8" y="-730.3" font-family="Times,serif" font-size="14.00">_layout</text>
</g>
<!-- ConnectionTypesController -->
<g id="node12" class="node"><title>ConnectionTypesController</title>
<path fill="none" stroke="black" d="M544,-380.5C544,-380.5 687,-380.5 687,-380.5 693,-380.5 699,-386.5 699,-392.5 699,-392.5 699,-581.5 699,-581.5 699,-587.5 693,-593.5 687,-593.5 687,-593.5 544,-593.5 544,-593.5 538,-593.5 532,-587.5 532,-581.5 532,-581.5 532,-392.5 532,-392.5 532,-386.5 538,-380.5 544,-380.5"/>
<text text-anchor="middle" x="615.5" y="-578.3" font-family="Times,serif" font-size="14.00">ConnectionTypesController</text>
<polyline fill="none" stroke="black" points="532,-570.5 699,-570.5 "/>
<text text-anchor="start" x="540" y="-555.3" font-family="Times,serif" font-size="14.00">create</text>
<text text-anchor="start" x="540" y="-540.3" font-family="Times,serif" font-size="14.00">destroy</text>
<text text-anchor="start" x="540" y="-525.3" font-family="Times,serif" font-size="14.00">edit</text>
<text text-anchor="start" x="540" y="-510.3" font-family="Times,serif" font-size="14.00">index</text>
<text text-anchor="start" x="540" y="-495.3" font-family="Times,serif" font-size="14.00">new</text>
<text text-anchor="start" x="540" y="-480.3" font-family="Times,serif" font-size="14.00">show</text>
<text text-anchor="start" x="540" y="-465.3" font-family="Times,serif" font-size="14.00">update</text>
<polyline fill="none" stroke="black" points="532,-457.5 699,-457.5 "/>
<polyline fill="none" stroke="black" points="532,-433.5 699,-433.5 "/>
<text text-anchor="start" x="540" y="-418.3" font-family="Times,serif" font-size="14.00">_layout</text>
<text text-anchor="start" x="540" y="-403.3" font-family="Times,serif" font-size="14.00">connection_type_params</text>
<text text-anchor="start" x="540" y="-388.3" font-family="Times,serif" font-size="14.00">set_connection_type</text>
</g>
<!-- ProsumersController -->
<g id="node13" class="node"><title>ProsumersController</title>
<path fill="none" stroke="black" d="M601,-627.5C601,-627.5 707,-627.5 707,-627.5 713,-627.5 719,-633.5 719,-639.5 719,-639.5 719,-873.5 719,-873.5 719,-879.5 713,-885.5 707,-885.5 707,-885.5 601,-885.5 601,-885.5 595,-885.5 589,-879.5 589,-873.5 589,-873.5 589,-639.5 589,-639.5 589,-633.5 595,-627.5 601,-627.5"/>
<text text-anchor="middle" x="654" y="-870.3" font-family="Times,serif" font-size="14.00">ProsumersController</text>
<polyline fill="none" stroke="black" points="589,-862.5 719,-862.5 "/>
<text text-anchor="start" x="597" y="-847.3" font-family="Times,serif" font-size="14.00">create</text>
<text text-anchor="start" x="597" y="-832.3" font-family="Times,serif" font-size="14.00">destroy</text>
<text text-anchor="start" x="597" y="-817.3" font-family="Times,serif" font-size="14.00">edit</text>
<text text-anchor="start" x="597" y="-802.3" font-family="Times,serif" font-size="14.00">index</text>
<text text-anchor="start" x="597" y="-787.3" font-family="Times,serif" font-size="14.00">new</text>
<text text-anchor="start" x="597" y="-772.3" font-family="Times,serif" font-size="14.00">removefromcluster</text>
<text text-anchor="start" x="597" y="-757.3" font-family="Times,serif" font-size="14.00">show</text>
<text text-anchor="start" x="597" y="-742.3" font-family="Times,serif" font-size="14.00">update</text>
<polyline fill="none" stroke="black" points="589,-734.5 719,-734.5 "/>
<polyline fill="none" stroke="black" points="589,-710.5 719,-710.5 "/>
<text text-anchor="start" x="597" y="-695.3" font-family="Times,serif" font-size="14.00">_layout</text>
<text text-anchor="start" x="597" y="-680.3" font-family="Times,serif" font-size="14.00">prosumer_params</text>
<text text-anchor="start" x="597" y="-665.3" font-family="Times,serif" font-size="14.00">set_prosumer</text>
<text text-anchor="start" x="597" y="-650.3" font-family="Times,serif" font-size="14.00">sort_column</text>
<text text-anchor="start" x="597" y="-635.3" font-family="Times,serif" font-size="14.00">sort_direction</text>
</g>
<!-- MachinesController -->
<g id="node14" class="node"><title>MachinesController</title>
<path fill="none" stroke="black" d="M487,-0.5C487,-0.5 588,-0.5 588,-0.5 594,-0.5 600,-6.5 600,-12.5 600,-12.5 600,-81.5 600,-81.5 600,-87.5 594,-93.5 588,-93.5 588,-93.5 487,-93.5 487,-93.5 481,-93.5 475,-87.5 475,-81.5 475,-81.5 475,-12.5 475,-12.5 475,-6.5 481,-0.5 487,-0.5"/>
<text text-anchor="middle" x="537.5" y="-78.3" font-family="Times,serif" font-size="14.00">MachinesController</text>
<polyline fill="none" stroke="black" points="475,-70.5 600,-70.5 "/>
<text text-anchor="start" x="483" y="-55.3" font-family="Times,serif" font-size="14.00">index</text>
<polyline fill="none" stroke="black" points="475,-47.5 600,-47.5 "/>
<polyline fill="none" stroke="black" points="475,-23.5 600,-23.5 "/>
<text text-anchor="start" x="483" y="-8.3" font-family="Times,serif" font-size="14.00">_layout</text>
</g>
<!-- DayAheadHoursController -->
<g id="node15" class="node"><title>DayAheadHoursController</title>
<path fill="none" stroke="black" d="M392,-665.5C392,-665.5 531,-665.5 531,-665.5 537,-665.5 543,-671.5 543,-677.5 543,-677.5 543,-866.5 543,-866.5 543,-872.5 537,-878.5 531,-878.5 531,-878.5 392,-878.5 392,-878.5 386,-878.5 380,-872.5 380,-866.5 380,-866.5 380,-677.5 380,-677.5 380,-671.5 386,-665.5 392,-665.5"/>
<text text-anchor="middle" x="461.5" y="-863.3" font-family="Times,serif" font-size="14.00">DayAheadHoursController</text>
<polyline fill="none" stroke="black" points="380,-855.5 543,-855.5 "/>
<text text-anchor="start" x="388" y="-840.3" font-family="Times,serif" font-size="14.00">create</text>
<text text-anchor="start" x="388" y="-825.3" font-family="Times,serif" font-size="14.00">destroy</text>
<text text-anchor="start" x="388" y="-810.3" font-family="Times,serif" font-size="14.00">edit</text>
<text text-anchor="start" x="388" y="-795.3" font-family="Times,serif" font-size="14.00">index</text>
<text text-anchor="start" x="388" y="-780.3" font-family="Times,serif" font-size="14.00">new</text>
<text text-anchor="start" x="388" y="-765.3" font-family="Times,serif" font-size="14.00">show</text>
<text text-anchor="start" x="388" y="-750.3" font-family="Times,serif" font-size="14.00">update</text>
<polyline fill="none" stroke="black" points="380,-742.5 543,-742.5 "/>
<polyline fill="none" stroke="black" points="380,-718.5 543,-718.5 "/>
<text text-anchor="start" x="388" y="-703.3" font-family="Times,serif" font-size="14.00">_layout</text>
<text text-anchor="start" x="388" y="-688.3" font-family="Times,serif" font-size="14.00">day_ahead_hour_params</text>
<text text-anchor="start" x="388" y="-673.3" font-family="Times,serif" font-size="14.00">set_day_ahead_hour</text>
</g>
<!-- BuildingTypesController -->
<g id="node16" class="node"><title>BuildingTypesController</title>
<path fill="none" stroke="black" d="M753,-171.5C753,-171.5 881,-171.5 881,-171.5 887,-171.5 893,-177.5 893,-183.5 893,-183.5 893,-372.5 893,-372.5 893,-378.5 887,-384.5 881,-384.5 881,-384.5 753,-384.5 753,-384.5 747,-384.5 741,-378.5 741,-372.5 741,-372.5 741,-183.5 741,-183.5 741,-177.5 747,-171.5 753,-171.5"/>
<text text-anchor="middle" x="817" y="-369.3" font-family="Times,serif" font-size="14.00">BuildingTypesController</text>
<polyline fill="none" stroke="black" points="741,-361.5 893,-361.5 "/>
<text text-anchor="start" x="749" y="-346.3" font-family="Times,serif" font-size="14.00">create</text>
<text text-anchor="start" x="749" y="-331.3" font-family="Times,serif" font-size="14.00">destroy</text>
<text text-anchor="start" x="749" y="-316.3" font-family="Times,serif" font-size="14.00">edit</text>
<text text-anchor="start" x="749" y="-301.3" font-family="Times,serif" font-size="14.00">index</text>
<text text-anchor="start" x="749" y="-286.3" font-family="Times,serif" font-size="14.00">new</text>
<text text-anchor="start" x="749" y="-271.3" font-family="Times,serif" font-size="14.00">show</text>
<text text-anchor="start" x="749" y="-256.3" font-family="Times,serif" font-size="14.00">update</text>
<polyline fill="none" stroke="black" points="741,-248.5 893,-248.5 "/>
<polyline fill="none" stroke="black" points="741,-224.5 893,-224.5 "/>
<text text-anchor="start" x="749" y="-209.3" font-family="Times,serif" font-size="14.00">_layout</text>
<text text-anchor="start" x="749" y="-194.3" font-family="Times,serif" font-size="14.00">building_type_params</text>
<text text-anchor="start" x="749" y="-179.3" font-family="Times,serif" font-size="14.00">set_building_type</text>
</g>
<!-- ApplicationController -->
<g id="node17" class="node"><title>ApplicationController</title>
<path fill="none" stroke="black" d="M392,-912.5C392,-912.5 544,-912.5 544,-912.5 550,-912.5 556,-918.5 556,-924.5 556,-924.5 556,-1023.5 556,-1023.5 556,-1029.5 550,-1035.5 544,-1035.5 544,-1035.5 392,-1035.5 392,-1035.5 386,-1035.5 380,-1029.5 380,-1023.5 380,-1023.5 380,-924.5 380,-924.5 380,-918.5 386,-912.5 392,-912.5"/>
<text text-anchor="middle" x="468" y="-1020.3" font-family="Times,serif" font-size="14.00">ApplicationController</text>
<polyline fill="none" stroke="black" points="380,-1012.5 556,-1012.5 "/>
<text text-anchor="start" x="388" y="-997.3" font-family="Times,serif" font-size="14.00">after_sign_in_path_for</text>
<text text-anchor="start" x="388" y="-982.3" font-family="Times,serif" font-size="14.00">after_sign_out_path_for</text>
<polyline fill="none" stroke="black" points="380,-974.5 556,-974.5 "/>
<polyline fill="none" stroke="black" points="380,-950.5 556,-950.5 "/>
<text text-anchor="start" x="388" y="-935.3" font-family="Times,serif" font-size="14.00">_layout</text>
<text text-anchor="start" x="388" y="-920.3" font-family="Times,serif" font-size="14.00">do_not_check_authorization?</text>
</g>
<!-- StreamController -->
<g id="node18" class="node"><title>StreamController</title>
<path fill="none" stroke="black" d="M886,-0.5C886,-0.5 973,-0.5 973,-0.5 979,-0.5 985,-6.5 985,-12.5 985,-12.5 985,-126.5 985,-126.5 985,-132.5 979,-138.5 973,-138.5 973,-138.5 886,-138.5 886,-138.5 880,-138.5 874,-132.5 874,-126.5 874,-126.5 874,-12.5 874,-12.5 874,-6.5 880,-0.5 886,-0.5"/>
<text text-anchor="middle" x="929.5" y="-123.3" font-family="Times,serif" font-size="14.00">StreamController</text>
<polyline fill="none" stroke="black" points="874,-115.5 985,-115.5 "/>
<text text-anchor="start" x="882" y="-100.3" font-family="Times,serif" font-size="14.00">addevent</text>
<text text-anchor="start" x="882" y="-85.3" font-family="Times,serif" font-size="14.00">clusterfeed</text>
<text text-anchor="start" x="882" y="-70.3" font-family="Times,serif" font-size="14.00">meter</text>
<text text-anchor="start" x="882" y="-55.3" font-family="Times,serif" font-size="14.00">prosumer</text>
<polyline fill="none" stroke="black" points="874,-47.5 985,-47.5 "/>
<polyline fill="none" stroke="black" points="874,-23.5 985,-23.5 "/>
<text text-anchor="start" x="882" y="-8.3" font-family="Times,serif" font-size="14.00">_layout</text>
</g>
<!-- UsersController -->
<g id="node19" class="node"><title>UsersController</title>
<path fill="none" stroke="black" d="M50,-475.5C50,-475.5 129,-475.5 129,-475.5 135,-475.5 141,-481.5 141,-487.5 141,-487.5 141,-676.5 141,-676.5 141,-682.5 135,-688.5 129,-688.5 129,-688.5 50,-688.5 50,-688.5 44,-688.5 38,-682.5 38,-676.5 38,-676.5 38,-487.5 38,-487.5 38,-481.5 44,-475.5 50,-475.5"/>
<text text-anchor="middle" x="89.5" y="-673.3" font-family="Times,serif" font-size="14.00">UsersController</text>
<polyline fill="none" stroke="black" points="38,-665.5 141,-665.5 "/>
<text text-anchor="start" x="46" y="-650.3" font-family="Times,serif" font-size="14.00">create</text>
<text text-anchor="start" x="46" y="-635.3" font-family="Times,serif" font-size="14.00">destroy</text>
<text text-anchor="start" x="46" y="-620.3" font-family="Times,serif" font-size="14.00">edit</text>
<text text-anchor="start" x="46" y="-605.3" font-family="Times,serif" font-size="14.00">index</text>
<text text-anchor="start" x="46" y="-590.3" font-family="Times,serif" font-size="14.00">new</text>
<text text-anchor="start" x="46" y="-575.3" font-family="Times,serif" font-size="14.00">show</text>
<text text-anchor="start" x="46" y="-560.3" font-family="Times,serif" font-size="14.00">update</text>
<polyline fill="none" stroke="black" points="38,-552.5 141,-552.5 "/>
<polyline fill="none" stroke="black" points="38,-528.5 141,-528.5 "/>
<text text-anchor="start" x="46" y="-513.3" font-family="Times,serif" font-size="14.00">_layout</text>
<text text-anchor="start" x="46" y="-498.3" font-family="Times,serif" font-size="14.00">set_user</text>
<text text-anchor="start" x="46" y="-483.3" font-family="Times,serif" font-size="14.00">user_params</text>
</g>
<!-- EnergyPricesController -->
<g id="node20" class="node"><title>EnergyPricesController</title>
<path fill="none" stroke="black" d="M772,-418.5C772,-418.5 892,-418.5 892,-418.5 898,-418.5 904,-424.5 904,-430.5 904,-430.5 904,-619.5 904,-619.5 904,-625.5 898,-631.5 892,-631.5 892,-631.5 772,-631.5 772,-631.5 766,-631.5 760,-625.5 760,-619.5 760,-619.5 760,-430.5 760,-430.5 760,-424.5 766,-418.5 772,-418.5"/>
<text text-anchor="middle" x="832" y="-616.3" font-family="Times,serif" font-size="14.00">EnergyPricesController</text>
<polyline fill="none" stroke="black" points="760,-608.5 904,-608.5 "/>
<text text-anchor="start" x="768" y="-593.3" font-family="Times,serif" font-size="14.00">create</text>
<text text-anchor="start" x="768" y="-578.3" font-family="Times,serif" font-size="14.00">destroy</text>
<text text-anchor="start" x="768" y="-563.3" font-family="Times,serif" font-size="14.00">edit</text>
<text text-anchor="start" x="768" y="-548.3" font-family="Times,serif" font-size="14.00">index</text>
<text text-anchor="start" x="768" y="-533.3" font-family="Times,serif" font-size="14.00">new</text>
<text text-anchor="start" x="768" y="-518.3" font-family="Times,serif" font-size="14.00">show</text>
<text text-anchor="start" x="768" y="-503.3" font-family="Times,serif" font-size="14.00">update</text>
<polyline fill="none" stroke="black" points="760,-495.5 904,-495.5 "/>
<polyline fill="none" stroke="black" points="760,-471.5 904,-471.5 "/>
<text text-anchor="start" x="768" y="-456.3" font-family="Times,serif" font-size="14.00">_layout</text>
<text text-anchor="start" x="768" y="-441.3" font-family="Times,serif" font-size="14.00">energy_price_params</text>
<text text-anchor="start" x="768" y="-426.3" font-family="Times,serif" font-size="14.00">set_energy_price</text>
</g>
<!-- CloudPlatformController -->
<g id="node21" class="node"><title>CloudPlatformController</title>
<path fill="none" stroke="black" d="M924,-950.5C924,-950.5 1053,-950.5 1053,-950.5 1059,-950.5 1065,-956.5 1065,-962.5 1065,-962.5 1065,-1091.5 1065,-1091.5 1065,-1097.5 1059,-1103.5 1053,-1103.5 1053,-1103.5 924,-1103.5 924,-1103.5 918,-1103.5 912,-1097.5 912,-1091.5 912,-1091.5 912,-962.5 912,-962.5 912,-956.5 918,-950.5 924,-950.5"/>
<text text-anchor="middle" x="988.5" y="-1088.3" font-family="Times,serif" font-size="14.00">CloudPlatformController</text>
<polyline fill="none" stroke="black" points="912,-1080.5 1065,-1080.5 "/>
<text text-anchor="start" x="920" y="-1065.3" font-family="Times,serif" font-size="14.00">delete</text>
<text text-anchor="start" x="920" y="-1050.3" font-family="Times,serif" font-size="14.00">execute</text>
<text text-anchor="start" x="920" y="-1035.3" font-family="Times,serif" font-size="14.00">index</text>
<text text-anchor="start" x="920" y="-1020.3" font-family="Times,serif" font-size="14.00">instances</text>
<text text-anchor="start" x="920" y="-1005.3" font-family="Times,serif" font-size="14.00">responses</text>
<polyline fill="none" stroke="black" points="912,-997.5 1065,-997.5 "/>
<polyline fill="none" stroke="black" points="912,-973.5 1065,-973.5 "/>
<text text-anchor="start" x="920" y="-958.3" font-family="Times,serif" font-size="14.00">_layout</text>
</g>
<!-- DayAheadsController -->
<g id="node22" class="node"><title>DayAheadsController</title>
<path fill="none" stroke="black" d="M772,-665.5C772,-665.5 883,-665.5 883,-665.5 889,-665.5 895,-671.5 895,-677.5 895,-677.5 895,-896.5 895,-896.5 895,-902.5 889,-908.5 883,-908.5 883,-908.5 772,-908.5 772,-908.5 766,-908.5 760,-902.5 760,-896.5 760,-896.5 760,-677.5 760,-677.5 760,-671.5 766,-665.5 772,-665.5"/>
<text text-anchor="middle" x="827.5" y="-893.3" font-family="Times,serif" font-size="14.00">DayAheadsController</text>
<polyline fill="none" stroke="black" points="760,-885.5 895,-885.5 "/>
<text text-anchor="start" x="768" y="-870.3" font-family="Times,serif" font-size="14.00">create</text>
<text text-anchor="start" x="768" y="-855.3" font-family="Times,serif" font-size="14.00">destroy</text>
<text text-anchor="start" x="768" y="-840.3" font-family="Times,serif" font-size="14.00">edit</text>
<text text-anchor="start" x="768" y="-825.3" font-family="Times,serif" font-size="14.00">index</text>
<text text-anchor="start" x="768" y="-810.3" font-family="Times,serif" font-size="14.00">new</text>
<text text-anchor="start" x="768" y="-795.3" font-family="Times,serif" font-size="14.00">show</text>
<text text-anchor="start" x="768" y="-780.3" font-family="Times,serif" font-size="14.00">update</text>
<polyline fill="none" stroke="black" points="760,-772.5 895,-772.5 "/>
<polyline fill="none" stroke="black" points="760,-748.5 895,-748.5 "/>
<text text-anchor="start" x="768" y="-733.3" font-family="Times,serif" font-size="14.00">_layout</text>
<text text-anchor="start" x="768" y="-718.3" font-family="Times,serif" font-size="14.00">day_ahead_params</text>
<text text-anchor="start" x="768" y="-703.3" font-family="Times,serif" font-size="14.00">set_day_ahead</text>
<text text-anchor="start" x="768" y="-688.3" font-family="Times,serif" font-size="14.00">sort_column</text>
<text text-anchor="start" x="768" y="-673.3" font-family="Times,serif" font-size="14.00">sort_direction</text>
</g>
<!-- RolesController -->
<g id="node23" class="node"><title>RolesController</title>
<path fill="none" stroke="black" d="M31,-228.5C31,-228.5 110,-228.5 110,-228.5 116,-228.5 122,-234.5 122,-240.5 122,-240.5 122,-429.5 122,-429.5 122,-435.5 116,-441.5 110,-441.5 110,-441.5 31,-441.5 31,-441.5 25,-441.5 19,-435.5 19,-429.5 19,-429.5 19,-240.5 19,-240.5 19,-234.5 25,-228.5 31,-228.5"/>
<text text-anchor="middle" x="70.5" y="-426.3" font-family="Times,serif" font-size="14.00">RolesController</text>
<polyline fill="none" stroke="black" points="19,-418.5 122,-418.5 "/>
<text text-anchor="start" x="27" y="-403.3" font-family="Times,serif" font-size="14.00">create</text>
<text text-anchor="start" x="27" y="-388.3" font-family="Times,serif" font-size="14.00">destroy</text>
<text text-anchor="start" x="27" y="-373.3" font-family="Times,serif" font-size="14.00">edit</text>
<text text-anchor="start" x="27" y="-358.3" font-family="Times,serif" font-size="14.00">index</text>
<text text-anchor="start" x="27" y="-343.3" font-family="Times,serif" font-size="14.00">new</text>
<text text-anchor="start" x="27" y="-328.3" font-family="Times,serif" font-size="14.00">show</text>
<text text-anchor="start" x="27" y="-313.3" font-family="Times,serif" font-size="14.00">update</text>
<polyline fill="none" stroke="black" points="19,-305.5 122,-305.5 "/>
<polyline fill="none" stroke="black" points="19,-281.5 122,-281.5 "/>
<text text-anchor="start" x="27" y="-266.3" font-family="Times,serif" font-size="14.00">_layout</text>
<text text-anchor="start" x="27" y="-251.3" font-family="Times,serif" font-size="14.00">role_params</text>
<text text-anchor="start" x="27" y="-236.3" font-family="Times,serif" font-size="14.00">set_role</text>
</g>
<!-- LoginController -->
<g id="node24" class="node"><title>LoginController</title>
<path fill="none" stroke="black" d="M791,-950.5C791,-950.5 871,-950.5 871,-950.5 877,-950.5 883,-956.5 883,-962.5 883,-962.5 883,-1061.5 883,-1061.5 883,-1067.5 877,-1073.5 871,-1073.5 871,-1073.5 791,-1073.5 791,-1073.5 785,-1073.5 779,-1067.5 779,-1061.5 779,-1061.5 779,-962.5 779,-962.5 779,-956.5 785,-950.5 791,-950.5"/>
<text text-anchor="middle" x="831" y="-1058.3" font-family="Times,serif" font-size="14.00">LoginController</text>
<polyline fill="none" stroke="black" points="779,-1050.5 883,-1050.5 "/>
<text text-anchor="start" x="787" y="-1035.3" font-family="Times,serif" font-size="14.00">index</text>
<text text-anchor="start" x="787" y="-1020.3" font-family="Times,serif" font-size="14.00">signin</text>
<text text-anchor="start" x="787" y="-1005.3" font-family="Times,serif" font-size="14.00">signout</text>
<polyline fill="none" stroke="black" points="779,-997.5 883,-997.5 "/>
<polyline fill="none" stroke="black" points="779,-973.5 883,-973.5 "/>
<text text-anchor="start" x="787" y="-958.3" font-family="Times,serif" font-size="14.00">_layout</text>
</g>
</g>
</svg>
