<?xml version="1.0" encoding="UTF-8" standalone="no"?>
<!DOCTYPE svg PUBLIC "-//W3C//DTD SVG 1.1//EN"
 "http://www.w3.org/Graphics/SVG/1.1/DTD/svg11.dtd">
<!-- Generated by graphviz version 2.36.0 (20140111.2315)
 -->
<!-- Title: models_diagram Pages: 1 -->
<svg width="1247pt" height="446pt"
 viewBox="0.00 0.00 1247.00 446.00" xmlns="http://www.w3.org/2000/svg" xmlns:xlink="http://www.w3.org/1999/xlink">
<g id="graph0" class="graph" transform="scale(1 1) rotate(0) translate(4 442)">
<title>models_diagram</title>
<polygon fill="white" stroke="none" points="-4,4 -4,-442 1243,-442 1243,4 -4,4"/>
<!-- _diagram_info -->
<g id="node1" class="node"><title>_diagram_info</title>
<text text-anchor="start" x="8" y="-423.6" font-family="Times,serif" font-size="13.00">Models diagram</text>
<text text-anchor="start" x="8" y="-409.6" font-family="Times,serif" font-size="13.00">Date: Mar 26 2015 &#45; 11:28</text>
<text text-anchor="start" x="8" y="-395.6" font-family="Times,serif" font-size="13.00">Migration version: 20150204132935</text>
<text text-anchor="start" x="8" y="-381.6" font-family="Times,serif" font-size="13.00">Generated by RailRoady 1.3.0</text>
<text text-anchor="start" x="8" y="-367.6" font-family="Times,serif" font-size="13.00">http://railroady.prestonlee.com</text>
</g>
<!-- Ability -->
<g id="node2" class="node"><title>Ability</title>
<polygon fill="none" stroke="black" points="287.25,-417 232.75,-417 232.75,-381 287.25,-381 287.25,-417"/>
<text text-anchor="middle" x="260" y="-395.3" font-family="Times,serif" font-size="14.00">Ability</text>
</g>
<!-- Interval -->
<g id="node3" class="node"><title>Interval</title>
<ellipse fill="none" stroke="black" cx="208" cy="-234" rx="38.0212" ry="18"/>
<text text-anchor="middle" x="208" y="-230.3" font-family="Times,serif" font-size="14.00">Interval</text>
</g>
<!-- DataPoint -->
<g id="node20" class="node"><title>DataPoint</title>
<ellipse fill="none" stroke="black" cx="208" cy="-162" rx="46.2191" ry="18"/>
<text text-anchor="middle" x="208" y="-158.3" font-family="Times,serif" font-size="14.00">DataPoint</text>
</g>
<!-- Interval&#45;&gt;DataPoint -->
<g id="edge1" class="edge"><title>Interval&#45;&gt;DataPoint</title>
<path fill="none" stroke="#52d56d" d="M208,-207.64C208,-202.063 208,-196.132 208,-190.476"/>
<ellipse fill="none" stroke="#52d56d" cx="208" cy="-211.697" rx="4" ry="4"/>
<polygon fill="#52d56d" stroke="#52d56d" points="208,-190.104 212.5,-180.104 208,-185.104 208,-180.104 208,-180.104 208,-180.104 208,-185.104 203.5,-180.104 208,-190.104 208,-190.104"/>
</g>
<!-- DayAheadEnergyPrice -->
<g id="node4" class="node"><title>DayAheadEnergyPrice</title>
<ellipse fill="none" stroke="black" cx="510" cy="-399" rx="91.4625" ry="18"/>
<text text-anchor="middle" x="510" y="-395.3" font-family="Times,serif" font-size="14.00">DayAheadEnergyPrice</text>
</g>
<!-- EnergyMarket -->
<g id="node5" class="node"><title>EnergyMarket</title>
<ellipse fill="none" stroke="black" cx="681" cy="-399" rx="61.6163" ry="18"/>
<text text-anchor="middle" x="681" y="-395.3" font-family="Times,serif" font-size="14.00">EnergyMarket</text>
</g>
<!-- LogInstance -->
<g id="node6" class="node"><title>LogInstance</title>
<ellipse fill="none" stroke="black" cx="815" cy="-399" rx="53.4184" ry="18"/>
<text text-anchor="middle" x="815" y="-395.3" font-family="Times,serif" font-size="14.00">LogInstance</text>
</g>
<!-- TempCluster -->
<g id="node7" class="node"><title>TempCluster</title>
<ellipse fill="none" stroke="black" cx="353" cy="-306" rx="57.2927" ry="18"/>
<text text-anchor="middle" x="353" y="-302.3" font-family="Times,serif" font-size="14.00">TempCluster</text>
</g>
<!-- Prosumer -->
<g id="node13" class="node"><title>Prosumer</title>
<ellipse fill="none" stroke="black" cx="498" cy="-234" rx="44.271" ry="18"/>
<text text-anchor="middle" x="498" y="-230.3" font-family="Times,serif" font-size="14.00">Prosumer</text>
</g>
<!-- TempCluster&#45;&gt;Prosumer -->
<g id="edge2" class="edge"><title>TempCluster&#45;&gt;Prosumer</title>
<path fill="none" stroke="#8f3ac3" d="M392.174,-286.089C413.64,-275.726 440.088,-262.958 461.173,-252.778"/>
<polygon fill="#8f3ac3" stroke="#8f3ac3" points="392.05,-286.148 381.088,-286.443 387.547,-288.322 383.044,-290.496 383.044,-290.496 383.044,-290.496 387.547,-288.322 385,-294.548 392.05,-286.148 392.05,-286.148"/>
<polygon fill="#8f3ac3" stroke="#8f3ac3" points="461.441,-252.649 472.403,-252.354 465.944,-250.475 470.447,-248.302 470.447,-248.302 470.447,-248.302 465.944,-250.475 468.49,-244.249 461.441,-252.649 461.441,-252.649"/>
</g>
<!-- IntraDayEnergyPrice -->
<g id="node8" class="node"><title>IntraDayEnergyPrice</title>
<ellipse fill="none" stroke="black" cx="972" cy="-399" rx="85.2138" ry="18"/>
<text text-anchor="middle" x="972" y="-395.3" font-family="Times,serif" font-size="14.00">IntraDayEnergyPrice</text>
</g>
<!-- Meter -->
<g id="node9" class="node"><title>Meter</title>
<ellipse fill="none" stroke="black" cx="1108" cy="-399" rx="32.2457" ry="18"/>
<text text-anchor="middle" x="1108" y="-395.3" font-family="Times,serif" font-size="14.00">Meter</text>
</g>
<!-- Role -->
<g id="node10" class="node"><title>Role</title>
<ellipse fill="none" stroke="black" cx="692" cy="-90" rx="26.949" ry="18"/>
<text text-anchor="middle" x="692" y="-86.3" font-family="Times,serif" font-size="14.00">Role</text>
</g>
<!-- User -->
<g id="node21" class="node"><title>User</title>
<ellipse fill="none" stroke="black" cx="626" cy="-18" rx="26.949" ry="18"/>
<text text-anchor="middle" x="626" y="-14.3" font-family="Times,serif" font-size="14.00">User</text>
</g>
<!-- Role&#45;&gt;User -->
<g id="edge3" class="edge"><title>Role&#45;&gt;User</title>
<path fill="none" stroke="#8b9480" d="M670.999,-66.7266C663.32,-58.5821 654.638,-49.3732 646.962,-41.2322"/>
<polygon fill="#8b9480" stroke="#8b9480" points="671.143,-66.8789 674.729,-77.2419 674.573,-70.5168 678.003,-74.1548 678.003,-74.1548 678.003,-74.1548 674.573,-70.5168 681.277,-71.0677 671.143,-66.8789 671.143,-66.8789"/>
<polygon fill="#8b9480" stroke="#8b9480" points="646.837,-41.0997 643.251,-30.7367 643.407,-37.4618 639.977,-33.8238 639.977,-33.8238 639.977,-33.8238 643.407,-37.4618 636.703,-36.9109 646.837,-41.0997 646.837,-41.0997"/>
</g>
<!-- Instance -->
<g id="node11" class="node"><title>Instance</title>
<ellipse fill="none" stroke="black" cx="1199" cy="-399" rx="39.9464" ry="18"/>
<text text-anchor="middle" x="1199" y="-395.3" font-family="Times,serif" font-size="14.00">Instance</text>
</g>
<!-- EnergyTypeProsumer -->
<g id="node12" class="node"><title>EnergyTypeProsumer</title>
<ellipse fill="none" stroke="black" cx="302" cy="-90" rx="88.0886" ry="18"/>
<text text-anchor="middle" x="302" y="-86.3" font-family="Times,serif" font-size="14.00">EnergyTypeProsumer</text>
</g>
<!-- Prosumer&#45;&gt;Role -->
<g id="edge7" class="edge"><title>Prosumer&#45;&gt;Role</title>
<path fill="none" stroke="#03d958" d="M549.189,-227.785C606.982,-220.717 695.64,-205.903 716,-180 730.684,-161.318 720.26,-134.366 708.914,-115.023"/>
<ellipse fill="none" stroke="#03d958" cx="544.87" cy="-228.299" rx="4.00001" ry="4.00001"/>
<polygon fill="#03d958" stroke="#03d958" points="708.863,-114.941 707.363,-104.078 706.207,-110.705 703.55,-106.468 703.55,-106.468 703.55,-106.468 706.207,-110.705 699.738,-108.859 708.863,-114.941 708.863,-114.941"/>
</g>
<!-- Prosumer&#45;&gt;EnergyTypeProsumer -->
<g id="edge9" class="edge"><title>Prosumer&#45;&gt;EnergyTypeProsumer</title>
<path fill="none" stroke="#734230" d="M470.063,-213.182C456.77,-203.492 440.802,-191.469 427,-180 408.857,-164.924 406.795,-158.254 388,-144 372.931,-132.572 355.298,-121.367 339.934,-112.226"/>
<ellipse fill="none" stroke="#734230" cx="473.505" cy="-215.675" rx="4.00002" ry="4.00002"/>
<polygon fill="#734230" stroke="#734230" points="339.813,-112.155 333.463,-103.214 335.5,-109.625 331.187,-107.096 331.187,-107.096 331.187,-107.096 335.5,-109.625 328.91,-110.977 339.813,-112.155 339.813,-112.155"/>
</g>
<!-- Measurement -->
<g id="node15" class="node"><title>Measurement</title>
<ellipse fill="none" stroke="black" cx="648" cy="-162" rx="59.1941" ry="18"/>
<text text-anchor="middle" x="648" y="-158.3" font-family="Times,serif" font-size="14.00">Measurement</text>
</g>
<!-- Prosumer&#45;&gt;Measurement -->
<g id="edge4" class="edge"><title>Prosumer&#45;&gt;Measurement</title>
<path fill="none" stroke="#4cbfd0" d="M533.473,-216.446C555.803,-206.025 584.679,-192.55 607.849,-181.737"/>
<ellipse fill="none" stroke="#4cbfd0" cx="529.839" cy="-218.142" rx="4.00002" ry="4.00002"/>
<polygon fill="#4cbfd0" stroke="#4cbfd0" points="608.007,-181.663 618.972,-181.512 612.538,-179.549 617.069,-177.434 617.069,-177.434 617.069,-177.434 612.538,-179.549 615.166,-173.357 608.007,-181.663 608.007,-181.663"/>
</g>
<!-- EnergyType -->
<g id="node17" class="node"><title>EnergyType</title>
<ellipse fill="none" stroke="black" cx="326" cy="-162" rx="53.4184" ry="18"/>
<text text-anchor="middle" x="326" y="-158.3" font-family="Times,serif" font-size="14.00">EnergyType</text>
</g>
<!-- Prosumer&#45;&gt;EnergyType -->
<g id="edge10" class="edge"><title>Prosumer&#45;&gt;EnergyType</title>
<path fill="none" stroke="#a5b46f" d="M458.249,-216.822C431.227,-205.825 395.534,-191.299 368.04,-180.109"/>
<polygon fill="#a5b46f" stroke="#a5b46f" points="458.383,-216.877 465.949,-224.815 463.015,-218.762 467.646,-220.647 467.646,-220.647 467.646,-220.647 463.015,-218.762 469.342,-216.478 458.383,-216.877 458.383,-216.877"/>
<polygon fill="#a5b46f" stroke="#a5b46f" points="367.947,-180.072 360.381,-172.134 363.316,-178.187 358.685,-176.302 358.685,-176.302 358.685,-176.302 363.316,-178.187 356.988,-180.47 367.947,-180.072 367.947,-180.072"/>
</g>
<!-- DayAhead -->
<g id="node19" class="node"><title>DayAhead</title>
<ellipse fill="none" stroke="black" cx="484" cy="-162" rx="48.1437" ry="18"/>
<text text-anchor="middle" x="484" y="-158.3" font-family="Times,serif" font-size="14.00">DayAhead</text>
</g>
<!-- Prosumer&#45;&gt;DayAhead -->
<g id="edge6" class="edge"><title>Prosumer&#45;&gt;DayAhead</title>
<path fill="none" stroke="#940178" d="M492.928,-207.64C491.784,-201.92 490.566,-195.828 489.408,-190.042"/>
<ellipse fill="none" stroke="#940178" cx="493.755" cy="-211.774" rx="4.00001" ry="4.00001"/>
<polygon fill="#940178" stroke="#940178" points="489.382,-189.91 491.833,-179.222 488.401,-185.007 487.421,-180.104 487.421,-180.104 487.421,-180.104 488.401,-185.007 483.008,-180.987 489.382,-189.91 489.382,-189.91"/>
</g>
<!-- Prosumer&#45;&gt;DataPoint -->
<g id="edge5" class="edge"><title>Prosumer&#45;&gt;DataPoint</title>
<path fill="none" stroke="#fd9b3f" d="M451.126,-223.552C403.506,-213.691 327.748,-197.28 263,-180 259.46,-179.055 255.807,-178.033 252.144,-176.974"/>
<ellipse fill="none" stroke="#fd9b3f" cx="455.183" cy="-224.389" rx="4.00001" ry="4.00001"/>
<polygon fill="#fd9b3f" stroke="#fd9b3f" points="252.089,-176.957 243.781,-169.8 247.295,-175.536 242.501,-174.114 242.501,-174.114 242.501,-174.114 247.295,-175.536 241.222,-178.429 252.089,-176.957 252.089,-176.957"/>
</g>
<!-- Prosumer&#45;&gt;User -->
<g id="edge8" class="edge"><title>Prosumer&#45;&gt;User</title>
<path fill="none" stroke="#78ef79" d="M518.935,-209.239C526.31,-200.355 534.401,-189.992 541,-180 570.993,-134.586 599.093,-77.4271 614.278,-44.868"/>
<polygon fill="#78ef79" stroke="#78ef79" points="518.887,-209.295 508.991,-214.02 515.656,-213.112 512.426,-216.928 512.426,-216.928 512.426,-216.928 515.656,-213.112 515.86,-219.835 518.887,-209.295 518.887,-209.295"/>
<polygon fill="#78ef79" stroke="#78ef79" points="614.369,-44.6712 622.648,-37.4811 616.466,-40.1323 618.563,-35.5935 618.563,-35.5935 618.563,-35.5935 616.466,-40.1323 614.478,-33.7058 614.369,-44.6712 614.369,-44.6712"/>
</g>
<!-- Cluster -->
<g id="node14" class="node"><title>Cluster</title>
<ellipse fill="none" stroke="black" cx="766" cy="-306" rx="36.096" ry="18"/>
<text text-anchor="middle" x="766" y="-302.3" font-family="Times,serif" font-size="14.00">Cluster</text>
</g>
<!-- Cluster&#45;&gt;Role -->
<g id="edge12" class="edge"><title>Cluster&#45;&gt;Role</title>
<path fill="none" stroke="#3823a0" d="M764.361,-279.63C761.467,-246.947 753.65,-188.99 733,-144 727.947,-132.991 720.222,-122.17 712.834,-113.204"/>
<ellipse fill="none" stroke="#3823a0" cx="764.699" cy="-283.773" rx="4" ry="4"/>
<polygon fill="#3823a0" stroke="#3823a0" points="712.758,-113.116 709.639,-102.603 709.494,-109.328 706.23,-105.541 706.23,-105.541 706.23,-105.541 709.494,-109.328 702.821,-108.478 712.758,-113.116 712.758,-113.116"/>
</g>
<!-- Cluster&#45;&gt;Prosumer -->
<g id="edge11" class="edge"><title>Cluster&#45;&gt;Prosumer</title>
<path fill="none" stroke="#18db15" d="M728.965,-292.764C723.626,-291.104 718.185,-289.469 713,-288 655.865,-271.815 589.402,-255.866 545.67,-245.76"/>
<ellipse fill="none" stroke="#18db15" cx="732.859" cy="-293.993" rx="4.00001" ry="4.00001"/>
<polygon fill="#18db15" stroke="#18db15" points="545.625,-245.75 536.888,-239.122 540.752,-244.629 535.879,-243.508 535.879,-243.508 535.879,-243.508 540.752,-244.629 534.87,-247.893 545.625,-245.75 545.625,-245.75"/>
</g>
<!-- Measurement&#45;&gt;Role -->
<g id="edge13" class="edge"><title>Measurement&#45;&gt;Role</title>
<path fill="none" stroke="#208813" d="M663.04,-137.072C667.455,-130.049 672.286,-122.363 676.716,-115.316"/>
<ellipse fill="none" stroke="#208813" cx="660.78" cy="-140.668" rx="4.00002" ry="4.00002"/>
<polygon fill="#208813" stroke="#208813" points="676.728,-115.296 685.86,-109.224 679.389,-111.063 682.05,-106.829 682.05,-106.829 682.05,-106.829 679.389,-111.063 678.24,-104.435 676.728,-115.296 676.728,-115.296"/>
</g>
<!-- ConnectionType -->
<g id="node16" class="node"><title>ConnectionType</title>
<ellipse fill="none" stroke="black" cx="498" cy="-306" rx="69.3156" ry="18"/>
<text text-anchor="middle" x="498" y="-302.3" font-family="Times,serif" font-size="14.00">ConnectionType</text>
</g>
<!-- ConnectionType&#45;&gt;Prosumer -->
<g id="edge14" class="edge"><title>ConnectionType&#45;&gt;Prosumer</title>
<path fill="none" stroke="#f7407d" d="M498,-279.64C498,-274.063 498,-268.132 498,-262.476"/>
<ellipse fill="none" stroke="#f7407d" cx="498" cy="-283.697" rx="4" ry="4"/>
<polygon fill="#f7407d" stroke="#f7407d" points="498,-262.104 502.5,-252.104 498,-257.104 498,-252.104 498,-252.104 498,-252.104 498,-257.104 493.5,-252.104 498,-262.104 498,-262.104"/>
</g>
<!-- EnergyType&#45;&gt;EnergyTypeProsumer -->
<g id="edge15" class="edge"><title>EnergyType&#45;&gt;EnergyTypeProsumer</title>
<path fill="none" stroke="#499dad" d="M317.52,-136.267C315.488,-130.34 313.308,-123.981 311.243,-117.959"/>
<ellipse fill="none" stroke="#499dad" cx="318.893" cy="-140.271" rx="4.00001" ry="4.00001"/>
<polygon fill="#499dad" stroke="#499dad" points="311.166,-117.735 312.18,-106.816 309.545,-113.005 307.923,-108.275 307.923,-108.275 307.923,-108.275 309.545,-113.005 303.666,-109.735 311.166,-117.735 311.166,-117.735"/>
</g>
<!-- DayAheadHour -->
<g id="node18" class="node"><title>DayAheadHour</title>
<ellipse fill="none" stroke="black" cx="475" cy="-90" rx="65.9423" ry="18"/>
<text text-anchor="middle" x="475" y="-86.3" font-family="Times,serif" font-size="14.00">DayAheadHour</text>
</g>
<!-- DayAhead&#45;&gt;DayAheadHour -->
<g id="edge16" class="edge"><title>DayAhead&#45;&gt;DayAheadHour</title>
<path fill="none" stroke="#428069" d="M480.739,-135.64C480.004,-129.92 479.221,-123.828 478.477,-118.042"/>
<ellipse fill="none" stroke="#428069" cx="481.265" cy="-139.729" rx="4.00001" ry="4.00001"/>
<polygon fill="#428069" stroke="#428069" points="478.474,-118.023 481.662,-107.53 477.837,-113.064 477.199,-108.104 477.199,-108.104 477.199,-108.104 477.837,-113.064 472.736,-108.678 478.474,-118.023 478.474,-118.023"/>
</g>
<!-- BuildingType -->
<g id="node22" class="node"><title>BuildingType</title>
<ellipse fill="none" stroke="black" cx="645" cy="-306" rx="59.1941" ry="18"/>
<text text-anchor="middle" x="645" y="-302.3" font-family="Times,serif" font-size="14.00">BuildingType</text>
</g>
<!-- BuildingType&#45;&gt;Prosumer -->
<g id="edge17" class="edge"><title>BuildingType&#45;&gt;Prosumer</title>
<path fill="none" stroke="#1df3d5" d="M607.261,-287.029C585.052,-276.453 557.082,-263.134 535.002,-252.62"/>
<ellipse fill="none" stroke="#1df3d5" cx="610.93" cy="-288.776" rx="4.00002" ry="4.00002"/>
<polygon fill="#1df3d5" stroke="#1df3d5" points="534.962,-252.601 527.868,-244.239 530.448,-250.451 525.933,-248.302 525.933,-248.302 525.933,-248.302 530.448,-250.451 523.999,-252.364 534.962,-252.601 534.962,-252.601"/>
</g>
<!-- Clustering -->
<g id="node23" class="node"><title>Clustering</title>
<ellipse fill="none" stroke="black" cx="353" cy="-399" rx="47.169" ry="18"/>
<text text-anchor="middle" x="353" y="-395.3" font-family="Times,serif" font-size="14.00">Clustering</text>
</g>
<!-- Clustering&#45;&gt;TempCluster -->
<g id="edge18" class="edge"><title>Clustering&#45;&gt;TempCluster</title>
<path fill="none" stroke="#9d45e6" d="M353,-372.729C353,-360.725 353,-346.362 353,-334.129"/>
<ellipse fill="none" stroke="#9d45e6" cx="353" cy="-376.884" rx="4" ry="4"/>
<polygon fill="#9d45e6" stroke="#9d45e6" points="353,-334.04 357.5,-324.04 353,-329.04 353,-324.04 353,-324.04 353,-324.04 353,-329.04 348.5,-324.04 353,-334.04 353,-334.04"/>
</g>
</g>
</svg>
