<?xml version="1.0" encoding="UTF-8" standalone="no"?>
<!DOCTYPE svg PUBLIC "-//W3C//DTD SVG 1.1//EN"
 "http://www.w3.org/Graphics/SVG/1.1/DTD/svg11.dtd">
<!-- Generated by graphviz version 2.36.0 (20140111.2315)
 -->
<!-- Title: models_diagram Pages: 1 -->
<svg width="1563pt" height="374pt"
 viewBox="0.00 0.00 1563.00 374.00" xmlns="http://www.w3.org/2000/svg" xmlns:xlink="http://www.w3.org/1999/xlink">
<g id="graph0" class="graph" transform="scale(1 1) rotate(0) translate(4 370)">
<title>models_diagram</title>
<polygon fill="white" stroke="none" points="-4,4 -4,-370 1559,-370 1559,4 -4,4"/>
<!-- _diagram_info -->
<g id="node1" class="node"><title>_diagram_info</title>
<text text-anchor="start" x="8" y="-351.6" font-family="Times,serif" font-size="13.00">Models diagram</text>
<text text-anchor="start" x="8" y="-337.6" font-family="Times,serif" font-size="13.00">Date: Jan 30 2015 &#45; 14:39</text>
<text text-anchor="start" x="8" y="-323.6" font-family="Times,serif" font-size="13.00">Migration version: 20150112090723</text>
<text text-anchor="start" x="8" y="-309.6" font-family="Times,serif" font-size="13.00">Generated by RailRoady 1.3.0</text>
<text text-anchor="start" x="8" y="-295.6" font-family="Times,serif" font-size="13.00">http://railroady.prestonlee.com</text>
</g>
<!-- Ability -->
<g id="node2" class="node"><title>Ability</title>
<polygon fill="none" stroke="black" points="287.25,-345 232.75,-345 232.75,-309 287.25,-309 287.25,-345"/>
<text text-anchor="middle" x="260" y="-323.3" font-family="Times,serif" font-size="14.00">Ability</text>
</g>
<!-- Interval -->
<g id="node3" class="node"><title>Interval</title>
<ellipse fill="none" stroke="black" cx="158" cy="-234" rx="38.0212" ry="18"/>
<text text-anchor="middle" x="158" y="-230.3" font-family="Times,serif" font-size="14.00">Interval</text>
</g>
<!-- DataPoint -->
<g id="node19" class="node"><title>DataPoint</title>
<ellipse fill="none" stroke="black" cx="158" cy="-162" rx="46.2191" ry="18"/>
<text text-anchor="middle" x="158" y="-158.3" font-family="Times,serif" font-size="14.00">DataPoint</text>
</g>
<!-- Interval&#45;&gt;DataPoint -->
<g id="edge1" class="edge"><title>Interval&#45;&gt;DataPoint</title>
<path fill="none" stroke="#c0af29" d="M158,-207.64C158,-202.063 158,-196.132 158,-190.476"/>
<ellipse fill="none" stroke="#c0af29" cx="158" cy="-211.697" rx="4" ry="4"/>
<polygon fill="#c0af29" stroke="#c0af29" points="158,-190.104 162.5,-180.104 158,-185.104 158,-180.104 158,-180.104 158,-180.104 158,-185.104 153.5,-180.104 158,-190.104 158,-190.104"/>
</g>
<!-- DayAheadEnergyPrice -->
<g id="node4" class="node"><title>DayAheadEnergyPrice</title>
<ellipse fill="none" stroke="black" cx="826" cy="-327" rx="91.4625" ry="18"/>
<text text-anchor="middle" x="826" y="-323.3" font-family="Times,serif" font-size="14.00">DayAheadEnergyPrice</text>
</g>
<!-- EnergyMarket -->
<g id="node5" class="node"><title>EnergyMarket</title>
<ellipse fill="none" stroke="black" cx="997" cy="-327" rx="61.6163" ry="18"/>
<text text-anchor="middle" x="997" y="-323.3" font-family="Times,serif" font-size="14.00">EnergyMarket</text>
</g>
<!-- LogInstance -->
<g id="node6" class="node"><title>LogInstance</title>
<ellipse fill="none" stroke="black" cx="1131" cy="-327" rx="53.4184" ry="18"/>
<text text-anchor="middle" x="1131" y="-323.3" font-family="Times,serif" font-size="14.00">LogInstance</text>
</g>
<!-- IntraDayEnergyPrice -->
<g id="node7" class="node"><title>IntraDayEnergyPrice</title>
<ellipse fill="none" stroke="black" cx="1288" cy="-327" rx="85.2138" ry="18"/>
<text text-anchor="middle" x="1288" y="-323.3" font-family="Times,serif" font-size="14.00">IntraDayEnergyPrice</text>
</g>
<!-- Meter -->
<g id="node8" class="node"><title>Meter</title>
<ellipse fill="none" stroke="black" cx="1424" cy="-327" rx="32.2457" ry="18"/>
<text text-anchor="middle" x="1424" y="-323.3" font-family="Times,serif" font-size="14.00">Meter</text>
</g>
<!-- Role -->
<g id="node9" class="node"><title>Role</title>
<ellipse fill="none" stroke="black" cx="642" cy="-90" rx="26.949" ry="18"/>
<text text-anchor="middle" x="642" y="-86.3" font-family="Times,serif" font-size="14.00">Role</text>
</g>
<!-- User -->
<g id="node20" class="node"><title>User</title>
<ellipse fill="none" stroke="black" cx="576" cy="-18" rx="26.949" ry="18"/>
<text text-anchor="middle" x="576" y="-14.3" font-family="Times,serif" font-size="14.00">User</text>
</g>
<!-- Role&#45;&gt;User -->
<g id="edge2" class="edge"><title>Role&#45;&gt;User</title>
<path fill="none" stroke="#767de0" d="M620.999,-66.7266C613.32,-58.5821 604.638,-49.3732 596.962,-41.2322"/>
<polygon fill="#767de0" stroke="#767de0" points="621.143,-66.8789 624.729,-77.2419 624.573,-70.5168 628.003,-74.1548 628.003,-74.1548 628.003,-74.1548 624.573,-70.5168 631.277,-71.0677 621.143,-66.8789 621.143,-66.8789"/>
<polygon fill="#767de0" stroke="#767de0" points="596.837,-41.0997 593.251,-30.7367 593.407,-37.4618 589.977,-33.8238 589.977,-33.8238 589.977,-33.8238 593.407,-37.4618 586.703,-36.9109 596.837,-41.0997 596.837,-41.0997"/>
</g>
<!-- Instance -->
<g id="node10" class="node"><title>Instance</title>
<ellipse fill="none" stroke="black" cx="1515" cy="-327" rx="39.9464" ry="18"/>
<text text-anchor="middle" x="1515" y="-323.3" font-family="Times,serif" font-size="14.00">Instance</text>
</g>
<!-- EnergyTypeProsumer -->
<g id="node11" class="node"><title>EnergyTypeProsumer</title>
<ellipse fill="none" stroke="black" cx="252" cy="-90" rx="88.0886" ry="18"/>
<text text-anchor="middle" x="252" y="-86.3" font-family="Times,serif" font-size="14.00">EnergyTypeProsumer</text>
</g>
<!-- Prosumer -->
<g id="node12" class="node"><title>Prosumer</title>
<ellipse fill="none" stroke="black" cx="448" cy="-234" rx="44.271" ry="18"/>
<text text-anchor="middle" x="448" y="-230.3" font-family="Times,serif" font-size="14.00">Prosumer</text>
</g>
<!-- Prosumer&#45;&gt;Role -->
<g id="edge6" class="edge"><title>Prosumer&#45;&gt;Role</title>
<path fill="none" stroke="#a22278" d="M499.189,-227.785C556.982,-220.717 645.64,-205.903 666,-180 680.684,-161.318 670.26,-134.366 658.914,-115.023"/>
<ellipse fill="none" stroke="#a22278" cx="494.87" cy="-228.299" rx="4.00001" ry="4.00001"/>
<polygon fill="#a22278" stroke="#a22278" points="658.863,-114.941 657.363,-104.078 656.207,-110.705 653.55,-106.468 653.55,-106.468 653.55,-106.468 656.207,-110.705 649.738,-108.859 658.863,-114.941 658.863,-114.941"/>
</g>
<!-- Prosumer&#45;&gt;EnergyTypeProsumer -->
<g id="edge8" class="edge"><title>Prosumer&#45;&gt;EnergyTypeProsumer</title>
<path fill="none" stroke="#8cb8f9" d="M420.063,-213.182C406.77,-203.492 390.802,-191.469 377,-180 358.857,-164.924 356.795,-158.254 338,-144 322.931,-132.572 305.298,-121.367 289.934,-112.226"/>
<ellipse fill="none" stroke="#8cb8f9" cx="423.505" cy="-215.675" rx="4.00002" ry="4.00002"/>
<polygon fill="#8cb8f9" stroke="#8cb8f9" points="289.813,-112.155 283.463,-103.214 285.5,-109.625 281.187,-107.096 281.187,-107.096 281.187,-107.096 285.5,-109.625 278.91,-110.977 289.813,-112.155 289.813,-112.155"/>
</g>
<!-- Measurement -->
<g id="node14" class="node"><title>Measurement</title>
<ellipse fill="none" stroke="black" cx="598" cy="-162" rx="59.1941" ry="18"/>
<text text-anchor="middle" x="598" y="-158.3" font-family="Times,serif" font-size="14.00">Measurement</text>
</g>
<!-- Prosumer&#45;&gt;Measurement -->
<g id="edge3" class="edge"><title>Prosumer&#45;&gt;Measurement</title>
<path fill="none" stroke="#0b842e" d="M483.473,-216.446C505.803,-206.025 534.679,-192.55 557.849,-181.737"/>
<ellipse fill="none" stroke="#0b842e" cx="479.839" cy="-218.142" rx="4.00002" ry="4.00002"/>
<polygon fill="#0b842e" stroke="#0b842e" points="558.007,-181.663 568.972,-181.512 562.538,-179.549 567.069,-177.434 567.069,-177.434 567.069,-177.434 562.538,-179.549 565.166,-173.357 558.007,-181.663 558.007,-181.663"/>
</g>
<!-- EnergyType -->
<g id="node16" class="node"><title>EnergyType</title>
<ellipse fill="none" stroke="black" cx="276" cy="-162" rx="53.4184" ry="18"/>
<text text-anchor="middle" x="276" y="-158.3" font-family="Times,serif" font-size="14.00">EnergyType</text>
</g>
<!-- Prosumer&#45;&gt;EnergyType -->
<g id="edge9" class="edge"><title>Prosumer&#45;&gt;EnergyType</title>
<path fill="none" stroke="#b1aa66" d="M408.249,-216.822C381.227,-205.825 345.534,-191.299 318.04,-180.109"/>
<polygon fill="#b1aa66" stroke="#b1aa66" points="408.383,-216.877 415.949,-224.815 413.015,-218.762 417.646,-220.647 417.646,-220.647 417.646,-220.647 413.015,-218.762 419.342,-216.478 408.383,-216.877 408.383,-216.877"/>
<polygon fill="#b1aa66" stroke="#b1aa66" points="317.947,-180.072 310.381,-172.134 313.316,-178.187 308.685,-176.302 308.685,-176.302 308.685,-176.302 313.316,-178.187 306.988,-180.47 317.947,-180.072 317.947,-180.072"/>
</g>
<!-- DayAhead -->
<g id="node18" class="node"><title>DayAhead</title>
<ellipse fill="none" stroke="black" cx="434" cy="-162" rx="48.1437" ry="18"/>
<text text-anchor="middle" x="434" y="-158.3" font-family="Times,serif" font-size="14.00">DayAhead</text>
</g>
<!-- Prosumer&#45;&gt;DayAhead -->
<g id="edge5" class="edge"><title>Prosumer&#45;&gt;DayAhead</title>
<path fill="none" stroke="#6a861f" d="M442.928,-207.64C441.784,-201.92 440.566,-195.828 439.408,-190.042"/>
<ellipse fill="none" stroke="#6a861f" cx="443.755" cy="-211.774" rx="4.00001" ry="4.00001"/>
<polygon fill="#6a861f" stroke="#6a861f" points="439.382,-189.91 441.833,-179.222 438.401,-185.007 437.421,-180.104 437.421,-180.104 437.421,-180.104 438.401,-185.007 433.008,-180.987 439.382,-189.91 439.382,-189.91"/>
</g>
<!-- Prosumer&#45;&gt;DataPoint -->
<g id="edge4" class="edge"><title>Prosumer&#45;&gt;DataPoint</title>
<path fill="none" stroke="#419cf5" d="M401.126,-223.552C353.506,-213.691 277.748,-197.28 213,-180 209.46,-179.055 205.807,-178.033 202.144,-176.974"/>
<ellipse fill="none" stroke="#419cf5" cx="405.183" cy="-224.389" rx="4.00001" ry="4.00001"/>
<polygon fill="#419cf5" stroke="#419cf5" points="202.089,-176.957 193.781,-169.8 197.295,-175.536 192.501,-174.114 192.501,-174.114 192.501,-174.114 197.295,-175.536 191.222,-178.429 202.089,-176.957 202.089,-176.957"/>
</g>
<!-- Prosumer&#45;&gt;User -->
<g id="edge7" class="edge"><title>Prosumer&#45;&gt;User</title>
<path fill="none" stroke="#d34482" d="M468.935,-209.239C476.31,-200.355 484.401,-189.992 491,-180 520.993,-134.586 549.093,-77.4271 564.278,-44.868"/>
<polygon fill="#d34482" stroke="#d34482" points="468.887,-209.295 458.991,-214.02 465.656,-213.112 462.426,-216.928 462.426,-216.928 462.426,-216.928 465.656,-213.112 465.86,-219.835 468.887,-209.295 468.887,-209.295"/>
<polygon fill="#d34482" stroke="#d34482" points="564.369,-44.6712 572.648,-37.4811 566.466,-40.1323 568.563,-35.5935 568.563,-35.5935 568.563,-35.5935 566.466,-40.1323 564.478,-33.7058 564.369,-44.6712 564.369,-44.6712"/>
</g>
<!-- Cluster -->
<g id="node13" class="node"><title>Cluster</title>
<ellipse fill="none" stroke="black" cx="680" cy="-327" rx="36.096" ry="18"/>
<text text-anchor="middle" x="680" y="-323.3" font-family="Times,serif" font-size="14.00">Cluster</text>
</g>
<!-- Cluster&#45;&gt;Role -->
<g id="edge11" class="edge"><title>Cluster&#45;&gt;Role</title>
<path fill="none" stroke="#d944c8" d="M685.598,-301.12C692.521,-265.287 701.302,-197.57 683,-144 679.084,-132.537 671.571,-121.631 664.034,-112.725"/>
<ellipse fill="none" stroke="#d944c8" cx="684.777" cy="-305.179" rx="4.00001" ry="4.00001"/>
<polygon fill="#d944c8" stroke="#d944c8" points="663.903,-112.579 660.552,-102.138 660.556,-108.865 657.209,-105.15 657.209,-105.15 657.209,-105.15 660.556,-108.865 653.866,-108.162 663.903,-112.579 663.903,-112.579"/>
</g>
<!-- Cluster&#45;&gt;Prosumer -->
<g id="edge10" class="edge"><title>Cluster&#45;&gt;Prosumer</title>
<path fill="none" stroke="#04278f" d="M646.293,-311.37C629.453,-304.162 608.725,-295.444 590,-288 556.424,-274.653 518.014,-260.376 489.615,-250.007"/>
<ellipse fill="none" stroke="#04278f" cx="650.06" cy="-312.987" rx="4.00002" ry="4.00002"/>
<polygon fill="#04278f" stroke="#04278f" points="489.408,-249.931 481.552,-242.281 484.71,-248.221 480.012,-246.51 480.012,-246.51 480.012,-246.51 484.71,-248.221 478.472,-250.738 489.408,-249.931 489.408,-249.931"/>
</g>
<!-- Measurement&#45;&gt;Role -->
<g id="edge12" class="edge"><title>Measurement&#45;&gt;Role</title>
<path fill="none" stroke="#e35489" d="M613.04,-137.072C617.455,-130.049 622.286,-122.363 626.716,-115.316"/>
<ellipse fill="none" stroke="#e35489" cx="610.78" cy="-140.668" rx="4.00002" ry="4.00002"/>
<polygon fill="#e35489" stroke="#e35489" points="626.728,-115.296 635.86,-109.224 629.389,-111.063 632.05,-106.829 632.05,-106.829 632.05,-106.829 629.389,-111.063 628.24,-104.435 626.728,-115.296 626.728,-115.296"/>
</g>
<!-- ConnectionType -->
<g id="node15" class="node"><title>ConnectionType</title>
<ellipse fill="none" stroke="black" cx="375" cy="-327" rx="69.3156" ry="18"/>
<text text-anchor="middle" x="375" y="-323.3" font-family="Times,serif" font-size="14.00">ConnectionType</text>
</g>
<!-- ConnectionType&#45;&gt;Prosumer -->
<g id="edge13" class="edge"><title>ConnectionType&#45;&gt;Prosumer</title>
<path fill="none" stroke="#42a82b" d="M393.656,-302.744C404.353,-289.409 417.763,-272.693 428.585,-259.203"/>
<ellipse fill="none" stroke="#42a82b" cx="390.892" cy="-306.189" rx="4.00002" ry="4.00002"/>
<polygon fill="#42a82b" stroke="#42a82b" points="428.684,-259.079 438.451,-254.095 431.812,-255.179 434.941,-251.279 434.941,-251.279 434.941,-251.279 431.812,-255.179 431.431,-248.463 428.684,-259.079 428.684,-259.079"/>
</g>
<!-- EnergyType&#45;&gt;EnergyTypeProsumer -->
<g id="edge14" class="edge"><title>EnergyType&#45;&gt;EnergyTypeProsumer</title>
<path fill="none" stroke="#c1bbc3" d="M267.52,-136.267C265.488,-130.34 263.308,-123.981 261.243,-117.959"/>
<ellipse fill="none" stroke="#c1bbc3" cx="268.893" cy="-140.271" rx="4.00001" ry="4.00001"/>
<polygon fill="#c1bbc3" stroke="#c1bbc3" points="261.166,-117.735 262.18,-106.816 259.545,-113.005 257.923,-108.275 257.923,-108.275 257.923,-108.275 259.545,-113.005 253.666,-109.735 261.166,-117.735 261.166,-117.735"/>
</g>
<!-- DayAheadHour -->
<g id="node17" class="node"><title>DayAheadHour</title>
<ellipse fill="none" stroke="black" cx="425" cy="-90" rx="65.9423" ry="18"/>
<text text-anchor="middle" x="425" y="-86.3" font-family="Times,serif" font-size="14.00">DayAheadHour</text>
</g>
<!-- DayAhead&#45;&gt;DayAheadHour -->
<g id="edge15" class="edge"><title>DayAhead&#45;&gt;DayAheadHour</title>
<path fill="none" stroke="#1cd64c" d="M430.739,-135.64C430.004,-129.92 429.221,-123.828 428.477,-118.042"/>
<ellipse fill="none" stroke="#1cd64c" cx="431.265" cy="-139.729" rx="4.00001" ry="4.00001"/>
<polygon fill="#1cd64c" stroke="#1cd64c" points="428.474,-118.023 431.662,-107.53 427.837,-113.064 427.199,-108.104 427.199,-108.104 427.199,-108.104 427.837,-113.064 422.736,-108.678 428.474,-118.023 428.474,-118.023"/>
</g>
<!-- BuildingType -->
<g id="node21" class="node"><title>BuildingType</title>
<ellipse fill="none" stroke="black" cx="522" cy="-327" rx="59.1941" ry="18"/>
<text text-anchor="middle" x="522" y="-323.3" font-family="Times,serif" font-size="14.00">BuildingType</text>
</g>
<!-- BuildingType&#45;&gt;Prosumer -->
<g id="edge16" class="edge"><title>BuildingType&#45;&gt;Prosumer</title>
<path fill="none" stroke="#d40557" d="M503.088,-302.744C492.245,-289.409 478.651,-272.693 467.681,-259.203"/>
<ellipse fill="none" stroke="#d40557" cx="505.904" cy="-306.206" rx="4.00002" ry="4.00002"/>
<polygon fill="#d40557" stroke="#d40557" points="467.547,-259.037 464.729,-248.44 464.392,-255.158 461.238,-251.279 461.238,-251.279 461.238,-251.279 464.392,-255.158 457.746,-254.118 467.547,-259.037 467.547,-259.037"/>
</g>
</g>
</svg>
