<?xml version="1.0" encoding="UTF-8" standalone="no"?>
<!DOCTYPE svg PUBLIC "-//W3C//DTD SVG 1.1//EN"
 "http://www.w3.org/Graphics/SVG/1.1/DTD/svg11.dtd">
<!-- Generated by graphviz version 2.36.0 (20140111.2315)
 -->
<!-- Title: models_diagram Pages: 1 -->
<svg width="1297pt" height="374pt"
 viewBox="0.00 0.00 1297.00 374.00" xmlns="http://www.w3.org/2000/svg" xmlns:xlink="http://www.w3.org/1999/xlink">
<g id="graph0" class="graph" transform="scale(1 1) rotate(0) translate(4 370)">
<title>models_diagram</title>
<polygon fill="white" stroke="none" points="-4,4 -4,-370 1293,-370 1293,4 -4,4"/>
<!-- _diagram_info -->
<g id="node1" class="node"><title>_diagram_info</title>
<text text-anchor="start" x="8" y="-351.6" font-family="Times,serif" font-size="13.00">Models diagram</text>
<text text-anchor="start" x="8" y="-337.6" font-family="Times,serif" font-size="13.00">Date: Mar 30 2015 &#45; 18:16</text>
<text text-anchor="start" x="8" y="-323.6" font-family="Times,serif" font-size="13.00">Migration version: 20150204132935</text>
<text text-anchor="start" x="8" y="-309.6" font-family="Times,serif" font-size="13.00">Generated by RailRoady 1.3.0</text>
<text text-anchor="start" x="8" y="-295.6" font-family="Times,serif" font-size="13.00">http://railroady.prestonlee.com</text>
</g>
<!-- Ability -->
<g id="node2" class="node"><title>Ability</title>
<polygon fill="none" stroke="black" points="287.25,-345 232.75,-345 232.75,-309 287.25,-309 287.25,-345"/>
<text text-anchor="middle" x="260" y="-323.3" font-family="Times,serif" font-size="14.00">Ability</text>
</g>
<!-- Interval -->
<g id="node3" class="node"><title>Interval</title>
<ellipse fill="none" stroke="black" cx="269" cy="-162" rx="38.0212" ry="18"/>
<text text-anchor="middle" x="269" y="-158.3" font-family="Times,serif" font-size="14.00">Interval</text>
</g>
<!-- DataPoint -->
<g id="node19" class="node"><title>DataPoint</title>
<ellipse fill="none" stroke="black" cx="269" cy="-90" rx="46.2191" ry="18"/>
<text text-anchor="middle" x="269" y="-86.3" font-family="Times,serif" font-size="14.00">DataPoint</text>
</g>
<!-- Interval&#45;&gt;DataPoint -->
<g id="edge1" class="edge"><title>Interval&#45;&gt;DataPoint</title>
<path fill="none" stroke="#025611" d="M269,-135.64C269,-130.063 269,-124.132 269,-118.476"/>
<ellipse fill="none" stroke="#025611" cx="269" cy="-139.697" rx="4" ry="4"/>
<polygon fill="#025611" stroke="#025611" points="269,-118.104 273.5,-108.104 269,-113.104 269,-108.104 269,-108.104 269,-108.104 269,-113.104 264.5,-108.104 269,-118.104 269,-118.104"/>
</g>
<!-- DayAheadEnergyPrice -->
<g id="node4" class="node"><title>DayAheadEnergyPrice</title>
<ellipse fill="none" stroke="black" cx="905" cy="-234" rx="91.4625" ry="18"/>
<text text-anchor="middle" x="905" y="-230.3" font-family="Times,serif" font-size="14.00">DayAheadEnergyPrice</text>
</g>
<!-- EnergyMarket -->
<g id="node5" class="node"><title>EnergyMarket</title>
<ellipse fill="none" stroke="black" cx="1003" cy="-327" rx="61.6163" ry="18"/>
<text text-anchor="middle" x="1003" y="-323.3" font-family="Times,serif" font-size="14.00">EnergyMarket</text>
</g>
<!-- EnergyMarket&#45;&gt;DayAheadEnergyPrice -->
<g id="edge2" class="edge"><title>EnergyMarket&#45;&gt;DayAheadEnergyPrice</title>
<path fill="none" stroke="#7bb54b" d="M979.385,-304.072C964.631,-290.371 945.634,-272.732 930.531,-258.708"/>
<ellipse fill="none" stroke="#7bb54b" cx="982.548" cy="-307.009" rx="4.00002" ry="4.00002"/>
<polygon fill="#7bb54b" stroke="#7bb54b" points="930.36,-258.548 926.094,-248.446 926.696,-255.146 923.032,-251.744 923.032,-251.744 923.032,-251.744 926.696,-255.146 919.97,-255.041 930.36,-258.548 930.36,-258.548"/>
</g>
<!-- IntraDayEnergyPrice -->
<g id="node8" class="node"><title>IntraDayEnergyPrice</title>
<ellipse fill="none" stroke="black" cx="1100" cy="-234" rx="85.2138" ry="18"/>
<text text-anchor="middle" x="1100" y="-230.3" font-family="Times,serif" font-size="14.00">IntraDayEnergyPrice</text>
</g>
<!-- EnergyMarket&#45;&gt;IntraDayEnergyPrice -->
<g id="edge3" class="edge"><title>EnergyMarket&#45;&gt;IntraDayEnergyPrice</title>
<path fill="none" stroke="#21aa3f" d="M1026.37,-304.072C1040.98,-290.371 1059.78,-272.732 1074.73,-258.708"/>
<ellipse fill="none" stroke="#21aa3f" cx="1023.26" cy="-306.994" rx="4.00002" ry="4.00002"/>
<polygon fill="#21aa3f" stroke="#21aa3f" points="1074.86,-258.586 1085.23,-255.026 1078.51,-255.165 1082.15,-251.744 1082.15,-251.744 1082.15,-251.744 1078.51,-255.165 1079.07,-248.462 1074.86,-258.586 1074.86,-258.586"/>
</g>
<!-- LogInstance -->
<g id="node6" class="node"><title>LogInstance</title>
<ellipse fill="none" stroke="black" cx="1137" cy="-327" rx="53.4184" ry="18"/>
<text text-anchor="middle" x="1137" y="-323.3" font-family="Times,serif" font-size="14.00">LogInstance</text>
</g>
<!-- TempCluster -->
<g id="node7" class="node"><title>TempCluster</title>
<ellipse fill="none" stroke="black" cx="353" cy="-234" rx="57.2927" ry="18"/>
<text text-anchor="middle" x="353" y="-230.3" font-family="Times,serif" font-size="14.00">TempCluster</text>
</g>
<!-- Prosumer -->
<g id="node13" class="node"><title>Prosumer</title>
<ellipse fill="none" stroke="black" cx="508" cy="-162" rx="44.271" ry="18"/>
<text text-anchor="middle" x="508" y="-158.3" font-family="Times,serif" font-size="14.00">Prosumer</text>
</g>
<!-- TempCluster&#45;&gt;Prosumer -->
<g id="edge4" class="edge"><title>TempCluster&#45;&gt;Prosumer</title>
<path fill="none" stroke="#05a756" d="M393.57,-214.678C417.326,-203.95 447.123,-190.493 470.355,-180.001"/>
<polygon fill="#05a756" stroke="#05a756" points="393.48,-214.719 382.514,-214.733 388.923,-216.776 384.367,-218.834 384.367,-218.834 384.367,-218.834 388.923,-216.776 386.219,-222.936 393.48,-214.719 393.48,-214.719"/>
<polygon fill="#05a756" stroke="#05a756" points="470.437,-179.964 481.403,-179.949 474.994,-177.906 479.551,-175.848 479.551,-175.848 479.551,-175.848 474.994,-177.906 477.699,-171.747 470.437,-179.964 470.437,-179.964"/>
</g>
<!-- Meter -->
<g id="node9" class="node"><title>Meter</title>
<ellipse fill="none" stroke="black" cx="366" cy="-90" rx="32.2457" ry="18"/>
<text text-anchor="middle" x="366" y="-86.3" font-family="Times,serif" font-size="14.00">Meter</text>
</g>
<!-- Role -->
<g id="node10" class="node"><title>Role</title>
<ellipse fill="none" stroke="black" cx="759" cy="-90" rx="26.949" ry="18"/>
<text text-anchor="middle" x="759" y="-86.3" font-family="Times,serif" font-size="14.00">Role</text>
</g>
<!-- User -->
<g id="node20" class="node"><title>User</title>
<ellipse fill="none" stroke="black" cx="749" cy="-18" rx="26.949" ry="18"/>
<text text-anchor="middle" x="749" y="-14.3" font-family="Times,serif" font-size="14.00">User</text>
</g>
<!-- Role&#45;&gt;User -->
<g id="edge5" class="edge"><title>Role&#45;&gt;User</title>
<path fill="none" stroke="#dccb1e" d="M755.144,-62.0054C754.41,-56.8733 753.643,-51.4985 752.908,-46.3553"/>
<polygon fill="#dccb1e" stroke="#dccb1e" points="755.165,-62.1555 752.125,-72.6914 755.872,-67.1052 756.579,-72.055 756.579,-72.055 756.579,-72.055 755.872,-67.1052 761.034,-71.4185 755.165,-62.1555 755.165,-62.1555"/>
<polygon fill="#dccb1e" stroke="#dccb1e" points="752.882,-46.1748 755.923,-35.6389 752.175,-41.225 751.468,-36.2753 751.468,-36.2753 751.468,-36.2753 752.175,-41.225 747.013,-36.9117 752.882,-46.1748 752.882,-46.1748"/>
</g>
<!-- Instance -->
<g id="node11" class="node"><title>Instance</title>
<ellipse fill="none" stroke="black" cx="1249" cy="-327" rx="39.9464" ry="18"/>
<text text-anchor="middle" x="1249" y="-323.3" font-family="Times,serif" font-size="14.00">Instance</text>
</g>
<!-- EnergyTypeProsumer -->
<g id="node12" class="node"><title>EnergyTypeProsumer</title>
<ellipse fill="none" stroke="black" cx="441" cy="-18" rx="88.0886" ry="18"/>
<text text-anchor="middle" x="441" y="-14.3" font-family="Times,serif" font-size="14.00">EnergyTypeProsumer</text>
</g>
<!-- Prosumer&#45;&gt;Meter -->
<g id="edge8" class="edge"><title>Prosumer&#45;&gt;Meter</title>
<path fill="none" stroke="#dfab1e" d="M473.539,-144.012C450.787,-132.797 421.154,-118.189 398.757,-107.148"/>
<ellipse fill="none" stroke="#dfab1e" cx="477.369" cy="-145.9" rx="4.00002" ry="4.00002"/>
<polygon fill="#dfab1e" stroke="#dfab1e" points="398.612,-107.076 391.632,-98.6186 394.127,-104.866 389.643,-102.655 389.643,-102.655 389.643,-102.655 394.127,-104.866 387.653,-106.691 398.612,-107.076 398.612,-107.076"/>
</g>
<!-- Prosumer&#45;&gt;Role -->
<g id="edge9" class="edge"><title>Prosumer&#45;&gt;Role</title>
<path fill="none" stroke="#c189b6" d="M554.82,-151.241C597.751,-141.809 662.843,-126.287 718,-108 721.145,-106.957 724.39,-105.785 727.613,-104.557"/>
<ellipse fill="none" stroke="#c189b6" cx="550.712" cy="-152.136" rx="4.00001" ry="4.00001"/>
<polygon fill="#c189b6" stroke="#c189b6" points="727.806,-104.48 738.761,-104.954 732.45,-102.627 737.094,-100.775 737.094,-100.775 737.094,-100.775 732.45,-102.627 735.426,-96.5949 727.806,-104.48 727.806,-104.48"/>
</g>
<!-- Prosumer&#45;&gt;EnergyTypeProsumer -->
<g id="edge11" class="edge"><title>Prosumer&#45;&gt;EnergyTypeProsumer</title>
<path fill="none" stroke="#56b124" d="M476.302,-142.427C464.299,-133.622 451.881,-121.953 445,-108 435.564,-88.8665 435.135,-64.5148 436.746,-46.1222"/>
<ellipse fill="none" stroke="#56b124" cx="479.609" cy="-144.732" rx="4.00002" ry="4.00002"/>
<polygon fill="#56b124" stroke="#56b124" points="436.76,-46.0033 442.35,-36.5693 437.319,-41.0346 437.878,-36.066 437.878,-36.066 437.878,-36.066 437.319,-41.0346 433.406,-35.5627 436.76,-46.0033 436.76,-46.0033"/>
</g>
<!-- EnergyType -->
<g id="node16" class="node"><title>EnergyType</title>
<ellipse fill="none" stroke="black" cx="508" cy="-90" rx="53.4184" ry="18"/>
<text text-anchor="middle" x="508" y="-86.3" font-family="Times,serif" font-size="14.00">EnergyType</text>
</g>
<!-- Prosumer&#45;&gt;EnergyType -->
<g id="edge12" class="edge"><title>Prosumer&#45;&gt;EnergyType</title>
<path fill="none" stroke="#f0953f" d="M508,-133.665C508,-128.687 508,-123.491 508,-118.507"/>
<polygon fill="#f0953f" stroke="#f0953f" points="508,-133.697 503.5,-143.697 508,-138.697 508,-143.697 508,-143.697 508,-143.697 508,-138.697 512.5,-143.697 508,-133.697 508,-133.697"/>
<polygon fill="#f0953f" stroke="#f0953f" points="508,-118.104 512.5,-108.104 508,-113.104 508,-108.104 508,-108.104 508,-108.104 508,-113.104 503.5,-108.104 508,-118.104 508,-118.104"/>
</g>
<!-- DayAhead -->
<g id="node18" class="node"><title>DayAhead</title>
<ellipse fill="none" stroke="black" cx="628" cy="-90" rx="48.1437" ry="18"/>
<text text-anchor="middle" x="628" y="-86.3" font-family="Times,serif" font-size="14.00">DayAhead</text>
</g>
<!-- Prosumer&#45;&gt;DayAhead -->
<g id="edge7" class="edge"><title>Prosumer&#45;&gt;DayAhead</title>
<path fill="none" stroke="#4567d1" d="M539.318,-142.731C556.2,-132.883 577.044,-120.724 594.281,-110.669"/>
<ellipse fill="none" stroke="#4567d1" cx="535.739" cy="-144.819" rx="4.00002" ry="4.00002"/>
<polygon fill="#4567d1" stroke="#4567d1" points="594.288,-110.665 605.194,-109.513 598.607,-108.146 602.926,-105.626 602.926,-105.626 602.926,-105.626 598.607,-108.146 600.659,-101.739 594.288,-110.665 594.288,-110.665"/>
</g>
<!-- Prosumer&#45;&gt;DataPoint -->
<g id="edge6" class="edge"><title>Prosumer&#45;&gt;DataPoint</title>
<path fill="none" stroke="#12a442" d="M464.775,-148.65C427.663,-138.007 372.76,-122.165 325,-108 321.429,-106.941 317.733,-105.837 314.02,-104.722"/>
<ellipse fill="none" stroke="#12a442" cx="469.033" cy="-149.871" rx="4.00001" ry="4.00001"/>
<polygon fill="#12a442" stroke="#12a442" points="313.804,-104.657 305.528,-97.4614 309.016,-103.213 304.229,-101.77 304.229,-101.77 304.229,-101.77 309.016,-103.213 302.93,-106.078 313.804,-104.657 313.804,-104.657"/>
</g>
<!-- Prosumer&#45;&gt;User -->
<g id="edge10" class="edge"><title>Prosumer&#45;&gt;User</title>
<path fill="none" stroke="#eaba50" d="M560.588,-154.446C598.055,-147.703 648.109,-134.29 685,-108 708.013,-91.6001 725.861,-64.2832 736.794,-44.2308"/>
<polygon fill="#eaba50" stroke="#eaba50" points="560.235,-154.505 549.624,-151.739 555.305,-155.341 550.376,-156.176 550.376,-156.176 550.376,-156.176 555.305,-155.341 551.127,-160.613 560.235,-154.505 560.235,-154.505"/>
<polygon fill="#eaba50" stroke="#eaba50" points="736.82,-44.1805 745.447,-37.4106 739.14,-39.7514 741.461,-35.3224 741.461,-35.3224 741.461,-35.3224 739.14,-39.7514 737.474,-33.2341 736.82,-44.1805 736.82,-44.1805"/>
</g>
<!-- Cluster -->
<g id="node14" class="node"><title>Cluster</title>
<ellipse fill="none" stroke="black" cx="759" cy="-234" rx="36.096" ry="18"/>
<text text-anchor="middle" x="759" y="-230.3" font-family="Times,serif" font-size="14.00">Cluster</text>
</g>
<!-- Cluster&#45;&gt;Role -->
<g id="edge14" class="edge"><title>Cluster&#45;&gt;Role</title>
<path fill="none" stroke="#ed169e" d="M759,-207.558C759,-182.444 759,-144.164 759,-118.393"/>
<ellipse fill="none" stroke="#ed169e" cx="759" cy="-211.871" rx="4" ry="4"/>
<polygon fill="#ed169e" stroke="#ed169e" points="759,-118.189 763.5,-108.189 759,-113.189 759,-108.189 759,-108.189 759,-108.189 759,-113.189 754.5,-108.189 759,-118.189 759,-118.189"/>
</g>
<!-- Cluster&#45;&gt;Prosumer -->
<g id="edge13" class="edge"><title>Cluster&#45;&gt;Prosumer</title>
<path fill="none" stroke="#7f1ac4" d="M723.658,-219.531C720.075,-218.288 716.476,-217.089 713,-216 659.688,-199.304 597.43,-183.754 555.634,-173.872"/>
<ellipse fill="none" stroke="#7f1ac4" cx="727.657" cy="-220.954" rx="4.00001" ry="4.00001"/>
<polygon fill="#7f1ac4" stroke="#7f1ac4" points="555.464,-173.832 546.758,-167.165 550.597,-172.689 545.729,-171.546 545.729,-171.546 545.729,-171.546 550.597,-172.689 544.7,-175.927 555.464,-173.832 555.464,-173.832"/>
</g>
<!-- ConnectionType -->
<g id="node15" class="node"><title>ConnectionType</title>
<ellipse fill="none" stroke="black" cx="498" cy="-234" rx="69.3156" ry="18"/>
<text text-anchor="middle" x="498" y="-230.3" font-family="Times,serif" font-size="14.00">ConnectionType</text>
</g>
<!-- ConnectionType&#45;&gt;Prosumer -->
<g id="edge15" class="edge"><title>ConnectionType&#45;&gt;Prosumer</title>
<path fill="none" stroke="#6b9c1b" d="M501.623,-207.64C502.44,-201.92 503.31,-195.828 504.137,-190.042"/>
<ellipse fill="none" stroke="#6b9c1b" cx="501.038" cy="-211.737" rx="4.00001" ry="4.00001"/>
<polygon fill="#6b9c1b" stroke="#6b9c1b" points="504.142,-190.004 510.011,-180.741 504.849,-185.054 505.557,-180.104 505.557,-180.104 505.557,-180.104 504.849,-185.054 501.102,-179.468 504.142,-190.004 504.142,-190.004"/>
</g>
<!-- EnergyType&#45;&gt;EnergyTypeProsumer -->
<g id="edge16" class="edge"><title>EnergyType&#45;&gt;EnergyTypeProsumer</title>
<path fill="none" stroke="#e53699" d="M486.775,-66.8245C479.648,-59.379 471.662,-51.0349 464.38,-43.4265"/>
<ellipse fill="none" stroke="#e53699" cx="489.695" cy="-69.875" rx="4.00002" ry="4.00002"/>
<polygon fill="#e53699" stroke="#e53699" points="464.305,-43.3481 460.641,-33.0124 460.847,-39.736 457.39,-36.1239 457.39,-36.1239 457.39,-36.1239 460.847,-39.736 454.139,-39.2355 464.305,-43.3481 464.305,-43.3481"/>
</g>
<!-- DayAheadHour -->
<g id="node17" class="node"><title>DayAheadHour</title>
<ellipse fill="none" stroke="black" cx="628" cy="-18" rx="65.9423" ry="18"/>
<text text-anchor="middle" x="628" y="-14.3" font-family="Times,serif" font-size="14.00">DayAheadHour</text>
</g>
<!-- DayAhead&#45;&gt;DayAheadHour -->
<g id="edge17" class="edge"><title>DayAhead&#45;&gt;DayAheadHour</title>
<path fill="none" stroke="#568a79" d="M628,-63.6398C628,-58.0629 628,-52.1319 628,-46.4761"/>
<ellipse fill="none" stroke="#568a79" cx="628" cy="-67.6966" rx="4" ry="4"/>
<polygon fill="#568a79" stroke="#568a79" points="628,-46.1043 632.5,-36.1043 628,-41.1043 628,-36.1043 628,-36.1043 628,-36.1043 628,-41.1043 623.5,-36.1044 628,-46.1043 628,-46.1043"/>
</g>
<!-- BuildingType -->
<g id="node21" class="node"><title>BuildingType</title>
<ellipse fill="none" stroke="black" cx="645" cy="-234" rx="59.1941" ry="18"/>
<text text-anchor="middle" x="645" y="-230.3" font-family="Times,serif" font-size="14.00">BuildingType</text>
</g>
<!-- BuildingType&#45;&gt;Prosumer -->
<g id="edge18" class="edge"><title>BuildingType&#45;&gt;Prosumer</title>
<path fill="none" stroke="#c574b6" d="M608.642,-214.423C588.575,-204.17 563.749,-191.485 543.776,-181.28"/>
<ellipse fill="none" stroke="#c574b6" cx="612.384" cy="-216.335" rx="4.00002" ry="4.00002"/>
<polygon fill="#c574b6" stroke="#c574b6" points="543.594,-181.187 536.737,-172.63 539.142,-178.912 534.689,-176.637 534.689,-176.637 534.689,-176.637 539.142,-178.912 532.642,-180.644 543.594,-181.187 543.594,-181.187"/>
</g>
<!-- Clustering -->
<g id="node22" class="node"><title>Clustering</title>
<ellipse fill="none" stroke="black" cx="353" cy="-327" rx="47.169" ry="18"/>
<text text-anchor="middle" x="353" y="-323.3" font-family="Times,serif" font-size="14.00">Clustering</text>
</g>
<!-- Clustering&#45;&gt;TempCluster -->
<g id="edge19" class="edge"><title>Clustering&#45;&gt;TempCluster</title>
<path fill="none" stroke="#0e3711" d="M353,-300.729C353,-288.725 353,-274.362 353,-262.129"/>
<ellipse fill="none" stroke="#0e3711" cx="353" cy="-304.884" rx="4" ry="4"/>
<polygon fill="#0e3711" stroke="#0e3711" points="353,-262.04 357.5,-252.04 353,-257.04 353,-252.04 353,-252.04 353,-252.04 353,-257.04 348.5,-252.04 353,-262.04 353,-262.04"/>
</g>
</g>
</svg>
