<?xml version="1.0" encoding="UTF-8" standalone="no"?>
<!DOCTYPE svg PUBLIC "-//W3C//DTD SVG 1.1//EN"
 "http://www.w3.org/Graphics/SVG/1.1/DTD/svg11.dtd">
<!-- Generated by graphviz version 2.36.0 (20140111.2315)
 -->
<!-- Title: models_diagram Pages: 1 -->
<svg width="3068pt" height="374pt"
 viewBox="0.00 0.00 3068.00 374.00" xmlns="http://www.w3.org/2000/svg" xmlns:xlink="http://www.w3.org/1999/xlink">
<g id="graph0" class="graph" transform="scale(1 1) rotate(0) translate(4 370)">
<title>models_diagram</title>
<polygon fill="white" stroke="none" points="-4,4 -4,-370 3064,-370 3064,4 -4,4"/>
<!-- _diagram_info -->
<g id="node1" class="node"><title>_diagram_info</title>
<text text-anchor="start" x="8" y="-351.6" font-family="Times,serif" font-size="13.00">Models diagram</text>
<text text-anchor="start" x="8" y="-337.6" font-family="Times,serif" font-size="13.00">Date: Apr 24 2015 &#45; 10:38</text>
<text text-anchor="start" x="8" y="-323.6" font-family="Times,serif" font-size="13.00">Migration version: 20150331090654</text>
<text text-anchor="start" x="8" y="-309.6" font-family="Times,serif" font-size="13.00">Generated by RailRoady 1.3.0</text>
<text text-anchor="start" x="8" y="-295.6" font-family="Times,serif" font-size="13.00">http://railroady.prestonlee.com</text>
</g>
<!-- DayAheadEnergyDemand -->
<g id="node2" class="node"><title>DayAheadEnergyDemand</title>
<ellipse fill="none" stroke="black" cx="336" cy="-327" rx="103.486" ry="18"/>
<text text-anchor="middle" x="336" y="-323.3" font-family="Times,serif" font-size="14.00">DayAheadEnergyDemand</text>
</g>
<!-- MarketRegion -->
<g id="node3" class="node"><title>MarketRegion</title>
<ellipse fill="none" stroke="black" cx="520" cy="-327" rx="61.6163" ry="18"/>
<text text-anchor="middle" x="520" y="-323.3" font-family="Times,serif" font-size="14.00">MarketRegion</text>
</g>
<!-- IntraDayEnergyVolume -->
<g id="node4" class="node"><title>IntraDayEnergyVolume</title>
<ellipse fill="none" stroke="black" cx="696" cy="-327" rx="96.2874" ry="18"/>
<text text-anchor="middle" x="696" y="-323.3" font-family="Times,serif" font-size="14.00">IntraDayEnergyVolume</text>
</g>
<!-- Ability -->
<g id="node5" class="node"><title>Ability</title>
<polygon fill="none" stroke="black" points="865.25,-345 810.75,-345 810.75,-309 865.25,-309 865.25,-345"/>
<text text-anchor="middle" x="838" y="-323.3" font-family="Times,serif" font-size="14.00">Ability</text>
</g>
<!-- Interval -->
<g id="node6" class="node"><title>Interval</title>
<ellipse fill="none" stroke="black" cx="847" cy="-162" rx="38.0212" ry="18"/>
<text text-anchor="middle" x="847" y="-158.3" font-family="Times,serif" font-size="14.00">Interval</text>
</g>
<!-- DataPoint -->
<g id="node28" class="node"><title>DataPoint</title>
<ellipse fill="none" stroke="black" cx="847" cy="-90" rx="46.2191" ry="18"/>
<text text-anchor="middle" x="847" y="-86.3" font-family="Times,serif" font-size="14.00">DataPoint</text>
</g>
<!-- Interval&#45;&gt;DataPoint -->
<g id="edge1" class="edge"><title>Interval&#45;&gt;DataPoint</title>
<path fill="none" stroke="#b071c8" d="M847,-135.64C847,-130.063 847,-124.132 847,-118.476"/>
<ellipse fill="none" stroke="#b071c8" cx="847" cy="-139.697" rx="4" ry="4"/>
<polygon fill="#b071c8" stroke="#b071c8" points="847,-118.104 851.5,-108.104 847,-113.104 847,-108.104 847,-108.104 847,-108.104 847,-113.104 842.5,-108.104 847,-118.104 847,-118.104"/>
</g>
<!-- DayAheadEnergyPrice -->
<g id="node7" class="node"><title>DayAheadEnergyPrice</title>
<ellipse fill="none" stroke="black" cx="1483" cy="-234" rx="91.4625" ry="18"/>
<text text-anchor="middle" x="1483" y="-230.3" font-family="Times,serif" font-size="14.00">DayAheadEnergyPrice</text>
</g>
<!-- EnergyMarket -->
<g id="node8" class="node"><title>EnergyMarket</title>
<ellipse fill="none" stroke="black" cx="1581" cy="-327" rx="61.6163" ry="18"/>
<text text-anchor="middle" x="1581" y="-323.3" font-family="Times,serif" font-size="14.00">EnergyMarket</text>
</g>
<!-- EnergyMarket&#45;&gt;DayAheadEnergyPrice -->
<g id="edge2" class="edge"><title>EnergyMarket&#45;&gt;DayAheadEnergyPrice</title>
<path fill="none" stroke="#5ad7a9" d="M1557.39,-304.072C1542.63,-290.371 1523.63,-272.732 1508.53,-258.708"/>
<ellipse fill="none" stroke="#5ad7a9" cx="1560.55" cy="-307.009" rx="4.00002" ry="4.00002"/>
<polygon fill="#5ad7a9" stroke="#5ad7a9" points="1508.36,-258.548 1504.09,-248.446 1504.7,-255.146 1501.03,-251.744 1501.03,-251.744 1501.03,-251.744 1504.7,-255.146 1497.97,-255.041 1508.36,-258.548 1508.36,-258.548"/>
</g>
<!-- IntraDayEnergyPrice -->
<g id="node11" class="node"><title>IntraDayEnergyPrice</title>
<ellipse fill="none" stroke="black" cx="1678" cy="-234" rx="85.2138" ry="18"/>
<text text-anchor="middle" x="1678" y="-230.3" font-family="Times,serif" font-size="14.00">IntraDayEnergyPrice</text>
</g>
<!-- EnergyMarket&#45;&gt;IntraDayEnergyPrice -->
<g id="edge3" class="edge"><title>EnergyMarket&#45;&gt;IntraDayEnergyPrice</title>
<path fill="none" stroke="#921a07" d="M1604.37,-304.072C1618.98,-290.371 1637.78,-272.732 1652.73,-258.708"/>
<ellipse fill="none" stroke="#921a07" cx="1601.26" cy="-306.994" rx="4.00002" ry="4.00002"/>
<polygon fill="#921a07" stroke="#921a07" points="1652.86,-258.586 1663.23,-255.026 1656.51,-255.165 1660.15,-251.744 1660.15,-251.744 1660.15,-251.744 1656.51,-255.165 1657.07,-248.462 1652.86,-258.586 1652.86,-258.586"/>
</g>
<!-- LogInstance -->
<g id="node9" class="node"><title>LogInstance</title>
<ellipse fill="none" stroke="black" cx="1835" cy="-234" rx="53.4184" ry="18"/>
<text text-anchor="middle" x="1835" y="-230.3" font-family="Times,serif" font-size="14.00">LogInstance</text>
</g>
<!-- TempCluster -->
<g id="node10" class="node"><title>TempCluster</title>
<ellipse fill="none" stroke="black" cx="931" cy="-234" rx="57.2927" ry="18"/>
<text text-anchor="middle" x="931" y="-230.3" font-family="Times,serif" font-size="14.00">TempCluster</text>
</g>
<!-- Prosumer -->
<g id="node17" class="node"><title>Prosumer</title>
<ellipse fill="none" stroke="black" cx="1086" cy="-162" rx="44.271" ry="18"/>
<text text-anchor="middle" x="1086" y="-158.3" font-family="Times,serif" font-size="14.00">Prosumer</text>
</g>
<!-- TempCluster&#45;&gt;Prosumer -->
<g id="edge4" class="edge"><title>TempCluster&#45;&gt;Prosumer</title>
<path fill="none" stroke="#a622ba" d="M971.57,-214.678C995.326,-203.95 1025.12,-190.493 1048.36,-180.001"/>
<polygon fill="#a622ba" stroke="#a622ba" points="971.48,-214.719 960.514,-214.733 966.923,-216.776 962.367,-218.834 962.367,-218.834 962.367,-218.834 966.923,-216.776 964.219,-222.936 971.48,-214.719 971.48,-214.719"/>
<polygon fill="#a622ba" stroke="#a622ba" points="1048.44,-179.964 1059.4,-179.949 1052.99,-177.906 1057.55,-175.848 1057.55,-175.848 1057.55,-175.848 1052.99,-177.906 1055.7,-171.747 1048.44,-179.964 1048.44,-179.964"/>
</g>
<!-- Meter -->
<g id="node12" class="node"><title>Meter</title>
<ellipse fill="none" stroke="black" cx="944" cy="-90" rx="32.2457" ry="18"/>
<text text-anchor="middle" x="944" y="-86.3" font-family="Times,serif" font-size="14.00">Meter</text>
</g>
<!-- Role -->
<g id="node13" class="node"><title>Role</title>
<ellipse fill="none" stroke="black" cx="1337" cy="-90" rx="26.949" ry="18"/>
<text text-anchor="middle" x="1337" y="-86.3" font-family="Times,serif" font-size="14.00">Role</text>
</g>
<!-- User -->
<g id="node29" class="node"><title>User</title>
<ellipse fill="none" stroke="black" cx="1327" cy="-18" rx="26.949" ry="18"/>
<text text-anchor="middle" x="1327" y="-14.3" font-family="Times,serif" font-size="14.00">User</text>
</g>
<!-- Role&#45;&gt;User -->
<g id="edge5" class="edge"><title>Role&#45;&gt;User</title>
<path fill="none" stroke="#4c6888" d="M1333.14,-62.0054C1332.41,-56.8733 1331.64,-51.4985 1330.91,-46.3553"/>
<polygon fill="#4c6888" stroke="#4c6888" points="1333.16,-62.1555 1330.12,-72.6914 1333.87,-67.1052 1334.58,-72.055 1334.58,-72.055 1334.58,-72.055 1333.87,-67.1052 1339.03,-71.4185 1333.16,-62.1555 1333.16,-62.1555"/>
<polygon fill="#4c6888" stroke="#4c6888" points="1330.88,-46.1748 1333.92,-35.6389 1330.18,-41.225 1329.47,-36.2753 1329.47,-36.2753 1329.47,-36.2753 1330.18,-41.225 1325.01,-36.9117 1330.88,-46.1748 1330.88,-46.1748"/>
</g>
<!-- Instance -->
<g id="node14" class="node"><title>Instance</title>
<ellipse fill="none" stroke="black" cx="1835" cy="-327" rx="39.9464" ry="18"/>
<text text-anchor="middle" x="1835" y="-323.3" font-family="Times,serif" font-size="14.00">Instance</text>
</g>
<!-- Instance&#45;&gt;LogInstance -->
<g id="edge6" class="edge"><title>Instance&#45;&gt;LogInstance</title>
<path fill="none" stroke="#533f3f" d="M1835,-300.729C1835,-288.725 1835,-274.362 1835,-262.129"/>
<ellipse fill="none" stroke="#533f3f" cx="1835" cy="-304.884" rx="4" ry="4"/>
<polygon fill="#533f3f" stroke="#533f3f" points="1835,-262.04 1839.5,-252.04 1835,-257.04 1835,-252.04 1835,-252.04 1835,-252.04 1835,-257.04 1830.5,-252.04 1835,-262.04 1835,-262.04"/>
</g>
<!-- EnergyTypeProsumer -->
<g id="node15" class="node"><title>EnergyTypeProsumer</title>
<ellipse fill="none" stroke="black" cx="1019" cy="-18" rx="88.0886" ry="18"/>
<text text-anchor="middle" x="1019" y="-14.3" font-family="Times,serif" font-size="14.00">EnergyTypeProsumer</text>
</g>
<!-- AncillaryServicesData -->
<g id="node16" class="node"><title>AncillaryServicesData</title>
<ellipse fill="none" stroke="black" cx="1984" cy="-327" rx="90.0136" ry="18"/>
<text text-anchor="middle" x="1984" y="-323.3" font-family="Times,serif" font-size="14.00">AncillaryServicesData</text>
</g>
<!-- Prosumer&#45;&gt;Meter -->
<g id="edge9" class="edge"><title>Prosumer&#45;&gt;Meter</title>
<path fill="none" stroke="#b00b94" d="M1051.54,-144.012C1028.79,-132.797 999.154,-118.189 976.757,-107.148"/>
<ellipse fill="none" stroke="#b00b94" cx="1055.37" cy="-145.9" rx="4.00002" ry="4.00002"/>
<polygon fill="#b00b94" stroke="#b00b94" points="976.612,-107.076 969.632,-98.6186 972.127,-104.866 967.643,-102.655 967.643,-102.655 967.643,-102.655 972.127,-104.866 965.653,-106.691 976.612,-107.076 976.612,-107.076"/>
</g>
<!-- Prosumer&#45;&gt;Role -->
<g id="edge10" class="edge"><title>Prosumer&#45;&gt;Role</title>
<path fill="none" stroke="#43b90f" d="M1132.82,-151.241C1175.75,-141.809 1240.84,-126.287 1296,-108 1299.15,-106.957 1302.39,-105.785 1305.61,-104.557"/>
<ellipse fill="none" stroke="#43b90f" cx="1128.71" cy="-152.136" rx="4.00001" ry="4.00001"/>
<polygon fill="#43b90f" stroke="#43b90f" points="1305.81,-104.48 1316.76,-104.954 1310.45,-102.627 1315.09,-100.775 1315.09,-100.775 1315.09,-100.775 1310.45,-102.627 1313.43,-96.5949 1305.81,-104.48 1305.81,-104.48"/>
</g>
<!-- Prosumer&#45;&gt;EnergyTypeProsumer -->
<g id="edge12" class="edge"><title>Prosumer&#45;&gt;EnergyTypeProsumer</title>
<path fill="none" stroke="#2d16eb" d="M1054.3,-142.427C1042.3,-133.622 1029.88,-121.953 1023,-108 1013.56,-88.8665 1013.14,-64.5148 1014.75,-46.1222"/>
<ellipse fill="none" stroke="#2d16eb" cx="1057.61" cy="-144.732" rx="4.00002" ry="4.00002"/>
<polygon fill="#2d16eb" stroke="#2d16eb" points="1014.76,-46.0033 1020.35,-36.5693 1015.32,-41.0346 1015.88,-36.066 1015.88,-36.066 1015.88,-36.066 1015.32,-41.0346 1011.41,-35.5627 1014.76,-46.0033 1014.76,-46.0033"/>
</g>
<!-- EnergyType -->
<g id="node23" class="node"><title>EnergyType</title>
<ellipse fill="none" stroke="black" cx="1086" cy="-90" rx="53.4184" ry="18"/>
<text text-anchor="middle" x="1086" y="-86.3" font-family="Times,serif" font-size="14.00">EnergyType</text>
</g>
<!-- Prosumer&#45;&gt;EnergyType -->
<g id="edge13" class="edge"><title>Prosumer&#45;&gt;EnergyType</title>
<path fill="none" stroke="#29588a" d="M1086,-133.665C1086,-128.687 1086,-123.491 1086,-118.507"/>
<polygon fill="#29588a" stroke="#29588a" points="1086,-133.697 1081.5,-143.697 1086,-138.697 1086,-143.697 1086,-143.697 1086,-143.697 1086,-138.697 1090.5,-143.697 1086,-133.697 1086,-133.697"/>
<polygon fill="#29588a" stroke="#29588a" points="1086,-118.104 1090.5,-108.104 1086,-113.104 1086,-108.104 1086,-108.104 1086,-108.104 1086,-113.104 1081.5,-108.104 1086,-118.104 1086,-118.104"/>
</g>
<!-- DayAhead -->
<g id="node27" class="node"><title>DayAhead</title>
<ellipse fill="none" stroke="black" cx="1206" cy="-90" rx="48.1437" ry="18"/>
<text text-anchor="middle" x="1206" y="-86.3" font-family="Times,serif" font-size="14.00">DayAhead</text>
</g>
<!-- Prosumer&#45;&gt;DayAhead -->
<g id="edge8" class="edge"><title>Prosumer&#45;&gt;DayAhead</title>
<path fill="none" stroke="#39f011" d="M1117.32,-142.731C1134.2,-132.883 1155.04,-120.724 1172.28,-110.669"/>
<ellipse fill="none" stroke="#39f011" cx="1113.74" cy="-144.819" rx="4.00002" ry="4.00002"/>
<polygon fill="#39f011" stroke="#39f011" points="1172.29,-110.665 1183.19,-109.513 1176.61,-108.146 1180.93,-105.626 1180.93,-105.626 1180.93,-105.626 1176.61,-108.146 1178.66,-101.739 1172.29,-110.665 1172.29,-110.665"/>
</g>
<!-- Prosumer&#45;&gt;DataPoint -->
<g id="edge7" class="edge"><title>Prosumer&#45;&gt;DataPoint</title>
<path fill="none" stroke="#38dd88" d="M1042.77,-148.65C1005.66,-138.007 950.76,-122.165 903,-108 899.429,-106.941 895.733,-105.837 892.02,-104.722"/>
<ellipse fill="none" stroke="#38dd88" cx="1047.03" cy="-149.871" rx="4.00001" ry="4.00001"/>
<polygon fill="#38dd88" stroke="#38dd88" points="891.804,-104.657 883.528,-97.4614 887.016,-103.213 882.229,-101.77 882.229,-101.77 882.229,-101.77 887.016,-103.213 880.93,-106.078 891.804,-104.657 891.804,-104.657"/>
</g>
<!-- Prosumer&#45;&gt;User -->
<g id="edge11" class="edge"><title>Prosumer&#45;&gt;User</title>
<path fill="none" stroke="#2ee1c4" d="M1138.59,-154.446C1176.06,-147.703 1226.11,-134.29 1263,-108 1286.01,-91.6001 1303.86,-64.2832 1314.79,-44.2308"/>
<polygon fill="#2ee1c4" stroke="#2ee1c4" points="1138.24,-154.505 1127.62,-151.739 1133.31,-155.341 1128.38,-156.176 1128.38,-156.176 1128.38,-156.176 1133.31,-155.341 1129.13,-160.613 1138.24,-154.505 1138.24,-154.505"/>
<polygon fill="#2ee1c4" stroke="#2ee1c4" points="1314.82,-44.1805 1323.45,-37.4106 1317.14,-39.7514 1319.46,-35.3224 1319.46,-35.3224 1319.46,-35.3224 1317.14,-39.7514 1315.47,-33.2341 1314.82,-44.1805 1314.82,-44.1805"/>
</g>
<!-- DayAheadEnergyVolume -->
<g id="node18" class="node"><title>DayAheadEnergyVolume</title>
<ellipse fill="none" stroke="black" cx="2195" cy="-327" rx="102.536" ry="18"/>
<text text-anchor="middle" x="2195" y="-323.3" font-family="Times,serif" font-size="14.00">DayAheadEnergyVolume</text>
</g>
<!-- Cluster -->
<g id="node19" class="node"><title>Cluster</title>
<ellipse fill="none" stroke="black" cx="1337" cy="-234" rx="36.096" ry="18"/>
<text text-anchor="middle" x="1337" y="-230.3" font-family="Times,serif" font-size="14.00">Cluster</text>
</g>
<!-- Cluster&#45;&gt;Role -->
<g id="edge15" class="edge"><title>Cluster&#45;&gt;Role</title>
<path fill="none" stroke="#354865" d="M1337,-207.558C1337,-182.444 1337,-144.164 1337,-118.393"/>
<ellipse fill="none" stroke="#354865" cx="1337" cy="-211.871" rx="4" ry="4"/>
<polygon fill="#354865" stroke="#354865" points="1337,-118.189 1341.5,-108.189 1337,-113.189 1337,-108.189 1337,-108.189 1337,-108.189 1337,-113.189 1332.5,-108.189 1337,-118.189 1337,-118.189"/>
</g>
<!-- Cluster&#45;&gt;Prosumer -->
<g id="edge14" class="edge"><title>Cluster&#45;&gt;Prosumer</title>
<path fill="none" stroke="#de6eda" d="M1301.66,-219.531C1298.07,-218.288 1294.48,-217.089 1291,-216 1237.69,-199.304 1175.43,-183.754 1133.63,-173.872"/>
<ellipse fill="none" stroke="#de6eda" cx="1305.66" cy="-220.954" rx="4.00001" ry="4.00001"/>
<polygon fill="#de6eda" stroke="#de6eda" points="1133.46,-173.832 1124.76,-167.165 1128.6,-172.689 1123.73,-171.546 1123.73,-171.546 1123.73,-171.546 1128.6,-172.689 1122.7,-175.927 1133.46,-173.832 1133.46,-173.832"/>
</g>
<!-- MarketOperator -->
<g id="node20" class="node"><title>MarketOperator</title>
<ellipse fill="none" stroke="black" cx="2383" cy="-327" rx="67.3907" ry="18"/>
<text text-anchor="middle" x="2383" y="-323.3" font-family="Times,serif" font-size="14.00">MarketOperator</text>
</g>
<!-- MbProvisionalTotalData -->
<g id="node21" class="node"><title>MbProvisionalTotalData</title>
<ellipse fill="none" stroke="black" cx="2567" cy="-327" rx="98.1881" ry="18"/>
<text text-anchor="middle" x="2567" y="-323.3" font-family="Times,serif" font-size="14.00">MbProvisionalTotalData</text>
</g>
<!-- ConnectionType -->
<g id="node22" class="node"><title>ConnectionType</title>
<ellipse fill="none" stroke="black" cx="1076" cy="-234" rx="69.3156" ry="18"/>
<text text-anchor="middle" x="1076" y="-230.3" font-family="Times,serif" font-size="14.00">ConnectionType</text>
</g>
<!-- ConnectionType&#45;&gt;Prosumer -->
<g id="edge16" class="edge"><title>ConnectionType&#45;&gt;Prosumer</title>
<path fill="none" stroke="#cf4939" d="M1079.62,-207.64C1080.44,-201.92 1081.31,-195.828 1082.14,-190.042"/>
<ellipse fill="none" stroke="#cf4939" cx="1079.04" cy="-211.737" rx="4.00001" ry="4.00001"/>
<polygon fill="#cf4939" stroke="#cf4939" points="1082.14,-190.004 1088.01,-180.741 1082.85,-185.054 1083.56,-180.104 1083.56,-180.104 1083.56,-180.104 1082.85,-185.054 1079.1,-179.468 1082.14,-190.004 1082.14,-190.004"/>
</g>
<!-- EnergyType&#45;&gt;EnergyTypeProsumer -->
<g id="edge17" class="edge"><title>EnergyType&#45;&gt;EnergyTypeProsumer</title>
<path fill="none" stroke="#5fe25b" d="M1064.77,-66.8245C1057.65,-59.379 1049.66,-51.0349 1042.38,-43.4265"/>
<ellipse fill="none" stroke="#5fe25b" cx="1067.69" cy="-69.875" rx="4.00002" ry="4.00002"/>
<polygon fill="#5fe25b" stroke="#5fe25b" points="1042.3,-43.3481 1038.64,-33.0124 1038.85,-39.736 1035.39,-36.1239 1035.39,-36.1239 1035.39,-36.1239 1038.85,-39.736 1032.14,-39.2355 1042.3,-43.3481 1042.3,-43.3481"/>
</g>
<!-- DayAheadHour -->
<g id="node24" class="node"><title>DayAheadHour</title>
<ellipse fill="none" stroke="black" cx="1206" cy="-18" rx="65.9423" ry="18"/>
<text text-anchor="middle" x="1206" y="-14.3" font-family="Times,serif" font-size="14.00">DayAheadHour</text>
</g>
<!-- EnergyEfficiencyCertificate -->
<g id="node25" class="node"><title>EnergyEfficiencyCertificate</title>
<ellipse fill="none" stroke="black" cx="2794" cy="-327" rx="109.261" ry="18"/>
<text text-anchor="middle" x="2794" y="-323.3" font-family="Times,serif" font-size="14.00">EnergyEfficiencyCertificate</text>
</g>
<!-- GreenCertificate -->
<g id="node26" class="node"><title>GreenCertificate</title>
<ellipse fill="none" stroke="black" cx="2991" cy="-327" rx="69.3156" ry="18"/>
<text text-anchor="middle" x="2991" y="-323.3" font-family="Times,serif" font-size="14.00">GreenCertificate</text>
</g>
<!-- DayAhead&#45;&gt;DayAheadHour -->
<g id="edge18" class="edge"><title>DayAhead&#45;&gt;DayAheadHour</title>
<path fill="none" stroke="#d8708b" d="M1206,-63.6398C1206,-58.0629 1206,-52.1319 1206,-46.4761"/>
<ellipse fill="none" stroke="#d8708b" cx="1206" cy="-67.6966" rx="4" ry="4"/>
<polygon fill="#d8708b" stroke="#d8708b" points="1206,-46.1043 1210.5,-36.1043 1206,-41.1043 1206,-36.1043 1206,-36.1043 1206,-36.1043 1206,-41.1043 1201.5,-36.1044 1206,-46.1043 1206,-46.1043"/>
</g>
<!-- BuildingType -->
<g id="node30" class="node"><title>BuildingType</title>
<ellipse fill="none" stroke="black" cx="1223" cy="-234" rx="59.1941" ry="18"/>
<text text-anchor="middle" x="1223" y="-230.3" font-family="Times,serif" font-size="14.00">BuildingType</text>
</g>
<!-- BuildingType&#45;&gt;Prosumer -->
<g id="edge19" class="edge"><title>BuildingType&#45;&gt;Prosumer</title>
<path fill="none" stroke="#5dfc9e" d="M1186.64,-214.423C1166.58,-204.17 1141.75,-191.485 1121.78,-181.28"/>
<ellipse fill="none" stroke="#5dfc9e" cx="1190.38" cy="-216.335" rx="4.00002" ry="4.00002"/>
<polygon fill="#5dfc9e" stroke="#5dfc9e" points="1121.59,-181.187 1114.74,-172.63 1117.14,-178.912 1112.69,-176.637 1112.69,-176.637 1112.69,-176.637 1117.14,-178.912 1110.64,-180.644 1121.59,-181.187 1121.59,-181.187"/>
</g>
<!-- Clustering -->
<g id="node31" class="node"><title>Clustering</title>
<ellipse fill="none" stroke="black" cx="931" cy="-327" rx="47.169" ry="18"/>
<text text-anchor="middle" x="931" y="-323.3" font-family="Times,serif" font-size="14.00">Clustering</text>
</g>
<!-- Clustering&#45;&gt;TempCluster -->
<g id="edge20" class="edge"><title>Clustering&#45;&gt;TempCluster</title>
<path fill="none" stroke="#289705" d="M931,-300.729C931,-288.725 931,-274.362 931,-262.129"/>
<ellipse fill="none" stroke="#289705" cx="931" cy="-304.884" rx="4" ry="4"/>
<polygon fill="#289705" stroke="#289705" points="931,-262.04 935.5,-252.04 931,-257.04 931,-252.04 931,-252.04 931,-252.04 931,-257.04 926.5,-252.04 931,-262.04 931,-262.04"/>
</g>
</g>
</svg>
