<?xml version="1.0" encoding="UTF-8" standalone="no"?>
<!DOCTYPE svg PUBLIC "-//W3C//DTD SVG 1.1//EN"
 "http://www.w3.org/Graphics/SVG/1.1/DTD/svg11.dtd">
<!-- Generated by graphviz version 2.36.0 (20140111.2315)
 -->
<!-- Title: models_diagram Pages: 1 -->
<svg width="1734pt" height="1172pt"
 viewBox="0.00 0.00 1734.00 1172.00" xmlns="http://www.w3.org/2000/svg" xmlns:xlink="http://www.w3.org/1999/xlink">
<g id="graph0" class="graph" transform="scale(1 1) rotate(0) translate(4 1168)">
<title>models_diagram</title>
<polygon fill="white" stroke="none" points="-4,4 -4,-1168 1730,-1168 1730,4 -4,4"/>
<!-- _diagram_info -->
<g id="node1" class="node"><title>_diagram_info</title>
<text text-anchor="start" x="8" y="-1089.6" font-family="Times,serif" font-size="13.00">Models diagram</text>
<text text-anchor="start" x="8" y="-1075.6" font-family="Times,serif" font-size="13.00">Date: Jan 30 2015 &#45; 14:39</text>
<text text-anchor="start" x="8" y="-1061.6" font-family="Times,serif" font-size="13.00">Migration version: 20150112090723</text>
<text text-anchor="start" x="8" y="-1047.6" font-family="Times,serif" font-size="13.00">Generated by RailRoady 1.3.0</text>
<text text-anchor="start" x="8" y="-1033.6" font-family="Times,serif" font-size="13.00">http://railroady.prestonlee.com</text>
</g>
<!-- Ability -->
<g id="node2" class="node"><title>Ability</title>
<polygon fill="none" stroke="black" points="232.5,-1042 232.5,-1088 287.5,-1088 287.5,-1042 232.5,-1042"/>
<text text-anchor="middle" x="260" y="-1072.8" font-family="Times,serif" font-size="14.00">Ability</text>
<polyline fill="none" stroke="black" points="232.5,-1065 287.5,-1065 "/>
<text text-anchor="middle" x="260" y="-1049.8" font-family="Times,serif" font-size="14.00"> </text>
</g>
<!-- Interval -->
<g id="node3" class="node"><title>Interval</title>
<path fill="none" stroke="black" d="M38.5,-778C38.5,-778 145.5,-778 145.5,-778 151.5,-778 157.5,-784 157.5,-790 157.5,-790 157.5,-872 157.5,-872 157.5,-878 151.5,-884 145.5,-884 145.5,-884 38.5,-884 38.5,-884 32.5,-884 26.5,-878 26.5,-872 26.5,-872 26.5,-790 26.5,-790 26.5,-784 32.5,-778 38.5,-778"/>
<text text-anchor="middle" x="92" y="-868.8" font-family="Times,serif" font-size="14.00">Interval</text>
<polyline fill="none" stroke="black" points="26.5,-861 157.5,-861 "/>
<text text-anchor="start" x="34.5" y="-845.8" font-family="Times,serif" font-size="14.00">id :integer</text>
<text text-anchor="start" x="34.5" y="-830.8" font-family="Times,serif" font-size="14.00">duration :integer</text>
<text text-anchor="start" x="34.5" y="-815.8" font-family="Times,serif" font-size="14.00">name :string</text>
<text text-anchor="start" x="34.5" y="-800.8" font-family="Times,serif" font-size="14.00">created_at :datetime</text>
<text text-anchor="start" x="34.5" y="-785.8" font-family="Times,serif" font-size="14.00">updated_at :datetime</text>
</g>
<!-- DataPoint -->
<g id="node19" class="node"><title>DataPoint</title>
<path fill="none" stroke="black" d="M34,-439C34,-439 150,-439 150,-439 156,-439 162,-445 162,-451 162,-451 162,-683 162,-683 162,-689 156,-695 150,-695 150,-695 34,-695 34,-695 28,-695 22,-689 22,-683 22,-683 22,-451 22,-451 22,-445 28,-439 34,-439"/>
<text text-anchor="middle" x="92" y="-679.8" font-family="Times,serif" font-size="14.00">DataPoint</text>
<polyline fill="none" stroke="black" points="22,-672 162,-672 "/>
<text text-anchor="start" x="30" y="-656.8" font-family="Times,serif" font-size="14.00">id :integer</text>
<text text-anchor="start" x="30" y="-641.8" font-family="Times,serif" font-size="14.00">prosumer_id :integer</text>
<text text-anchor="start" x="30" y="-626.8" font-family="Times,serif" font-size="14.00">interval_id :integer</text>
<text text-anchor="start" x="30" y="-611.8" font-family="Times,serif" font-size="14.00">timestamp :datetime</text>
<text text-anchor="start" x="30" y="-596.8" font-family="Times,serif" font-size="14.00">production :float</text>
<text text-anchor="start" x="30" y="-581.8" font-family="Times,serif" font-size="14.00">consumption :float</text>
<text text-anchor="start" x="30" y="-566.8" font-family="Times,serif" font-size="14.00">storage :float</text>
<text text-anchor="start" x="30" y="-551.8" font-family="Times,serif" font-size="14.00">f_timestamp :datetime</text>
<text text-anchor="start" x="30" y="-536.8" font-family="Times,serif" font-size="14.00">f_production :float</text>
<text text-anchor="start" x="30" y="-521.8" font-family="Times,serif" font-size="14.00">f_consumption :float</text>
<text text-anchor="start" x="30" y="-506.8" font-family="Times,serif" font-size="14.00">f_storage :float</text>
<text text-anchor="start" x="30" y="-491.8" font-family="Times,serif" font-size="14.00">dr :float</text>
<text text-anchor="start" x="30" y="-476.8" font-family="Times,serif" font-size="14.00">reliability :float</text>
<text text-anchor="start" x="30" y="-461.8" font-family="Times,serif" font-size="14.00">created_at :datetime</text>
<text text-anchor="start" x="30" y="-446.8" font-family="Times,serif" font-size="14.00">updated_at :datetime</text>
</g>
<!-- Interval&#45;&gt;DataPoint -->
<g id="edge1" class="edge"><title>Interval&#45;&gt;DataPoint</title>
<path fill="none" stroke="#81fd44" d="M92,-769.871C92,-750.391 92,-727.919 92,-705.199"/>
<ellipse fill="none" stroke="#81fd44" cx="92" cy="-773.924" rx="4" ry="4"/>
<polygon fill="#81fd44" stroke="#81fd44" points="92.0001,-705.105 96.5,-695.104 92,-700.105 92,-695.105 92,-695.105 92,-695.105 92,-700.105 87.5,-695.105 92.0001,-705.105 92.0001,-705.105"/>
</g>
<!-- DayAheadEnergyPrice -->
<g id="node4" class="node"><title>DayAheadEnergyPrice</title>
<path fill="none" stroke="black" d="M806.5,-997C806.5,-997 923.5,-997 923.5,-997 929.5,-997 935.5,-1003 935.5,-1009 935.5,-1009 935.5,-1121 935.5,-1121 935.5,-1127 929.5,-1133 923.5,-1133 923.5,-1133 806.5,-1133 806.5,-1133 800.5,-1133 794.5,-1127 794.5,-1121 794.5,-1121 794.5,-1009 794.5,-1009 794.5,-1003 800.5,-997 806.5,-997"/>
<text text-anchor="middle" x="865" y="-1117.8" font-family="Times,serif" font-size="14.00">DayAheadEnergyPrice</text>
<polyline fill="none" stroke="black" points="794.5,-1110 935.5,-1110 "/>
<text text-anchor="start" x="802.5" y="-1094.8" font-family="Times,serif" font-size="14.00">id :integer</text>
<text text-anchor="start" x="802.5" y="-1079.8" font-family="Times,serif" font-size="14.00">date :datetime</text>
<text text-anchor="start" x="802.5" y="-1064.8" font-family="Times,serif" font-size="14.00">dayhour :integer</text>
<text text-anchor="start" x="802.5" y="-1049.8" font-family="Times,serif" font-size="14.00">price :float</text>
<text text-anchor="start" x="802.5" y="-1034.8" font-family="Times,serif" font-size="14.00">market_id :integer</text>
<text text-anchor="start" x="802.5" y="-1019.8" font-family="Times,serif" font-size="14.00">created_at :datetime</text>
<text text-anchor="start" x="802.5" y="-1004.8" font-family="Times,serif" font-size="14.00">updated_at :datetime</text>
</g>
<!-- EnergyMarket -->
<g id="node5" class="node"><title>EnergyMarket</title>
<path fill="none" stroke="black" d="M965.5,-1019.5C965.5,-1019.5 1072.5,-1019.5 1072.5,-1019.5 1078.5,-1019.5 1084.5,-1025.5 1084.5,-1031.5 1084.5,-1031.5 1084.5,-1098.5 1084.5,-1098.5 1084.5,-1104.5 1078.5,-1110.5 1072.5,-1110.5 1072.5,-1110.5 965.5,-1110.5 965.5,-1110.5 959.5,-1110.5 953.5,-1104.5 953.5,-1098.5 953.5,-1098.5 953.5,-1031.5 953.5,-1031.5 953.5,-1025.5 959.5,-1019.5 965.5,-1019.5"/>
<text text-anchor="middle" x="1019" y="-1095.3" font-family="Times,serif" font-size="14.00">EnergyMarket</text>
<polyline fill="none" stroke="black" points="953.5,-1087.5 1084.5,-1087.5 "/>
<text text-anchor="start" x="961.5" y="-1072.3" font-family="Times,serif" font-size="14.00">id :integer</text>
<text text-anchor="start" x="961.5" y="-1057.3" font-family="Times,serif" font-size="14.00">name :string</text>
<text text-anchor="start" x="961.5" y="-1042.3" font-family="Times,serif" font-size="14.00">created_at :datetime</text>
<text text-anchor="start" x="961.5" y="-1027.3" font-family="Times,serif" font-size="14.00">updated_at :datetime</text>
</g>
<!-- LogInstance -->
<g id="node6" class="node"><title>LogInstance</title>
<path fill="none" stroke="black" d="M1114.5,-1012C1114.5,-1012 1221.5,-1012 1221.5,-1012 1227.5,-1012 1233.5,-1018 1233.5,-1024 1233.5,-1024 1233.5,-1106 1233.5,-1106 1233.5,-1112 1227.5,-1118 1221.5,-1118 1221.5,-1118 1114.5,-1118 1114.5,-1118 1108.5,-1118 1102.5,-1112 1102.5,-1106 1102.5,-1106 1102.5,-1024 1102.5,-1024 1102.5,-1018 1108.5,-1012 1114.5,-1012"/>
<text text-anchor="middle" x="1168" y="-1102.8" font-family="Times,serif" font-size="14.00">LogInstance</text>
<polyline fill="none" stroke="black" points="1102.5,-1095 1233.5,-1095 "/>
<text text-anchor="start" x="1110.5" y="-1079.8" font-family="Times,serif" font-size="14.00">id :integer</text>
<text text-anchor="start" x="1110.5" y="-1064.8" font-family="Times,serif" font-size="14.00">instance_id :integer</text>
<text text-anchor="start" x="1110.5" y="-1049.8" font-family="Times,serif" font-size="14.00">status :integer</text>
<text text-anchor="start" x="1110.5" y="-1034.8" font-family="Times,serif" font-size="14.00">created_at :datetime</text>
<text text-anchor="start" x="1110.5" y="-1019.8" font-family="Times,serif" font-size="14.00">updated_at :datetime</text>
</g>
<!-- IntraDayEnergyPrice -->
<g id="node7" class="node"><title>IntraDayEnergyPrice</title>
<path fill="none" stroke="black" d="M1263.5,-989.5C1263.5,-989.5 1370.5,-989.5 1370.5,-989.5 1376.5,-989.5 1382.5,-995.5 1382.5,-1001.5 1382.5,-1001.5 1382.5,-1128.5 1382.5,-1128.5 1382.5,-1134.5 1376.5,-1140.5 1370.5,-1140.5 1370.5,-1140.5 1263.5,-1140.5 1263.5,-1140.5 1257.5,-1140.5 1251.5,-1134.5 1251.5,-1128.5 1251.5,-1128.5 1251.5,-1001.5 1251.5,-1001.5 1251.5,-995.5 1257.5,-989.5 1263.5,-989.5"/>
<text text-anchor="middle" x="1317" y="-1125.3" font-family="Times,serif" font-size="14.00">IntraDayEnergyPrice</text>
<polyline fill="none" stroke="black" points="1251.5,-1117.5 1382.5,-1117.5 "/>
<text text-anchor="start" x="1259.5" y="-1102.3" font-family="Times,serif" font-size="14.00">id :integer</text>
<text text-anchor="start" x="1259.5" y="-1087.3" font-family="Times,serif" font-size="14.00">date :datetime</text>
<text text-anchor="start" x="1259.5" y="-1072.3" font-family="Times,serif" font-size="14.00">dayhour :integer</text>
<text text-anchor="start" x="1259.5" y="-1057.3" font-family="Times,serif" font-size="14.00">price :float</text>
<text text-anchor="start" x="1259.5" y="-1042.3" font-family="Times,serif" font-size="14.00">interval_id :integer</text>
<text text-anchor="start" x="1259.5" y="-1027.3" font-family="Times,serif" font-size="14.00">market_id :integer</text>
<text text-anchor="start" x="1259.5" y="-1012.3" font-family="Times,serif" font-size="14.00">created_at :datetime</text>
<text text-anchor="start" x="1259.5" y="-997.3" font-family="Times,serif" font-size="14.00">updated_at :datetime</text>
</g>
<!-- Meter -->
<g id="node8" class="node"><title>Meter</title>
<path fill="none" stroke="black" d="M1412.5,-1012C1412.5,-1012 1519.5,-1012 1519.5,-1012 1525.5,-1012 1531.5,-1018 1531.5,-1024 1531.5,-1024 1531.5,-1106 1531.5,-1106 1531.5,-1112 1525.5,-1118 1519.5,-1118 1519.5,-1118 1412.5,-1118 1412.5,-1118 1406.5,-1118 1400.5,-1112 1400.5,-1106 1400.5,-1106 1400.5,-1024 1400.5,-1024 1400.5,-1018 1406.5,-1012 1412.5,-1012"/>
<text text-anchor="middle" x="1466" y="-1102.8" font-family="Times,serif" font-size="14.00">Meter</text>
<polyline fill="none" stroke="black" points="1400.5,-1095 1531.5,-1095 "/>
<text text-anchor="start" x="1408.5" y="-1079.8" font-family="Times,serif" font-size="14.00">id :integer</text>
<text text-anchor="start" x="1408.5" y="-1064.8" font-family="Times,serif" font-size="14.00">mac :string</text>
<text text-anchor="start" x="1408.5" y="-1049.8" font-family="Times,serif" font-size="14.00">prosumer_id :integer</text>
<text text-anchor="start" x="1408.5" y="-1034.8" font-family="Times,serif" font-size="14.00">created_at :datetime</text>
<text text-anchor="start" x="1408.5" y="-1019.8" font-family="Times,serif" font-size="14.00">updated_at :datetime</text>
</g>
<!-- Role -->
<g id="node9" class="node"><title>Role</title>
<path fill="none" stroke="black" d="M615.5,-272.5C615.5,-272.5 722.5,-272.5 722.5,-272.5 728.5,-272.5 734.5,-278.5 734.5,-284.5 734.5,-284.5 734.5,-381.5 734.5,-381.5 734.5,-387.5 728.5,-393.5 722.5,-393.5 722.5,-393.5 615.5,-393.5 615.5,-393.5 609.5,-393.5 603.5,-387.5 603.5,-381.5 603.5,-381.5 603.5,-284.5 603.5,-284.5 603.5,-278.5 609.5,-272.5 615.5,-272.5"/>
<text text-anchor="middle" x="669" y="-378.3" font-family="Times,serif" font-size="14.00">Role</text>
<polyline fill="none" stroke="black" points="603.5,-370.5 734.5,-370.5 "/>
<text text-anchor="start" x="611.5" y="-355.3" font-family="Times,serif" font-size="14.00">id :integer</text>
<text text-anchor="start" x="611.5" y="-340.3" font-family="Times,serif" font-size="14.00">name :string</text>
<text text-anchor="start" x="611.5" y="-325.3" font-family="Times,serif" font-size="14.00">resource_id :integer</text>
<text text-anchor="start" x="611.5" y="-310.3" font-family="Times,serif" font-size="14.00">resource_type :string</text>
<text text-anchor="start" x="611.5" y="-295.3" font-family="Times,serif" font-size="14.00">created_at :datetime</text>
<text text-anchor="start" x="611.5" y="-280.3" font-family="Times,serif" font-size="14.00">updated_at :datetime</text>
</g>
<!-- User -->
<g id="node20" class="node"><title>User</title>
<path fill="none" stroke="black" d="M510,-1C510,-1 686,-1 686,-1 692,-1 698,-7 698,-13 698,-13 698,-215 698,-215 698,-221 692,-227 686,-227 686,-227 510,-227 510,-227 504,-227 498,-221 498,-215 498,-215 498,-13 498,-13 498,-7 504,-1 510,-1"/>
<text text-anchor="middle" x="598" y="-211.8" font-family="Times,serif" font-size="14.00">User</text>
<polyline fill="none" stroke="black" points="498,-204 698,-204 "/>
<text text-anchor="start" x="506" y="-188.8" font-family="Times,serif" font-size="14.00">id :integer</text>
<text text-anchor="start" x="506" y="-173.8" font-family="Times,serif" font-size="14.00">email :string</text>
<text text-anchor="start" x="506" y="-158.8" font-family="Times,serif" font-size="14.00">encrypted_password :string</text>
<text text-anchor="start" x="506" y="-143.8" font-family="Times,serif" font-size="14.00">reset_password_token :string</text>
<text text-anchor="start" x="506" y="-128.8" font-family="Times,serif" font-size="14.00">reset_password_sent_at :datetime</text>
<text text-anchor="start" x="506" y="-113.8" font-family="Times,serif" font-size="14.00">remember_created_at :datetime</text>
<text text-anchor="start" x="506" y="-98.8" font-family="Times,serif" font-size="14.00">sign_in_count :integer</text>
<text text-anchor="start" x="506" y="-83.8" font-family="Times,serif" font-size="14.00">current_sign_in_at :datetime</text>
<text text-anchor="start" x="506" y="-68.8" font-family="Times,serif" font-size="14.00">last_sign_in_at :datetime</text>
<text text-anchor="start" x="506" y="-53.8" font-family="Times,serif" font-size="14.00">current_sign_in_ip :inet</text>
<text text-anchor="start" x="506" y="-38.8" font-family="Times,serif" font-size="14.00">last_sign_in_ip :inet</text>
<text text-anchor="start" x="506" y="-23.8" font-family="Times,serif" font-size="14.00">created_at :datetime</text>
<text text-anchor="start" x="506" y="-8.8" font-family="Times,serif" font-size="14.00">updated_at :datetime</text>
</g>
<!-- Role&#45;&gt;User -->
<g id="edge2" class="edge"><title>Role&#45;&gt;User</title>
<path fill="none" stroke="#64233d" d="M646.315,-262.667C643.599,-254.366 640.768,-245.712 637.897,-236.939"/>
<polygon fill="#64233d" stroke="#64233d" points="646.395,-262.913 645.228,-273.816 647.95,-267.665 649.505,-272.417 649.505,-272.417 649.505,-272.417 647.95,-267.665 653.782,-271.017 646.395,-262.913 646.395,-262.913"/>
<polygon fill="#64233d" stroke="#64233d" points="637.88,-236.887 639.047,-225.984 636.325,-232.135 634.771,-227.383 634.771,-227.383 634.771,-227.383 636.325,-232.135 630.494,-228.783 637.88,-236.887 637.88,-236.887"/>
</g>
<!-- Instance -->
<g id="node10" class="node"><title>Instance</title>
<path fill="none" stroke="black" d="M1562,-967C1562,-967 1714,-967 1714,-967 1720,-967 1726,-973 1726,-979 1726,-979 1726,-1151 1726,-1151 1726,-1157 1720,-1163 1714,-1163 1714,-1163 1562,-1163 1562,-1163 1556,-1163 1550,-1157 1550,-1151 1550,-1151 1550,-979 1550,-979 1550,-973 1556,-967 1562,-967"/>
<text text-anchor="middle" x="1638" y="-1147.8" font-family="Times,serif" font-size="14.00">Instance</text>
<polyline fill="none" stroke="black" points="1550,-1140 1726,-1140 "/>
<text text-anchor="start" x="1558" y="-1124.8" font-family="Times,serif" font-size="14.00">id :integer</text>
<text text-anchor="start" x="1558" y="-1109.8" font-family="Times,serif" font-size="14.00">user_id :integer</text>
<text text-anchor="start" x="1558" y="-1094.8" font-family="Times,serif" font-size="14.00">configuration_id :integer</text>
<text text-anchor="start" x="1558" y="-1079.8" font-family="Times,serif" font-size="14.00">results :string</text>
<text text-anchor="start" x="1558" y="-1064.8" font-family="Times,serif" font-size="14.00">status :string</text>
<text text-anchor="start" x="1558" y="-1049.8" font-family="Times,serif" font-size="14.00">reason :string</text>
<text text-anchor="start" x="1558" y="-1034.8" font-family="Times,serif" font-size="14.00">instance_name :string</text>
<text text-anchor="start" x="1558" y="-1019.8" font-family="Times,serif" font-size="14.00">worker :string</text>
<text text-anchor="start" x="1558" y="-1004.8" font-family="Times,serif" font-size="14.00">created_at :datetime</text>
<text text-anchor="start" x="1558" y="-989.8" font-family="Times,serif" font-size="14.00">updated_at :datetime</text>
<text text-anchor="start" x="1558" y="-974.8" font-family="Times,serif" font-size="14.00">total_execution_time :integer</text>
</g>
<!-- EnergyTypeProsumer -->
<g id="node11" class="node"><title>EnergyTypeProsumer</title>
<path fill="none" stroke="black" d="M198,-272.5C198,-272.5 320,-272.5 320,-272.5 326,-272.5 332,-278.5 332,-284.5 332,-284.5 332,-381.5 332,-381.5 332,-387.5 326,-393.5 320,-393.5 320,-393.5 198,-393.5 198,-393.5 192,-393.5 186,-387.5 186,-381.5 186,-381.5 186,-284.5 186,-284.5 186,-278.5 192,-272.5 198,-272.5"/>
<text text-anchor="middle" x="259" y="-378.3" font-family="Times,serif" font-size="14.00">EnergyTypeProsumer</text>
<polyline fill="none" stroke="black" points="186,-370.5 332,-370.5 "/>
<text text-anchor="start" x="194" y="-355.3" font-family="Times,serif" font-size="14.00">id :integer</text>
<text text-anchor="start" x="194" y="-340.3" font-family="Times,serif" font-size="14.00">power :float</text>
<text text-anchor="start" x="194" y="-325.3" font-family="Times,serif" font-size="14.00">energy_type_id :integer</text>
<text text-anchor="start" x="194" y="-310.3" font-family="Times,serif" font-size="14.00">prosumer_id :integer</text>
<text text-anchor="start" x="194" y="-295.3" font-family="Times,serif" font-size="14.00">created_at :datetime</text>
<text text-anchor="start" x="194" y="-280.3" font-family="Times,serif" font-size="14.00">updated_at :datetime</text>
</g>
<!-- Prosumer -->
<g id="node12" class="node"><title>Prosumer</title>
<path fill="none" stroke="black" d="M373,-733C373,-733 517,-733 517,-733 523,-733 529,-739 529,-745 529,-745 529,-917 529,-917 529,-923 523,-929 517,-929 517,-929 373,-929 373,-929 367,-929 361,-923 361,-917 361,-917 361,-745 361,-745 361,-739 367,-733 373,-733"/>
<text text-anchor="middle" x="445" y="-913.8" font-family="Times,serif" font-size="14.00">Prosumer</text>
<polyline fill="none" stroke="black" points="361,-906 529,-906 "/>
<text text-anchor="start" x="369" y="-890.8" font-family="Times,serif" font-size="14.00">id :integer</text>
<text text-anchor="start" x="369" y="-875.8" font-family="Times,serif" font-size="14.00">name :string</text>
<text text-anchor="start" x="369" y="-860.8" font-family="Times,serif" font-size="14.00">location :string</text>
<text text-anchor="start" x="369" y="-845.8" font-family="Times,serif" font-size="14.00">created_at :datetime</text>
<text text-anchor="start" x="369" y="-830.8" font-family="Times,serif" font-size="14.00">updated_at :datetime</text>
<text text-anchor="start" x="369" y="-815.8" font-family="Times,serif" font-size="14.00">cluster_id :integer</text>
<text text-anchor="start" x="369" y="-800.8" font-family="Times,serif" font-size="14.00">intelen_id :integer</text>
<text text-anchor="start" x="369" y="-785.8" font-family="Times,serif" font-size="14.00">building_type_id :integer</text>
<text text-anchor="start" x="369" y="-770.8" font-family="Times,serif" font-size="14.00">connection_type_id :integer</text>
<text text-anchor="start" x="369" y="-755.8" font-family="Times,serif" font-size="14.00">location_x :float</text>
<text text-anchor="start" x="369" y="-740.8" font-family="Times,serif" font-size="14.00">location_y :float</text>
</g>
<!-- Prosumer&#45;&gt;Role -->
<g id="edge6" class="edge"><title>Prosumer&#45;&gt;Role</title>
<path fill="none" stroke="#e7b01a" d="M537.048,-806.882C593.632,-787.4 661.665,-753.251 696,-696 749.853,-606.203 722.432,-480.488 696.548,-403.299"/>
<ellipse fill="none" stroke="#e7b01a" cx="532.937" cy="-808.262" rx="4.00001" ry="4.00001"/>
<polygon fill="#e7b01a" stroke="#e7b01a" points="696.489,-403.126 697.498,-392.206 694.865,-398.397 693.242,-393.668 693.242,-393.668 693.242,-393.668 694.865,-398.397 688.986,-395.129 696.489,-403.126 696.489,-403.126"/>
</g>
<!-- Prosumer&#45;&gt;EnergyTypeProsumer -->
<g id="edge8" class="edge"><title>Prosumer&#45;&gt;EnergyTypeProsumer</title>
<path fill="none" stroke="#46957f" d="M373.319,-725.776C368.293,-715.966 363.744,-705.961 360,-696 319.173,-587.383 358.931,-547.311 320,-438 315.789,-426.175 310.203,-414.183 304.118,-402.751"/>
<ellipse fill="none" stroke="#46957f" cx="375.196" cy="-729.341" rx="4.00002" ry="4.00002"/>
<polygon fill="#46957f" stroke="#46957f" points="303.968,-402.479 303.09,-391.548 301.558,-398.098 299.147,-393.717 299.147,-393.717 299.147,-393.717 301.558,-398.098 295.205,-395.886 303.968,-402.479 303.968,-402.479"/>
</g>
<!-- Measurement -->
<g id="node14" class="node"><title>Measurement</title>
<path fill="none" stroke="black" d="M568.5,-506.5C568.5,-506.5 675.5,-506.5 675.5,-506.5 681.5,-506.5 687.5,-512.5 687.5,-518.5 687.5,-518.5 687.5,-615.5 687.5,-615.5 687.5,-621.5 681.5,-627.5 675.5,-627.5 675.5,-627.5 568.5,-627.5 568.5,-627.5 562.5,-627.5 556.5,-621.5 556.5,-615.5 556.5,-615.5 556.5,-518.5 556.5,-518.5 556.5,-512.5 562.5,-506.5 568.5,-506.5"/>
<text text-anchor="middle" x="622" y="-612.3" font-family="Times,serif" font-size="14.00">Measurement</text>
<polyline fill="none" stroke="black" points="556.5,-604.5 687.5,-604.5 "/>
<text text-anchor="start" x="564.5" y="-589.3" font-family="Times,serif" font-size="14.00">id :integer</text>
<text text-anchor="start" x="564.5" y="-574.3" font-family="Times,serif" font-size="14.00">timeslot :datetime</text>
<text text-anchor="start" x="564.5" y="-559.3" font-family="Times,serif" font-size="14.00">power :float</text>
<text text-anchor="start" x="564.5" y="-544.3" font-family="Times,serif" font-size="14.00">prosumer_id :integer</text>
<text text-anchor="start" x="564.5" y="-529.3" font-family="Times,serif" font-size="14.00">created_at :datetime</text>
<text text-anchor="start" x="564.5" y="-514.3" font-family="Times,serif" font-size="14.00">updated_at :datetime</text>
</g>
<!-- Prosumer&#45;&gt;Measurement -->
<g id="edge3" class="edge"><title>Prosumer&#45;&gt;Measurement</title>
<path fill="none" stroke="#c5746d" d="M521.197,-726.191C528.321,-716.052 535.355,-705.869 542,-696 554.877,-676.875 568.352,-655.778 580.493,-636.322"/>
<ellipse fill="none" stroke="#c5746d" cx="518.812" cy="-729.574" rx="4.00002" ry="4.00002"/>
<polygon fill="#c5746d" stroke="#c5746d" points="580.508,-636.297 589.61,-630.18 583.149,-632.05 585.789,-627.804 585.789,-627.804 585.789,-627.804 583.149,-632.05 581.967,-625.428 580.508,-636.297 580.508,-636.297"/>
</g>
<!-- EnergyType -->
<g id="node16" class="node"><title>EnergyType</title>
<path fill="none" stroke="black" d="M192.5,-521.5C192.5,-521.5 299.5,-521.5 299.5,-521.5 305.5,-521.5 311.5,-527.5 311.5,-533.5 311.5,-533.5 311.5,-600.5 311.5,-600.5 311.5,-606.5 305.5,-612.5 299.5,-612.5 299.5,-612.5 192.5,-612.5 192.5,-612.5 186.5,-612.5 180.5,-606.5 180.5,-600.5 180.5,-600.5 180.5,-533.5 180.5,-533.5 180.5,-527.5 186.5,-521.5 192.5,-521.5"/>
<text text-anchor="middle" x="246" y="-597.3" font-family="Times,serif" font-size="14.00">EnergyType</text>
<polyline fill="none" stroke="black" points="180.5,-589.5 311.5,-589.5 "/>
<text text-anchor="start" x="188.5" y="-574.3" font-family="Times,serif" font-size="14.00">id :integer</text>
<text text-anchor="start" x="188.5" y="-559.3" font-family="Times,serif" font-size="14.00">name :string</text>
<text text-anchor="start" x="188.5" y="-544.3" font-family="Times,serif" font-size="14.00">created_at :datetime</text>
<text text-anchor="start" x="188.5" y="-529.3" font-family="Times,serif" font-size="14.00">updated_at :datetime</text>
</g>
<!-- Prosumer&#45;&gt;EnergyType -->
<g id="edge9" class="edge"><title>Prosumer&#45;&gt;EnergyType</title>
<path fill="none" stroke="#e708f2" d="M354.439,-731.734C344.551,-719.928 334.869,-707.852 326,-696 308.389,-672.465 290.852,-644.98 276.706,-621.525"/>
<polygon fill="#e708f2" stroke="#e708f2" points="354.504,-731.811 357.523,-742.353 357.732,-735.629 360.959,-739.448 360.959,-739.448 360.959,-739.448 357.732,-735.629 364.396,-736.543 354.504,-731.811 354.504,-731.811"/>
<polygon fill="#e708f2" stroke="#e708f2" points="276.59,-621.331 275.318,-610.439 274.023,-617.04 271.457,-612.749 271.457,-612.749 271.457,-612.749 274.023,-617.04 267.595,-615.059 276.59,-621.331 276.59,-621.331"/>
</g>
<!-- DayAhead -->
<g id="node18" class="node"><title>DayAhead</title>
<path fill="none" stroke="black" d="M380.5,-514C380.5,-514 487.5,-514 487.5,-514 493.5,-514 499.5,-520 499.5,-526 499.5,-526 499.5,-608 499.5,-608 499.5,-614 493.5,-620 487.5,-620 487.5,-620 380.5,-620 380.5,-620 374.5,-620 368.5,-614 368.5,-608 368.5,-608 368.5,-526 368.5,-526 368.5,-520 374.5,-514 380.5,-514"/>
<text text-anchor="middle" x="434" y="-604.8" font-family="Times,serif" font-size="14.00">DayAhead</text>
<polyline fill="none" stroke="black" points="368.5,-597 499.5,-597 "/>
<text text-anchor="start" x="376.5" y="-581.8" font-family="Times,serif" font-size="14.00">id :integer</text>
<text text-anchor="start" x="376.5" y="-566.8" font-family="Times,serif" font-size="14.00">prosumer_id :integer</text>
<text text-anchor="start" x="376.5" y="-551.8" font-family="Times,serif" font-size="14.00">date :date</text>
<text text-anchor="start" x="376.5" y="-536.8" font-family="Times,serif" font-size="14.00">created_at :datetime</text>
<text text-anchor="start" x="376.5" y="-521.8" font-family="Times,serif" font-size="14.00">updated_at :datetime</text>
</g>
<!-- Prosumer&#45;&gt;DayAhead -->
<g id="edge5" class="edge"><title>Prosumer&#45;&gt;DayAhead</title>
<path fill="none" stroke="#c79a03" d="M440.579,-724.709C439.235,-692.696 437.802,-658.551 436.617,-630.333"/>
<ellipse fill="none" stroke="#c79a03" cx="440.752" cy="-728.817" rx="4" ry="4"/>
<polygon fill="#c79a03" stroke="#c79a03" points="436.612,-630.211 440.688,-620.031 436.402,-625.215 436.192,-620.219 436.192,-620.219 436.192,-620.219 436.402,-625.215 431.696,-620.408 436.612,-630.211 436.612,-630.211"/>
</g>
<!-- Prosumer&#45;&gt;DataPoint -->
<g id="edge4" class="edge"><title>Prosumer&#45;&gt;DataPoint</title>
<path fill="none" stroke="#345064" d="M353.12,-800.05C295.906,-778.003 223.475,-743.563 171,-696 170.531,-695.575 170.065,-695.147 169.6,-694.716"/>
<ellipse fill="none" stroke="#345064" cx="356.992" cy="-801.523" rx="4.00001" ry="4.00001"/>
<polygon fill="#345064" stroke="#345064" points="169.35,-694.469 165.384,-684.246 165.788,-690.961 162.226,-687.452 162.226,-687.452 162.226,-687.452 165.788,-690.961 159.068,-690.658 169.35,-694.469 169.35,-694.469"/>
</g>
<!-- Prosumer&#45;&gt;User -->
<g id="edge7" class="edge"><title>Prosumer&#45;&gt;User</title>
<path fill="none" stroke="#d38a93" d="M498.406,-723.364C501.974,-714.231 505.24,-705.032 508,-696 508.105,-695.656 552.697,-407.653 579.066,-237.319"/>
<polygon fill="#d38a93" stroke="#d38a93" points="498.322,-723.571 490.411,-731.165 496.454,-728.209 494.585,-732.847 494.585,-732.847 494.585,-732.847 496.454,-728.209 498.759,-734.529 498.322,-723.571 498.322,-723.571"/>
<polygon fill="#d38a93" stroke="#d38a93" points="579.089,-237.166 585.066,-227.972 579.854,-232.225 580.619,-227.283 580.619,-227.283 580.619,-227.283 579.854,-232.225 576.172,-226.595 579.089,-237.166 579.089,-237.166"/>
</g>
<!-- Cluster -->
<g id="node13" class="node"><title>Cluster</title>
<path fill="none" stroke="black" d="M657.5,-1012C657.5,-1012 764.5,-1012 764.5,-1012 770.5,-1012 776.5,-1018 776.5,-1024 776.5,-1024 776.5,-1106 776.5,-1106 776.5,-1112 770.5,-1118 764.5,-1118 764.5,-1118 657.5,-1118 657.5,-1118 651.5,-1118 645.5,-1112 645.5,-1106 645.5,-1106 645.5,-1024 645.5,-1024 645.5,-1018 651.5,-1012 657.5,-1012"/>
<text text-anchor="middle" x="711" y="-1102.8" font-family="Times,serif" font-size="14.00">Cluster</text>
<polyline fill="none" stroke="black" points="645.5,-1095 776.5,-1095 "/>
<text text-anchor="start" x="653.5" y="-1079.8" font-family="Times,serif" font-size="14.00">id :integer</text>
<text text-anchor="start" x="653.5" y="-1064.8" font-family="Times,serif" font-size="14.00">name :string</text>
<text text-anchor="start" x="653.5" y="-1049.8" font-family="Times,serif" font-size="14.00">description :text</text>
<text text-anchor="start" x="653.5" y="-1034.8" font-family="Times,serif" font-size="14.00">created_at :datetime</text>
<text text-anchor="start" x="653.5" y="-1019.8" font-family="Times,serif" font-size="14.00">updated_at :datetime</text>
</g>
<!-- Cluster&#45;&gt;Role -->
<g id="edge11" class="edge"><title>Cluster&#45;&gt;Role</title>
<path fill="none" stroke="#37cf42" d="M722.787,-1003.95C742.674,-891.042 775.997,-640.275 725,-438 721.994,-426.076 717.323,-414.031 711.932,-402.577"/>
<ellipse fill="none" stroke="#37cf42" cx="722.083" cy="-1007.9" rx="4.00001" ry="4.00001"/>
<polygon fill="#37cf42" stroke="#37cf42" points="711.895,-402.5 711.509,-391.541 709.684,-398.015 707.473,-393.531 707.473,-393.531 707.473,-393.531 709.684,-398.015 703.437,-395.52 711.895,-402.5 711.895,-402.5"/>
</g>
<!-- Cluster&#45;&gt;Prosumer -->
<g id="edge10" class="edge"><title>Cluster&#45;&gt;Prosumer</title>
<path fill="none" stroke="#709b23" d="M644.873,-1006.33C612.352,-977.961 572.62,-943.307 537.172,-912.391"/>
<ellipse fill="none" stroke="#709b23" cx="648.29" cy="-1009.31" rx="4.00002" ry="4.00002"/>
<polygon fill="#709b23" stroke="#709b23" points="536.745,-912.018 532.166,-902.053 532.976,-908.731 529.208,-905.445 529.208,-905.445 529.208,-905.445 532.976,-908.731 526.25,-908.836 536.745,-912.018 536.745,-912.018"/>
</g>
<!-- Measurement&#45;&gt;Role -->
<g id="edge12" class="edge"><title>Measurement&#45;&gt;Role</title>
<path fill="none" stroke="#2354b9" d="M635.694,-498.403C641.735,-468.583 648.83,-433.563 654.915,-403.525"/>
<ellipse fill="none" stroke="#2354b9" cx="634.898" cy="-502.334" rx="4.00001" ry="4.00001"/>
<polygon fill="#2354b9" stroke="#2354b9" points="654.952,-403.344 661.348,-394.437 655.945,-398.444 656.937,-393.543 656.937,-393.543 656.937,-393.543 655.945,-398.444 652.527,-392.65 654.952,-403.344 654.952,-403.344"/>
</g>
<!-- ConnectionType -->
<g id="node15" class="node"><title>ConnectionType</title>
<path fill="none" stroke="black" d="M317.5,-1019.5C317.5,-1019.5 424.5,-1019.5 424.5,-1019.5 430.5,-1019.5 436.5,-1025.5 436.5,-1031.5 436.5,-1031.5 436.5,-1098.5 436.5,-1098.5 436.5,-1104.5 430.5,-1110.5 424.5,-1110.5 424.5,-1110.5 317.5,-1110.5 317.5,-1110.5 311.5,-1110.5 305.5,-1104.5 305.5,-1098.5 305.5,-1098.5 305.5,-1031.5 305.5,-1031.5 305.5,-1025.5 311.5,-1019.5 317.5,-1019.5"/>
<text text-anchor="middle" x="371" y="-1095.3" font-family="Times,serif" font-size="14.00">ConnectionType</text>
<polyline fill="none" stroke="black" points="305.5,-1087.5 436.5,-1087.5 "/>
<text text-anchor="start" x="313.5" y="-1072.3" font-family="Times,serif" font-size="14.00">id :integer</text>
<text text-anchor="start" x="313.5" y="-1057.3" font-family="Times,serif" font-size="14.00">name :string</text>
<text text-anchor="start" x="313.5" y="-1042.3" font-family="Times,serif" font-size="14.00">created_at :datetime</text>
<text text-anchor="start" x="313.5" y="-1027.3" font-family="Times,serif" font-size="14.00">updated_at :datetime</text>
</g>
<!-- ConnectionType&#45;&gt;Prosumer -->
<g id="edge13" class="edge"><title>ConnectionType&#45;&gt;Prosumer</title>
<path fill="none" stroke="#046b0b" d="M387.721,-1011.58C394.593,-990.034 402.815,-964.257 410.856,-939.047"/>
<ellipse fill="none" stroke="#046b0b" cx="386.484" cy="-1015.46" rx="4.00001" ry="4.00001"/>
<polygon fill="#046b0b" stroke="#046b0b" points="410.887,-938.95 418.213,-930.79 412.406,-934.186 413.926,-929.422 413.926,-929.422 413.926,-929.422 412.406,-934.186 409.638,-928.055 410.887,-938.95 410.887,-938.95"/>
</g>
<!-- EnergyType&#45;&gt;EnergyTypeProsumer -->
<g id="edge14" class="edge"><title>EnergyType&#45;&gt;EnergyTypeProsumer</title>
<path fill="none" stroke="#fb5b30" d="M248.973,-512.936C250.789,-480.533 253.131,-438.735 255.095,-403.686"/>
<ellipse fill="none" stroke="#fb5b30" cx="248.73" cy="-517.274" rx="4" ry="4"/>
<polygon fill="#fb5b30" stroke="#fb5b30" points="255.105,-403.504 260.158,-393.772 255.385,-398.512 255.665,-393.52 255.665,-393.52 255.665,-393.52 255.385,-398.512 251.172,-393.268 255.105,-403.504 255.105,-403.504"/>
</g>
<!-- DayAheadHour -->
<g id="node17" class="node"><title>DayAheadHour</title>
<path fill="none" stroke="black" d="M374.5,-265C374.5,-265 487.5,-265 487.5,-265 493.5,-265 499.5,-271 499.5,-277 499.5,-277 499.5,-389 499.5,-389 499.5,-395 493.5,-401 487.5,-401 487.5,-401 374.5,-401 374.5,-401 368.5,-401 362.5,-395 362.5,-389 362.5,-389 362.5,-277 362.5,-277 362.5,-271 368.5,-265 374.5,-265"/>
<text text-anchor="middle" x="431" y="-385.8" font-family="Times,serif" font-size="14.00">DayAheadHour</text>
<polyline fill="none" stroke="black" points="362.5,-378 499.5,-378 "/>
<text text-anchor="start" x="370.5" y="-362.8" font-family="Times,serif" font-size="14.00">id :integer</text>
<text text-anchor="start" x="370.5" y="-347.8" font-family="Times,serif" font-size="14.00">day_ahead_id :integer</text>
<text text-anchor="start" x="370.5" y="-332.8" font-family="Times,serif" font-size="14.00">time :integer</text>
<text text-anchor="start" x="370.5" y="-317.8" font-family="Times,serif" font-size="14.00">production :float</text>
<text text-anchor="start" x="370.5" y="-302.8" font-family="Times,serif" font-size="14.00">consumption :float</text>
<text text-anchor="start" x="370.5" y="-287.8" font-family="Times,serif" font-size="14.00">created_at :datetime</text>
<text text-anchor="start" x="370.5" y="-272.8" font-family="Times,serif" font-size="14.00">updated_at :datetime</text>
</g>
<!-- DayAhead&#45;&gt;DayAheadHour -->
<g id="edge15" class="edge"><title>DayAhead&#45;&gt;DayAheadHour</title>
<path fill="none" stroke="#b2f7b0" d="M433.218,-505.552C432.847,-476.835 432.399,-442.172 432.003,-411.543"/>
<ellipse fill="none" stroke="#b2f7b0" cx="433.275" cy="-509.935" rx="4" ry="4"/>
<polygon fill="#b2f7b0" stroke="#b2f7b0" points="432,-411.323 436.37,-401.266 431.935,-406.324 431.871,-401.324 431.871,-401.324 431.871,-401.324 431.935,-406.324 427.371,-401.383 432,-411.323 432,-411.323"/>
</g>
<!-- BuildingType -->
<g id="node21" class="node"><title>BuildingType</title>
<path fill="none" stroke="black" d="M466.5,-1019.5C466.5,-1019.5 573.5,-1019.5 573.5,-1019.5 579.5,-1019.5 585.5,-1025.5 585.5,-1031.5 585.5,-1031.5 585.5,-1098.5 585.5,-1098.5 585.5,-1104.5 579.5,-1110.5 573.5,-1110.5 573.5,-1110.5 466.5,-1110.5 466.5,-1110.5 460.5,-1110.5 454.5,-1104.5 454.5,-1098.5 454.5,-1098.5 454.5,-1031.5 454.5,-1031.5 454.5,-1025.5 460.5,-1019.5 466.5,-1019.5"/>
<text text-anchor="middle" x="520" y="-1095.3" font-family="Times,serif" font-size="14.00">BuildingType</text>
<polyline fill="none" stroke="black" points="454.5,-1087.5 585.5,-1087.5 "/>
<text text-anchor="start" x="462.5" y="-1072.3" font-family="Times,serif" font-size="14.00">id :integer</text>
<text text-anchor="start" x="462.5" y="-1057.3" font-family="Times,serif" font-size="14.00">name :string</text>
<text text-anchor="start" x="462.5" y="-1042.3" font-family="Times,serif" font-size="14.00">created_at :datetime</text>
<text text-anchor="start" x="462.5" y="-1027.3" font-family="Times,serif" font-size="14.00">updated_at :datetime</text>
</g>
<!-- BuildingType&#45;&gt;Prosumer -->
<g id="edge16" class="edge"><title>BuildingType&#45;&gt;Prosumer</title>
<path fill="none" stroke="#0ac1e4" d="M503.053,-1011.58C496.089,-990.034 487.755,-964.257 479.606,-939.047"/>
<ellipse fill="none" stroke="#0ac1e4" cx="504.309" cy="-1015.46" rx="4.00001" ry="4.00001"/>
<polygon fill="#0ac1e4" stroke="#0ac1e4" points="479.57,-938.938 480.776,-928.038 478.032,-934.18 476.494,-929.422 476.494,-929.422 476.494,-929.422 478.032,-934.18 472.213,-930.807 479.57,-938.938 479.57,-938.938"/>
</g>
</g>
</svg>
