<?xml version="1.0" encoding="UTF-8" standalone="no"?>
<!DOCTYPE svg PUBLIC "-//W3C//DTD SVG 1.1//EN"
 "http://www.w3.org/Graphics/SVG/1.1/DTD/svg11.dtd">
<!-- Generated by graphviz version 2.36.0 (20140111.2315)
 -->
<!-- Title: models_diagram Pages: 1 -->
<svg width="1486pt" height="1186pt"
 viewBox="0.00 0.00 1486.00 1186.00" xmlns="http://www.w3.org/2000/svg" xmlns:xlink="http://www.w3.org/1999/xlink">
<g id="graph0" class="graph" transform="scale(1 1) rotate(0) translate(4 1182)">
<title>models_diagram</title>
<polygon fill="white" stroke="none" points="-4,4 -4,-1182 1482,-1182 1482,4 -4,4"/>
<!-- _diagram_info -->
<g id="node1" class="node"><title>_diagram_info</title>
<text text-anchor="start" x="8" y="-1103.6" font-family="Times,serif" font-size="13.00">Models diagram</text>
<text text-anchor="start" x="8" y="-1089.6" font-family="Times,serif" font-size="13.00">Date: Mar 30 2015 &#45; 18:16</text>
<text text-anchor="start" x="8" y="-1075.6" font-family="Times,serif" font-size="13.00">Migration version: 20150204132935</text>
<text text-anchor="start" x="8" y="-1061.6" font-family="Times,serif" font-size="13.00">Generated by RailRoady 1.3.0</text>
<text text-anchor="start" x="8" y="-1047.6" font-family="Times,serif" font-size="13.00">http://railroady.prestonlee.com</text>
</g>
<!-- Ability -->
<g id="node2" class="node"><title>Ability</title>
<polygon fill="none" stroke="black" points="232.5,-1056 232.5,-1102 287.5,-1102 287.5,-1056 232.5,-1056"/>
<text text-anchor="middle" x="260" y="-1086.8" font-family="Times,serif" font-size="14.00">Ability</text>
<polyline fill="none" stroke="black" points="232.5,-1079 287.5,-1079 "/>
<text text-anchor="middle" x="260" y="-1063.8" font-family="Times,serif" font-size="14.00"> </text>
</g>
<!-- Interval -->
<g id="node3" class="node"><title>Interval</title>
<path fill="none" stroke="black" d="M120.5,-604C120.5,-604 227.5,-604 227.5,-604 233.5,-604 239.5,-610 239.5,-616 239.5,-616 239.5,-698 239.5,-698 239.5,-704 233.5,-710 227.5,-710 227.5,-710 120.5,-710 120.5,-710 114.5,-710 108.5,-704 108.5,-698 108.5,-698 108.5,-616 108.5,-616 108.5,-610 114.5,-604 120.5,-604"/>
<text text-anchor="middle" x="174" y="-694.8" font-family="Times,serif" font-size="14.00">Interval</text>
<polyline fill="none" stroke="black" points="108.5,-687 239.5,-687 "/>
<text text-anchor="start" x="116.5" y="-671.8" font-family="Times,serif" font-size="14.00">id :integer</text>
<text text-anchor="start" x="116.5" y="-656.8" font-family="Times,serif" font-size="14.00">duration :integer</text>
<text text-anchor="start" x="116.5" y="-641.8" font-family="Times,serif" font-size="14.00">name :string</text>
<text text-anchor="start" x="116.5" y="-626.8" font-family="Times,serif" font-size="14.00">created_at :datetime</text>
<text text-anchor="start" x="116.5" y="-611.8" font-family="Times,serif" font-size="14.00">updated_at :datetime</text>
</g>
<!-- DataPoint -->
<g id="node19" class="node"><title>DataPoint</title>
<path fill="none" stroke="black" d="M116,-265C116,-265 232,-265 232,-265 238,-265 244,-271 244,-277 244,-277 244,-509 244,-509 244,-515 238,-521 232,-521 232,-521 116,-521 116,-521 110,-521 104,-515 104,-509 104,-509 104,-277 104,-277 104,-271 110,-265 116,-265"/>
<text text-anchor="middle" x="174" y="-505.8" font-family="Times,serif" font-size="14.00">DataPoint</text>
<polyline fill="none" stroke="black" points="104,-498 244,-498 "/>
<text text-anchor="start" x="112" y="-482.8" font-family="Times,serif" font-size="14.00">id :integer</text>
<text text-anchor="start" x="112" y="-467.8" font-family="Times,serif" font-size="14.00">prosumer_id :integer</text>
<text text-anchor="start" x="112" y="-452.8" font-family="Times,serif" font-size="14.00">interval_id :integer</text>
<text text-anchor="start" x="112" y="-437.8" font-family="Times,serif" font-size="14.00">timestamp :datetime</text>
<text text-anchor="start" x="112" y="-422.8" font-family="Times,serif" font-size="14.00">production :float</text>
<text text-anchor="start" x="112" y="-407.8" font-family="Times,serif" font-size="14.00">consumption :float</text>
<text text-anchor="start" x="112" y="-392.8" font-family="Times,serif" font-size="14.00">storage :float</text>
<text text-anchor="start" x="112" y="-377.8" font-family="Times,serif" font-size="14.00">f_timestamp :datetime</text>
<text text-anchor="start" x="112" y="-362.8" font-family="Times,serif" font-size="14.00">f_production :float</text>
<text text-anchor="start" x="112" y="-347.8" font-family="Times,serif" font-size="14.00">f_consumption :float</text>
<text text-anchor="start" x="112" y="-332.8" font-family="Times,serif" font-size="14.00">f_storage :float</text>
<text text-anchor="start" x="112" y="-317.8" font-family="Times,serif" font-size="14.00">dr :float</text>
<text text-anchor="start" x="112" y="-302.8" font-family="Times,serif" font-size="14.00">reliability :float</text>
<text text-anchor="start" x="112" y="-287.8" font-family="Times,serif" font-size="14.00">created_at :datetime</text>
<text text-anchor="start" x="112" y="-272.8" font-family="Times,serif" font-size="14.00">updated_at :datetime</text>
</g>
<!-- Interval&#45;&gt;DataPoint -->
<g id="edge1" class="edge"><title>Interval&#45;&gt;DataPoint</title>
<path fill="none" stroke="#970cc8" d="M174,-595.871C174,-576.391 174,-553.919 174,-531.199"/>
<ellipse fill="none" stroke="#970cc8" cx="174" cy="-599.924" rx="4" ry="4"/>
<polygon fill="#970cc8" stroke="#970cc8" points="174,-531.105 178.5,-521.104 174,-526.105 174,-521.105 174,-521.105 174,-521.105 174,-526.105 169.5,-521.105 174,-531.105 174,-531.105"/>
</g>
<!-- DayAheadEnergyPrice -->
<g id="node4" class="node"><title>DayAheadEnergyPrice</title>
<path fill="none" stroke="black" d="M933.5,-800C933.5,-800 1050.5,-800 1050.5,-800 1056.5,-800 1062.5,-806 1062.5,-812 1062.5,-812 1062.5,-924 1062.5,-924 1062.5,-930 1056.5,-936 1050.5,-936 1050.5,-936 933.5,-936 933.5,-936 927.5,-936 921.5,-930 921.5,-924 921.5,-924 921.5,-812 921.5,-812 921.5,-806 927.5,-800 933.5,-800"/>
<text text-anchor="middle" x="992" y="-920.8" font-family="Times,serif" font-size="14.00">DayAheadEnergyPrice</text>
<polyline fill="none" stroke="black" points="921.5,-913 1062.5,-913 "/>
<text text-anchor="start" x="929.5" y="-897.8" font-family="Times,serif" font-size="14.00">id :integer</text>
<text text-anchor="start" x="929.5" y="-882.8" font-family="Times,serif" font-size="14.00">date :datetime</text>
<text text-anchor="start" x="929.5" y="-867.8" font-family="Times,serif" font-size="14.00">dayhour :integer</text>
<text text-anchor="start" x="929.5" y="-852.8" font-family="Times,serif" font-size="14.00">price :float</text>
<text text-anchor="start" x="929.5" y="-837.8" font-family="Times,serif" font-size="14.00">market_id :integer</text>
<text text-anchor="start" x="929.5" y="-822.8" font-family="Times,serif" font-size="14.00">created_at :datetime</text>
<text text-anchor="start" x="929.5" y="-807.8" font-family="Times,serif" font-size="14.00">updated_at :datetime</text>
</g>
<!-- EnergyMarket -->
<g id="node5" class="node"><title>EnergyMarket</title>
<path fill="none" stroke="black" d="M1015.5,-1033.5C1015.5,-1033.5 1122.5,-1033.5 1122.5,-1033.5 1128.5,-1033.5 1134.5,-1039.5 1134.5,-1045.5 1134.5,-1045.5 1134.5,-1112.5 1134.5,-1112.5 1134.5,-1118.5 1128.5,-1124.5 1122.5,-1124.5 1122.5,-1124.5 1015.5,-1124.5 1015.5,-1124.5 1009.5,-1124.5 1003.5,-1118.5 1003.5,-1112.5 1003.5,-1112.5 1003.5,-1045.5 1003.5,-1045.5 1003.5,-1039.5 1009.5,-1033.5 1015.5,-1033.5"/>
<text text-anchor="middle" x="1069" y="-1109.3" font-family="Times,serif" font-size="14.00">EnergyMarket</text>
<polyline fill="none" stroke="black" points="1003.5,-1101.5 1134.5,-1101.5 "/>
<text text-anchor="start" x="1011.5" y="-1086.3" font-family="Times,serif" font-size="14.00">id :integer</text>
<text text-anchor="start" x="1011.5" y="-1071.3" font-family="Times,serif" font-size="14.00">name :string</text>
<text text-anchor="start" x="1011.5" y="-1056.3" font-family="Times,serif" font-size="14.00">created_at :datetime</text>
<text text-anchor="start" x="1011.5" y="-1041.3" font-family="Times,serif" font-size="14.00">updated_at :datetime</text>
</g>
<!-- EnergyMarket&#45;&gt;DayAheadEnergyPrice -->
<g id="edge2" class="edge"><title>EnergyMarket&#45;&gt;DayAheadEnergyPrice</title>
<path fill="none" stroke="#f273eb" d="M1049.69,-1025.59C1040.8,-1001.46 1030.08,-972.35 1020.3,-945.808"/>
<ellipse fill="none" stroke="#f273eb" cx="1051.19" cy="-1029.67" rx="4.00001" ry="4.00001"/>
<polygon fill="#f273eb" stroke="#f273eb" points="1020.2,-945.543 1020.97,-934.604 1018.47,-940.852 1016.74,-936.16 1016.74,-936.16 1016.74,-936.16 1018.47,-940.852 1012.52,-937.716 1020.2,-945.543 1020.2,-945.543"/>
</g>
<!-- IntraDayEnergyPrice -->
<g id="node8" class="node"><title>IntraDayEnergyPrice</title>
<path fill="none" stroke="black" d="M1092.5,-792.5C1092.5,-792.5 1199.5,-792.5 1199.5,-792.5 1205.5,-792.5 1211.5,-798.5 1211.5,-804.5 1211.5,-804.5 1211.5,-931.5 1211.5,-931.5 1211.5,-937.5 1205.5,-943.5 1199.5,-943.5 1199.5,-943.5 1092.5,-943.5 1092.5,-943.5 1086.5,-943.5 1080.5,-937.5 1080.5,-931.5 1080.5,-931.5 1080.5,-804.5 1080.5,-804.5 1080.5,-798.5 1086.5,-792.5 1092.5,-792.5"/>
<text text-anchor="middle" x="1146" y="-928.3" font-family="Times,serif" font-size="14.00">IntraDayEnergyPrice</text>
<polyline fill="none" stroke="black" points="1080.5,-920.5 1211.5,-920.5 "/>
<text text-anchor="start" x="1088.5" y="-905.3" font-family="Times,serif" font-size="14.00">id :integer</text>
<text text-anchor="start" x="1088.5" y="-890.3" font-family="Times,serif" font-size="14.00">date :datetime</text>
<text text-anchor="start" x="1088.5" y="-875.3" font-family="Times,serif" font-size="14.00">dayhour :integer</text>
<text text-anchor="start" x="1088.5" y="-860.3" font-family="Times,serif" font-size="14.00">price :float</text>
<text text-anchor="start" x="1088.5" y="-845.3" font-family="Times,serif" font-size="14.00">interval_id :integer</text>
<text text-anchor="start" x="1088.5" y="-830.3" font-family="Times,serif" font-size="14.00">market_id :integer</text>
<text text-anchor="start" x="1088.5" y="-815.3" font-family="Times,serif" font-size="14.00">created_at :datetime</text>
<text text-anchor="start" x="1088.5" y="-800.3" font-family="Times,serif" font-size="14.00">updated_at :datetime</text>
</g>
<!-- EnergyMarket&#45;&gt;IntraDayEnergyPrice -->
<g id="edge3" class="edge"><title>EnergyMarket&#45;&gt;IntraDayEnergyPrice</title>
<path fill="none" stroke="#e819b5" d="M1088.2,-1025.88C1096.29,-1003.92 1105.92,-977.789 1114.97,-953.218"/>
<ellipse fill="none" stroke="#e819b5" cx="1086.81" cy="-1029.67" rx="4.00001" ry="4.00001"/>
<polygon fill="#e819b5" stroke="#e819b5" points="1115.09,-952.912 1122.76,-945.084 1116.81,-948.22 1118.54,-943.528 1118.54,-943.528 1118.54,-943.528 1116.81,-948.22 1114.32,-941.973 1115.09,-952.912 1115.09,-952.912"/>
</g>
<!-- LogInstance -->
<g id="node6" class="node"><title>LogInstance</title>
<path fill="none" stroke="black" d="M1164.5,-1026C1164.5,-1026 1271.5,-1026 1271.5,-1026 1277.5,-1026 1283.5,-1032 1283.5,-1038 1283.5,-1038 1283.5,-1120 1283.5,-1120 1283.5,-1126 1277.5,-1132 1271.5,-1132 1271.5,-1132 1164.5,-1132 1164.5,-1132 1158.5,-1132 1152.5,-1126 1152.5,-1120 1152.5,-1120 1152.5,-1038 1152.5,-1038 1152.5,-1032 1158.5,-1026 1164.5,-1026"/>
<text text-anchor="middle" x="1218" y="-1116.8" font-family="Times,serif" font-size="14.00">LogInstance</text>
<polyline fill="none" stroke="black" points="1152.5,-1109 1283.5,-1109 "/>
<text text-anchor="start" x="1160.5" y="-1093.8" font-family="Times,serif" font-size="14.00">id :integer</text>
<text text-anchor="start" x="1160.5" y="-1078.8" font-family="Times,serif" font-size="14.00">instance_id :integer</text>
<text text-anchor="start" x="1160.5" y="-1063.8" font-family="Times,serif" font-size="14.00">status :integer</text>
<text text-anchor="start" x="1160.5" y="-1048.8" font-family="Times,serif" font-size="14.00">created_at :datetime</text>
<text text-anchor="start" x="1160.5" y="-1033.8" font-family="Times,serif" font-size="14.00">updated_at :datetime</text>
</g>
<!-- TempCluster -->
<g id="node7" class="node"><title>TempCluster</title>
<path fill="none" stroke="black" d="M317,-807.5C317,-807.5 425,-807.5 425,-807.5 431,-807.5 437,-813.5 437,-819.5 437,-819.5 437,-916.5 437,-916.5 437,-922.5 431,-928.5 425,-928.5 425,-928.5 317,-928.5 317,-928.5 311,-928.5 305,-922.5 305,-916.5 305,-916.5 305,-819.5 305,-819.5 305,-813.5 311,-807.5 317,-807.5"/>
<text text-anchor="middle" x="371" y="-913.3" font-family="Times,serif" font-size="14.00">TempCluster</text>
<polyline fill="none" stroke="black" points="305,-905.5 437,-905.5 "/>
<text text-anchor="start" x="313" y="-890.3" font-family="Times,serif" font-size="14.00">id :integer</text>
<text text-anchor="start" x="313" y="-875.3" font-family="Times,serif" font-size="14.00">name :string</text>
<text text-anchor="start" x="313" y="-860.3" font-family="Times,serif" font-size="14.00">description :text</text>
<text text-anchor="start" x="313" y="-845.3" font-family="Times,serif" font-size="14.00">clustering_id :integer</text>
<text text-anchor="start" x="313" y="-830.3" font-family="Times,serif" font-size="14.00">created_at :datetime</text>
<text text-anchor="start" x="313" y="-815.3" font-family="Times,serif" font-size="14.00">updated_at :datetime</text>
</g>
<!-- Prosumer -->
<g id="node13" class="node"><title>Prosumer</title>
<path fill="none" stroke="black" d="M449,-559C449,-559 593,-559 593,-559 599,-559 605,-565 605,-571 605,-571 605,-743 605,-743 605,-749 599,-755 593,-755 593,-755 449,-755 449,-755 443,-755 437,-749 437,-743 437,-743 437,-571 437,-571 437,-565 443,-559 449,-559"/>
<text text-anchor="middle" x="521" y="-739.8" font-family="Times,serif" font-size="14.00">Prosumer</text>
<polyline fill="none" stroke="black" points="437,-732 605,-732 "/>
<text text-anchor="start" x="445" y="-716.8" font-family="Times,serif" font-size="14.00">id :integer</text>
<text text-anchor="start" x="445" y="-701.8" font-family="Times,serif" font-size="14.00">name :string</text>
<text text-anchor="start" x="445" y="-686.8" font-family="Times,serif" font-size="14.00">location :string</text>
<text text-anchor="start" x="445" y="-671.8" font-family="Times,serif" font-size="14.00">created_at :datetime</text>
<text text-anchor="start" x="445" y="-656.8" font-family="Times,serif" font-size="14.00">updated_at :datetime</text>
<text text-anchor="start" x="445" y="-641.8" font-family="Times,serif" font-size="14.00">cluster_id :integer</text>
<text text-anchor="start" x="445" y="-626.8" font-family="Times,serif" font-size="14.00">intelen_id :integer</text>
<text text-anchor="start" x="445" y="-611.8" font-family="Times,serif" font-size="14.00">building_type_id :integer</text>
<text text-anchor="start" x="445" y="-596.8" font-family="Times,serif" font-size="14.00">connection_type_id :integer</text>
<text text-anchor="start" x="445" y="-581.8" font-family="Times,serif" font-size="14.00">location_x :float</text>
<text text-anchor="start" x="445" y="-566.8" font-family="Times,serif" font-size="14.00">location_y :float</text>
</g>
<!-- TempCluster&#45;&gt;Prosumer -->
<g id="edge4" class="edge"><title>TempCluster&#45;&gt;Prosumer</title>
<path fill="none" stroke="#159cfc" d="M419.634,-799.236C427.834,-787.811 436.516,-775.714 445.212,-763.598"/>
<polygon fill="#159cfc" stroke="#159cfc" points="419.614,-799.264 410.127,-804.765 416.699,-803.327 413.783,-807.389 413.783,-807.389 413.783,-807.389 416.699,-803.327 417.439,-810.013 419.614,-799.264 419.614,-799.264"/>
<polygon fill="#159cfc" stroke="#159cfc" points="445.398,-763.339 454.885,-757.838 448.313,-759.277 451.229,-755.214 451.229,-755.214 451.229,-755.214 448.313,-759.277 447.573,-752.591 445.398,-763.339 445.398,-763.339"/>
</g>
<!-- Meter -->
<g id="node9" class="node"><title>Meter</title>
<path fill="none" stroke="black" d="M274.5,-340C274.5,-340 381.5,-340 381.5,-340 387.5,-340 393.5,-346 393.5,-352 393.5,-352 393.5,-434 393.5,-434 393.5,-440 387.5,-446 381.5,-446 381.5,-446 274.5,-446 274.5,-446 268.5,-446 262.5,-440 262.5,-434 262.5,-434 262.5,-352 262.5,-352 262.5,-346 268.5,-340 274.5,-340"/>
<text text-anchor="middle" x="328" y="-430.8" font-family="Times,serif" font-size="14.00">Meter</text>
<polyline fill="none" stroke="black" points="262.5,-423 393.5,-423 "/>
<text text-anchor="start" x="270.5" y="-407.8" font-family="Times,serif" font-size="14.00">id :integer</text>
<text text-anchor="start" x="270.5" y="-392.8" font-family="Times,serif" font-size="14.00">mac :string</text>
<text text-anchor="start" x="270.5" y="-377.8" font-family="Times,serif" font-size="14.00">prosumer_id :integer</text>
<text text-anchor="start" x="270.5" y="-362.8" font-family="Times,serif" font-size="14.00">created_at :datetime</text>
<text text-anchor="start" x="270.5" y="-347.8" font-family="Times,serif" font-size="14.00">updated_at :datetime</text>
</g>
<!-- Role -->
<g id="node10" class="node"><title>Role</title>
<path fill="none" stroke="black" d="M799.5,-332.5C799.5,-332.5 906.5,-332.5 906.5,-332.5 912.5,-332.5 918.5,-338.5 918.5,-344.5 918.5,-344.5 918.5,-441.5 918.5,-441.5 918.5,-447.5 912.5,-453.5 906.5,-453.5 906.5,-453.5 799.5,-453.5 799.5,-453.5 793.5,-453.5 787.5,-447.5 787.5,-441.5 787.5,-441.5 787.5,-344.5 787.5,-344.5 787.5,-338.5 793.5,-332.5 799.5,-332.5"/>
<text text-anchor="middle" x="853" y="-438.3" font-family="Times,serif" font-size="14.00">Role</text>
<polyline fill="none" stroke="black" points="787.5,-430.5 918.5,-430.5 "/>
<text text-anchor="start" x="795.5" y="-415.3" font-family="Times,serif" font-size="14.00">id :integer</text>
<text text-anchor="start" x="795.5" y="-400.3" font-family="Times,serif" font-size="14.00">name :string</text>
<text text-anchor="start" x="795.5" y="-385.3" font-family="Times,serif" font-size="14.00">resource_id :integer</text>
<text text-anchor="start" x="795.5" y="-370.3" font-family="Times,serif" font-size="14.00">resource_type :string</text>
<text text-anchor="start" x="795.5" y="-355.3" font-family="Times,serif" font-size="14.00">created_at :datetime</text>
<text text-anchor="start" x="795.5" y="-340.3" font-family="Times,serif" font-size="14.00">updated_at :datetime</text>
</g>
<!-- User -->
<g id="node20" class="node"><title>User</title>
<path fill="none" stroke="black" d="M764,-1C764,-1 940,-1 940,-1 946,-1 952,-7 952,-13 952,-13 952,-215 952,-215 952,-221 946,-227 940,-227 940,-227 764,-227 764,-227 758,-227 752,-221 752,-215 752,-215 752,-13 752,-13 752,-7 758,-1 764,-1"/>
<text text-anchor="middle" x="852" y="-211.8" font-family="Times,serif" font-size="14.00">User</text>
<polyline fill="none" stroke="black" points="752,-204 952,-204 "/>
<text text-anchor="start" x="760" y="-188.8" font-family="Times,serif" font-size="14.00">id :integer</text>
<text text-anchor="start" x="760" y="-173.8" font-family="Times,serif" font-size="14.00">email :string</text>
<text text-anchor="start" x="760" y="-158.8" font-family="Times,serif" font-size="14.00">encrypted_password :string</text>
<text text-anchor="start" x="760" y="-143.8" font-family="Times,serif" font-size="14.00">reset_password_token :string</text>
<text text-anchor="start" x="760" y="-128.8" font-family="Times,serif" font-size="14.00">reset_password_sent_at :datetime</text>
<text text-anchor="start" x="760" y="-113.8" font-family="Times,serif" font-size="14.00">remember_created_at :datetime</text>
<text text-anchor="start" x="760" y="-98.8" font-family="Times,serif" font-size="14.00">sign_in_count :integer</text>
<text text-anchor="start" x="760" y="-83.8" font-family="Times,serif" font-size="14.00">current_sign_in_at :datetime</text>
<text text-anchor="start" x="760" y="-68.8" font-family="Times,serif" font-size="14.00">last_sign_in_at :datetime</text>
<text text-anchor="start" x="760" y="-53.8" font-family="Times,serif" font-size="14.00">current_sign_in_ip :inet</text>
<text text-anchor="start" x="760" y="-38.8" font-family="Times,serif" font-size="14.00">last_sign_in_ip :inet</text>
<text text-anchor="start" x="760" y="-23.8" font-family="Times,serif" font-size="14.00">created_at :datetime</text>
<text text-anchor="start" x="760" y="-8.8" font-family="Times,serif" font-size="14.00">updated_at :datetime</text>
</g>
<!-- Role&#45;&gt;User -->
<g id="edge5" class="edge"><title>Role&#45;&gt;User</title>
<path fill="none" stroke="#e87723" d="M852.747,-321.9C852.654,-296.196 852.546,-266.295 852.442,-237.348"/>
<polygon fill="#e87723" stroke="#e87723" points="852.748,-322.236 848.284,-332.252 852.766,-327.236 852.784,-332.236 852.784,-332.236 852.784,-332.236 852.766,-327.236 857.284,-332.22 852.748,-322.236 852.748,-322.236"/>
<polygon fill="#e87723" stroke="#e87723" points="852.441,-237.157 856.905,-227.141 852.423,-232.157 852.405,-227.157 852.405,-227.157 852.405,-227.157 852.423,-232.157 847.905,-227.174 852.441,-237.157 852.441,-237.157"/>
</g>
<!-- Instance -->
<g id="node11" class="node"><title>Instance</title>
<path fill="none" stroke="black" d="M1314,-981C1314,-981 1466,-981 1466,-981 1472,-981 1478,-987 1478,-993 1478,-993 1478,-1165 1478,-1165 1478,-1171 1472,-1177 1466,-1177 1466,-1177 1314,-1177 1314,-1177 1308,-1177 1302,-1171 1302,-1165 1302,-1165 1302,-993 1302,-993 1302,-987 1308,-981 1314,-981"/>
<text text-anchor="middle" x="1390" y="-1161.8" font-family="Times,serif" font-size="14.00">Instance</text>
<polyline fill="none" stroke="black" points="1302,-1154 1478,-1154 "/>
<text text-anchor="start" x="1310" y="-1138.8" font-family="Times,serif" font-size="14.00">id :integer</text>
<text text-anchor="start" x="1310" y="-1123.8" font-family="Times,serif" font-size="14.00">user_id :integer</text>
<text text-anchor="start" x="1310" y="-1108.8" font-family="Times,serif" font-size="14.00">configuration_id :integer</text>
<text text-anchor="start" x="1310" y="-1093.8" font-family="Times,serif" font-size="14.00">results :string</text>
<text text-anchor="start" x="1310" y="-1078.8" font-family="Times,serif" font-size="14.00">status :string</text>
<text text-anchor="start" x="1310" y="-1063.8" font-family="Times,serif" font-size="14.00">reason :string</text>
<text text-anchor="start" x="1310" y="-1048.8" font-family="Times,serif" font-size="14.00">instance_name :string</text>
<text text-anchor="start" x="1310" y="-1033.8" font-family="Times,serif" font-size="14.00">worker :string</text>
<text text-anchor="start" x="1310" y="-1018.8" font-family="Times,serif" font-size="14.00">created_at :datetime</text>
<text text-anchor="start" x="1310" y="-1003.8" font-family="Times,serif" font-size="14.00">updated_at :datetime</text>
<text text-anchor="start" x="1310" y="-988.8" font-family="Times,serif" font-size="14.00">total_execution_time :integer</text>
</g>
<!-- EnergyTypeProsumer -->
<g id="node12" class="node"><title>EnergyTypeProsumer</title>
<path fill="none" stroke="black" d="M403,-53.5C403,-53.5 525,-53.5 525,-53.5 531,-53.5 537,-59.5 537,-65.5 537,-65.5 537,-162.5 537,-162.5 537,-168.5 531,-174.5 525,-174.5 525,-174.5 403,-174.5 403,-174.5 397,-174.5 391,-168.5 391,-162.5 391,-162.5 391,-65.5 391,-65.5 391,-59.5 397,-53.5 403,-53.5"/>
<text text-anchor="middle" x="464" y="-159.3" font-family="Times,serif" font-size="14.00">EnergyTypeProsumer</text>
<polyline fill="none" stroke="black" points="391,-151.5 537,-151.5 "/>
<text text-anchor="start" x="399" y="-136.3" font-family="Times,serif" font-size="14.00">id :integer</text>
<text text-anchor="start" x="399" y="-121.3" font-family="Times,serif" font-size="14.00">power :float</text>
<text text-anchor="start" x="399" y="-106.3" font-family="Times,serif" font-size="14.00">energy_type_id :integer</text>
<text text-anchor="start" x="399" y="-91.3" font-family="Times,serif" font-size="14.00">prosumer_id :integer</text>
<text text-anchor="start" x="399" y="-76.3" font-family="Times,serif" font-size="14.00">created_at :datetime</text>
<text text-anchor="start" x="399" y="-61.3" font-family="Times,serif" font-size="14.00">updated_at :datetime</text>
</g>
<!-- Prosumer&#45;&gt;Meter -->
<g id="edge8" class="edge"><title>Prosumer&#45;&gt;Meter</title>
<path fill="none" stroke="#7bf42f" d="M431.797,-553.16C423.554,-542.788 415.494,-532.286 408,-522 392.54,-500.778 376.927,-476.56 363.649,-454.943"/>
<ellipse fill="none" stroke="#7bf42f" cx="434.45" cy="-556.475" rx="4.00002" ry="4.00002"/>
<polygon fill="#7bf42f" stroke="#7bf42f" points="363.506,-454.708 362.142,-443.827 360.903,-450.439 358.3,-446.17 358.3,-446.17 358.3,-446.17 360.903,-450.439 354.458,-448.513 363.506,-454.708 363.506,-454.708"/>
</g>
<!-- Prosumer&#45;&gt;Role -->
<g id="edge9" class="edge"><title>Prosumer&#45;&gt;Role</title>
<path fill="none" stroke="#5a2355" d="M612.548,-621.291C663.889,-598.607 726.714,-565.159 773,-522 791.112,-505.111 806.753,-483.25 819.28,-462.387"/>
<ellipse fill="none" stroke="#5a2355" cx="608.726" cy="-622.959" rx="4.00002" ry="4.00002"/>
<polygon fill="#5a2355" stroke="#5a2355" points="819.413,-462.16 828.342,-455.794 821.935,-457.842 824.456,-453.525 824.456,-453.525 824.456,-453.525 821.935,-457.842 820.57,-451.255 819.413,-462.16 819.413,-462.16"/>
</g>
<!-- Prosumer&#45;&gt;EnergyTypeProsumer -->
<g id="edge11" class="edge"><title>Prosumer&#45;&gt;EnergyTypeProsumer</title>
<path fill="none" stroke="#c3f06f" d="M451.67,-551.459C447.396,-541.779 443.727,-531.887 441,-522 409.254,-406.895 429.341,-266.735 446.73,-184.538"/>
<ellipse fill="none" stroke="#c3f06f" cx="453.38" cy="-555.182" rx="4.00002" ry="4.00002"/>
<polygon fill="#c3f06f" stroke="#c3f06f" points="446.773,-184.335 453.286,-175.513 447.83,-179.448 448.887,-174.561 448.887,-174.561 448.887,-174.561 447.83,-179.448 444.489,-173.61 446.773,-184.335 446.773,-184.335"/>
</g>
<!-- EnergyType -->
<g id="node16" class="node"><title>EnergyType</title>
<path fill="none" stroke="black" d="M462.5,-347.5C462.5,-347.5 569.5,-347.5 569.5,-347.5 575.5,-347.5 581.5,-353.5 581.5,-359.5 581.5,-359.5 581.5,-426.5 581.5,-426.5 581.5,-432.5 575.5,-438.5 569.5,-438.5 569.5,-438.5 462.5,-438.5 462.5,-438.5 456.5,-438.5 450.5,-432.5 450.5,-426.5 450.5,-426.5 450.5,-359.5 450.5,-359.5 450.5,-353.5 456.5,-347.5 462.5,-347.5"/>
<text text-anchor="middle" x="516" y="-423.3" font-family="Times,serif" font-size="14.00">EnergyType</text>
<polyline fill="none" stroke="black" points="450.5,-415.5 581.5,-415.5 "/>
<text text-anchor="start" x="458.5" y="-400.3" font-family="Times,serif" font-size="14.00">id :integer</text>
<text text-anchor="start" x="458.5" y="-385.3" font-family="Times,serif" font-size="14.00">name :string</text>
<text text-anchor="start" x="458.5" y="-370.3" font-family="Times,serif" font-size="14.00">created_at :datetime</text>
<text text-anchor="start" x="458.5" y="-355.3" font-family="Times,serif" font-size="14.00">updated_at :datetime</text>
</g>
<!-- Prosumer&#45;&gt;EnergyType -->
<g id="edge12" class="edge"><title>Prosumer&#45;&gt;EnergyType</title>
<path fill="none" stroke="#6f9404" d="M518.95,-548.584C518.297,-514.345 517.601,-477.883 517.049,-448.975"/>
<polygon fill="#6f9404" stroke="#6f9404" points="518.954,-548.815 514.646,-558.899 519.05,-553.814 519.145,-558.813 519.145,-558.813 519.145,-558.813 519.05,-553.814 523.644,-558.727 518.954,-548.815 518.954,-548.815"/>
<polygon fill="#6f9404" stroke="#6f9404" points="517.044,-448.682 521.352,-438.598 516.948,-443.683 516.853,-438.684 516.853,-438.684 516.853,-438.684 516.948,-443.683 512.354,-438.77 517.044,-448.682 517.044,-448.682"/>
</g>
<!-- DayAhead -->
<g id="node18" class="node"><title>DayAhead</title>
<path fill="none" stroke="black" d="M611.5,-340C611.5,-340 718.5,-340 718.5,-340 724.5,-340 730.5,-346 730.5,-352 730.5,-352 730.5,-434 730.5,-434 730.5,-440 724.5,-446 718.5,-446 718.5,-446 611.5,-446 611.5,-446 605.5,-446 599.5,-440 599.5,-434 599.5,-434 599.5,-352 599.5,-352 599.5,-346 605.5,-340 611.5,-340"/>
<text text-anchor="middle" x="665" y="-430.8" font-family="Times,serif" font-size="14.00">DayAhead</text>
<polyline fill="none" stroke="black" points="599.5,-423 730.5,-423 "/>
<text text-anchor="start" x="607.5" y="-407.8" font-family="Times,serif" font-size="14.00">id :integer</text>
<text text-anchor="start" x="607.5" y="-392.8" font-family="Times,serif" font-size="14.00">prosumer_id :integer</text>
<text text-anchor="start" x="607.5" y="-377.8" font-family="Times,serif" font-size="14.00">date :date</text>
<text text-anchor="start" x="607.5" y="-362.8" font-family="Times,serif" font-size="14.00">created_at :datetime</text>
<text text-anchor="start" x="607.5" y="-347.8" font-family="Times,serif" font-size="14.00">updated_at :datetime</text>
</g>
<!-- Prosumer&#45;&gt;DayAhead -->
<g id="edge7" class="edge"><title>Prosumer&#45;&gt;DayAhead</title>
<path fill="none" stroke="#056f81" d="M578.372,-551.614C596.325,-518.95 615.545,-483.98 631.309,-455.299"/>
<ellipse fill="none" stroke="#056f81" cx="576.342" cy="-555.308" rx="4.00002" ry="4.00002"/>
<polygon fill="#056f81" stroke="#056f81" points="631.483,-454.983 640.243,-448.387 633.891,-450.601 636.299,-446.219 636.299,-446.219 636.299,-446.219 633.891,-450.601 632.356,-444.052 631.483,-454.983 631.483,-454.983"/>
</g>
<!-- Prosumer&#45;&gt;DataPoint -->
<g id="edge6" class="edge"><title>Prosumer&#45;&gt;DataPoint</title>
<path fill="none" stroke="#80a3da" d="M428.996,-624.775C373.384,-602.537 303.688,-568.352 253,-522 252.533,-521.573 252.068,-521.143 251.605,-520.71"/>
<ellipse fill="none" stroke="#80a3da" cx="433.025" cy="-626.365" rx="4.00001" ry="4.00001"/>
<polygon fill="#80a3da" stroke="#80a3da" points="251.355,-520.461 247.427,-510.223 247.806,-516.939 244.257,-513.417 244.257,-513.417 244.257,-513.417 247.806,-516.939 241.087,-516.611 251.355,-520.461 251.355,-520.461"/>
</g>
<!-- Prosumer&#45;&gt;User -->
<g id="edge10" class="edge"><title>Prosumer&#45;&gt;User</title>
<path fill="none" stroke="#f2f48a" d="M614.264,-620.859C659.066,-599.165 709.344,-566.791 739,-522 803.023,-425.305 743.121,-374.6 778,-264 780.837,-255.005 784.154,-245.88 787.783,-236.805"/>
<polygon fill="#f2f48a" stroke="#f2f48a" points="614.133,-620.921 603.169,-621.122 609.612,-623.056 605.091,-625.191 605.091,-625.191 605.091,-625.191 609.612,-623.056 607.012,-629.26 614.133,-620.921 614.133,-620.921"/>
<polygon fill="#f2f48a" stroke="#f2f48a" points="787.86,-236.618 795.831,-229.088 789.765,-231.996 791.67,-227.373 791.67,-227.373 791.67,-227.373 789.765,-231.996 787.51,-225.658 787.86,-236.618 787.86,-236.618"/>
</g>
<!-- Cluster -->
<g id="node14" class="node"><title>Cluster</title>
<path fill="none" stroke="black" d="M784.5,-815C784.5,-815 891.5,-815 891.5,-815 897.5,-815 903.5,-821 903.5,-827 903.5,-827 903.5,-909 903.5,-909 903.5,-915 897.5,-921 891.5,-921 891.5,-921 784.5,-921 784.5,-921 778.5,-921 772.5,-915 772.5,-909 772.5,-909 772.5,-827 772.5,-827 772.5,-821 778.5,-815 784.5,-815"/>
<text text-anchor="middle" x="838" y="-905.8" font-family="Times,serif" font-size="14.00">Cluster</text>
<polyline fill="none" stroke="black" points="772.5,-898 903.5,-898 "/>
<text text-anchor="start" x="780.5" y="-882.8" font-family="Times,serif" font-size="14.00">id :integer</text>
<text text-anchor="start" x="780.5" y="-867.8" font-family="Times,serif" font-size="14.00">name :string</text>
<text text-anchor="start" x="780.5" y="-852.8" font-family="Times,serif" font-size="14.00">description :text</text>
<text text-anchor="start" x="780.5" y="-837.8" font-family="Times,serif" font-size="14.00">created_at :datetime</text>
<text text-anchor="start" x="780.5" y="-822.8" font-family="Times,serif" font-size="14.00">updated_at :datetime</text>
</g>
<!-- Cluster&#45;&gt;Role -->
<g id="edge14" class="edge"><title>Cluster&#45;&gt;Role</title>
<path fill="none" stroke="#5a4af4" d="M839.917,-806.555C842.699,-718.818 847.845,-556.565 850.785,-463.833"/>
<ellipse fill="none" stroke="#5a4af4" cx="839.789" cy="-810.575" rx="4" ry="4"/>
<polygon fill="#5a4af4" stroke="#5a4af4" points="850.79,-463.7 855.604,-453.848 850.948,-458.703 851.107,-453.705 851.107,-453.705 851.107,-453.705 850.948,-458.703 846.609,-453.563 850.79,-463.7 850.79,-463.7"/>
</g>
<!-- Cluster&#45;&gt;Prosumer -->
<g id="edge13" class="edge"><title>Cluster&#45;&gt;Prosumer</title>
<path fill="none" stroke="#ba4ea5" d="M768.39,-809.802C760.282,-803.638 752.037,-797.584 744,-792 702.532,-763.186 654.754,-733.983 614.086,-710.226"/>
<ellipse fill="none" stroke="#ba4ea5" cx="771.987" cy="-812.563" rx="4.00002" ry="4.00002"/>
<polygon fill="#ba4ea5" stroke="#ba4ea5" points="613.897,-710.116 607.517,-701.198 609.575,-707.602 605.253,-705.087 605.253,-705.087 605.253,-705.087 609.575,-707.602 602.99,-708.976 613.897,-710.116 613.897,-710.116"/>
</g>
<!-- ConnectionType -->
<g id="node15" class="node"><title>ConnectionType</title>
<path fill="none" stroke="black" d="M467.5,-822.5C467.5,-822.5 574.5,-822.5 574.5,-822.5 580.5,-822.5 586.5,-828.5 586.5,-834.5 586.5,-834.5 586.5,-901.5 586.5,-901.5 586.5,-907.5 580.5,-913.5 574.5,-913.5 574.5,-913.5 467.5,-913.5 467.5,-913.5 461.5,-913.5 455.5,-907.5 455.5,-901.5 455.5,-901.5 455.5,-834.5 455.5,-834.5 455.5,-828.5 461.5,-822.5 467.5,-822.5"/>
<text text-anchor="middle" x="521" y="-898.3" font-family="Times,serif" font-size="14.00">ConnectionType</text>
<polyline fill="none" stroke="black" points="455.5,-890.5 586.5,-890.5 "/>
<text text-anchor="start" x="463.5" y="-875.3" font-family="Times,serif" font-size="14.00">id :integer</text>
<text text-anchor="start" x="463.5" y="-860.3" font-family="Times,serif" font-size="14.00">name :string</text>
<text text-anchor="start" x="463.5" y="-845.3" font-family="Times,serif" font-size="14.00">created_at :datetime</text>
<text text-anchor="start" x="463.5" y="-830.3" font-family="Times,serif" font-size="14.00">updated_at :datetime</text>
</g>
<!-- ConnectionType&#45;&gt;Prosumer -->
<g id="edge15" class="edge"><title>ConnectionType&#45;&gt;Prosumer</title>
<path fill="none" stroke="#b2854e" d="M521,-814.372C521,-799.357 521,-782.428 521,-765.396"/>
<ellipse fill="none" stroke="#b2854e" cx="521" cy="-818.421" rx="4" ry="4"/>
<polygon fill="#b2854e" stroke="#b2854e" points="521,-765.37 525.5,-755.37 521,-760.37 521,-755.37 521,-755.37 521,-755.37 521,-760.37 516.5,-755.37 521,-765.37 521,-765.37"/>
</g>
<!-- EnergyType&#45;&gt;EnergyTypeProsumer -->
<g id="edge16" class="edge"><title>EnergyType&#45;&gt;EnergyTypeProsumer</title>
<path fill="none" stroke="#9fd1d4" d="M506.157,-339.569C497.923,-295.706 486.107,-232.763 477.078,-184.668"/>
<ellipse fill="none" stroke="#9fd1d4" cx="506.907" cy="-343.564" rx="4.00001" ry="4.00001"/>
<polygon fill="#9fd1d4" stroke="#9fd1d4" points="477.042,-184.471 479.619,-173.812 476.119,-179.557 475.196,-174.643 475.196,-174.643 475.196,-174.643 476.119,-179.557 470.774,-175.473 477.042,-184.471 477.042,-184.471"/>
</g>
<!-- DayAheadHour -->
<g id="node17" class="node"><title>DayAheadHour</title>
<path fill="none" stroke="black" d="M608.5,-46C608.5,-46 721.5,-46 721.5,-46 727.5,-46 733.5,-52 733.5,-58 733.5,-58 733.5,-170 733.5,-170 733.5,-176 727.5,-182 721.5,-182 721.5,-182 608.5,-182 608.5,-182 602.5,-182 596.5,-176 596.5,-170 596.5,-170 596.5,-58 596.5,-58 596.5,-52 602.5,-46 608.5,-46"/>
<text text-anchor="middle" x="665" y="-166.8" font-family="Times,serif" font-size="14.00">DayAheadHour</text>
<polyline fill="none" stroke="black" points="596.5,-159 733.5,-159 "/>
<text text-anchor="start" x="604.5" y="-143.8" font-family="Times,serif" font-size="14.00">id :integer</text>
<text text-anchor="start" x="604.5" y="-128.8" font-family="Times,serif" font-size="14.00">day_ahead_id :integer</text>
<text text-anchor="start" x="604.5" y="-113.8" font-family="Times,serif" font-size="14.00">time :integer</text>
<text text-anchor="start" x="604.5" y="-98.8" font-family="Times,serif" font-size="14.00">production :float</text>
<text text-anchor="start" x="604.5" y="-83.8" font-family="Times,serif" font-size="14.00">consumption :float</text>
<text text-anchor="start" x="604.5" y="-68.8" font-family="Times,serif" font-size="14.00">created_at :datetime</text>
<text text-anchor="start" x="604.5" y="-53.8" font-family="Times,serif" font-size="14.00">updated_at :datetime</text>
</g>
<!-- DayAhead&#45;&gt;DayAheadHour -->
<g id="edge17" class="edge"><title>DayAhead&#45;&gt;DayAheadHour</title>
<path fill="none" stroke="#5722d8" d="M665,-331.849C665,-290.905 665,-236.348 665,-192.2"/>
<ellipse fill="none" stroke="#5722d8" cx="665" cy="-335.898" rx="4" ry="4"/>
<polygon fill="#5722d8" stroke="#5722d8" points="665,-192.084 669.5,-182.084 665,-187.084 665,-182.084 665,-182.084 665,-182.084 665,-187.084 660.5,-182.084 665,-192.084 665,-192.084"/>
</g>
<!-- BuildingType -->
<g id="node21" class="node"><title>BuildingType</title>
<path fill="none" stroke="black" d="M616.5,-822.5C616.5,-822.5 723.5,-822.5 723.5,-822.5 729.5,-822.5 735.5,-828.5 735.5,-834.5 735.5,-834.5 735.5,-901.5 735.5,-901.5 735.5,-907.5 729.5,-913.5 723.5,-913.5 723.5,-913.5 616.5,-913.5 616.5,-913.5 610.5,-913.5 604.5,-907.5 604.5,-901.5 604.5,-901.5 604.5,-834.5 604.5,-834.5 604.5,-828.5 610.5,-822.5 616.5,-822.5"/>
<text text-anchor="middle" x="670" y="-898.3" font-family="Times,serif" font-size="14.00">BuildingType</text>
<polyline fill="none" stroke="black" points="604.5,-890.5 735.5,-890.5 "/>
<text text-anchor="start" x="612.5" y="-875.3" font-family="Times,serif" font-size="14.00">id :integer</text>
<text text-anchor="start" x="612.5" y="-860.3" font-family="Times,serif" font-size="14.00">name :string</text>
<text text-anchor="start" x="612.5" y="-845.3" font-family="Times,serif" font-size="14.00">created_at :datetime</text>
<text text-anchor="start" x="612.5" y="-830.3" font-family="Times,serif" font-size="14.00">updated_at :datetime</text>
</g>
<!-- BuildingType&#45;&gt;Prosumer -->
<g id="edge18" class="edge"><title>BuildingType&#45;&gt;Prosumer</title>
<path fill="none" stroke="#375ecd" d="M633.514,-815.822C622.205,-799.959 609.3,-781.856 596.359,-763.705"/>
<ellipse fill="none" stroke="#375ecd" cx="635.896" cy="-819.164" rx="4.00002" ry="4.00002"/>
<polygon fill="#375ecd" stroke="#375ecd" points="596.222,-763.513 594.081,-752.758 593.32,-759.441 590.417,-755.37 590.417,-755.37 590.417,-755.37 593.32,-759.441 586.753,-757.982 596.222,-763.513 596.222,-763.513"/>
</g>
<!-- Clustering -->
<g id="node22" class="node"><title>Clustering</title>
<path fill="none" stroke="black" d="M317.5,-1026C317.5,-1026 424.5,-1026 424.5,-1026 430.5,-1026 436.5,-1032 436.5,-1038 436.5,-1038 436.5,-1120 436.5,-1120 436.5,-1126 430.5,-1132 424.5,-1132 424.5,-1132 317.5,-1132 317.5,-1132 311.5,-1132 305.5,-1126 305.5,-1120 305.5,-1120 305.5,-1038 305.5,-1038 305.5,-1032 311.5,-1026 317.5,-1026"/>
<text text-anchor="middle" x="371" y="-1116.8" font-family="Times,serif" font-size="14.00">Clustering</text>
<polyline fill="none" stroke="black" points="305.5,-1109 436.5,-1109 "/>
<text text-anchor="start" x="313.5" y="-1093.8" font-family="Times,serif" font-size="14.00">id :integer</text>
<text text-anchor="start" x="313.5" y="-1078.8" font-family="Times,serif" font-size="14.00">name :string</text>
<text text-anchor="start" x="313.5" y="-1063.8" font-family="Times,serif" font-size="14.00">description :text</text>
<text text-anchor="start" x="313.5" y="-1048.8" font-family="Times,serif" font-size="14.00">created_at :datetime</text>
<text text-anchor="start" x="313.5" y="-1033.8" font-family="Times,serif" font-size="14.00">updated_at :datetime</text>
</g>
<!-- Clustering&#45;&gt;TempCluster -->
<g id="edge19" class="edge"><title>Clustering&#45;&gt;TempCluster</title>
<path fill="none" stroke="#8aa8bb" d="M371,-1017.68C371,-992.98 371,-964.25 371,-938.665"/>
<ellipse fill="none" stroke="#8aa8bb" cx="371" cy="-1021.8" rx="4" ry="4"/>
<polygon fill="#8aa8bb" stroke="#8aa8bb" points="371,-938.659 375.5,-928.659 371,-933.659 371,-928.659 371,-928.659 371,-928.659 371,-933.659 366.5,-928.659 371,-938.659 371,-938.659"/>
</g>
</g>
</svg>
