<?xml version="1.0" encoding="UTF-8" standalone="no"?>
<!DOCTYPE svg PUBLIC "-//W3C//DTD SVG 1.1//EN"
 "http://www.w3.org/Graphics/SVG/1.1/DTD/svg11.dtd">
<!-- Generated by graphviz version 2.36.0 (20140111.2315)
 -->
<!-- Title: models_diagram Pages: 1 -->
<svg width="1788pt" height="1300pt"
 viewBox="0.00 0.00 1788.00 1300.00" xmlns="http://www.w3.org/2000/svg" xmlns:xlink="http://www.w3.org/1999/xlink">
<g id="graph0" class="graph" transform="scale(1 1) rotate(0) translate(4 1296)">
<title>models_diagram</title>
<polygon fill="white" stroke="none" points="-4,4 -4,-1296 1784,-1296 1784,4 -4,4"/>
<!-- _diagram_info -->
<g id="node1" class="node"><title>_diagram_info</title>
<text text-anchor="start" x="8" y="-1277.6" font-family="Times,serif" font-size="13.00">Models diagram</text>
<text text-anchor="start" x="8" y="-1263.6" font-family="Times,serif" font-size="13.00">Date: Mar 30 2015 &#45; 18:22</text>
<text text-anchor="start" x="8" y="-1249.6" font-family="Times,serif" font-size="13.00">Migration version: 20150204132935</text>
<text text-anchor="start" x="8" y="-1235.6" font-family="Times,serif" font-size="13.00">Generated by RailRoady 1.3.0</text>
<text text-anchor="start" x="8" y="-1221.6" font-family="Times,serif" font-size="13.00">http://railroady.prestonlee.com</text>
</g>
<!-- Ability -->
<g id="node2" class="node"><title>Ability</title>
<polygon fill="none" stroke="black" points="238.5,-1056 238.5,-1102 293.5,-1102 293.5,-1056 238.5,-1056"/>
<text text-anchor="middle" x="266" y="-1086.8" font-family="Times,serif" font-size="14.00">Ability</text>
<polyline fill="none" stroke="black" points="238.5,-1079 293.5,-1079 "/>
<text text-anchor="middle" x="266" y="-1063.8" font-family="Times,serif" font-size="14.00"> </text>
</g>
<!-- Interval -->
<g id="node3" class="node"><title>Interval</title>
<path fill="none" stroke="black" d="M240.5,-604C240.5,-604 347.5,-604 347.5,-604 353.5,-604 359.5,-610 359.5,-616 359.5,-616 359.5,-698 359.5,-698 359.5,-704 353.5,-710 347.5,-710 347.5,-710 240.5,-710 240.5,-710 234.5,-710 228.5,-704 228.5,-698 228.5,-698 228.5,-616 228.5,-616 228.5,-610 234.5,-604 240.5,-604"/>
<text text-anchor="middle" x="294" y="-694.8" font-family="Times,serif" font-size="14.00">Interval</text>
<polyline fill="none" stroke="black" points="228.5,-687 359.5,-687 "/>
<text text-anchor="start" x="236.5" y="-671.8" font-family="Times,serif" font-size="14.00">id :integer</text>
<text text-anchor="start" x="236.5" y="-656.8" font-family="Times,serif" font-size="14.00">duration :integer</text>
<text text-anchor="start" x="236.5" y="-641.8" font-family="Times,serif" font-size="14.00">name :string</text>
<text text-anchor="start" x="236.5" y="-626.8" font-family="Times,serif" font-size="14.00">created_at :datetime</text>
<text text-anchor="start" x="236.5" y="-611.8" font-family="Times,serif" font-size="14.00">updated_at :datetime</text>
</g>
<!-- DataPoint -->
<g id="node19" class="node"><title>DataPoint</title>
<path fill="none" stroke="black" d="M270,-265C270,-265 386,-265 386,-265 392,-265 398,-271 398,-277 398,-277 398,-509 398,-509 398,-515 392,-521 386,-521 386,-521 270,-521 270,-521 264,-521 258,-515 258,-509 258,-509 258,-277 258,-277 258,-271 264,-265 270,-265"/>
<text text-anchor="middle" x="328" y="-505.8" font-family="Times,serif" font-size="14.00">DataPoint</text>
<polyline fill="none" stroke="black" points="258,-498 398,-498 "/>
<text text-anchor="start" x="266" y="-482.8" font-family="Times,serif" font-size="14.00">id :integer</text>
<text text-anchor="start" x="266" y="-467.8" font-family="Times,serif" font-size="14.00">prosumer_id :integer</text>
<text text-anchor="start" x="266" y="-452.8" font-family="Times,serif" font-size="14.00">interval_id :integer</text>
<text text-anchor="start" x="266" y="-437.8" font-family="Times,serif" font-size="14.00">timestamp :datetime</text>
<text text-anchor="start" x="266" y="-422.8" font-family="Times,serif" font-size="14.00">production :float</text>
<text text-anchor="start" x="266" y="-407.8" font-family="Times,serif" font-size="14.00">consumption :float</text>
<text text-anchor="start" x="266" y="-392.8" font-family="Times,serif" font-size="14.00">storage :float</text>
<text text-anchor="start" x="266" y="-377.8" font-family="Times,serif" font-size="14.00">f_timestamp :datetime</text>
<text text-anchor="start" x="266" y="-362.8" font-family="Times,serif" font-size="14.00">f_production :float</text>
<text text-anchor="start" x="266" y="-347.8" font-family="Times,serif" font-size="14.00">f_consumption :float</text>
<text text-anchor="start" x="266" y="-332.8" font-family="Times,serif" font-size="14.00">f_storage :float</text>
<text text-anchor="start" x="266" y="-317.8" font-family="Times,serif" font-size="14.00">dr :float</text>
<text text-anchor="start" x="266" y="-302.8" font-family="Times,serif" font-size="14.00">reliability :float</text>
<text text-anchor="start" x="266" y="-287.8" font-family="Times,serif" font-size="14.00">created_at :datetime</text>
<text text-anchor="start" x="266" y="-272.8" font-family="Times,serif" font-size="14.00">updated_at :datetime</text>
</g>
<!-- Interval&#45;&gt;DataPoint -->
<g id="edge2" class="edge"><title>Interval&#45;&gt;DataPoint</title>
<path fill="none" stroke="#e4cc4f" d="M301.803,-595.871C304.331,-576.391 307.247,-553.919 310.196,-531.199"/>
<ellipse fill="none" stroke="#e4cc4f" cx="301.273" cy="-599.957" rx="4.00001" ry="4.00001"/>
<polygon fill="#e4cc4f" stroke="#e4cc4f" points="310.219,-531.021 315.968,-521.684 310.862,-526.063 311.506,-521.105 311.506,-521.105 311.506,-521.105 310.862,-526.063 307.043,-520.525 310.219,-531.021 310.219,-531.021"/>
</g>
<!-- DayAheadEnergyPrice -->
<g id="node4" class="node"><title>DayAheadEnergyPrice</title>
<path fill="none" stroke="black" d="M837.5,-800C837.5,-800 954.5,-800 954.5,-800 960.5,-800 966.5,-806 966.5,-812 966.5,-812 966.5,-924 966.5,-924 966.5,-930 960.5,-936 954.5,-936 954.5,-936 837.5,-936 837.5,-936 831.5,-936 825.5,-930 825.5,-924 825.5,-924 825.5,-812 825.5,-812 825.5,-806 831.5,-800 837.5,-800"/>
<text text-anchor="middle" x="896" y="-920.8" font-family="Times,serif" font-size="14.00">DayAheadEnergyPrice</text>
<polyline fill="none" stroke="black" points="825.5,-913 966.5,-913 "/>
<text text-anchor="start" x="833.5" y="-897.8" font-family="Times,serif" font-size="14.00">id :integer</text>
<text text-anchor="start" x="833.5" y="-882.8" font-family="Times,serif" font-size="14.00">date :datetime</text>
<text text-anchor="start" x="833.5" y="-867.8" font-family="Times,serif" font-size="14.00">dayhour :integer</text>
<text text-anchor="start" x="833.5" y="-852.8" font-family="Times,serif" font-size="14.00">price :float</text>
<text text-anchor="start" x="833.5" y="-837.8" font-family="Times,serif" font-size="14.00">market_id :integer</text>
<text text-anchor="start" x="833.5" y="-822.8" font-family="Times,serif" font-size="14.00">created_at :datetime</text>
<text text-anchor="start" x="833.5" y="-807.8" font-family="Times,serif" font-size="14.00">updated_at :datetime</text>
</g>
<!-- EnergyMarket -->
<g id="node5" class="node"><title>EnergyMarket</title>
<path fill="none" stroke="black" d="M917.5,-1033.5C917.5,-1033.5 1024.5,-1033.5 1024.5,-1033.5 1030.5,-1033.5 1036.5,-1039.5 1036.5,-1045.5 1036.5,-1045.5 1036.5,-1112.5 1036.5,-1112.5 1036.5,-1118.5 1030.5,-1124.5 1024.5,-1124.5 1024.5,-1124.5 917.5,-1124.5 917.5,-1124.5 911.5,-1124.5 905.5,-1118.5 905.5,-1112.5 905.5,-1112.5 905.5,-1045.5 905.5,-1045.5 905.5,-1039.5 911.5,-1033.5 917.5,-1033.5"/>
<text text-anchor="middle" x="971" y="-1109.3" font-family="Times,serif" font-size="14.00">EnergyMarket</text>
<polyline fill="none" stroke="black" points="905.5,-1101.5 1036.5,-1101.5 "/>
<text text-anchor="start" x="913.5" y="-1086.3" font-family="Times,serif" font-size="14.00">id :integer</text>
<text text-anchor="start" x="913.5" y="-1071.3" font-family="Times,serif" font-size="14.00">name :string</text>
<text text-anchor="start" x="913.5" y="-1056.3" font-family="Times,serif" font-size="14.00">created_at :datetime</text>
<text text-anchor="start" x="913.5" y="-1041.3" font-family="Times,serif" font-size="14.00">updated_at :datetime</text>
</g>
<!-- EnergyMarket&#45;&gt;DayAheadEnergyPrice -->
<g id="edge5" class="edge"><title>EnergyMarket&#45;&gt;DayAheadEnergyPrice</title>
<path fill="none" stroke="#d42942" d="M952.193,-1025.59C943.533,-1001.46 933.087,-972.35 923.563,-945.808"/>
<ellipse fill="none" stroke="#d42942" cx="953.652" cy="-1029.66" rx="4.00001" ry="4.00001"/>
<polygon fill="#d42942" stroke="#d42942" points="923.478,-945.572 924.336,-934.64 921.789,-940.866 920.1,-936.16 920.1,-936.16 920.1,-936.16 921.789,-940.866 915.865,-937.68 923.478,-945.572 923.478,-945.572"/>
</g>
<!-- IntraDayEnergyPrice -->
<g id="node8" class="node"><title>IntraDayEnergyPrice</title>
<path fill="none" stroke="black" d="M1003.5,-792.5C1003.5,-792.5 1110.5,-792.5 1110.5,-792.5 1116.5,-792.5 1122.5,-798.5 1122.5,-804.5 1122.5,-804.5 1122.5,-931.5 1122.5,-931.5 1122.5,-937.5 1116.5,-943.5 1110.5,-943.5 1110.5,-943.5 1003.5,-943.5 1003.5,-943.5 997.5,-943.5 991.5,-937.5 991.5,-931.5 991.5,-931.5 991.5,-804.5 991.5,-804.5 991.5,-798.5 997.5,-792.5 1003.5,-792.5"/>
<text text-anchor="middle" x="1057" y="-928.3" font-family="Times,serif" font-size="14.00">IntraDayEnergyPrice</text>
<polyline fill="none" stroke="black" points="991.5,-920.5 1122.5,-920.5 "/>
<text text-anchor="start" x="999.5" y="-905.3" font-family="Times,serif" font-size="14.00">id :integer</text>
<text text-anchor="start" x="999.5" y="-890.3" font-family="Times,serif" font-size="14.00">date :datetime</text>
<text text-anchor="start" x="999.5" y="-875.3" font-family="Times,serif" font-size="14.00">dayhour :integer</text>
<text text-anchor="start" x="999.5" y="-860.3" font-family="Times,serif" font-size="14.00">price :float</text>
<text text-anchor="start" x="999.5" y="-845.3" font-family="Times,serif" font-size="14.00">interval_id :integer</text>
<text text-anchor="start" x="999.5" y="-830.3" font-family="Times,serif" font-size="14.00">market_id :integer</text>
<text text-anchor="start" x="999.5" y="-815.3" font-family="Times,serif" font-size="14.00">created_at :datetime</text>
<text text-anchor="start" x="999.5" y="-800.3" font-family="Times,serif" font-size="14.00">updated_at :datetime</text>
</g>
<!-- EnergyMarket&#45;&gt;IntraDayEnergyPrice -->
<g id="edge6" class="edge"><title>EnergyMarket&#45;&gt;IntraDayEnergyPrice</title>
<path fill="none" stroke="#039265" d="M992.446,-1025.88C1001.52,-1003.82 1012.33,-977.558 1022.48,-952.892"/>
<ellipse fill="none" stroke="#039265" cx="990.866" cy="-1029.72" rx="4.00001" ry="4.00001"/>
<polygon fill="#039265" stroke="#039265" points="1022.53,-952.776 1030.49,-945.241 1024.43,-948.152 1026.33,-943.528 1026.33,-943.528 1026.33,-943.528 1024.43,-948.152 1022.17,-941.816 1022.53,-952.776 1022.53,-952.776"/>
</g>
<!-- LogInstance -->
<g id="node6" class="node"><title>LogInstance</title>
<path fill="none" stroke="black" d="M1159.5,-815C1159.5,-815 1266.5,-815 1266.5,-815 1272.5,-815 1278.5,-821 1278.5,-827 1278.5,-827 1278.5,-909 1278.5,-909 1278.5,-915 1272.5,-921 1266.5,-921 1266.5,-921 1159.5,-921 1159.5,-921 1153.5,-921 1147.5,-915 1147.5,-909 1147.5,-909 1147.5,-827 1147.5,-827 1147.5,-821 1153.5,-815 1159.5,-815"/>
<text text-anchor="middle" x="1213" y="-905.8" font-family="Times,serif" font-size="14.00">LogInstance</text>
<polyline fill="none" stroke="black" points="1147.5,-898 1278.5,-898 "/>
<text text-anchor="start" x="1155.5" y="-882.8" font-family="Times,serif" font-size="14.00">id :integer</text>
<text text-anchor="start" x="1155.5" y="-867.8" font-family="Times,serif" font-size="14.00">instance_id :integer</text>
<text text-anchor="start" x="1155.5" y="-852.8" font-family="Times,serif" font-size="14.00">status :integer</text>
<text text-anchor="start" x="1155.5" y="-837.8" font-family="Times,serif" font-size="14.00">created_at :datetime</text>
<text text-anchor="start" x="1155.5" y="-822.8" font-family="Times,serif" font-size="14.00">updated_at :datetime</text>
</g>
<!-- TempCluster -->
<g id="node7" class="node"><title>TempCluster</title>
<path fill="none" stroke="black" d="M1375,-807.5C1375,-807.5 1483,-807.5 1483,-807.5 1489,-807.5 1495,-813.5 1495,-819.5 1495,-819.5 1495,-916.5 1495,-916.5 1495,-922.5 1489,-928.5 1483,-928.5 1483,-928.5 1375,-928.5 1375,-928.5 1369,-928.5 1363,-922.5 1363,-916.5 1363,-916.5 1363,-819.5 1363,-819.5 1363,-813.5 1369,-807.5 1375,-807.5"/>
<text text-anchor="middle" x="1429" y="-913.3" font-family="Times,serif" font-size="14.00">TempCluster</text>
<polyline fill="none" stroke="black" points="1363,-905.5 1495,-905.5 "/>
<text text-anchor="start" x="1371" y="-890.3" font-family="Times,serif" font-size="14.00">id :integer</text>
<text text-anchor="start" x="1371" y="-875.3" font-family="Times,serif" font-size="14.00">name :string</text>
<text text-anchor="start" x="1371" y="-860.3" font-family="Times,serif" font-size="14.00">description :text</text>
<text text-anchor="start" x="1371" y="-845.3" font-family="Times,serif" font-size="14.00">clustering_id :integer</text>
<text text-anchor="start" x="1371" y="-830.3" font-family="Times,serif" font-size="14.00">created_at :datetime</text>
<text text-anchor="start" x="1371" y="-815.3" font-family="Times,serif" font-size="14.00">updated_at :datetime</text>
</g>
<!-- Prosumer -->
<g id="node13" class="node"><title>Prosumer</title>
<path fill="none" stroke="black" d="M711,-559C711,-559 855,-559 855,-559 861,-559 867,-565 867,-571 867,-571 867,-743 867,-743 867,-749 861,-755 855,-755 855,-755 711,-755 711,-755 705,-755 699,-749 699,-743 699,-743 699,-571 699,-571 699,-565 705,-559 711,-559"/>
<text text-anchor="middle" x="783" y="-739.8" font-family="Times,serif" font-size="14.00">Prosumer</text>
<polyline fill="none" stroke="black" points="699,-732 867,-732 "/>
<text text-anchor="start" x="707" y="-716.8" font-family="Times,serif" font-size="14.00">id :integer</text>
<text text-anchor="start" x="707" y="-701.8" font-family="Times,serif" font-size="14.00">name :string</text>
<text text-anchor="start" x="707" y="-686.8" font-family="Times,serif" font-size="14.00">location :string</text>
<text text-anchor="start" x="707" y="-671.8" font-family="Times,serif" font-size="14.00">created_at :datetime</text>
<text text-anchor="start" x="707" y="-656.8" font-family="Times,serif" font-size="14.00">updated_at :datetime</text>
<text text-anchor="start" x="707" y="-641.8" font-family="Times,serif" font-size="14.00">cluster_id :integer</text>
<text text-anchor="start" x="707" y="-626.8" font-family="Times,serif" font-size="14.00">intelen_id :integer</text>
<text text-anchor="start" x="707" y="-611.8" font-family="Times,serif" font-size="14.00">building_type_id :integer</text>
<text text-anchor="start" x="707" y="-596.8" font-family="Times,serif" font-size="14.00">connection_type_id :integer</text>
<text text-anchor="start" x="707" y="-581.8" font-family="Times,serif" font-size="14.00">location_x :float</text>
<text text-anchor="start" x="707" y="-566.8" font-family="Times,serif" font-size="14.00">location_y :float</text>
</g>
<!-- TempCluster&#45;&gt;Prosumer -->
<g id="edge9" class="edge"><title>TempCluster&#45;&gt;Prosumer</title>
<path fill="none" stroke="#80eb3f" d="M1364.16,-801.419C1359.23,-797.956 1354.16,-794.77 1349,-792 1196.43,-710.067 994.256,-677.773 877.418,-665.38"/>
<polygon fill="#80eb3f" stroke="#80eb3f" points="1364.3,-801.52 1369.64,-811.096 1368.31,-804.502 1372.33,-807.484 1372.33,-807.484 1372.33,-807.484 1368.31,-804.502 1375.01,-803.871 1364.3,-801.52 1364.3,-801.52"/>
<polygon fill="#80eb3f" stroke="#80eb3f" points="877.37,-665.375 867.885,-659.871 872.396,-664.861 867.423,-664.347 867.423,-664.347 867.423,-664.347 872.396,-664.861 866.96,-668.823 877.37,-665.375 877.37,-665.375"/>
</g>
<!-- Meter -->
<g id="node9" class="node"><title>Meter</title>
<path fill="none" stroke="black" d="M635.5,-340C635.5,-340 742.5,-340 742.5,-340 748.5,-340 754.5,-346 754.5,-352 754.5,-352 754.5,-434 754.5,-434 754.5,-440 748.5,-446 742.5,-446 742.5,-446 635.5,-446 635.5,-446 629.5,-446 623.5,-440 623.5,-434 623.5,-434 623.5,-352 623.5,-352 623.5,-346 629.5,-340 635.5,-340"/>
<text text-anchor="middle" x="689" y="-430.8" font-family="Times,serif" font-size="14.00">Meter</text>
<polyline fill="none" stroke="black" points="623.5,-423 754.5,-423 "/>
<text text-anchor="start" x="631.5" y="-407.8" font-family="Times,serif" font-size="14.00">id :integer</text>
<text text-anchor="start" x="631.5" y="-392.8" font-family="Times,serif" font-size="14.00">mac :string</text>
<text text-anchor="start" x="631.5" y="-377.8" font-family="Times,serif" font-size="14.00">prosumer_id :integer</text>
<text text-anchor="start" x="631.5" y="-362.8" font-family="Times,serif" font-size="14.00">created_at :datetime</text>
<text text-anchor="start" x="631.5" y="-347.8" font-family="Times,serif" font-size="14.00">updated_at :datetime</text>
</g>
<!-- Role -->
<g id="node10" class="node"><title>Role</title>
<path fill="none" stroke="black" d="M486.5,-332.5C486.5,-332.5 593.5,-332.5 593.5,-332.5 599.5,-332.5 605.5,-338.5 605.5,-344.5 605.5,-344.5 605.5,-441.5 605.5,-441.5 605.5,-447.5 599.5,-453.5 593.5,-453.5 593.5,-453.5 486.5,-453.5 486.5,-453.5 480.5,-453.5 474.5,-447.5 474.5,-441.5 474.5,-441.5 474.5,-344.5 474.5,-344.5 474.5,-338.5 480.5,-332.5 486.5,-332.5"/>
<text text-anchor="middle" x="540" y="-438.3" font-family="Times,serif" font-size="14.00">Role</text>
<polyline fill="none" stroke="black" points="474.5,-430.5 605.5,-430.5 "/>
<text text-anchor="start" x="482.5" y="-415.3" font-family="Times,serif" font-size="14.00">id :integer</text>
<text text-anchor="start" x="482.5" y="-400.3" font-family="Times,serif" font-size="14.00">name :string</text>
<text text-anchor="start" x="482.5" y="-385.3" font-family="Times,serif" font-size="14.00">resource_id :integer</text>
<text text-anchor="start" x="482.5" y="-370.3" font-family="Times,serif" font-size="14.00">resource_type :string</text>
<text text-anchor="start" x="482.5" y="-355.3" font-family="Times,serif" font-size="14.00">created_at :datetime</text>
<text text-anchor="start" x="482.5" y="-340.3" font-family="Times,serif" font-size="14.00">updated_at :datetime</text>
</g>
<!-- User -->
<g id="node20" class="node"><title>User</title>
<path fill="none" stroke="black" d="M452,-1C452,-1 628,-1 628,-1 634,-1 640,-7 640,-13 640,-13 640,-215 640,-215 640,-221 634,-227 628,-227 628,-227 452,-227 452,-227 446,-227 440,-221 440,-215 440,-215 440,-13 440,-13 440,-7 446,-1 452,-1"/>
<text text-anchor="middle" x="540" y="-211.8" font-family="Times,serif" font-size="14.00">User</text>
<polyline fill="none" stroke="black" points="440,-204 640,-204 "/>
<text text-anchor="start" x="448" y="-188.8" font-family="Times,serif" font-size="14.00">id :integer</text>
<text text-anchor="start" x="448" y="-173.8" font-family="Times,serif" font-size="14.00">email :string</text>
<text text-anchor="start" x="448" y="-158.8" font-family="Times,serif" font-size="14.00">encrypted_password :string</text>
<text text-anchor="start" x="448" y="-143.8" font-family="Times,serif" font-size="14.00">reset_password_token :string</text>
<text text-anchor="start" x="448" y="-128.8" font-family="Times,serif" font-size="14.00">reset_password_sent_at :datetime</text>
<text text-anchor="start" x="448" y="-113.8" font-family="Times,serif" font-size="14.00">remember_created_at :datetime</text>
<text text-anchor="start" x="448" y="-98.8" font-family="Times,serif" font-size="14.00">sign_in_count :integer</text>
<text text-anchor="start" x="448" y="-83.8" font-family="Times,serif" font-size="14.00">current_sign_in_at :datetime</text>
<text text-anchor="start" x="448" y="-68.8" font-family="Times,serif" font-size="14.00">last_sign_in_at :datetime</text>
<text text-anchor="start" x="448" y="-53.8" font-family="Times,serif" font-size="14.00">current_sign_in_ip :inet</text>
<text text-anchor="start" x="448" y="-38.8" font-family="Times,serif" font-size="14.00">last_sign_in_ip :inet</text>
<text text-anchor="start" x="448" y="-23.8" font-family="Times,serif" font-size="14.00">created_at :datetime</text>
<text text-anchor="start" x="448" y="-8.8" font-family="Times,serif" font-size="14.00">updated_at :datetime</text>
</g>
<!-- Role&#45;&gt;User -->
<g id="edge13" class="edge"><title>Role&#45;&gt;User</title>
<path fill="none" stroke="#29b108" d="M540,-321.9C540,-296.196 540,-266.295 540,-237.348"/>
<polygon fill="#29b108" stroke="#29b108" points="540,-322.236 535.5,-332.236 540,-327.236 540,-332.236 540,-332.236 540,-332.236 540,-327.236 544.5,-332.236 540,-322.236 540,-322.236"/>
<polygon fill="#29b108" stroke="#29b108" points="540,-237.157 544.5,-227.157 540,-232.157 540,-227.157 540,-227.157 540,-227.157 540,-232.157 535.5,-227.157 540,-237.157 540,-237.157"/>
</g>
<!-- Instance -->
<g id="node11" class="node"><title>Instance</title>
<path fill="none" stroke="black" d="M1143,-981C1143,-981 1295,-981 1295,-981 1301,-981 1307,-987 1307,-993 1307,-993 1307,-1165 1307,-1165 1307,-1171 1301,-1177 1295,-1177 1295,-1177 1143,-1177 1143,-1177 1137,-1177 1131,-1171 1131,-1165 1131,-1165 1131,-993 1131,-993 1131,-987 1137,-981 1143,-981"/>
<text text-anchor="middle" x="1219" y="-1161.8" font-family="Times,serif" font-size="14.00">Instance</text>
<polyline fill="none" stroke="black" points="1131,-1154 1307,-1154 "/>
<text text-anchor="start" x="1139" y="-1138.8" font-family="Times,serif" font-size="14.00">id :integer</text>
<text text-anchor="start" x="1139" y="-1123.8" font-family="Times,serif" font-size="14.00">user_id :integer</text>
<text text-anchor="start" x="1139" y="-1108.8" font-family="Times,serif" font-size="14.00">configuration_id :integer</text>
<text text-anchor="start" x="1139" y="-1093.8" font-family="Times,serif" font-size="14.00">results :string</text>
<text text-anchor="start" x="1139" y="-1078.8" font-family="Times,serif" font-size="14.00">status :string</text>
<text text-anchor="start" x="1139" y="-1063.8" font-family="Times,serif" font-size="14.00">reason :string</text>
<text text-anchor="start" x="1139" y="-1048.8" font-family="Times,serif" font-size="14.00">instance_name :string</text>
<text text-anchor="start" x="1139" y="-1033.8" font-family="Times,serif" font-size="14.00">worker :string</text>
<text text-anchor="start" x="1139" y="-1018.8" font-family="Times,serif" font-size="14.00">created_at :datetime</text>
<text text-anchor="start" x="1139" y="-1003.8" font-family="Times,serif" font-size="14.00">updated_at :datetime</text>
<text text-anchor="start" x="1139" y="-988.8" font-family="Times,serif" font-size="14.00">total_execution_time :integer</text>
</g>
<!-- Instance&#45;&gt;LogInstance -->
<g id="edge15" class="edge"><title>Instance&#45;&gt;LogInstance</title>
<path fill="none" stroke="#e59d89" d="M1215.98,-972.632C1215.57,-958.524 1215.17,-944.436 1214.79,-931.399"/>
<ellipse fill="none" stroke="#e59d89" cx="1216.1" cy="-976.844" rx="4" ry="4"/>
<polygon fill="#e59d89" stroke="#e59d89" points="1214.79,-931.184 1219,-921.059 1214.64,-926.186 1214.5,-921.188 1214.5,-921.188 1214.5,-921.188 1214.64,-926.186 1210,-921.317 1214.79,-931.184 1214.79,-931.184"/>
</g>
<!-- EnergyTypeProsumer -->
<g id="node12" class="node"><title>EnergyTypeProsumer</title>
<path fill="none" stroke="black" d="M1135,-53.5C1135,-53.5 1257,-53.5 1257,-53.5 1263,-53.5 1269,-59.5 1269,-65.5 1269,-65.5 1269,-162.5 1269,-162.5 1269,-168.5 1263,-174.5 1257,-174.5 1257,-174.5 1135,-174.5 1135,-174.5 1129,-174.5 1123,-168.5 1123,-162.5 1123,-162.5 1123,-65.5 1123,-65.5 1123,-59.5 1129,-53.5 1135,-53.5"/>
<text text-anchor="middle" x="1196" y="-159.3" font-family="Times,serif" font-size="14.00">EnergyTypeProsumer</text>
<polyline fill="none" stroke="black" points="1123,-151.5 1269,-151.5 "/>
<text text-anchor="start" x="1131" y="-136.3" font-family="Times,serif" font-size="14.00">id :integer</text>
<text text-anchor="start" x="1131" y="-121.3" font-family="Times,serif" font-size="14.00">power :float</text>
<text text-anchor="start" x="1131" y="-106.3" font-family="Times,serif" font-size="14.00">energy_type_id :integer</text>
<text text-anchor="start" x="1131" y="-91.3" font-family="Times,serif" font-size="14.00">prosumer_id :integer</text>
<text text-anchor="start" x="1131" y="-76.3" font-family="Times,serif" font-size="14.00">created_at :datetime</text>
<text text-anchor="start" x="1131" y="-61.3" font-family="Times,serif" font-size="14.00">updated_at :datetime</text>
</g>
<!-- Prosumer&#45;&gt;Meter -->
<g id="edge20" class="edge"><title>Prosumer&#45;&gt;Meter</title>
<path fill="none" stroke="#1b145f" d="M745.386,-551.162C733.809,-518.894 721.44,-484.419 711.246,-456.004"/>
<ellipse fill="none" stroke="#1b145f" cx="746.781" cy="-555.048" rx="4.00001" ry="4.00001"/>
<polygon fill="#1b145f" stroke="#1b145f" points="711.112,-455.632 711.971,-444.7 709.424,-450.926 707.735,-446.219 707.735,-446.219 707.735,-446.219 709.424,-450.926 703.5,-447.739 711.112,-455.632 711.112,-455.632"/>
</g>
<!-- Prosumer&#45;&gt;Role -->
<g id="edge21" class="edge"><title>Prosumer&#45;&gt;Role</title>
<path fill="none" stroke="#f3c1a8" d="M692.422,-594.288C665.311,-573.27 636.769,-548.368 614,-522 598.656,-504.23 584.83,-482.819 573.396,-462.636"/>
<ellipse fill="none" stroke="#f3c1a8" cx="695.737" cy="-596.832" rx="4.00002" ry="4.00002"/>
<polygon fill="#f3c1a8" stroke="#f3c1a8" points="573.33,-462.518 572.415,-451.59 570.905,-458.145 568.48,-453.773 568.48,-453.773 568.48,-453.773 570.905,-458.145 564.544,-455.955 573.33,-462.518 573.33,-462.518"/>
</g>
<!-- Prosumer&#45;&gt;EnergyTypeProsumer -->
<g id="edge23" class="edge"><title>Prosumer&#45;&gt;EnergyTypeProsumer</title>
<path fill="none" stroke="#80b1e1" d="M862.125,-552.352C945.095,-443.667 1073.08,-276.011 1144.08,-183.017"/>
<ellipse fill="none" stroke="#80b1e1" cx="859.502" cy="-555.788" rx="4.00002" ry="4.00002"/>
<polygon fill="#80b1e1" stroke="#80b1e1" points="1144.28,-182.753 1153.92,-177.535 1147.31,-178.779 1150.35,-174.805 1150.35,-174.805 1150.35,-174.805 1147.31,-178.779 1146.77,-172.074 1144.28,-182.753 1144.28,-182.753"/>
</g>
<!-- EnergyType -->
<g id="node16" class="node"><title>EnergyType</title>
<path fill="none" stroke="black" d="M1142.5,-347.5C1142.5,-347.5 1249.5,-347.5 1249.5,-347.5 1255.5,-347.5 1261.5,-353.5 1261.5,-359.5 1261.5,-359.5 1261.5,-426.5 1261.5,-426.5 1261.5,-432.5 1255.5,-438.5 1249.5,-438.5 1249.5,-438.5 1142.5,-438.5 1142.5,-438.5 1136.5,-438.5 1130.5,-432.5 1130.5,-426.5 1130.5,-426.5 1130.5,-359.5 1130.5,-359.5 1130.5,-353.5 1136.5,-347.5 1142.5,-347.5"/>
<text text-anchor="middle" x="1196" y="-423.3" font-family="Times,serif" font-size="14.00">EnergyType</text>
<polyline fill="none" stroke="black" points="1130.5,-415.5 1261.5,-415.5 "/>
<text text-anchor="start" x="1138.5" y="-400.3" font-family="Times,serif" font-size="14.00">id :integer</text>
<text text-anchor="start" x="1138.5" y="-385.3" font-family="Times,serif" font-size="14.00">name :string</text>
<text text-anchor="start" x="1138.5" y="-370.3" font-family="Times,serif" font-size="14.00">created_at :datetime</text>
<text text-anchor="start" x="1138.5" y="-355.3" font-family="Times,serif" font-size="14.00">updated_at :datetime</text>
</g>
<!-- Prosumer&#45;&gt;EnergyType -->
<g id="edge24" class="edge"><title>Prosumer&#45;&gt;EnergyType</title>
<path fill="none" stroke="#f10b70" d="M875.885,-597.075C950.142,-549.968 1052.86,-484.807 1121.72,-441.122"/>
<polygon fill="#f10b70" stroke="#f10b70" points="875.519,-597.308 864.664,-598.865 871.297,-599.986 867.075,-602.665 867.075,-602.665 867.075,-602.665 871.297,-599.986 869.485,-606.464 875.519,-597.308 875.519,-597.308"/>
<polygon fill="#f10b70" stroke="#f10b70" points="1121.92,-440.995 1132.78,-439.438 1126.14,-438.316 1130.36,-435.638 1130.36,-435.638 1130.36,-435.638 1126.14,-438.316 1127.95,-431.838 1121.92,-440.995 1121.92,-440.995"/>
</g>
<!-- DayAhead -->
<g id="node18" class="node"><title>DayAhead</title>
<path fill="none" stroke="black" d="M1611.5,-340C1611.5,-340 1718.5,-340 1718.5,-340 1724.5,-340 1730.5,-346 1730.5,-352 1730.5,-352 1730.5,-434 1730.5,-434 1730.5,-440 1724.5,-446 1718.5,-446 1718.5,-446 1611.5,-446 1611.5,-446 1605.5,-446 1599.5,-440 1599.5,-434 1599.5,-434 1599.5,-352 1599.5,-352 1599.5,-346 1605.5,-340 1611.5,-340"/>
<text text-anchor="middle" x="1665" y="-430.8" font-family="Times,serif" font-size="14.00">DayAhead</text>
<polyline fill="none" stroke="black" points="1599.5,-423 1730.5,-423 "/>
<text text-anchor="start" x="1607.5" y="-407.8" font-family="Times,serif" font-size="14.00">id :integer</text>
<text text-anchor="start" x="1607.5" y="-392.8" font-family="Times,serif" font-size="14.00">prosumer_id :integer</text>
<text text-anchor="start" x="1607.5" y="-377.8" font-family="Times,serif" font-size="14.00">date :date</text>
<text text-anchor="start" x="1607.5" y="-362.8" font-family="Times,serif" font-size="14.00">created_at :datetime</text>
<text text-anchor="start" x="1607.5" y="-347.8" font-family="Times,serif" font-size="14.00">updated_at :datetime</text>
</g>
<!-- Prosumer&#45;&gt;DayAhead -->
<g id="edge19" class="edge"><title>Prosumer&#45;&gt;DayAhead</title>
<path fill="none" stroke="#ac3149" d="M875.192,-631.953C973.391,-606.031 1133.21,-562.962 1270,-522 1381.75,-488.536 1510.06,-446.231 1589.34,-419.634"/>
<ellipse fill="none" stroke="#ac3149" cx="871.219" cy="-633" rx="4.00001" ry="4.00001"/>
<polygon fill="#ac3149" stroke="#ac3149" points="1589.76,-419.494 1600.67,-420.576 1594.5,-417.902 1599.24,-416.31 1599.24,-416.31 1599.24,-416.31 1594.5,-417.902 1597.8,-412.044 1589.76,-419.494 1589.76,-419.494"/>
</g>
<!-- Prosumer&#45;&gt;DataPoint -->
<g id="edge18" class="edge"><title>Prosumer&#45;&gt;DataPoint</title>
<path fill="none" stroke="#87752e" d="M691.076,-626.997C625.175,-603.941 535.892,-567.954 465,-522 444.566,-508.754 424.375,-492.318 406.03,-475.689"/>
<ellipse fill="none" stroke="#87752e" cx="695.215" cy="-628.433" rx="4.00001" ry="4.00001"/>
<polygon fill="#87752e" stroke="#87752e" points="405.642,-475.332 401.333,-465.248 401.964,-471.945 398.285,-468.559 398.285,-468.559 398.285,-468.559 401.964,-471.945 395.237,-471.869 405.642,-475.332 405.642,-475.332"/>
</g>
<!-- Prosumer&#45;&gt;User -->
<g id="edge22" class="edge"><title>Prosumer&#45;&gt;User</title>
<path fill="none" stroke="#3bacec" d="M802.338,-548.69C811.719,-465.572 812.061,-350.413 763,-264 737.46,-219.016 692.09,-185.014 648.911,-160.934"/>
<polygon fill="#3bacec" stroke="#3bacec" points="802.332,-548.733 796.683,-558.131 801.742,-553.698 801.151,-558.663 801.151,-558.663 801.151,-558.663 801.742,-553.698 805.62,-559.195 802.332,-548.733 802.332,-548.733"/>
<polygon fill="#3bacec" stroke="#3bacec" points="648.808,-160.879 642.176,-152.146 644.417,-158.489 640.025,-156.099 640.025,-156.099 640.025,-156.099 644.417,-158.489 637.874,-160.051 648.808,-160.879 648.808,-160.879"/>
</g>
<!-- Cluster -->
<g id="node14" class="node"><title>Cluster</title>
<path fill="none" stroke="black" d="M504.5,-815C504.5,-815 611.5,-815 611.5,-815 617.5,-815 623.5,-821 623.5,-827 623.5,-827 623.5,-909 623.5,-909 623.5,-915 617.5,-921 611.5,-921 611.5,-921 504.5,-921 504.5,-921 498.5,-921 492.5,-915 492.5,-909 492.5,-909 492.5,-827 492.5,-827 492.5,-821 498.5,-815 504.5,-815"/>
<text text-anchor="middle" x="558" y="-905.8" font-family="Times,serif" font-size="14.00">Cluster</text>
<polyline fill="none" stroke="black" points="492.5,-898 623.5,-898 "/>
<text text-anchor="start" x="500.5" y="-882.8" font-family="Times,serif" font-size="14.00">id :integer</text>
<text text-anchor="start" x="500.5" y="-867.8" font-family="Times,serif" font-size="14.00">name :string</text>
<text text-anchor="start" x="500.5" y="-852.8" font-family="Times,serif" font-size="14.00">description :text</text>
<text text-anchor="start" x="500.5" y="-837.8" font-family="Times,serif" font-size="14.00">created_at :datetime</text>
<text text-anchor="start" x="500.5" y="-822.8" font-family="Times,serif" font-size="14.00">updated_at :datetime</text>
</g>
<!-- Cluster&#45;&gt;Role -->
<g id="edge27" class="edge"><title>Cluster&#45;&gt;Role</title>
<path fill="none" stroke="#ed4a9c" d="M555.7,-806.555C552.361,-718.818 546.186,-556.565 542.658,-463.833"/>
<ellipse fill="none" stroke="#ed4a9c" cx="555.853" cy="-810.576" rx="4" ry="4"/>
<polygon fill="#ed4a9c" stroke="#ed4a9c" points="542.652,-463.698 546.769,-453.534 542.462,-458.702 542.272,-453.705 542.272,-453.705 542.272,-453.705 542.462,-458.702 537.775,-453.877 542.652,-463.698 542.652,-463.698"/>
</g>
<!-- Cluster&#45;&gt;Prosumer -->
<g id="edge26" class="edge"><title>Cluster&#45;&gt;Prosumer</title>
<path fill="none" stroke="#110d0d" d="M620.268,-809.16C642.222,-788.768 667.387,-765.391 691.261,-743.216"/>
<ellipse fill="none" stroke="#110d0d" cx="617.127" cy="-812.077" rx="4.00002" ry="4.00002"/>
<polygon fill="#110d0d" stroke="#110d0d" points="691.296,-743.182 701.686,-739.674 694.96,-739.78 698.623,-736.377 698.623,-736.377 698.623,-736.377 694.96,-739.78 695.561,-733.08 691.296,-743.182 691.296,-743.182"/>
</g>
<!-- ConnectionType -->
<g id="node15" class="node"><title>ConnectionType</title>
<path fill="none" stroke="black" d="M580.5,-1033.5C580.5,-1033.5 687.5,-1033.5 687.5,-1033.5 693.5,-1033.5 699.5,-1039.5 699.5,-1045.5 699.5,-1045.5 699.5,-1112.5 699.5,-1112.5 699.5,-1118.5 693.5,-1124.5 687.5,-1124.5 687.5,-1124.5 580.5,-1124.5 580.5,-1124.5 574.5,-1124.5 568.5,-1118.5 568.5,-1112.5 568.5,-1112.5 568.5,-1045.5 568.5,-1045.5 568.5,-1039.5 574.5,-1033.5 580.5,-1033.5"/>
<text text-anchor="middle" x="634" y="-1109.3" font-family="Times,serif" font-size="14.00">ConnectionType</text>
<polyline fill="none" stroke="black" points="568.5,-1101.5 699.5,-1101.5 "/>
<text text-anchor="start" x="576.5" y="-1086.3" font-family="Times,serif" font-size="14.00">id :integer</text>
<text text-anchor="start" x="576.5" y="-1071.3" font-family="Times,serif" font-size="14.00">name :string</text>
<text text-anchor="start" x="576.5" y="-1056.3" font-family="Times,serif" font-size="14.00">created_at :datetime</text>
<text text-anchor="start" x="576.5" y="-1041.3" font-family="Times,serif" font-size="14.00">updated_at :datetime</text>
</g>
<!-- ConnectionType&#45;&gt;Prosumer -->
<g id="edge29" class="edge"><title>ConnectionType&#45;&gt;Prosumer</title>
<path fill="none" stroke="#4d65dc" d="M652.487,-1025.89C675.513,-960.984 715.43,-848.465 745.073,-764.907"/>
<ellipse fill="none" stroke="#4d65dc" cx="651.142" cy="-1029.68" rx="4.00001" ry="4.00001"/>
<polygon fill="#4d65dc" stroke="#4d65dc" points="745.11,-764.804 752.694,-756.884 746.782,-760.092 748.453,-755.38 748.453,-755.38 748.453,-755.38 746.782,-760.092 744.212,-753.875 745.11,-764.804 745.11,-764.804"/>
</g>
<!-- EnergyType&#45;&gt;EnergyTypeProsumer -->
<g id="edge31" class="edge"><title>EnergyType&#45;&gt;EnergyTypeProsumer</title>
<path fill="none" stroke="#9448c4" d="M1196,-339.277C1196,-295.421 1196,-232.638 1196,-184.647"/>
<ellipse fill="none" stroke="#9448c4" cx="1196" cy="-343.495" rx="4" ry="4"/>
<polygon fill="#9448c4" stroke="#9448c4" points="1196,-184.643 1200.5,-174.643 1196,-179.643 1196,-174.643 1196,-174.643 1196,-174.643 1196,-179.643 1191.5,-174.643 1196,-184.643 1196,-184.643"/>
</g>
<!-- DayAheadHour -->
<g id="node17" class="node"><title>DayAheadHour</title>
<path fill="none" stroke="black" d="M1655.5,-46C1655.5,-46 1768.5,-46 1768.5,-46 1774.5,-46 1780.5,-52 1780.5,-58 1780.5,-58 1780.5,-170 1780.5,-170 1780.5,-176 1774.5,-182 1768.5,-182 1768.5,-182 1655.5,-182 1655.5,-182 1649.5,-182 1643.5,-176 1643.5,-170 1643.5,-170 1643.5,-58 1643.5,-58 1643.5,-52 1649.5,-46 1655.5,-46"/>
<text text-anchor="middle" x="1712" y="-166.8" font-family="Times,serif" font-size="14.00">DayAheadHour</text>
<polyline fill="none" stroke="black" points="1643.5,-159 1780.5,-159 "/>
<text text-anchor="start" x="1651.5" y="-143.8" font-family="Times,serif" font-size="14.00">id :integer</text>
<text text-anchor="start" x="1651.5" y="-128.8" font-family="Times,serif" font-size="14.00">day_ahead_id :integer</text>
<text text-anchor="start" x="1651.5" y="-113.8" font-family="Times,serif" font-size="14.00">time :integer</text>
<text text-anchor="start" x="1651.5" y="-98.8" font-family="Times,serif" font-size="14.00">production :float</text>
<text text-anchor="start" x="1651.5" y="-83.8" font-family="Times,serif" font-size="14.00">consumption :float</text>
<text text-anchor="start" x="1651.5" y="-68.8" font-family="Times,serif" font-size="14.00">created_at :datetime</text>
<text text-anchor="start" x="1651.5" y="-53.8" font-family="Times,serif" font-size="14.00">updated_at :datetime</text>
</g>
<!-- DayAhead&#45;&gt;DayAheadHour -->
<g id="edge34" class="edge"><title>DayAhead&#45;&gt;DayAheadHour</title>
<path fill="none" stroke="#1fdc02" d="M1675.21,-331.849C1682.15,-290.905 1691.41,-236.348 1698.9,-192.2"/>
<ellipse fill="none" stroke="#1fdc02" cx="1674.51" cy="-335.955" rx="4.00001" ry="4.00001"/>
<polygon fill="#1fdc02" stroke="#1fdc02" points="1698.94,-191.943 1705.05,-182.837 1699.78,-187.014 1700.62,-182.084 1700.62,-182.084 1700.62,-182.084 1699.78,-187.014 1696.18,-181.332 1698.94,-191.943 1698.94,-191.943"/>
</g>
<!-- BuildingType -->
<g id="node21" class="node"><title>BuildingType</title>
<path fill="none" stroke="black" d="M729.5,-1033.5C729.5,-1033.5 836.5,-1033.5 836.5,-1033.5 842.5,-1033.5 848.5,-1039.5 848.5,-1045.5 848.5,-1045.5 848.5,-1112.5 848.5,-1112.5 848.5,-1118.5 842.5,-1124.5 836.5,-1124.5 836.5,-1124.5 729.5,-1124.5 729.5,-1124.5 723.5,-1124.5 717.5,-1118.5 717.5,-1112.5 717.5,-1112.5 717.5,-1045.5 717.5,-1045.5 717.5,-1039.5 723.5,-1033.5 729.5,-1033.5"/>
<text text-anchor="middle" x="783" y="-1109.3" font-family="Times,serif" font-size="14.00">BuildingType</text>
<polyline fill="none" stroke="black" points="717.5,-1101.5 848.5,-1101.5 "/>
<text text-anchor="start" x="725.5" y="-1086.3" font-family="Times,serif" font-size="14.00">id :integer</text>
<text text-anchor="start" x="725.5" y="-1071.3" font-family="Times,serif" font-size="14.00">name :string</text>
<text text-anchor="start" x="725.5" y="-1056.3" font-family="Times,serif" font-size="14.00">created_at :datetime</text>
<text text-anchor="start" x="725.5" y="-1041.3" font-family="Times,serif" font-size="14.00">updated_at :datetime</text>
</g>
<!-- BuildingType&#45;&gt;Prosumer -->
<g id="edge38" class="edge"><title>BuildingType&#45;&gt;Prosumer</title>
<path fill="none" stroke="#e0482b" d="M783,-1025.07C783,-960.224 783,-848.759 783,-765.628"/>
<ellipse fill="none" stroke="#e0482b" cx="783" cy="-1029.45" rx="4" ry="4"/>
<polygon fill="#e0482b" stroke="#e0482b" points="783,-765.38 787.5,-755.38 783,-760.38 783,-755.38 783,-755.38 783,-755.38 783,-760.38 778.5,-755.38 783,-765.38 783,-765.38"/>
</g>
<!-- Clustering -->
<g id="node22" class="node"><title>Clustering</title>
<path fill="none" stroke="black" d="M1375.5,-1026C1375.5,-1026 1482.5,-1026 1482.5,-1026 1488.5,-1026 1494.5,-1032 1494.5,-1038 1494.5,-1038 1494.5,-1120 1494.5,-1120 1494.5,-1126 1488.5,-1132 1482.5,-1132 1482.5,-1132 1375.5,-1132 1375.5,-1132 1369.5,-1132 1363.5,-1126 1363.5,-1120 1363.5,-1120 1363.5,-1038 1363.5,-1038 1363.5,-1032 1369.5,-1026 1375.5,-1026"/>
<text text-anchor="middle" x="1429" y="-1116.8" font-family="Times,serif" font-size="14.00">Clustering</text>
<polyline fill="none" stroke="black" points="1363.5,-1109 1494.5,-1109 "/>
<text text-anchor="start" x="1371.5" y="-1093.8" font-family="Times,serif" font-size="14.00">id :integer</text>
<text text-anchor="start" x="1371.5" y="-1078.8" font-family="Times,serif" font-size="14.00">name :string</text>
<text text-anchor="start" x="1371.5" y="-1063.8" font-family="Times,serif" font-size="14.00">description :text</text>
<text text-anchor="start" x="1371.5" y="-1048.8" font-family="Times,serif" font-size="14.00">created_at :datetime</text>
<text text-anchor="start" x="1371.5" y="-1033.8" font-family="Times,serif" font-size="14.00">updated_at :datetime</text>
</g>
<!-- Clustering&#45;&gt;TempCluster -->
<g id="edge40" class="edge"><title>Clustering&#45;&gt;TempCluster</title>
<path fill="none" stroke="#77bb0f" d="M1429,-1017.68C1429,-992.98 1429,-964.25 1429,-938.665"/>
<ellipse fill="none" stroke="#77bb0f" cx="1429" cy="-1021.8" rx="4" ry="4"/>
<polygon fill="#77bb0f" stroke="#77bb0f" points="1429,-938.659 1433.5,-928.659 1429,-933.659 1429,-928.659 1429,-928.659 1429,-928.659 1429,-933.659 1424.5,-928.659 1429,-938.659 1429,-938.659"/>
</g>
<!-- Object -->
<g id="node23" class="node"><title>Object</title>
<ellipse fill="none" stroke="black" cx="266" cy="-1253" rx="34.1708" ry="18"/>
<text text-anchor="middle" x="266" y="-1249.3" font-family="Times,serif" font-size="14.00">Object</text>
</g>
<!-- Object&#45;&gt;Ability -->
<g id="edge1" class="edge"><title>Object&#45;&gt;Ability</title>
<path fill="none" stroke="black" d="M266,-1234.88C266,-1203.52 266,-1136.92 266,-1102.16"/>
</g>
<!-- ActiveRecord::Base -->
<g id="node24" class="node"><title>ActiveRecord::Base</title>
<ellipse fill="none" stroke="black" cx="1018" cy="-1253" rx="81.3646" ry="18"/>
<text text-anchor="middle" x="1018" y="-1249.3" font-family="Times,serif" font-size="14.00">ActiveRecord::Base</text>
</g>
<!-- ActiveRecord::Base&#45;&gt;Interval -->
<g id="edge3" class="edge"><title>ActiveRecord::Base&#45;&gt;Interval</title>
<path fill="none" stroke="black" d="M939.681,-1248.26C776.973,-1239.74 414.112,-1216.61 374,-1178 307.778,-1114.26 296.234,-829.375 294.326,-710.434"/>
</g>
<!-- ActiveRecord::Base&#45;&gt;DayAheadEnergyPrice -->
<g id="edge4" class="edge"><title>ActiveRecord::Base&#45;&gt;DayAheadEnergyPrice</title>
<path fill="none" stroke="black" d="M973.607,-1237.82C945.927,-1226.41 912.529,-1207.36 896,-1178 854.087,-1103.56 864.32,-1002.16 878.041,-936.146"/>
</g>
<!-- ActiveRecord::Base&#45;&gt;EnergyMarket -->
<g id="edge7" class="edge"><title>ActiveRecord::Base&#45;&gt;EnergyMarket</title>
<path fill="none" stroke="black" d="M1013.32,-1234.88C1006.36,-1209.39 993.023,-1160.6 983.176,-1124.56"/>
</g>
<!-- ActiveRecord::Base&#45;&gt;LogInstance -->
<g id="edge8" class="edge"><title>ActiveRecord::Base&#45;&gt;LogInstance</title>
<path fill="none" stroke="black" d="M1031.53,-1234.97C1042.44,-1220.53 1057.47,-1198.89 1067,-1178 1104.9,-1094.9 1079.92,-1061.06 1122,-980 1132.79,-959.21 1147.93,-938.722 1162.76,-921.118"/>
</g>
<!-- ActiveRecord::Base&#45;&gt;TempCluster -->
<g id="edge10" class="edge"><title>ActiveRecord::Base&#45;&gt;TempCluster</title>
<path fill="none" stroke="black" d="M1099.14,-1251.84C1223.42,-1249.68 1451.9,-1237.48 1503,-1178 1560.34,-1111.25 1528.5,-1064.22 1503,-980 1497.56,-962.045 1488.16,-944.339 1477.84,-928.523"/>
</g>
<!-- ActiveRecord::Base&#45;&gt;IntraDayEnergyPrice -->
<g id="edge11" class="edge"><title>ActiveRecord::Base&#45;&gt;IntraDayEnergyPrice</title>
<path fill="none" stroke="black" d="M1026.02,-1234.8C1032.45,-1220.07 1041.04,-1198.13 1045,-1178 1060.53,-1099.12 1061.99,-1006.79 1060.54,-943.736"/>
</g>
<!-- ActiveRecord::Base&#45;&gt;Meter -->
<g id="edge12" class="edge"><title>ActiveRecord::Base&#45;&gt;Meter</title>
<path fill="none" stroke="black" d="M937.053,-1251.04C818.527,-1247.73 606.626,-1233.92 559,-1178 530.471,-1144.5 535.765,-1017.36 559,-980 578.103,-949.28 611.337,-973.693 632,-944 687.45,-864.317 690.862,-567.25 689.85,-446.018"/>
</g>
<!-- ActiveRecord::Base&#45;&gt;Role -->
<g id="edge14" class="edge"><title>ActiveRecord::Base&#45;&gt;Role</title>
<path fill="none" stroke="black" d="M936.812,-1252.87C803.418,-1252.39 546.855,-1242.82 489,-1178 394.253,-1071.85 487.803,-618.036 525.672,-453.705"/>
</g>
<!-- ActiveRecord::Base&#45;&gt;Instance -->
<g id="edge16" class="edge"><title>ActiveRecord::Base&#45;&gt;Instance</title>
<path fill="none" stroke="black" d="M1041.43,-1235.73C1061.89,-1221.23 1092.13,-1199.1 1117,-1178 1121.59,-1174.11 1126.23,-1170.06 1130.88,-1165.93"/>
</g>
<!-- ActiveRecord::Base&#45;&gt;EnergyTypeProsumer -->
<g id="edge17" class="edge"><title>ActiveRecord::Base&#45;&gt;EnergyTypeProsumer</title>
<path fill="none" stroke="black" d="M1094.71,-1247.06C1237.13,-1237.11 1530.79,-1212.61 1561,-1178 1618.87,-1111.71 1566.12,-1067.85 1561,-980 1556.1,-896.017 1561.22,-873.137 1539,-792 1472.08,-547.693 1312.23,-288.519 1236.77,-174.588"/>
</g>
<!-- ActiveRecord::Base&#45;&gt;Prosumer -->
<g id="edge25" class="edge"><title>ActiveRecord::Base&#45;&gt;Prosumer</title>
<path fill="none" stroke="black" d="M1089.06,-1244.29C1167.84,-1234.11 1287.48,-1213.22 1315,-1178 1367.95,-1110.23 1344.31,-856.122 1287,-792 1231.49,-729.896 995.408,-687.842 867.003,-669.099"/>
</g>
<!-- ActiveRecord::Base&#45;&gt;Cluster -->
<g id="edge28" class="edge"><title>ActiveRecord::Base&#45;&gt;Cluster</title>
<path fill="none" stroke="black" d="M936.977,-1252.05C811.221,-1250.2 578.056,-1238.47 526,-1178 464.512,-1106.57 501.881,-988.677 531.795,-921.036"/>
</g>
<!-- ActiveRecord::Base&#45;&gt;ConnectionType -->
<g id="edge30" class="edge"><title>ActiveRecord::Base&#45;&gt;ConnectionType</title>
<path fill="none" stroke="black" d="M939.947,-1247.98C873.529,-1241.32 778.04,-1223.81 708,-1178 687.659,-1164.7 670.76,-1143.81 658.271,-1124.73"/>
</g>
<!-- ActiveRecord::Base&#45;&gt;EnergyType -->
<g id="edge32" class="edge"><title>ActiveRecord::Base&#45;&gt;EnergyType</title>
<path fill="none" stroke="black" d="M1099.22,-1252.7C1230.13,-1251.9 1478.72,-1241.77 1534,-1178 1590.35,-1112.99 1538.17,-870.96 1504,-792 1441.02,-646.465 1312.52,-507.236 1243.07,-438.525"/>
</g>
<!-- ActiveRecord::Base&#45;&gt;DayAheadHour -->
<g id="edge33" class="edge"><title>ActiveRecord::Base&#45;&gt;DayAheadHour</title>
<path fill="none" stroke="black" d="M1096.21,-1248.07C1261.22,-1239.1 1633.44,-1214.97 1677,-1178 1785.32,-1086.05 1759,-1011.09 1759,-869 1759,-869 1759,-869 1759,-656 1759,-481.551 1759.04,-437.294 1739,-264 1735.89,-237.101 1730.91,-207.727 1726.07,-182.224"/>
</g>
<!-- ActiveRecord::Base&#45;&gt;DayAhead -->
<g id="edge35" class="edge"><title>ActiveRecord::Base&#45;&gt;DayAhead</title>
<path fill="none" stroke="black" d="M1095.84,-1247.77C1249.07,-1238.67 1578.05,-1215.02 1613,-1178 1807.08,-972.429 1721,-585.87 1681.17,-446.1"/>
</g>
<!-- ActiveRecord::Base&#45;&gt;DataPoint -->
<g id="edge36" class="edge"><title>ActiveRecord::Base&#45;&gt;DataPoint</title>
<path fill="none" stroke="black" d="M939.932,-1247.93C784.428,-1239.05 447.805,-1215.67 412,-1178 364.418,-1127.94 378.665,-626.234 368,-558 366.122,-545.984 363.802,-533.553 361.232,-521.159"/>
</g>
<!-- ActiveRecord::Base&#45;&gt;User -->
<g id="edge37" class="edge"><title>ActiveRecord::Base&#45;&gt;User</title>
<path fill="none" stroke="black" d="M940.591,-1247.45C791.749,-1237.92 477.338,-1213.76 444,-1178 397.095,-1127.69 426,-937.783 426,-869 426,-869 426,-869 426,-656 426,-480.918 416.153,-432.13 465,-264 468.555,-251.763 473.104,-239.332 478.199,-227.133"/>
</g>
<!-- ActiveRecord::Base&#45;&gt;BuildingType -->
<g id="edge39" class="edge"><title>ActiveRecord::Base&#45;&gt;BuildingType</title>
<path fill="none" stroke="black" d="M975.366,-1237.52C942.526,-1225.04 897.12,-1204.8 863,-1178 844.001,-1163.08 826.558,-1142.88 812.843,-1124.71"/>
</g>
<!-- ActiveRecord::Base&#45;&gt;Clustering -->
<g id="edge41" class="edge"><title>ActiveRecord::Base&#45;&gt;Clustering</title>
<path fill="none" stroke="black" d="M1097.02,-1248.8C1167.73,-1242.74 1271.84,-1225.63 1349,-1178 1367.6,-1166.52 1383.82,-1149.16 1396.71,-1132.22"/>
</g>
</g>
</svg>
