<?xml version="1.0" encoding="UTF-8" standalone="no"?>
<!DOCTYPE svg PUBLIC "-//W3C//DTD SVG 1.1//EN"
 "http://www.w3.org/Graphics/SVG/1.1/DTD/svg11.dtd">
<!-- Generated by graphviz version 2.36.0 (20140111.2315)
 -->
<!-- Title: models_diagram Pages: 1 -->
<svg width="1245pt" height="1156pt"
 viewBox="0.00 0.00 1245.00 1156.00" xmlns="http://www.w3.org/2000/svg" xmlns:xlink="http://www.w3.org/1999/xlink">
<g id="graph0" class="graph" transform="scale(1 1) rotate(0) translate(4 1152)">
<title>models_diagram</title>
<polygon fill="white" stroke="none" points="-4,4 -4,-1152 1241,-1152 1241,4 -4,4"/>
<!-- _diagram_info -->
<g id="node1" class="node"><title>_diagram_info</title>
<text text-anchor="start" x="8" y="-1073.6" font-family="Times,serif" font-size="13.00">Models diagram</text>
<text text-anchor="start" x="8" y="-1059.6" font-family="Times,serif" font-size="13.00">Date: Mar 30 2015 &#45; 18:06</text>
<text text-anchor="start" x="8" y="-1045.6" font-family="Times,serif" font-size="13.00">Migration version: 20150204132935</text>
<text text-anchor="start" x="8" y="-1031.6" font-family="Times,serif" font-size="13.00">Generated by RailRoady 1.3.0</text>
<text text-anchor="start" x="8" y="-1017.6" font-family="Times,serif" font-size="13.00">http://railroady.prestonlee.com</text>
</g>
<!-- Ability -->
<g id="node2" class="node"><title>Ability</title>
<polygon fill="none" stroke="black" points="232.5,-1026 232.5,-1072 287.5,-1072 287.5,-1026 232.5,-1026"/>
<text text-anchor="middle" x="260" y="-1056.8" font-family="Times,serif" font-size="14.00">Ability</text>
<polyline fill="none" stroke="black" points="232.5,-1049 287.5,-1049 "/>
<text text-anchor="middle" x="260" y="-1033.8" font-family="Times,serif" font-size="14.00"> </text>
</g>
<!-- Interval -->
<g id="node3" class="node"><title>Interval</title>
<path fill="none" stroke="black" d="M120.5,-604C120.5,-604 227.5,-604 227.5,-604 233.5,-604 239.5,-610 239.5,-616 239.5,-616 239.5,-698 239.5,-698 239.5,-704 233.5,-710 227.5,-710 227.5,-710 120.5,-710 120.5,-710 114.5,-710 108.5,-704 108.5,-698 108.5,-698 108.5,-616 108.5,-616 108.5,-610 114.5,-604 120.5,-604"/>
<text text-anchor="middle" x="174" y="-694.8" font-family="Times,serif" font-size="14.00">Interval</text>
<polyline fill="none" stroke="black" points="108.5,-687 239.5,-687 "/>
<text text-anchor="start" x="116.5" y="-671.8" font-family="Times,serif" font-size="14.00">id :integer</text>
<text text-anchor="start" x="116.5" y="-656.8" font-family="Times,serif" font-size="14.00">duration :integer</text>
<text text-anchor="start" x="116.5" y="-641.8" font-family="Times,serif" font-size="14.00">name :string</text>
<text text-anchor="start" x="116.5" y="-626.8" font-family="Times,serif" font-size="14.00">created_at :datetime</text>
<text text-anchor="start" x="116.5" y="-611.8" font-family="Times,serif" font-size="14.00">updated_at :datetime</text>
</g>
<!-- DataPoint -->
<g id="node19" class="node"><title>DataPoint</title>
<path fill="none" stroke="black" d="M116,-265C116,-265 232,-265 232,-265 238,-265 244,-271 244,-277 244,-277 244,-509 244,-509 244,-515 238,-521 232,-521 232,-521 116,-521 116,-521 110,-521 104,-515 104,-509 104,-509 104,-277 104,-277 104,-271 110,-265 116,-265"/>
<text text-anchor="middle" x="174" y="-505.8" font-family="Times,serif" font-size="14.00">DataPoint</text>
<polyline fill="none" stroke="black" points="104,-498 244,-498 "/>
<text text-anchor="start" x="112" y="-482.8" font-family="Times,serif" font-size="14.00">id :integer</text>
<text text-anchor="start" x="112" y="-467.8" font-family="Times,serif" font-size="14.00">prosumer_id :integer</text>
<text text-anchor="start" x="112" y="-452.8" font-family="Times,serif" font-size="14.00">interval_id :integer</text>
<text text-anchor="start" x="112" y="-437.8" font-family="Times,serif" font-size="14.00">timestamp :datetime</text>
<text text-anchor="start" x="112" y="-422.8" font-family="Times,serif" font-size="14.00">production :float</text>
<text text-anchor="start" x="112" y="-407.8" font-family="Times,serif" font-size="14.00">consumption :float</text>
<text text-anchor="start" x="112" y="-392.8" font-family="Times,serif" font-size="14.00">storage :float</text>
<text text-anchor="start" x="112" y="-377.8" font-family="Times,serif" font-size="14.00">f_timestamp :datetime</text>
<text text-anchor="start" x="112" y="-362.8" font-family="Times,serif" font-size="14.00">f_production :float</text>
<text text-anchor="start" x="112" y="-347.8" font-family="Times,serif" font-size="14.00">f_consumption :float</text>
<text text-anchor="start" x="112" y="-332.8" font-family="Times,serif" font-size="14.00">f_storage :float</text>
<text text-anchor="start" x="112" y="-317.8" font-family="Times,serif" font-size="14.00">dr :float</text>
<text text-anchor="start" x="112" y="-302.8" font-family="Times,serif" font-size="14.00">reliability :float</text>
<text text-anchor="start" x="112" y="-287.8" font-family="Times,serif" font-size="14.00">created_at :datetime</text>
<text text-anchor="start" x="112" y="-272.8" font-family="Times,serif" font-size="14.00">updated_at :datetime</text>
</g>
<!-- Interval&#45;&gt;DataPoint -->
<g id="edge1" class="edge"><title>Interval&#45;&gt;DataPoint</title>
<path fill="none" stroke="#ab457e" d="M174,-595.871C174,-576.391 174,-553.919 174,-531.199"/>
<ellipse fill="none" stroke="#ab457e" cx="174" cy="-599.924" rx="4" ry="4"/>
<polygon fill="#ab457e" stroke="#ab457e" points="174,-531.105 178.5,-521.104 174,-526.105 174,-521.105 174,-521.105 174,-521.105 174,-526.105 169.5,-521.105 174,-531.105 174,-531.105"/>
</g>
<!-- DayAheadEnergyPrice -->
<g id="node4" class="node"><title>DayAheadEnergyPrice</title>
<path fill="none" stroke="black" d="M466.5,-981C466.5,-981 583.5,-981 583.5,-981 589.5,-981 595.5,-987 595.5,-993 595.5,-993 595.5,-1105 595.5,-1105 595.5,-1111 589.5,-1117 583.5,-1117 583.5,-1117 466.5,-1117 466.5,-1117 460.5,-1117 454.5,-1111 454.5,-1105 454.5,-1105 454.5,-993 454.5,-993 454.5,-987 460.5,-981 466.5,-981"/>
<text text-anchor="middle" x="525" y="-1101.8" font-family="Times,serif" font-size="14.00">DayAheadEnergyPrice</text>
<polyline fill="none" stroke="black" points="454.5,-1094 595.5,-1094 "/>
<text text-anchor="start" x="462.5" y="-1078.8" font-family="Times,serif" font-size="14.00">id :integer</text>
<text text-anchor="start" x="462.5" y="-1063.8" font-family="Times,serif" font-size="14.00">date :datetime</text>
<text text-anchor="start" x="462.5" y="-1048.8" font-family="Times,serif" font-size="14.00">dayhour :integer</text>
<text text-anchor="start" x="462.5" y="-1033.8" font-family="Times,serif" font-size="14.00">price :float</text>
<text text-anchor="start" x="462.5" y="-1018.8" font-family="Times,serif" font-size="14.00">market_id :integer</text>
<text text-anchor="start" x="462.5" y="-1003.8" font-family="Times,serif" font-size="14.00">created_at :datetime</text>
<text text-anchor="start" x="462.5" y="-988.8" font-family="Times,serif" font-size="14.00">updated_at :datetime</text>
</g>
<!-- EnergyMarket -->
<g id="node5" class="node"><title>EnergyMarket</title>
<path fill="none" stroke="black" d="M625.5,-1003.5C625.5,-1003.5 732.5,-1003.5 732.5,-1003.5 738.5,-1003.5 744.5,-1009.5 744.5,-1015.5 744.5,-1015.5 744.5,-1082.5 744.5,-1082.5 744.5,-1088.5 738.5,-1094.5 732.5,-1094.5 732.5,-1094.5 625.5,-1094.5 625.5,-1094.5 619.5,-1094.5 613.5,-1088.5 613.5,-1082.5 613.5,-1082.5 613.5,-1015.5 613.5,-1015.5 613.5,-1009.5 619.5,-1003.5 625.5,-1003.5"/>
<text text-anchor="middle" x="679" y="-1079.3" font-family="Times,serif" font-size="14.00">EnergyMarket</text>
<polyline fill="none" stroke="black" points="613.5,-1071.5 744.5,-1071.5 "/>
<text text-anchor="start" x="621.5" y="-1056.3" font-family="Times,serif" font-size="14.00">id :integer</text>
<text text-anchor="start" x="621.5" y="-1041.3" font-family="Times,serif" font-size="14.00">name :string</text>
<text text-anchor="start" x="621.5" y="-1026.3" font-family="Times,serif" font-size="14.00">created_at :datetime</text>
<text text-anchor="start" x="621.5" y="-1011.3" font-family="Times,serif" font-size="14.00">updated_at :datetime</text>
</g>
<!-- LogInstance -->
<g id="node6" class="node"><title>LogInstance</title>
<path fill="none" stroke="black" d="M774.5,-996C774.5,-996 881.5,-996 881.5,-996 887.5,-996 893.5,-1002 893.5,-1008 893.5,-1008 893.5,-1090 893.5,-1090 893.5,-1096 887.5,-1102 881.5,-1102 881.5,-1102 774.5,-1102 774.5,-1102 768.5,-1102 762.5,-1096 762.5,-1090 762.5,-1090 762.5,-1008 762.5,-1008 762.5,-1002 768.5,-996 774.5,-996"/>
<text text-anchor="middle" x="828" y="-1086.8" font-family="Times,serif" font-size="14.00">LogInstance</text>
<polyline fill="none" stroke="black" points="762.5,-1079 893.5,-1079 "/>
<text text-anchor="start" x="770.5" y="-1063.8" font-family="Times,serif" font-size="14.00">id :integer</text>
<text text-anchor="start" x="770.5" y="-1048.8" font-family="Times,serif" font-size="14.00">instance_id :integer</text>
<text text-anchor="start" x="770.5" y="-1033.8" font-family="Times,serif" font-size="14.00">status :integer</text>
<text text-anchor="start" x="770.5" y="-1018.8" font-family="Times,serif" font-size="14.00">created_at :datetime</text>
<text text-anchor="start" x="770.5" y="-1003.8" font-family="Times,serif" font-size="14.00">updated_at :datetime</text>
</g>
<!-- TempCluster -->
<g id="node7" class="node"><title>TempCluster</title>
<path fill="none" stroke="black" d="M317,-792.5C317,-792.5 425,-792.5 425,-792.5 431,-792.5 437,-798.5 437,-804.5 437,-804.5 437,-901.5 437,-901.5 437,-907.5 431,-913.5 425,-913.5 425,-913.5 317,-913.5 317,-913.5 311,-913.5 305,-907.5 305,-901.5 305,-901.5 305,-804.5 305,-804.5 305,-798.5 311,-792.5 317,-792.5"/>
<text text-anchor="middle" x="371" y="-898.3" font-family="Times,serif" font-size="14.00">TempCluster</text>
<polyline fill="none" stroke="black" points="305,-890.5 437,-890.5 "/>
<text text-anchor="start" x="313" y="-875.3" font-family="Times,serif" font-size="14.00">id :integer</text>
<text text-anchor="start" x="313" y="-860.3" font-family="Times,serif" font-size="14.00">name :string</text>
<text text-anchor="start" x="313" y="-845.3" font-family="Times,serif" font-size="14.00">description :text</text>
<text text-anchor="start" x="313" y="-830.3" font-family="Times,serif" font-size="14.00">clustering_id :integer</text>
<text text-anchor="start" x="313" y="-815.3" font-family="Times,serif" font-size="14.00">created_at :datetime</text>
<text text-anchor="start" x="313" y="-800.3" font-family="Times,serif" font-size="14.00">updated_at :datetime</text>
</g>
<!-- Prosumer -->
<g id="node13" class="node"><title>Prosumer</title>
<path fill="none" stroke="black" d="M449,-559C449,-559 593,-559 593,-559 599,-559 605,-565 605,-571 605,-571 605,-743 605,-743 605,-749 599,-755 593,-755 593,-755 449,-755 449,-755 443,-755 437,-749 437,-743 437,-743 437,-571 437,-571 437,-565 443,-559 449,-559"/>
<text text-anchor="middle" x="521" y="-739.8" font-family="Times,serif" font-size="14.00">Prosumer</text>
<polyline fill="none" stroke="black" points="437,-732 605,-732 "/>
<text text-anchor="start" x="445" y="-716.8" font-family="Times,serif" font-size="14.00">id :integer</text>
<text text-anchor="start" x="445" y="-701.8" font-family="Times,serif" font-size="14.00">name :string</text>
<text text-anchor="start" x="445" y="-686.8" font-family="Times,serif" font-size="14.00">location :string</text>
<text text-anchor="start" x="445" y="-671.8" font-family="Times,serif" font-size="14.00">created_at :datetime</text>
<text text-anchor="start" x="445" y="-656.8" font-family="Times,serif" font-size="14.00">updated_at :datetime</text>
<text text-anchor="start" x="445" y="-641.8" font-family="Times,serif" font-size="14.00">cluster_id :integer</text>
<text text-anchor="start" x="445" y="-626.8" font-family="Times,serif" font-size="14.00">intelen_id :integer</text>
<text text-anchor="start" x="445" y="-611.8" font-family="Times,serif" font-size="14.00">building_type_id :integer</text>
<text text-anchor="start" x="445" y="-596.8" font-family="Times,serif" font-size="14.00">connection_type_id :integer</text>
<text text-anchor="start" x="445" y="-581.8" font-family="Times,serif" font-size="14.00">location_x :float</text>
<text text-anchor="start" x="445" y="-566.8" font-family="Times,serif" font-size="14.00">location_y :float</text>
</g>
<!-- TempCluster&#45;&gt;Prosumer -->
<g id="edge2" class="edge"><title>TempCluster&#45;&gt;Prosumer</title>
<path fill="none" stroke="#c1ddb9" d="M423.325,-784.326C428.551,-777.567 433.94,-770.598 439.374,-763.569"/>
<polygon fill="#c1ddb9" stroke="#c1ddb9" points="423.141,-784.564 413.464,-789.723 420.083,-788.52 417.024,-792.475 417.024,-792.475 417.024,-792.475 420.083,-788.52 420.584,-795.228 423.141,-784.564 423.141,-784.564"/>
<polygon fill="#c1ddb9" stroke="#c1ddb9" points="439.652,-763.21 449.329,-758.051 442.711,-759.254 445.769,-755.299 445.769,-755.299 445.769,-755.299 442.711,-759.254 442.209,-752.546 439.652,-763.21 439.652,-763.21"/>
</g>
<!-- IntraDayEnergyPrice -->
<g id="node8" class="node"><title>IntraDayEnergyPrice</title>
<path fill="none" stroke="black" d="M923.5,-973.5C923.5,-973.5 1030.5,-973.5 1030.5,-973.5 1036.5,-973.5 1042.5,-979.5 1042.5,-985.5 1042.5,-985.5 1042.5,-1112.5 1042.5,-1112.5 1042.5,-1118.5 1036.5,-1124.5 1030.5,-1124.5 1030.5,-1124.5 923.5,-1124.5 923.5,-1124.5 917.5,-1124.5 911.5,-1118.5 911.5,-1112.5 911.5,-1112.5 911.5,-985.5 911.5,-985.5 911.5,-979.5 917.5,-973.5 923.5,-973.5"/>
<text text-anchor="middle" x="977" y="-1109.3" font-family="Times,serif" font-size="14.00">IntraDayEnergyPrice</text>
<polyline fill="none" stroke="black" points="911.5,-1101.5 1042.5,-1101.5 "/>
<text text-anchor="start" x="919.5" y="-1086.3" font-family="Times,serif" font-size="14.00">id :integer</text>
<text text-anchor="start" x="919.5" y="-1071.3" font-family="Times,serif" font-size="14.00">date :datetime</text>
<text text-anchor="start" x="919.5" y="-1056.3" font-family="Times,serif" font-size="14.00">dayhour :integer</text>
<text text-anchor="start" x="919.5" y="-1041.3" font-family="Times,serif" font-size="14.00">price :float</text>
<text text-anchor="start" x="919.5" y="-1026.3" font-family="Times,serif" font-size="14.00">interval_id :integer</text>
<text text-anchor="start" x="919.5" y="-1011.3" font-family="Times,serif" font-size="14.00">market_id :integer</text>
<text text-anchor="start" x="919.5" y="-996.3" font-family="Times,serif" font-size="14.00">created_at :datetime</text>
<text text-anchor="start" x="919.5" y="-981.3" font-family="Times,serif" font-size="14.00">updated_at :datetime</text>
</g>
<!-- Meter -->
<g id="node9" class="node"><title>Meter</title>
<path fill="none" stroke="black" d="M274.5,-340C274.5,-340 381.5,-340 381.5,-340 387.5,-340 393.5,-346 393.5,-352 393.5,-352 393.5,-434 393.5,-434 393.5,-440 387.5,-446 381.5,-446 381.5,-446 274.5,-446 274.5,-446 268.5,-446 262.5,-440 262.5,-434 262.5,-434 262.5,-352 262.5,-352 262.5,-346 268.5,-340 274.5,-340"/>
<text text-anchor="middle" x="328" y="-430.8" font-family="Times,serif" font-size="14.00">Meter</text>
<polyline fill="none" stroke="black" points="262.5,-423 393.5,-423 "/>
<text text-anchor="start" x="270.5" y="-407.8" font-family="Times,serif" font-size="14.00">id :integer</text>
<text text-anchor="start" x="270.5" y="-392.8" font-family="Times,serif" font-size="14.00">mac :string</text>
<text text-anchor="start" x="270.5" y="-377.8" font-family="Times,serif" font-size="14.00">prosumer_id :integer</text>
<text text-anchor="start" x="270.5" y="-362.8" font-family="Times,serif" font-size="14.00">created_at :datetime</text>
<text text-anchor="start" x="270.5" y="-347.8" font-family="Times,serif" font-size="14.00">updated_at :datetime</text>
</g>
<!-- Role -->
<g id="node10" class="node"><title>Role</title>
<path fill="none" stroke="black" d="M799.5,-332.5C799.5,-332.5 906.5,-332.5 906.5,-332.5 912.5,-332.5 918.5,-338.5 918.5,-344.5 918.5,-344.5 918.5,-441.5 918.5,-441.5 918.5,-447.5 912.5,-453.5 906.5,-453.5 906.5,-453.5 799.5,-453.5 799.5,-453.5 793.5,-453.5 787.5,-447.5 787.5,-441.5 787.5,-441.5 787.5,-344.5 787.5,-344.5 787.5,-338.5 793.5,-332.5 799.5,-332.5"/>
<text text-anchor="middle" x="853" y="-438.3" font-family="Times,serif" font-size="14.00">Role</text>
<polyline fill="none" stroke="black" points="787.5,-430.5 918.5,-430.5 "/>
<text text-anchor="start" x="795.5" y="-415.3" font-family="Times,serif" font-size="14.00">id :integer</text>
<text text-anchor="start" x="795.5" y="-400.3" font-family="Times,serif" font-size="14.00">name :string</text>
<text text-anchor="start" x="795.5" y="-385.3" font-family="Times,serif" font-size="14.00">resource_id :integer</text>
<text text-anchor="start" x="795.5" y="-370.3" font-family="Times,serif" font-size="14.00">resource_type :string</text>
<text text-anchor="start" x="795.5" y="-355.3" font-family="Times,serif" font-size="14.00">created_at :datetime</text>
<text text-anchor="start" x="795.5" y="-340.3" font-family="Times,serif" font-size="14.00">updated_at :datetime</text>
</g>
<!-- User -->
<g id="node20" class="node"><title>User</title>
<path fill="none" stroke="black" d="M764,-1C764,-1 940,-1 940,-1 946,-1 952,-7 952,-13 952,-13 952,-215 952,-215 952,-221 946,-227 940,-227 940,-227 764,-227 764,-227 758,-227 752,-221 752,-215 752,-215 752,-13 752,-13 752,-7 758,-1 764,-1"/>
<text text-anchor="middle" x="852" y="-211.8" font-family="Times,serif" font-size="14.00">User</text>
<polyline fill="none" stroke="black" points="752,-204 952,-204 "/>
<text text-anchor="start" x="760" y="-188.8" font-family="Times,serif" font-size="14.00">id :integer</text>
<text text-anchor="start" x="760" y="-173.8" font-family="Times,serif" font-size="14.00">email :string</text>
<text text-anchor="start" x="760" y="-158.8" font-family="Times,serif" font-size="14.00">encrypted_password :string</text>
<text text-anchor="start" x="760" y="-143.8" font-family="Times,serif" font-size="14.00">reset_password_token :string</text>
<text text-anchor="start" x="760" y="-128.8" font-family="Times,serif" font-size="14.00">reset_password_sent_at :datetime</text>
<text text-anchor="start" x="760" y="-113.8" font-family="Times,serif" font-size="14.00">remember_created_at :datetime</text>
<text text-anchor="start" x="760" y="-98.8" font-family="Times,serif" font-size="14.00">sign_in_count :integer</text>
<text text-anchor="start" x="760" y="-83.8" font-family="Times,serif" font-size="14.00">current_sign_in_at :datetime</text>
<text text-anchor="start" x="760" y="-68.8" font-family="Times,serif" font-size="14.00">last_sign_in_at :datetime</text>
<text text-anchor="start" x="760" y="-53.8" font-family="Times,serif" font-size="14.00">current_sign_in_ip :inet</text>
<text text-anchor="start" x="760" y="-38.8" font-family="Times,serif" font-size="14.00">last_sign_in_ip :inet</text>
<text text-anchor="start" x="760" y="-23.8" font-family="Times,serif" font-size="14.00">created_at :datetime</text>
<text text-anchor="start" x="760" y="-8.8" font-family="Times,serif" font-size="14.00">updated_at :datetime</text>
</g>
<!-- Role&#45;&gt;User -->
<g id="edge3" class="edge"><title>Role&#45;&gt;User</title>
<path fill="none" stroke="#878646" d="M852.747,-321.9C852.654,-296.196 852.546,-266.295 852.442,-237.348"/>
<polygon fill="#878646" stroke="#878646" points="852.748,-322.236 848.284,-332.252 852.766,-327.236 852.784,-332.236 852.784,-332.236 852.784,-332.236 852.766,-327.236 857.284,-332.22 852.748,-322.236 852.748,-322.236"/>
<polygon fill="#878646" stroke="#878646" points="852.441,-237.157 856.905,-227.141 852.423,-232.157 852.405,-227.157 852.405,-227.157 852.405,-227.157 852.423,-232.157 847.905,-227.174 852.441,-237.157 852.441,-237.157"/>
</g>
<!-- Instance -->
<g id="node11" class="node"><title>Instance</title>
<path fill="none" stroke="black" d="M1073,-951C1073,-951 1225,-951 1225,-951 1231,-951 1237,-957 1237,-963 1237,-963 1237,-1135 1237,-1135 1237,-1141 1231,-1147 1225,-1147 1225,-1147 1073,-1147 1073,-1147 1067,-1147 1061,-1141 1061,-1135 1061,-1135 1061,-963 1061,-963 1061,-957 1067,-951 1073,-951"/>
<text text-anchor="middle" x="1149" y="-1131.8" font-family="Times,serif" font-size="14.00">Instance</text>
<polyline fill="none" stroke="black" points="1061,-1124 1237,-1124 "/>
<text text-anchor="start" x="1069" y="-1108.8" font-family="Times,serif" font-size="14.00">id :integer</text>
<text text-anchor="start" x="1069" y="-1093.8" font-family="Times,serif" font-size="14.00">user_id :integer</text>
<text text-anchor="start" x="1069" y="-1078.8" font-family="Times,serif" font-size="14.00">configuration_id :integer</text>
<text text-anchor="start" x="1069" y="-1063.8" font-family="Times,serif" font-size="14.00">results :string</text>
<text text-anchor="start" x="1069" y="-1048.8" font-family="Times,serif" font-size="14.00">status :string</text>
<text text-anchor="start" x="1069" y="-1033.8" font-family="Times,serif" font-size="14.00">reason :string</text>
<text text-anchor="start" x="1069" y="-1018.8" font-family="Times,serif" font-size="14.00">instance_name :string</text>
<text text-anchor="start" x="1069" y="-1003.8" font-family="Times,serif" font-size="14.00">worker :string</text>
<text text-anchor="start" x="1069" y="-988.8" font-family="Times,serif" font-size="14.00">created_at :datetime</text>
<text text-anchor="start" x="1069" y="-973.8" font-family="Times,serif" font-size="14.00">updated_at :datetime</text>
<text text-anchor="start" x="1069" y="-958.8" font-family="Times,serif" font-size="14.00">total_execution_time :integer</text>
</g>
<!-- EnergyTypeProsumer -->
<g id="node12" class="node"><title>EnergyTypeProsumer</title>
<path fill="none" stroke="black" d="M403,-53.5C403,-53.5 525,-53.5 525,-53.5 531,-53.5 537,-59.5 537,-65.5 537,-65.5 537,-162.5 537,-162.5 537,-168.5 531,-174.5 525,-174.5 525,-174.5 403,-174.5 403,-174.5 397,-174.5 391,-168.5 391,-162.5 391,-162.5 391,-65.5 391,-65.5 391,-59.5 397,-53.5 403,-53.5"/>
<text text-anchor="middle" x="464" y="-159.3" font-family="Times,serif" font-size="14.00">EnergyTypeProsumer</text>
<polyline fill="none" stroke="black" points="391,-151.5 537,-151.5 "/>
<text text-anchor="start" x="399" y="-136.3" font-family="Times,serif" font-size="14.00">id :integer</text>
<text text-anchor="start" x="399" y="-121.3" font-family="Times,serif" font-size="14.00">power :float</text>
<text text-anchor="start" x="399" y="-106.3" font-family="Times,serif" font-size="14.00">energy_type_id :integer</text>
<text text-anchor="start" x="399" y="-91.3" font-family="Times,serif" font-size="14.00">prosumer_id :integer</text>
<text text-anchor="start" x="399" y="-76.3" font-family="Times,serif" font-size="14.00">created_at :datetime</text>
<text text-anchor="start" x="399" y="-61.3" font-family="Times,serif" font-size="14.00">updated_at :datetime</text>
</g>
<!-- Prosumer&#45;&gt;Meter -->
<g id="edge6" class="edge"><title>Prosumer&#45;&gt;Meter</title>
<path fill="none" stroke="#63ec88" d="M431.797,-553.16C423.554,-542.788 415.494,-532.286 408,-522 392.54,-500.778 376.927,-476.56 363.649,-454.943"/>
<ellipse fill="none" stroke="#63ec88" cx="434.45" cy="-556.475" rx="4.00002" ry="4.00002"/>
<polygon fill="#63ec88" stroke="#63ec88" points="363.506,-454.708 362.142,-443.827 360.903,-450.439 358.3,-446.17 358.3,-446.17 358.3,-446.17 360.903,-450.439 354.458,-448.513 363.506,-454.708 363.506,-454.708"/>
</g>
<!-- Prosumer&#45;&gt;Role -->
<g id="edge7" class="edge"><title>Prosumer&#45;&gt;Role</title>
<path fill="none" stroke="#8ec803" d="M612.548,-621.291C663.889,-598.607 726.714,-565.159 773,-522 791.112,-505.111 806.753,-483.25 819.28,-462.387"/>
<ellipse fill="none" stroke="#8ec803" cx="608.726" cy="-622.959" rx="4.00002" ry="4.00002"/>
<polygon fill="#8ec803" stroke="#8ec803" points="819.413,-462.16 828.342,-455.794 821.935,-457.842 824.456,-453.525 824.456,-453.525 824.456,-453.525 821.935,-457.842 820.57,-451.255 819.413,-462.16 819.413,-462.16"/>
</g>
<!-- Prosumer&#45;&gt;EnergyTypeProsumer -->
<g id="edge9" class="edge"><title>Prosumer&#45;&gt;EnergyTypeProsumer</title>
<path fill="none" stroke="#642508" d="M452.532,-551.405C448.313,-541.737 444.691,-531.862 442,-522 410.576,-406.824 430.126,-266.686 447.111,-184.513"/>
<ellipse fill="none" stroke="#642508" cx="454.215" cy="-555.113" rx="4.00002" ry="4.00002"/>
<polygon fill="#642508" stroke="#642508" points="447.151,-184.323 453.622,-175.47 448.185,-179.431 449.219,-174.539 449.219,-174.539 449.219,-174.539 448.185,-179.431 444.817,-173.609 447.151,-184.323 447.151,-184.323"/>
</g>
<!-- EnergyType -->
<g id="node16" class="node"><title>EnergyType</title>
<path fill="none" stroke="black" d="M462.5,-347.5C462.5,-347.5 569.5,-347.5 569.5,-347.5 575.5,-347.5 581.5,-353.5 581.5,-359.5 581.5,-359.5 581.5,-426.5 581.5,-426.5 581.5,-432.5 575.5,-438.5 569.5,-438.5 569.5,-438.5 462.5,-438.5 462.5,-438.5 456.5,-438.5 450.5,-432.5 450.5,-426.5 450.5,-426.5 450.5,-359.5 450.5,-359.5 450.5,-353.5 456.5,-347.5 462.5,-347.5"/>
<text text-anchor="middle" x="516" y="-423.3" font-family="Times,serif" font-size="14.00">EnergyType</text>
<polyline fill="none" stroke="black" points="450.5,-415.5 581.5,-415.5 "/>
<text text-anchor="start" x="458.5" y="-400.3" font-family="Times,serif" font-size="14.00">id :integer</text>
<text text-anchor="start" x="458.5" y="-385.3" font-family="Times,serif" font-size="14.00">name :string</text>
<text text-anchor="start" x="458.5" y="-370.3" font-family="Times,serif" font-size="14.00">created_at :datetime</text>
<text text-anchor="start" x="458.5" y="-355.3" font-family="Times,serif" font-size="14.00">updated_at :datetime</text>
</g>
<!-- Prosumer&#45;&gt;EnergyType -->
<g id="edge10" class="edge"><title>Prosumer&#45;&gt;EnergyType</title>
<path fill="none" stroke="#4646f7" d="M518.95,-548.584C518.297,-514.345 517.601,-477.883 517.049,-448.975"/>
<polygon fill="#4646f7" stroke="#4646f7" points="518.954,-548.815 514.646,-558.899 519.05,-553.814 519.145,-558.813 519.145,-558.813 519.145,-558.813 519.05,-553.814 523.644,-558.727 518.954,-548.815 518.954,-548.815"/>
<polygon fill="#4646f7" stroke="#4646f7" points="517.044,-448.682 521.352,-438.598 516.948,-443.683 516.853,-438.684 516.853,-438.684 516.853,-438.684 516.948,-443.683 512.354,-438.77 517.044,-448.682 517.044,-448.682"/>
</g>
<!-- DayAhead -->
<g id="node18" class="node"><title>DayAhead</title>
<path fill="none" stroke="black" d="M611.5,-340C611.5,-340 718.5,-340 718.5,-340 724.5,-340 730.5,-346 730.5,-352 730.5,-352 730.5,-434 730.5,-434 730.5,-440 724.5,-446 718.5,-446 718.5,-446 611.5,-446 611.5,-446 605.5,-446 599.5,-440 599.5,-434 599.5,-434 599.5,-352 599.5,-352 599.5,-346 605.5,-340 611.5,-340"/>
<text text-anchor="middle" x="665" y="-430.8" font-family="Times,serif" font-size="14.00">DayAhead</text>
<polyline fill="none" stroke="black" points="599.5,-423 730.5,-423 "/>
<text text-anchor="start" x="607.5" y="-407.8" font-family="Times,serif" font-size="14.00">id :integer</text>
<text text-anchor="start" x="607.5" y="-392.8" font-family="Times,serif" font-size="14.00">prosumer_id :integer</text>
<text text-anchor="start" x="607.5" y="-377.8" font-family="Times,serif" font-size="14.00">date :date</text>
<text text-anchor="start" x="607.5" y="-362.8" font-family="Times,serif" font-size="14.00">created_at :datetime</text>
<text text-anchor="start" x="607.5" y="-347.8" font-family="Times,serif" font-size="14.00">updated_at :datetime</text>
</g>
<!-- Prosumer&#45;&gt;DayAhead -->
<g id="edge5" class="edge"><title>Prosumer&#45;&gt;DayAhead</title>
<path fill="none" stroke="#716972" d="M578.372,-551.614C596.325,-518.95 615.545,-483.98 631.309,-455.299"/>
<ellipse fill="none" stroke="#716972" cx="576.342" cy="-555.308" rx="4.00002" ry="4.00002"/>
<polygon fill="#716972" stroke="#716972" points="631.483,-454.983 640.243,-448.387 633.891,-450.601 636.299,-446.219 636.299,-446.219 636.299,-446.219 633.891,-450.601 632.356,-444.052 631.483,-454.983 631.483,-454.983"/>
</g>
<!-- Prosumer&#45;&gt;DataPoint -->
<g id="edge4" class="edge"><title>Prosumer&#45;&gt;DataPoint</title>
<path fill="none" stroke="#9dd253" d="M429.133,-624.483C373.813,-602.178 304.541,-568.026 254,-522 253.046,-521.132 252.1,-520.249 251.16,-519.354"/>
<ellipse fill="none" stroke="#9dd253" cx="433.126" cy="-626.072" rx="4.00001" ry="4.00001"/>
<polygon fill="#9dd253" stroke="#9dd253" points="251.148,-519.342 247.293,-509.076 247.625,-515.794 244.101,-512.247 244.101,-512.247 244.101,-512.247 247.625,-515.794 240.908,-515.419 251.148,-519.342 251.148,-519.342"/>
</g>
<!-- Prosumer&#45;&gt;User -->
<g id="edge8" class="edge"><title>Prosumer&#45;&gt;User</title>
<path fill="none" stroke="#032fa4" d="M614.193,-620.812C658.976,-599.106 709.259,-566.735 739,-522 803.243,-425.37 744.19,-374.692 779,-264 781.854,-254.924 785.187,-245.711 788.827,-236.545"/>
<polygon fill="#032fa4" stroke="#032fa4" points="614.065,-620.873 603.101,-621.079 609.544,-623.01 605.024,-625.147 605.024,-625.147 605.024,-625.147 609.544,-623.01 606.948,-629.215 614.065,-620.873 614.065,-620.873"/>
<polygon fill="#032fa4" stroke="#032fa4" points="788.938,-236.274 796.89,-228.723 790.831,-231.647 792.725,-227.019 792.725,-227.019 792.725,-227.019 790.831,-231.647 788.56,-225.315 788.938,-236.274 788.938,-236.274"/>
</g>
<!-- Cluster -->
<g id="node14" class="node"><title>Cluster</title>
<path fill="none" stroke="black" d="M784.5,-800C784.5,-800 891.5,-800 891.5,-800 897.5,-800 903.5,-806 903.5,-812 903.5,-812 903.5,-894 903.5,-894 903.5,-900 897.5,-906 891.5,-906 891.5,-906 784.5,-906 784.5,-906 778.5,-906 772.5,-900 772.5,-894 772.5,-894 772.5,-812 772.5,-812 772.5,-806 778.5,-800 784.5,-800"/>
<text text-anchor="middle" x="838" y="-890.8" font-family="Times,serif" font-size="14.00">Cluster</text>
<polyline fill="none" stroke="black" points="772.5,-883 903.5,-883 "/>
<text text-anchor="start" x="780.5" y="-867.8" font-family="Times,serif" font-size="14.00">id :integer</text>
<text text-anchor="start" x="780.5" y="-852.8" font-family="Times,serif" font-size="14.00">name :string</text>
<text text-anchor="start" x="780.5" y="-837.8" font-family="Times,serif" font-size="14.00">description :text</text>
<text text-anchor="start" x="780.5" y="-822.8" font-family="Times,serif" font-size="14.00">created_at :datetime</text>
<text text-anchor="start" x="780.5" y="-807.8" font-family="Times,serif" font-size="14.00">updated_at :datetime</text>
</g>
<!-- Cluster&#45;&gt;Role -->
<g id="edge12" class="edge"><title>Cluster&#45;&gt;Role</title>
<path fill="none" stroke="#b39e0b" d="M839.968,-791.897C842.741,-707.244 847.784,-553.251 850.718,-463.692"/>
<ellipse fill="none" stroke="#b39e0b" cx="839.837" cy="-795.91" rx="4" ry="4"/>
<polygon fill="#b39e0b" stroke="#b39e0b" points="850.72,-463.626 855.545,-453.779 850.883,-458.629 851.047,-453.632 851.047,-453.632 851.047,-453.632 850.883,-458.629 846.549,-453.484 850.72,-463.626 850.72,-463.626"/>
</g>
<!-- Cluster&#45;&gt;Prosumer -->
<g id="edge11" class="edge"><title>Cluster&#45;&gt;Prosumer</title>
<path fill="none" stroke="#bca1c4" d="M765.252,-805.292C758.087,-800.774 750.913,-796.282 744,-792 701.52,-765.686 654.109,-737.09 613.962,-713.098"/>
<ellipse fill="none" stroke="#bca1c4" cx="769.022" cy="-807.674" rx="4.00002" ry="4.00002"/>
<polygon fill="#bca1c4" stroke="#bca1c4" points="613.832,-713.021 607.554,-704.031 609.539,-710.458 605.246,-707.894 605.246,-707.894 605.246,-707.894 609.539,-710.458 602.939,-711.758 613.832,-713.021 613.832,-713.021"/>
</g>
<!-- ConnectionType -->
<g id="node15" class="node"><title>ConnectionType</title>
<path fill="none" stroke="black" d="M467.5,-807.5C467.5,-807.5 574.5,-807.5 574.5,-807.5 580.5,-807.5 586.5,-813.5 586.5,-819.5 586.5,-819.5 586.5,-886.5 586.5,-886.5 586.5,-892.5 580.5,-898.5 574.5,-898.5 574.5,-898.5 467.5,-898.5 467.5,-898.5 461.5,-898.5 455.5,-892.5 455.5,-886.5 455.5,-886.5 455.5,-819.5 455.5,-819.5 455.5,-813.5 461.5,-807.5 467.5,-807.5"/>
<text text-anchor="middle" x="521" y="-883.3" font-family="Times,serif" font-size="14.00">ConnectionType</text>
<polyline fill="none" stroke="black" points="455.5,-875.5 586.5,-875.5 "/>
<text text-anchor="start" x="463.5" y="-860.3" font-family="Times,serif" font-size="14.00">id :integer</text>
<text text-anchor="start" x="463.5" y="-845.3" font-family="Times,serif" font-size="14.00">name :string</text>
<text text-anchor="start" x="463.5" y="-830.3" font-family="Times,serif" font-size="14.00">created_at :datetime</text>
<text text-anchor="start" x="463.5" y="-815.3" font-family="Times,serif" font-size="14.00">updated_at :datetime</text>
</g>
<!-- ConnectionType&#45;&gt;Prosumer -->
<g id="edge13" class="edge"><title>ConnectionType&#45;&gt;Prosumer</title>
<path fill="none" stroke="#b71016" d="M521,-799.199C521,-788.642 521,-777.196 521,-765.545"/>
<ellipse fill="none" stroke="#b71016" cx="521" cy="-803.492" rx="4" ry="4"/>
<polygon fill="#b71016" stroke="#b71016" points="521,-765.271 525.5,-755.271 521,-760.271 521,-755.271 521,-755.271 521,-755.271 521,-760.271 516.5,-755.271 521,-765.271 521,-765.271"/>
</g>
<!-- EnergyType&#45;&gt;EnergyTypeProsumer -->
<g id="edge14" class="edge"><title>EnergyType&#45;&gt;EnergyTypeProsumer</title>
<path fill="none" stroke="#acc8b5" d="M506.157,-339.569C497.923,-295.706 486.107,-232.763 477.078,-184.668"/>
<ellipse fill="none" stroke="#acc8b5" cx="506.907" cy="-343.564" rx="4.00001" ry="4.00001"/>
<polygon fill="#acc8b5" stroke="#acc8b5" points="477.042,-184.471 479.619,-173.812 476.119,-179.557 475.196,-174.643 475.196,-174.643 475.196,-174.643 476.119,-179.557 470.774,-175.473 477.042,-184.471 477.042,-184.471"/>
</g>
<!-- DayAheadHour -->
<g id="node17" class="node"><title>DayAheadHour</title>
<path fill="none" stroke="black" d="M608.5,-46C608.5,-46 721.5,-46 721.5,-46 727.5,-46 733.5,-52 733.5,-58 733.5,-58 733.5,-170 733.5,-170 733.5,-176 727.5,-182 721.5,-182 721.5,-182 608.5,-182 608.5,-182 602.5,-182 596.5,-176 596.5,-170 596.5,-170 596.5,-58 596.5,-58 596.5,-52 602.5,-46 608.5,-46"/>
<text text-anchor="middle" x="665" y="-166.8" font-family="Times,serif" font-size="14.00">DayAheadHour</text>
<polyline fill="none" stroke="black" points="596.5,-159 733.5,-159 "/>
<text text-anchor="start" x="604.5" y="-143.8" font-family="Times,serif" font-size="14.00">id :integer</text>
<text text-anchor="start" x="604.5" y="-128.8" font-family="Times,serif" font-size="14.00">day_ahead_id :integer</text>
<text text-anchor="start" x="604.5" y="-113.8" font-family="Times,serif" font-size="14.00">time :integer</text>
<text text-anchor="start" x="604.5" y="-98.8" font-family="Times,serif" font-size="14.00">production :float</text>
<text text-anchor="start" x="604.5" y="-83.8" font-family="Times,serif" font-size="14.00">consumption :float</text>
<text text-anchor="start" x="604.5" y="-68.8" font-family="Times,serif" font-size="14.00">created_at :datetime</text>
<text text-anchor="start" x="604.5" y="-53.8" font-family="Times,serif" font-size="14.00">updated_at :datetime</text>
</g>
<!-- DayAhead&#45;&gt;DayAheadHour -->
<g id="edge15" class="edge"><title>DayAhead&#45;&gt;DayAheadHour</title>
<path fill="none" stroke="#e95c9c" d="M665,-331.849C665,-290.905 665,-236.348 665,-192.2"/>
<ellipse fill="none" stroke="#e95c9c" cx="665" cy="-335.898" rx="4" ry="4"/>
<polygon fill="#e95c9c" stroke="#e95c9c" points="665,-192.084 669.5,-182.084 665,-187.084 665,-182.084 665,-182.084 665,-182.084 665,-187.084 660.5,-182.084 665,-192.084 665,-192.084"/>
</g>
<!-- BuildingType -->
<g id="node21" class="node"><title>BuildingType</title>
<path fill="none" stroke="black" d="M616.5,-807.5C616.5,-807.5 723.5,-807.5 723.5,-807.5 729.5,-807.5 735.5,-813.5 735.5,-819.5 735.5,-819.5 735.5,-886.5 735.5,-886.5 735.5,-892.5 729.5,-898.5 723.5,-898.5 723.5,-898.5 616.5,-898.5 616.5,-898.5 610.5,-898.5 604.5,-892.5 604.5,-886.5 604.5,-886.5 604.5,-819.5 604.5,-819.5 604.5,-813.5 610.5,-807.5 616.5,-807.5"/>
<text text-anchor="middle" x="670" y="-883.3" font-family="Times,serif" font-size="14.00">BuildingType</text>
<polyline fill="none" stroke="black" points="604.5,-875.5 735.5,-875.5 "/>
<text text-anchor="start" x="612.5" y="-860.3" font-family="Times,serif" font-size="14.00">id :integer</text>
<text text-anchor="start" x="612.5" y="-845.3" font-family="Times,serif" font-size="14.00">name :string</text>
<text text-anchor="start" x="612.5" y="-830.3" font-family="Times,serif" font-size="14.00">created_at :datetime</text>
<text text-anchor="start" x="612.5" y="-815.3" font-family="Times,serif" font-size="14.00">updated_at :datetime</text>
</g>
<!-- BuildingType&#45;&gt;Prosumer -->
<g id="edge16" class="edge"><title>BuildingType&#45;&gt;Prosumer</title>
<path fill="none" stroke="#d4045d" d="M630.922,-801.12C621.927,-789.408 612.033,-776.526 601.981,-763.438"/>
<ellipse fill="none" stroke="#d4045d" cx="633.38" cy="-804.32" rx="4.00002" ry="4.00002"/>
<polygon fill="#d4045d" stroke="#d4045d" points="601.799,-763.202 599.277,-752.53 598.754,-759.236 595.708,-755.271 595.708,-755.271 595.708,-755.271 598.754,-759.236 592.139,-758.012 601.799,-763.202 601.799,-763.202"/>
</g>
<!-- Clustering -->
<g id="node22" class="node"><title>Clustering</title>
<path fill="none" stroke="black" d="M317.5,-996C317.5,-996 424.5,-996 424.5,-996 430.5,-996 436.5,-1002 436.5,-1008 436.5,-1008 436.5,-1090 436.5,-1090 436.5,-1096 430.5,-1102 424.5,-1102 424.5,-1102 317.5,-1102 317.5,-1102 311.5,-1102 305.5,-1096 305.5,-1090 305.5,-1090 305.5,-1008 305.5,-1008 305.5,-1002 311.5,-996 317.5,-996"/>
<text text-anchor="middle" x="371" y="-1086.8" font-family="Times,serif" font-size="14.00">Clustering</text>
<polyline fill="none" stroke="black" points="305.5,-1079 436.5,-1079 "/>
<text text-anchor="start" x="313.5" y="-1063.8" font-family="Times,serif" font-size="14.00">id :integer</text>
<text text-anchor="start" x="313.5" y="-1048.8" font-family="Times,serif" font-size="14.00">name :string</text>
<text text-anchor="start" x="313.5" y="-1033.8" font-family="Times,serif" font-size="14.00">description :text</text>
<text text-anchor="start" x="313.5" y="-1018.8" font-family="Times,serif" font-size="14.00">created_at :datetime</text>
<text text-anchor="start" x="313.5" y="-1003.8" font-family="Times,serif" font-size="14.00">updated_at :datetime</text>
</g>
<!-- Clustering&#45;&gt;TempCluster -->
<g id="edge17" class="edge"><title>Clustering&#45;&gt;TempCluster</title>
<path fill="none" stroke="#909736" d="M371,-987.568C371,-967.304 371,-944.546 371,-923.636"/>
<ellipse fill="none" stroke="#909736" cx="371" cy="-991.756" rx="4" ry="4"/>
<polygon fill="#909736" stroke="#909736" points="371,-923.538 375.5,-913.538 371,-918.538 371,-913.538 371,-913.538 371,-913.538 371,-918.538 366.5,-913.538 371,-923.538 371,-923.538"/>
</g>
</g>
</svg>
