<?xml version="1.0" encoding="UTF-8" standalone="no"?>
<!DOCTYPE svg PUBLIC "-//W3C//DTD SVG 1.1//EN"
 "http://www.w3.org/Graphics/SVG/1.1/DTD/svg11.dtd">
<!-- Generated by graphviz version 2.36.0 (20140111.2315)
 -->
<!-- Title: models_diagram Pages: 1 -->
<svg width="1394pt" height="1330pt"
 viewBox="0.00 0.00 1394.00 1330.00" xmlns="http://www.w3.org/2000/svg" xmlns:xlink="http://www.w3.org/1999/xlink">
<g id="graph0" class="graph" transform="scale(1 1) rotate(0) translate(4 1326)">
<title>models_diagram</title>
<polygon fill="white" stroke="none" points="-4,4 -4,-1326 1390,-1326 1390,4 -4,4"/>
<!-- _diagram_info -->
<g id="node1" class="node"><title>_diagram_info</title>
<text text-anchor="start" x="8" y="-1247.6" font-family="Times,serif" font-size="13.00">Models diagram</text>
<text text-anchor="start" x="8" y="-1233.6" font-family="Times,serif" font-size="13.00">Date: Mar 26 2015 &#45; 11:28</text>
<text text-anchor="start" x="8" y="-1219.6" font-family="Times,serif" font-size="13.00">Migration version: 20150204132935</text>
<text text-anchor="start" x="8" y="-1205.6" font-family="Times,serif" font-size="13.00">Generated by RailRoady 1.3.0</text>
<text text-anchor="start" x="8" y="-1191.6" font-family="Times,serif" font-size="13.00">http://railroady.prestonlee.com</text>
</g>
<!-- Ability -->
<g id="node2" class="node"><title>Ability</title>
<polygon fill="none" stroke="black" points="232.5,-1200 232.5,-1246 287.5,-1246 287.5,-1200 232.5,-1200"/>
<text text-anchor="middle" x="260" y="-1230.8" font-family="Times,serif" font-size="14.00">Ability</text>
<polyline fill="none" stroke="black" points="232.5,-1223 287.5,-1223 "/>
<text text-anchor="middle" x="260" y="-1207.8" font-family="Times,serif" font-size="14.00"> </text>
</g>
<!-- Interval -->
<g id="node3" class="node"><title>Interval</title>
<path fill="none" stroke="black" d="M120.5,-778C120.5,-778 227.5,-778 227.5,-778 233.5,-778 239.5,-784 239.5,-790 239.5,-790 239.5,-872 239.5,-872 239.5,-878 233.5,-884 227.5,-884 227.5,-884 120.5,-884 120.5,-884 114.5,-884 108.5,-878 108.5,-872 108.5,-872 108.5,-790 108.5,-790 108.5,-784 114.5,-778 120.5,-778"/>
<text text-anchor="middle" x="174" y="-868.8" font-family="Times,serif" font-size="14.00">Interval</text>
<polyline fill="none" stroke="black" points="108.5,-861 239.5,-861 "/>
<text text-anchor="start" x="116.5" y="-845.8" font-family="Times,serif" font-size="14.00">id :integer</text>
<text text-anchor="start" x="116.5" y="-830.8" font-family="Times,serif" font-size="14.00">duration :integer</text>
<text text-anchor="start" x="116.5" y="-815.8" font-family="Times,serif" font-size="14.00">name :string</text>
<text text-anchor="start" x="116.5" y="-800.8" font-family="Times,serif" font-size="14.00">created_at :datetime</text>
<text text-anchor="start" x="116.5" y="-785.8" font-family="Times,serif" font-size="14.00">updated_at :datetime</text>
</g>
<!-- DataPoint -->
<g id="node20" class="node"><title>DataPoint</title>
<path fill="none" stroke="black" d="M116,-439C116,-439 232,-439 232,-439 238,-439 244,-445 244,-451 244,-451 244,-683 244,-683 244,-689 238,-695 232,-695 232,-695 116,-695 116,-695 110,-695 104,-689 104,-683 104,-683 104,-451 104,-451 104,-445 110,-439 116,-439"/>
<text text-anchor="middle" x="174" y="-679.8" font-family="Times,serif" font-size="14.00">DataPoint</text>
<polyline fill="none" stroke="black" points="104,-672 244,-672 "/>
<text text-anchor="start" x="112" y="-656.8" font-family="Times,serif" font-size="14.00">id :integer</text>
<text text-anchor="start" x="112" y="-641.8" font-family="Times,serif" font-size="14.00">prosumer_id :integer</text>
<text text-anchor="start" x="112" y="-626.8" font-family="Times,serif" font-size="14.00">interval_id :integer</text>
<text text-anchor="start" x="112" y="-611.8" font-family="Times,serif" font-size="14.00">timestamp :datetime</text>
<text text-anchor="start" x="112" y="-596.8" font-family="Times,serif" font-size="14.00">production :float</text>
<text text-anchor="start" x="112" y="-581.8" font-family="Times,serif" font-size="14.00">consumption :float</text>
<text text-anchor="start" x="112" y="-566.8" font-family="Times,serif" font-size="14.00">storage :float</text>
<text text-anchor="start" x="112" y="-551.8" font-family="Times,serif" font-size="14.00">f_timestamp :datetime</text>
<text text-anchor="start" x="112" y="-536.8" font-family="Times,serif" font-size="14.00">f_production :float</text>
<text text-anchor="start" x="112" y="-521.8" font-family="Times,serif" font-size="14.00">f_consumption :float</text>
<text text-anchor="start" x="112" y="-506.8" font-family="Times,serif" font-size="14.00">f_storage :float</text>
<text text-anchor="start" x="112" y="-491.8" font-family="Times,serif" font-size="14.00">dr :float</text>
<text text-anchor="start" x="112" y="-476.8" font-family="Times,serif" font-size="14.00">reliability :float</text>
<text text-anchor="start" x="112" y="-461.8" font-family="Times,serif" font-size="14.00">created_at :datetime</text>
<text text-anchor="start" x="112" y="-446.8" font-family="Times,serif" font-size="14.00">updated_at :datetime</text>
</g>
<!-- Interval&#45;&gt;DataPoint -->
<g id="edge1" class="edge"><title>Interval&#45;&gt;DataPoint</title>
<path fill="none" stroke="#dcf107" d="M174,-769.871C174,-750.391 174,-727.919 174,-705.199"/>
<ellipse fill="none" stroke="#dcf107" cx="174" cy="-773.924" rx="4" ry="4"/>
<polygon fill="#dcf107" stroke="#dcf107" points="174,-705.105 178.5,-695.104 174,-700.105 174,-695.105 174,-695.105 174,-695.105 174,-700.105 169.5,-695.105 174,-705.105 174,-705.105"/>
</g>
<!-- DayAheadEnergyPrice -->
<g id="node4" class="node"><title>DayAheadEnergyPrice</title>
<path fill="none" stroke="black" d="M466.5,-1155C466.5,-1155 583.5,-1155 583.5,-1155 589.5,-1155 595.5,-1161 595.5,-1167 595.5,-1167 595.5,-1279 595.5,-1279 595.5,-1285 589.5,-1291 583.5,-1291 583.5,-1291 466.5,-1291 466.5,-1291 460.5,-1291 454.5,-1285 454.5,-1279 454.5,-1279 454.5,-1167 454.5,-1167 454.5,-1161 460.5,-1155 466.5,-1155"/>
<text text-anchor="middle" x="525" y="-1275.8" font-family="Times,serif" font-size="14.00">DayAheadEnergyPrice</text>
<polyline fill="none" stroke="black" points="454.5,-1268 595.5,-1268 "/>
<text text-anchor="start" x="462.5" y="-1252.8" font-family="Times,serif" font-size="14.00">id :integer</text>
<text text-anchor="start" x="462.5" y="-1237.8" font-family="Times,serif" font-size="14.00">date :datetime</text>
<text text-anchor="start" x="462.5" y="-1222.8" font-family="Times,serif" font-size="14.00">dayhour :integer</text>
<text text-anchor="start" x="462.5" y="-1207.8" font-family="Times,serif" font-size="14.00">price :float</text>
<text text-anchor="start" x="462.5" y="-1192.8" font-family="Times,serif" font-size="14.00">market_id :integer</text>
<text text-anchor="start" x="462.5" y="-1177.8" font-family="Times,serif" font-size="14.00">created_at :datetime</text>
<text text-anchor="start" x="462.5" y="-1162.8" font-family="Times,serif" font-size="14.00">updated_at :datetime</text>
</g>
<!-- EnergyMarket -->
<g id="node5" class="node"><title>EnergyMarket</title>
<path fill="none" stroke="black" d="M625.5,-1177.5C625.5,-1177.5 732.5,-1177.5 732.5,-1177.5 738.5,-1177.5 744.5,-1183.5 744.5,-1189.5 744.5,-1189.5 744.5,-1256.5 744.5,-1256.5 744.5,-1262.5 738.5,-1268.5 732.5,-1268.5 732.5,-1268.5 625.5,-1268.5 625.5,-1268.5 619.5,-1268.5 613.5,-1262.5 613.5,-1256.5 613.5,-1256.5 613.5,-1189.5 613.5,-1189.5 613.5,-1183.5 619.5,-1177.5 625.5,-1177.5"/>
<text text-anchor="middle" x="679" y="-1253.3" font-family="Times,serif" font-size="14.00">EnergyMarket</text>
<polyline fill="none" stroke="black" points="613.5,-1245.5 744.5,-1245.5 "/>
<text text-anchor="start" x="621.5" y="-1230.3" font-family="Times,serif" font-size="14.00">id :integer</text>
<text text-anchor="start" x="621.5" y="-1215.3" font-family="Times,serif" font-size="14.00">name :string</text>
<text text-anchor="start" x="621.5" y="-1200.3" font-family="Times,serif" font-size="14.00">created_at :datetime</text>
<text text-anchor="start" x="621.5" y="-1185.3" font-family="Times,serif" font-size="14.00">updated_at :datetime</text>
</g>
<!-- LogInstance -->
<g id="node6" class="node"><title>LogInstance</title>
<path fill="none" stroke="black" d="M774.5,-1170C774.5,-1170 881.5,-1170 881.5,-1170 887.5,-1170 893.5,-1176 893.5,-1182 893.5,-1182 893.5,-1264 893.5,-1264 893.5,-1270 887.5,-1276 881.5,-1276 881.5,-1276 774.5,-1276 774.5,-1276 768.5,-1276 762.5,-1270 762.5,-1264 762.5,-1264 762.5,-1182 762.5,-1182 762.5,-1176 768.5,-1170 774.5,-1170"/>
<text text-anchor="middle" x="828" y="-1260.8" font-family="Times,serif" font-size="14.00">LogInstance</text>
<polyline fill="none" stroke="black" points="762.5,-1253 893.5,-1253 "/>
<text text-anchor="start" x="770.5" y="-1237.8" font-family="Times,serif" font-size="14.00">id :integer</text>
<text text-anchor="start" x="770.5" y="-1222.8" font-family="Times,serif" font-size="14.00">instance_id :integer</text>
<text text-anchor="start" x="770.5" y="-1207.8" font-family="Times,serif" font-size="14.00">status :integer</text>
<text text-anchor="start" x="770.5" y="-1192.8" font-family="Times,serif" font-size="14.00">created_at :datetime</text>
<text text-anchor="start" x="770.5" y="-1177.8" font-family="Times,serif" font-size="14.00">updated_at :datetime</text>
</g>
<!-- TempCluster -->
<g id="node7" class="node"><title>TempCluster</title>
<path fill="none" stroke="black" d="M317,-966.5C317,-966.5 425,-966.5 425,-966.5 431,-966.5 437,-972.5 437,-978.5 437,-978.5 437,-1075.5 437,-1075.5 437,-1081.5 431,-1087.5 425,-1087.5 425,-1087.5 317,-1087.5 317,-1087.5 311,-1087.5 305,-1081.5 305,-1075.5 305,-1075.5 305,-978.5 305,-978.5 305,-972.5 311,-966.5 317,-966.5"/>
<text text-anchor="middle" x="371" y="-1072.3" font-family="Times,serif" font-size="14.00">TempCluster</text>
<polyline fill="none" stroke="black" points="305,-1064.5 437,-1064.5 "/>
<text text-anchor="start" x="313" y="-1049.3" font-family="Times,serif" font-size="14.00">id :integer</text>
<text text-anchor="start" x="313" y="-1034.3" font-family="Times,serif" font-size="14.00">name :string</text>
<text text-anchor="start" x="313" y="-1019.3" font-family="Times,serif" font-size="14.00">description :text</text>
<text text-anchor="start" x="313" y="-1004.3" font-family="Times,serif" font-size="14.00">clustering_id :integer</text>
<text text-anchor="start" x="313" y="-989.3" font-family="Times,serif" font-size="14.00">created_at :datetime</text>
<text text-anchor="start" x="313" y="-974.3" font-family="Times,serif" font-size="14.00">updated_at :datetime</text>
</g>
<!-- Prosumer -->
<g id="node13" class="node"><title>Prosumer</title>
<path fill="none" stroke="black" d="M449,-733C449,-733 593,-733 593,-733 599,-733 605,-739 605,-745 605,-745 605,-917 605,-917 605,-923 599,-929 593,-929 593,-929 449,-929 449,-929 443,-929 437,-923 437,-917 437,-917 437,-745 437,-745 437,-739 443,-733 449,-733"/>
<text text-anchor="middle" x="521" y="-913.8" font-family="Times,serif" font-size="14.00">Prosumer</text>
<polyline fill="none" stroke="black" points="437,-906 605,-906 "/>
<text text-anchor="start" x="445" y="-890.8" font-family="Times,serif" font-size="14.00">id :integer</text>
<text text-anchor="start" x="445" y="-875.8" font-family="Times,serif" font-size="14.00">name :string</text>
<text text-anchor="start" x="445" y="-860.8" font-family="Times,serif" font-size="14.00">location :string</text>
<text text-anchor="start" x="445" y="-845.8" font-family="Times,serif" font-size="14.00">created_at :datetime</text>
<text text-anchor="start" x="445" y="-830.8" font-family="Times,serif" font-size="14.00">updated_at :datetime</text>
<text text-anchor="start" x="445" y="-815.8" font-family="Times,serif" font-size="14.00">cluster_id :integer</text>
<text text-anchor="start" x="445" y="-800.8" font-family="Times,serif" font-size="14.00">intelen_id :integer</text>
<text text-anchor="start" x="445" y="-785.8" font-family="Times,serif" font-size="14.00">building_type_id :integer</text>
<text text-anchor="start" x="445" y="-770.8" font-family="Times,serif" font-size="14.00">connection_type_id :integer</text>
<text text-anchor="start" x="445" y="-755.8" font-family="Times,serif" font-size="14.00">location_x :float</text>
<text text-anchor="start" x="445" y="-740.8" font-family="Times,serif" font-size="14.00">location_y :float</text>
</g>
<!-- TempCluster&#45;&gt;Prosumer -->
<g id="edge2" class="edge"><title>TempCluster&#45;&gt;Prosumer</title>
<path fill="none" stroke="#f015d1" d="M423.325,-958.326C428.551,-951.567 433.94,-944.598 439.374,-937.569"/>
<polygon fill="#f015d1" stroke="#f015d1" points="423.141,-958.564 413.464,-963.723 420.083,-962.52 417.024,-966.475 417.024,-966.475 417.024,-966.475 420.083,-962.52 420.584,-969.228 423.141,-958.564 423.141,-958.564"/>
<polygon fill="#f015d1" stroke="#f015d1" points="439.652,-937.21 449.329,-932.051 442.711,-933.254 445.769,-929.299 445.769,-929.299 445.769,-929.299 442.711,-933.254 442.209,-926.546 439.652,-937.21 439.652,-937.21"/>
</g>
<!-- IntraDayEnergyPrice -->
<g id="node8" class="node"><title>IntraDayEnergyPrice</title>
<path fill="none" stroke="black" d="M923.5,-1147.5C923.5,-1147.5 1030.5,-1147.5 1030.5,-1147.5 1036.5,-1147.5 1042.5,-1153.5 1042.5,-1159.5 1042.5,-1159.5 1042.5,-1286.5 1042.5,-1286.5 1042.5,-1292.5 1036.5,-1298.5 1030.5,-1298.5 1030.5,-1298.5 923.5,-1298.5 923.5,-1298.5 917.5,-1298.5 911.5,-1292.5 911.5,-1286.5 911.5,-1286.5 911.5,-1159.5 911.5,-1159.5 911.5,-1153.5 917.5,-1147.5 923.5,-1147.5"/>
<text text-anchor="middle" x="977" y="-1283.3" font-family="Times,serif" font-size="14.00">IntraDayEnergyPrice</text>
<polyline fill="none" stroke="black" points="911.5,-1275.5 1042.5,-1275.5 "/>
<text text-anchor="start" x="919.5" y="-1260.3" font-family="Times,serif" font-size="14.00">id :integer</text>
<text text-anchor="start" x="919.5" y="-1245.3" font-family="Times,serif" font-size="14.00">date :datetime</text>
<text text-anchor="start" x="919.5" y="-1230.3" font-family="Times,serif" font-size="14.00">dayhour :integer</text>
<text text-anchor="start" x="919.5" y="-1215.3" font-family="Times,serif" font-size="14.00">price :float</text>
<text text-anchor="start" x="919.5" y="-1200.3" font-family="Times,serif" font-size="14.00">interval_id :integer</text>
<text text-anchor="start" x="919.5" y="-1185.3" font-family="Times,serif" font-size="14.00">market_id :integer</text>
<text text-anchor="start" x="919.5" y="-1170.3" font-family="Times,serif" font-size="14.00">created_at :datetime</text>
<text text-anchor="start" x="919.5" y="-1155.3" font-family="Times,serif" font-size="14.00">updated_at :datetime</text>
</g>
<!-- Meter -->
<g id="node9" class="node"><title>Meter</title>
<path fill="none" stroke="black" d="M1072.5,-1170C1072.5,-1170 1179.5,-1170 1179.5,-1170 1185.5,-1170 1191.5,-1176 1191.5,-1182 1191.5,-1182 1191.5,-1264 1191.5,-1264 1191.5,-1270 1185.5,-1276 1179.5,-1276 1179.5,-1276 1072.5,-1276 1072.5,-1276 1066.5,-1276 1060.5,-1270 1060.5,-1264 1060.5,-1264 1060.5,-1182 1060.5,-1182 1060.5,-1176 1066.5,-1170 1072.5,-1170"/>
<text text-anchor="middle" x="1126" y="-1260.8" font-family="Times,serif" font-size="14.00">Meter</text>
<polyline fill="none" stroke="black" points="1060.5,-1253 1191.5,-1253 "/>
<text text-anchor="start" x="1068.5" y="-1237.8" font-family="Times,serif" font-size="14.00">id :integer</text>
<text text-anchor="start" x="1068.5" y="-1222.8" font-family="Times,serif" font-size="14.00">mac :string</text>
<text text-anchor="start" x="1068.5" y="-1207.8" font-family="Times,serif" font-size="14.00">prosumer_id :integer</text>
<text text-anchor="start" x="1068.5" y="-1192.8" font-family="Times,serif" font-size="14.00">created_at :datetime</text>
<text text-anchor="start" x="1068.5" y="-1177.8" font-family="Times,serif" font-size="14.00">updated_at :datetime</text>
</g>
<!-- Role -->
<g id="node10" class="node"><title>Role</title>
<path fill="none" stroke="black" d="M697.5,-272.5C697.5,-272.5 804.5,-272.5 804.5,-272.5 810.5,-272.5 816.5,-278.5 816.5,-284.5 816.5,-284.5 816.5,-381.5 816.5,-381.5 816.5,-387.5 810.5,-393.5 804.5,-393.5 804.5,-393.5 697.5,-393.5 697.5,-393.5 691.5,-393.5 685.5,-387.5 685.5,-381.5 685.5,-381.5 685.5,-284.5 685.5,-284.5 685.5,-278.5 691.5,-272.5 697.5,-272.5"/>
<text text-anchor="middle" x="751" y="-378.3" font-family="Times,serif" font-size="14.00">Role</text>
<polyline fill="none" stroke="black" points="685.5,-370.5 816.5,-370.5 "/>
<text text-anchor="start" x="693.5" y="-355.3" font-family="Times,serif" font-size="14.00">id :integer</text>
<text text-anchor="start" x="693.5" y="-340.3" font-family="Times,serif" font-size="14.00">name :string</text>
<text text-anchor="start" x="693.5" y="-325.3" font-family="Times,serif" font-size="14.00">resource_id :integer</text>
<text text-anchor="start" x="693.5" y="-310.3" font-family="Times,serif" font-size="14.00">resource_type :string</text>
<text text-anchor="start" x="693.5" y="-295.3" font-family="Times,serif" font-size="14.00">created_at :datetime</text>
<text text-anchor="start" x="693.5" y="-280.3" font-family="Times,serif" font-size="14.00">updated_at :datetime</text>
</g>
<!-- User -->
<g id="node21" class="node"><title>User</title>
<path fill="none" stroke="black" d="M592,-1C592,-1 768,-1 768,-1 774,-1 780,-7 780,-13 780,-13 780,-215 780,-215 780,-221 774,-227 768,-227 768,-227 592,-227 592,-227 586,-227 580,-221 580,-215 580,-215 580,-13 580,-13 580,-7 586,-1 592,-1"/>
<text text-anchor="middle" x="680" y="-211.8" font-family="Times,serif" font-size="14.00">User</text>
<polyline fill="none" stroke="black" points="580,-204 780,-204 "/>
<text text-anchor="start" x="588" y="-188.8" font-family="Times,serif" font-size="14.00">id :integer</text>
<text text-anchor="start" x="588" y="-173.8" font-family="Times,serif" font-size="14.00">email :string</text>
<text text-anchor="start" x="588" y="-158.8" font-family="Times,serif" font-size="14.00">encrypted_password :string</text>
<text text-anchor="start" x="588" y="-143.8" font-family="Times,serif" font-size="14.00">reset_password_token :string</text>
<text text-anchor="start" x="588" y="-128.8" font-family="Times,serif" font-size="14.00">reset_password_sent_at :datetime</text>
<text text-anchor="start" x="588" y="-113.8" font-family="Times,serif" font-size="14.00">remember_created_at :datetime</text>
<text text-anchor="start" x="588" y="-98.8" font-family="Times,serif" font-size="14.00">sign_in_count :integer</text>
<text text-anchor="start" x="588" y="-83.8" font-family="Times,serif" font-size="14.00">current_sign_in_at :datetime</text>
<text text-anchor="start" x="588" y="-68.8" font-family="Times,serif" font-size="14.00">last_sign_in_at :datetime</text>
<text text-anchor="start" x="588" y="-53.8" font-family="Times,serif" font-size="14.00">current_sign_in_ip :inet</text>
<text text-anchor="start" x="588" y="-38.8" font-family="Times,serif" font-size="14.00">last_sign_in_ip :inet</text>
<text text-anchor="start" x="588" y="-23.8" font-family="Times,serif" font-size="14.00">created_at :datetime</text>
<text text-anchor="start" x="588" y="-8.8" font-family="Times,serif" font-size="14.00">updated_at :datetime</text>
</g>
<!-- Role&#45;&gt;User -->
<g id="edge3" class="edge"><title>Role&#45;&gt;User</title>
<path fill="none" stroke="#a73ae9" d="M728.315,-262.667C725.599,-254.366 722.768,-245.712 719.897,-236.939"/>
<polygon fill="#a73ae9" stroke="#a73ae9" points="728.395,-262.913 727.228,-273.816 729.95,-267.665 731.505,-272.417 731.505,-272.417 731.505,-272.417 729.95,-267.665 735.782,-271.017 728.395,-262.913 728.395,-262.913"/>
<polygon fill="#a73ae9" stroke="#a73ae9" points="719.88,-236.887 721.047,-225.984 718.325,-232.135 716.771,-227.383 716.771,-227.383 716.771,-227.383 718.325,-232.135 712.494,-228.783 719.88,-236.887 719.88,-236.887"/>
</g>
<!-- Instance -->
<g id="node11" class="node"><title>Instance</title>
<path fill="none" stroke="black" d="M1222,-1125C1222,-1125 1374,-1125 1374,-1125 1380,-1125 1386,-1131 1386,-1137 1386,-1137 1386,-1309 1386,-1309 1386,-1315 1380,-1321 1374,-1321 1374,-1321 1222,-1321 1222,-1321 1216,-1321 1210,-1315 1210,-1309 1210,-1309 1210,-1137 1210,-1137 1210,-1131 1216,-1125 1222,-1125"/>
<text text-anchor="middle" x="1298" y="-1305.8" font-family="Times,serif" font-size="14.00">Instance</text>
<polyline fill="none" stroke="black" points="1210,-1298 1386,-1298 "/>
<text text-anchor="start" x="1218" y="-1282.8" font-family="Times,serif" font-size="14.00">id :integer</text>
<text text-anchor="start" x="1218" y="-1267.8" font-family="Times,serif" font-size="14.00">user_id :integer</text>
<text text-anchor="start" x="1218" y="-1252.8" font-family="Times,serif" font-size="14.00">configuration_id :integer</text>
<text text-anchor="start" x="1218" y="-1237.8" font-family="Times,serif" font-size="14.00">results :string</text>
<text text-anchor="start" x="1218" y="-1222.8" font-family="Times,serif" font-size="14.00">status :string</text>
<text text-anchor="start" x="1218" y="-1207.8" font-family="Times,serif" font-size="14.00">reason :string</text>
<text text-anchor="start" x="1218" y="-1192.8" font-family="Times,serif" font-size="14.00">instance_name :string</text>
<text text-anchor="start" x="1218" y="-1177.8" font-family="Times,serif" font-size="14.00">worker :string</text>
<text text-anchor="start" x="1218" y="-1162.8" font-family="Times,serif" font-size="14.00">created_at :datetime</text>
<text text-anchor="start" x="1218" y="-1147.8" font-family="Times,serif" font-size="14.00">updated_at :datetime</text>
<text text-anchor="start" x="1218" y="-1132.8" font-family="Times,serif" font-size="14.00">total_execution_time :integer</text>
</g>
<!-- EnergyTypeProsumer -->
<g id="node12" class="node"><title>EnergyTypeProsumer</title>
<path fill="none" stroke="black" d="M280,-272.5C280,-272.5 402,-272.5 402,-272.5 408,-272.5 414,-278.5 414,-284.5 414,-284.5 414,-381.5 414,-381.5 414,-387.5 408,-393.5 402,-393.5 402,-393.5 280,-393.5 280,-393.5 274,-393.5 268,-387.5 268,-381.5 268,-381.5 268,-284.5 268,-284.5 268,-278.5 274,-272.5 280,-272.5"/>
<text text-anchor="middle" x="341" y="-378.3" font-family="Times,serif" font-size="14.00">EnergyTypeProsumer</text>
<polyline fill="none" stroke="black" points="268,-370.5 414,-370.5 "/>
<text text-anchor="start" x="276" y="-355.3" font-family="Times,serif" font-size="14.00">id :integer</text>
<text text-anchor="start" x="276" y="-340.3" font-family="Times,serif" font-size="14.00">power :float</text>
<text text-anchor="start" x="276" y="-325.3" font-family="Times,serif" font-size="14.00">energy_type_id :integer</text>
<text text-anchor="start" x="276" y="-310.3" font-family="Times,serif" font-size="14.00">prosumer_id :integer</text>
<text text-anchor="start" x="276" y="-295.3" font-family="Times,serif" font-size="14.00">created_at :datetime</text>
<text text-anchor="start" x="276" y="-280.3" font-family="Times,serif" font-size="14.00">updated_at :datetime</text>
</g>
<!-- Prosumer&#45;&gt;Role -->
<g id="edge7" class="edge"><title>Prosumer&#45;&gt;Role</title>
<path fill="none" stroke="#066afb" d="M612.984,-808.206C671.317,-789.106 742.295,-754.884 778,-696 832.29,-606.467 804.739,-480.673 778.71,-403.396"/>
<ellipse fill="none" stroke="#066afb" cx="609.019" cy="-809.471" rx="4.00001" ry="4.00001"/>
<polygon fill="#066afb" stroke="#066afb" points="778.645,-403.208 779.639,-392.287 777.015,-398.481 775.385,-393.754 775.385,-393.754 775.385,-393.754 777.015,-398.481 771.131,-395.221 778.645,-403.208 778.645,-403.208"/>
</g>
<!-- Prosumer&#45;&gt;EnergyTypeProsumer -->
<g id="edge9" class="edge"><title>Prosumer&#45;&gt;EnergyTypeProsumer</title>
<path fill="none" stroke="#026a71" d="M454.455,-725.495C449.765,-715.743 445.513,-705.828 442,-696 402.947,-586.733 440.931,-547.311 402,-438 397.789,-426.175 392.203,-414.183 386.118,-402.751"/>
<ellipse fill="none" stroke="#026a71" cx="456.349" cy="-729.329" rx="4.00002" ry="4.00002"/>
<polygon fill="#026a71" stroke="#026a71" points="385.968,-402.479 385.09,-391.548 383.558,-398.098 381.147,-393.717 381.147,-393.717 381.147,-393.717 383.558,-398.098 377.205,-395.886 385.968,-402.479 385.968,-402.479"/>
</g>
<!-- Measurement -->
<g id="node15" class="node"><title>Measurement</title>
<path fill="none" stroke="black" d="M650.5,-506.5C650.5,-506.5 757.5,-506.5 757.5,-506.5 763.5,-506.5 769.5,-512.5 769.5,-518.5 769.5,-518.5 769.5,-615.5 769.5,-615.5 769.5,-621.5 763.5,-627.5 757.5,-627.5 757.5,-627.5 650.5,-627.5 650.5,-627.5 644.5,-627.5 638.5,-621.5 638.5,-615.5 638.5,-615.5 638.5,-518.5 638.5,-518.5 638.5,-512.5 644.5,-506.5 650.5,-506.5"/>
<text text-anchor="middle" x="704" y="-612.3" font-family="Times,serif" font-size="14.00">Measurement</text>
<polyline fill="none" stroke="black" points="638.5,-604.5 769.5,-604.5 "/>
<text text-anchor="start" x="646.5" y="-589.3" font-family="Times,serif" font-size="14.00">id :integer</text>
<text text-anchor="start" x="646.5" y="-574.3" font-family="Times,serif" font-size="14.00">timeslot :datetime</text>
<text text-anchor="start" x="646.5" y="-559.3" font-family="Times,serif" font-size="14.00">power :float</text>
<text text-anchor="start" x="646.5" y="-544.3" font-family="Times,serif" font-size="14.00">prosumer_id :integer</text>
<text text-anchor="start" x="646.5" y="-529.3" font-family="Times,serif" font-size="14.00">created_at :datetime</text>
<text text-anchor="start" x="646.5" y="-514.3" font-family="Times,serif" font-size="14.00">updated_at :datetime</text>
</g>
<!-- Prosumer&#45;&gt;Measurement -->
<g id="edge4" class="edge"><title>Prosumer&#45;&gt;Measurement</title>
<path fill="none" stroke="#b5aa86" d="M602.392,-726.131C609.827,-716.043 617.136,-705.885 624,-696 637.216,-676.969 650.845,-655.815 663.027,-636.275"/>
<ellipse fill="none" stroke="#b5aa86" cx="599.873" cy="-729.533" rx="4.00002" ry="4.00002"/>
<polygon fill="#b5aa86" stroke="#b5aa86" points="663.063,-636.217 672.157,-630.09 665.698,-631.967 668.333,-627.718 668.333,-627.718 668.333,-627.718 665.698,-631.967 664.509,-625.347 663.063,-636.217 663.063,-636.217"/>
</g>
<!-- EnergyType -->
<g id="node17" class="node"><title>EnergyType</title>
<path fill="none" stroke="black" d="M274.5,-521.5C274.5,-521.5 381.5,-521.5 381.5,-521.5 387.5,-521.5 393.5,-527.5 393.5,-533.5 393.5,-533.5 393.5,-600.5 393.5,-600.5 393.5,-606.5 387.5,-612.5 381.5,-612.5 381.5,-612.5 274.5,-612.5 274.5,-612.5 268.5,-612.5 262.5,-606.5 262.5,-600.5 262.5,-600.5 262.5,-533.5 262.5,-533.5 262.5,-527.5 268.5,-521.5 274.5,-521.5"/>
<text text-anchor="middle" x="328" y="-597.3" font-family="Times,serif" font-size="14.00">EnergyType</text>
<polyline fill="none" stroke="black" points="262.5,-589.5 393.5,-589.5 "/>
<text text-anchor="start" x="270.5" y="-574.3" font-family="Times,serif" font-size="14.00">id :integer</text>
<text text-anchor="start" x="270.5" y="-559.3" font-family="Times,serif" font-size="14.00">name :string</text>
<text text-anchor="start" x="270.5" y="-544.3" font-family="Times,serif" font-size="14.00">created_at :datetime</text>
<text text-anchor="start" x="270.5" y="-529.3" font-family="Times,serif" font-size="14.00">updated_at :datetime</text>
</g>
<!-- Prosumer&#45;&gt;EnergyType -->
<g id="edge10" class="edge"><title>Prosumer&#45;&gt;EnergyType</title>
<path fill="none" stroke="#621dfd" d="M430.632,-725.692C422.795,-715.798 415.14,-705.801 408,-696 390.692,-672.241 373.192,-644.728 358.992,-621.313"/>
<polygon fill="#621dfd" stroke="#621dfd" points="430.707,-725.786 433.434,-736.407 433.829,-729.692 436.95,-733.598 436.95,-733.598 436.95,-733.598 433.829,-729.692 440.465,-730.789 430.707,-725.786 430.707,-725.786"/>
<polygon fill="#621dfd" stroke="#621dfd" points="358.877,-621.122 357.574,-610.234 356.298,-616.839 353.719,-612.556 353.719,-612.556 353.719,-612.556 356.298,-616.839 349.864,-614.877 358.877,-621.122 358.877,-621.122"/>
</g>
<!-- DayAhead -->
<g id="node19" class="node"><title>DayAhead</title>
<path fill="none" stroke="black" d="M462.5,-514C462.5,-514 569.5,-514 569.5,-514 575.5,-514 581.5,-520 581.5,-526 581.5,-526 581.5,-608 581.5,-608 581.5,-614 575.5,-620 569.5,-620 569.5,-620 462.5,-620 462.5,-620 456.5,-620 450.5,-614 450.5,-608 450.5,-608 450.5,-526 450.5,-526 450.5,-520 456.5,-514 462.5,-514"/>
<text text-anchor="middle" x="516" y="-604.8" font-family="Times,serif" font-size="14.00">DayAhead</text>
<polyline fill="none" stroke="black" points="450.5,-597 581.5,-597 "/>
<text text-anchor="start" x="458.5" y="-581.8" font-family="Times,serif" font-size="14.00">id :integer</text>
<text text-anchor="start" x="458.5" y="-566.8" font-family="Times,serif" font-size="14.00">prosumer_id :integer</text>
<text text-anchor="start" x="458.5" y="-551.8" font-family="Times,serif" font-size="14.00">date :date</text>
<text text-anchor="start" x="458.5" y="-536.8" font-family="Times,serif" font-size="14.00">created_at :datetime</text>
<text text-anchor="start" x="458.5" y="-521.8" font-family="Times,serif" font-size="14.00">updated_at :datetime</text>
</g>
<!-- Prosumer&#45;&gt;DayAhead -->
<g id="edge6" class="edge"><title>Prosumer&#45;&gt;DayAhead</title>
<path fill="none" stroke="#b52ac5" d="M518.991,-724.709C518.38,-692.696 517.728,-658.551 517.19,-630.333"/>
<ellipse fill="none" stroke="#b52ac5" cx="519.069" cy="-728.814" rx="4" ry="4"/>
<polygon fill="#b52ac5" stroke="#b52ac5" points="517.187,-630.218 521.496,-620.133 517.092,-625.218 516.997,-620.219 516.997,-620.219 516.997,-620.219 517.092,-625.218 512.497,-620.305 517.187,-630.218 517.187,-630.218"/>
</g>
<!-- Prosumer&#45;&gt;DataPoint -->
<g id="edge5" class="edge"><title>Prosumer&#45;&gt;DataPoint</title>
<path fill="none" stroke="#4f3261" d="M429.133,-798.483C373.813,-776.178 304.541,-742.026 254,-696 253.046,-695.132 252.1,-694.249 251.16,-693.354"/>
<ellipse fill="none" stroke="#4f3261" cx="433.126" cy="-800.072" rx="4.00001" ry="4.00001"/>
<polygon fill="#4f3261" stroke="#4f3261" points="251.148,-693.342 247.293,-683.076 247.625,-689.794 244.101,-686.247 244.101,-686.247 244.101,-686.247 247.625,-689.794 240.908,-689.419 251.148,-693.342 251.148,-693.342"/>
</g>
<!-- Prosumer&#45;&gt;User -->
<g id="edge8" class="edge"><title>Prosumer&#45;&gt;User</title>
<path fill="none" stroke="#64067f" d="M579.716,-723.327C583.555,-714.231 587.055,-705.049 590,-696 590.111,-695.658 634.701,-407.654 661.067,-237.32"/>
<polygon fill="#64067f" stroke="#64067f" points="579.598,-723.597 571.477,-730.965 577.6,-728.18 575.602,-732.764 575.602,-732.764 575.602,-732.764 577.6,-728.18 579.727,-734.562 579.598,-723.597 579.598,-723.597"/>
<polygon fill="#64067f" stroke="#64067f" points="661.091,-237.166 667.068,-227.972 661.856,-232.225 662.621,-227.284 662.621,-227.284 662.621,-227.284 661.856,-232.225 658.174,-226.596 661.091,-237.166 661.091,-237.166"/>
</g>
<!-- Cluster -->
<g id="node14" class="node"><title>Cluster</title>
<path fill="none" stroke="black" d="M771.5,-974C771.5,-974 878.5,-974 878.5,-974 884.5,-974 890.5,-980 890.5,-986 890.5,-986 890.5,-1068 890.5,-1068 890.5,-1074 884.5,-1080 878.5,-1080 878.5,-1080 771.5,-1080 771.5,-1080 765.5,-1080 759.5,-1074 759.5,-1068 759.5,-1068 759.5,-986 759.5,-986 759.5,-980 765.5,-974 771.5,-974"/>
<text text-anchor="middle" x="825" y="-1064.8" font-family="Times,serif" font-size="14.00">Cluster</text>
<polyline fill="none" stroke="black" points="759.5,-1057 890.5,-1057 "/>
<text text-anchor="start" x="767.5" y="-1041.8" font-family="Times,serif" font-size="14.00">id :integer</text>
<text text-anchor="start" x="767.5" y="-1026.8" font-family="Times,serif" font-size="14.00">name :string</text>
<text text-anchor="start" x="767.5" y="-1011.8" font-family="Times,serif" font-size="14.00">description :text</text>
<text text-anchor="start" x="767.5" y="-996.8" font-family="Times,serif" font-size="14.00">created_at :datetime</text>
<text text-anchor="start" x="767.5" y="-981.8" font-family="Times,serif" font-size="14.00">updated_at :datetime</text>
</g>
<!-- Cluster&#45;&gt;Role -->
<g id="edge12" class="edge"><title>Cluster&#45;&gt;Role</title>
<path fill="none" stroke="#b2194d" d="M832.135,-965.526C842.924,-857.455 857.196,-624.981 807,-438 803.812,-426.123 799.044,-414.103 793.612,-402.66"/>
<ellipse fill="none" stroke="#b2194d" cx="831.706" cy="-969.737" rx="4" ry="4"/>
<polygon fill="#b2194d" stroke="#b2194d" points="793.572,-402.579 793.162,-391.621 791.351,-398.099 789.131,-393.62 789.131,-393.62 789.131,-393.62 791.351,-398.099 785.099,-395.618 793.572,-402.579 793.572,-402.579"/>
</g>
<!-- Cluster&#45;&gt;Prosumer -->
<g id="edge11" class="edge"><title>Cluster&#45;&gt;Prosumer</title>
<path fill="none" stroke="#412da1" d="M752.435,-971.732C749.601,-969.777 746.782,-967.86 744,-966 702.109,-937.993 654.378,-908.948 613.853,-885.088"/>
<ellipse fill="none" stroke="#412da1" cx="755.785" cy="-974.067" rx="4.00002" ry="4.00002"/>
<polygon fill="#412da1" stroke="#412da1" points="613.678,-884.985 607.333,-876.042 609.366,-882.454 605.054,-879.922 605.054,-879.922 605.054,-879.922 609.366,-882.454 602.776,-883.803 613.678,-884.985 613.678,-884.985"/>
</g>
<!-- Measurement&#45;&gt;Role -->
<g id="edge13" class="edge"><title>Measurement&#45;&gt;Role</title>
<path fill="none" stroke="#ee73f1" d="M717.694,-498.403C723.735,-468.583 730.83,-433.563 736.915,-403.525"/>
<ellipse fill="none" stroke="#ee73f1" cx="716.898" cy="-502.334" rx="4.00001" ry="4.00001"/>
<polygon fill="#ee73f1" stroke="#ee73f1" points="736.952,-403.344 743.348,-394.437 737.945,-398.444 738.937,-393.543 738.937,-393.543 738.937,-393.543 737.945,-398.444 734.527,-392.65 736.952,-403.344 736.952,-403.344"/>
</g>
<!-- ConnectionType -->
<g id="node16" class="node"><title>ConnectionType</title>
<path fill="none" stroke="black" d="M467.5,-981.5C467.5,-981.5 574.5,-981.5 574.5,-981.5 580.5,-981.5 586.5,-987.5 586.5,-993.5 586.5,-993.5 586.5,-1060.5 586.5,-1060.5 586.5,-1066.5 580.5,-1072.5 574.5,-1072.5 574.5,-1072.5 467.5,-1072.5 467.5,-1072.5 461.5,-1072.5 455.5,-1066.5 455.5,-1060.5 455.5,-1060.5 455.5,-993.5 455.5,-993.5 455.5,-987.5 461.5,-981.5 467.5,-981.5"/>
<text text-anchor="middle" x="521" y="-1057.3" font-family="Times,serif" font-size="14.00">ConnectionType</text>
<polyline fill="none" stroke="black" points="455.5,-1049.5 586.5,-1049.5 "/>
<text text-anchor="start" x="463.5" y="-1034.3" font-family="Times,serif" font-size="14.00">id :integer</text>
<text text-anchor="start" x="463.5" y="-1019.3" font-family="Times,serif" font-size="14.00">name :string</text>
<text text-anchor="start" x="463.5" y="-1004.3" font-family="Times,serif" font-size="14.00">created_at :datetime</text>
<text text-anchor="start" x="463.5" y="-989.3" font-family="Times,serif" font-size="14.00">updated_at :datetime</text>
</g>
<!-- ConnectionType&#45;&gt;Prosumer -->
<g id="edge14" class="edge"><title>ConnectionType&#45;&gt;Prosumer</title>
<path fill="none" stroke="#3bc68b" d="M521,-973.199C521,-962.642 521,-951.196 521,-939.545"/>
<ellipse fill="none" stroke="#3bc68b" cx="521" cy="-977.492" rx="4" ry="4"/>
<polygon fill="#3bc68b" stroke="#3bc68b" points="521,-939.271 525.5,-929.271 521,-934.271 521,-929.271 521,-929.271 521,-929.271 521,-934.271 516.5,-929.271 521,-939.271 521,-939.271"/>
</g>
<!-- EnergyType&#45;&gt;EnergyTypeProsumer -->
<g id="edge15" class="edge"><title>EnergyType&#45;&gt;EnergyTypeProsumer</title>
<path fill="none" stroke="#bdc99c" d="M330.973,-512.936C332.789,-480.533 335.131,-438.735 337.095,-403.686"/>
<ellipse fill="none" stroke="#bdc99c" cx="330.73" cy="-517.274" rx="4" ry="4"/>
<polygon fill="#bdc99c" stroke="#bdc99c" points="337.105,-403.504 342.158,-393.772 337.385,-398.512 337.665,-393.52 337.665,-393.52 337.665,-393.52 337.385,-398.512 333.172,-393.268 337.105,-403.504 337.105,-403.504"/>
</g>
<!-- DayAheadHour -->
<g id="node18" class="node"><title>DayAheadHour</title>
<path fill="none" stroke="black" d="M456.5,-265C456.5,-265 569.5,-265 569.5,-265 575.5,-265 581.5,-271 581.5,-277 581.5,-277 581.5,-389 581.5,-389 581.5,-395 575.5,-401 569.5,-401 569.5,-401 456.5,-401 456.5,-401 450.5,-401 444.5,-395 444.5,-389 444.5,-389 444.5,-277 444.5,-277 444.5,-271 450.5,-265 456.5,-265"/>
<text text-anchor="middle" x="513" y="-385.8" font-family="Times,serif" font-size="14.00">DayAheadHour</text>
<polyline fill="none" stroke="black" points="444.5,-378 581.5,-378 "/>
<text text-anchor="start" x="452.5" y="-362.8" font-family="Times,serif" font-size="14.00">id :integer</text>
<text text-anchor="start" x="452.5" y="-347.8" font-family="Times,serif" font-size="14.00">day_ahead_id :integer</text>
<text text-anchor="start" x="452.5" y="-332.8" font-family="Times,serif" font-size="14.00">time :integer</text>
<text text-anchor="start" x="452.5" y="-317.8" font-family="Times,serif" font-size="14.00">production :float</text>
<text text-anchor="start" x="452.5" y="-302.8" font-family="Times,serif" font-size="14.00">consumption :float</text>
<text text-anchor="start" x="452.5" y="-287.8" font-family="Times,serif" font-size="14.00">created_at :datetime</text>
<text text-anchor="start" x="452.5" y="-272.8" font-family="Times,serif" font-size="14.00">updated_at :datetime</text>
</g>
<!-- DayAhead&#45;&gt;DayAheadHour -->
<g id="edge16" class="edge"><title>DayAhead&#45;&gt;DayAheadHour</title>
<path fill="none" stroke="#b553ee" d="M515.218,-505.552C514.847,-476.835 514.399,-442.172 514.003,-411.543"/>
<ellipse fill="none" stroke="#b553ee" cx="515.275" cy="-509.935" rx="4" ry="4"/>
<polygon fill="#b553ee" stroke="#b553ee" points="514,-411.323 518.37,-401.266 513.935,-406.324 513.871,-401.324 513.871,-401.324 513.871,-401.324 513.935,-406.324 509.371,-401.383 514,-411.323 514,-411.323"/>
</g>
<!-- BuildingType -->
<g id="node22" class="node"><title>BuildingType</title>
<path fill="none" stroke="black" d="M616.5,-981.5C616.5,-981.5 723.5,-981.5 723.5,-981.5 729.5,-981.5 735.5,-987.5 735.5,-993.5 735.5,-993.5 735.5,-1060.5 735.5,-1060.5 735.5,-1066.5 729.5,-1072.5 723.5,-1072.5 723.5,-1072.5 616.5,-1072.5 616.5,-1072.5 610.5,-1072.5 604.5,-1066.5 604.5,-1060.5 604.5,-1060.5 604.5,-993.5 604.5,-993.5 604.5,-987.5 610.5,-981.5 616.5,-981.5"/>
<text text-anchor="middle" x="670" y="-1057.3" font-family="Times,serif" font-size="14.00">BuildingType</text>
<polyline fill="none" stroke="black" points="604.5,-1049.5 735.5,-1049.5 "/>
<text text-anchor="start" x="612.5" y="-1034.3" font-family="Times,serif" font-size="14.00">id :integer</text>
<text text-anchor="start" x="612.5" y="-1019.3" font-family="Times,serif" font-size="14.00">name :string</text>
<text text-anchor="start" x="612.5" y="-1004.3" font-family="Times,serif" font-size="14.00">created_at :datetime</text>
<text text-anchor="start" x="612.5" y="-989.3" font-family="Times,serif" font-size="14.00">updated_at :datetime</text>
</g>
<!-- BuildingType&#45;&gt;Prosumer -->
<g id="edge17" class="edge"><title>BuildingType&#45;&gt;Prosumer</title>
<path fill="none" stroke="#bdf800" d="M630.922,-975.12C621.927,-963.408 612.033,-950.526 601.981,-937.438"/>
<ellipse fill="none" stroke="#bdf800" cx="633.38" cy="-978.32" rx="4.00002" ry="4.00002"/>
<polygon fill="#bdf800" stroke="#bdf800" points="601.799,-937.202 599.277,-926.53 598.754,-933.236 595.708,-929.271 595.708,-929.271 595.708,-929.271 598.754,-933.236 592.139,-932.012 601.799,-937.202 601.799,-937.202"/>
</g>
<!-- Clustering -->
<g id="node23" class="node"><title>Clustering</title>
<path fill="none" stroke="black" d="M317.5,-1170C317.5,-1170 424.5,-1170 424.5,-1170 430.5,-1170 436.5,-1176 436.5,-1182 436.5,-1182 436.5,-1264 436.5,-1264 436.5,-1270 430.5,-1276 424.5,-1276 424.5,-1276 317.5,-1276 317.5,-1276 311.5,-1276 305.5,-1270 305.5,-1264 305.5,-1264 305.5,-1182 305.5,-1182 305.5,-1176 311.5,-1170 317.5,-1170"/>
<text text-anchor="middle" x="371" y="-1260.8" font-family="Times,serif" font-size="14.00">Clustering</text>
<polyline fill="none" stroke="black" points="305.5,-1253 436.5,-1253 "/>
<text text-anchor="start" x="313.5" y="-1237.8" font-family="Times,serif" font-size="14.00">id :integer</text>
<text text-anchor="start" x="313.5" y="-1222.8" font-family="Times,serif" font-size="14.00">name :string</text>
<text text-anchor="start" x="313.5" y="-1207.8" font-family="Times,serif" font-size="14.00">description :text</text>
<text text-anchor="start" x="313.5" y="-1192.8" font-family="Times,serif" font-size="14.00">created_at :datetime</text>
<text text-anchor="start" x="313.5" y="-1177.8" font-family="Times,serif" font-size="14.00">updated_at :datetime</text>
</g>
<!-- Clustering&#45;&gt;TempCluster -->
<g id="edge18" class="edge"><title>Clustering&#45;&gt;TempCluster</title>
<path fill="none" stroke="#d7d69e" d="M371,-1161.57C371,-1141.3 371,-1118.55 371,-1097.64"/>
<ellipse fill="none" stroke="#d7d69e" cx="371" cy="-1165.76" rx="4" ry="4"/>
<polygon fill="#d7d69e" stroke="#d7d69e" points="371,-1097.54 375.5,-1087.54 371,-1092.54 371,-1087.54 371,-1087.54 371,-1087.54 371,-1092.54 366.5,-1087.54 371,-1097.54 371,-1097.54"/>
</g>
</g>
</svg>
