<?xml version="1.0" encoding="UTF-8" standalone="no"?>
<!DOCTYPE svg PUBLIC "-//W3C//DTD SVG 1.1//EN"
 "http://www.w3.org/Graphics/SVG/1.1/DTD/svg11.dtd">
<!-- Generated by graphviz version 2.36.0 (20140111.2315)
 -->
<!-- Title: models_diagram Pages: 1 -->
<svg width="1608pt" height="446pt"
 viewBox="0.00 0.00 1608.00 446.00" xmlns="http://www.w3.org/2000/svg" xmlns:xlink="http://www.w3.org/1999/xlink">
<g id="graph0" class="graph" transform="scale(1 1) rotate(0) translate(4 442)">
<title>models_diagram</title>
<polygon fill="white" stroke="none" points="-4,4 -4,-442 1604,-442 1604,4 -4,4"/>
<!-- _diagram_info -->
<g id="node1" class="node"><title>_diagram_info</title>
<text text-anchor="start" x="8" y="-423.6" font-family="Times,serif" font-size="13.00">Models diagram</text>
<text text-anchor="start" x="8" y="-409.6" font-family="Times,serif" font-size="13.00">Date: Mar 30 2015 &#45; 18:22</text>
<text text-anchor="start" x="8" y="-395.6" font-family="Times,serif" font-size="13.00">Migration version: 20150204132935</text>
<text text-anchor="start" x="8" y="-381.6" font-family="Times,serif" font-size="13.00">Generated by RailRoady 1.3.0</text>
<text text-anchor="start" x="8" y="-367.6" font-family="Times,serif" font-size="13.00">http://railroady.prestonlee.com</text>
</g>
<!-- Ability -->
<g id="node2" class="node"><title>Ability</title>
<polygon fill="none" stroke="black" points="293.25,-324 238.75,-324 238.75,-288 293.25,-288 293.25,-324"/>
<text text-anchor="middle" x="266" y="-302.3" font-family="Times,serif" font-size="14.00">Ability</text>
</g>
<!-- Interval -->
<g id="node3" class="node"><title>Interval</title>
<ellipse fill="none" stroke="black" cx="308" cy="-162" rx="38.0212" ry="18"/>
<text text-anchor="middle" x="308" y="-158.3" font-family="Times,serif" font-size="14.00">Interval</text>
</g>
<!-- DataPoint -->
<g id="node19" class="node"><title>DataPoint</title>
<ellipse fill="none" stroke="black" cx="338" cy="-90" rx="46.2191" ry="18"/>
<text text-anchor="middle" x="338" y="-86.3" font-family="Times,serif" font-size="14.00">DataPoint</text>
</g>
<!-- Interval&#45;&gt;DataPoint -->
<g id="edge2" class="edge"><title>Interval&#45;&gt;DataPoint</title>
<path fill="none" stroke="#c313f6" d="M318.53,-136.431C321.194,-130.214 324.065,-123.514 326.763,-117.22"/>
<ellipse fill="none" stroke="#c313f6" cx="316.838" cy="-140.378" rx="4.00002" ry="4.00002"/>
<polygon fill="#c313f6" stroke="#c313f6" points="326.865,-116.98 334.941,-109.562 328.835,-112.385 330.805,-107.789 330.805,-107.789 330.805,-107.789 328.835,-112.385 326.669,-106.016 326.865,-116.98 326.865,-116.98"/>
</g>
<!-- DayAheadEnergyPrice -->
<g id="node4" class="node"><title>DayAheadEnergyPrice</title>
<ellipse fill="none" stroke="black" cx="779" cy="-234" rx="91.4625" ry="18"/>
<text text-anchor="middle" x="779" y="-230.3" font-family="Times,serif" font-size="14.00">DayAheadEnergyPrice</text>
</g>
<!-- EnergyMarket -->
<g id="node5" class="node"><title>EnergyMarket</title>
<ellipse fill="none" stroke="black" cx="949" cy="-306" rx="61.6163" ry="18"/>
<text text-anchor="middle" x="949" y="-302.3" font-family="Times,serif" font-size="14.00">EnergyMarket</text>
</g>
<!-- EnergyMarket&#45;&gt;DayAheadEnergyPrice -->
<g id="edge5" class="edge"><title>EnergyMarket&#45;&gt;DayAheadEnergyPrice</title>
<path fill="none" stroke="#52ad68" d="M907.408,-287.874C882.769,-277.728 851.478,-264.844 825.954,-254.334"/>
<ellipse fill="none" stroke="#52ad68" cx="911.308" cy="-289.48" rx="4.00001" ry="4.00001"/>
<polygon fill="#52ad68" stroke="#52ad68" points="825.727,-254.24 818.193,-246.272 821.103,-252.337 816.48,-250.433 816.48,-250.433 816.48,-250.433 821.103,-252.337 814.766,-254.594 825.727,-254.24 825.727,-254.24"/>
</g>
<!-- IntraDayEnergyPrice -->
<g id="node8" class="node"><title>IntraDayEnergyPrice</title>
<ellipse fill="none" stroke="black" cx="974" cy="-234" rx="85.2138" ry="18"/>
<text text-anchor="middle" x="974" y="-230.3" font-family="Times,serif" font-size="14.00">IntraDayEnergyPrice</text>
</g>
<!-- EnergyMarket&#45;&gt;IntraDayEnergyPrice -->
<g id="edge6" class="edge"><title>EnergyMarket&#45;&gt;IntraDayEnergyPrice</title>
<path fill="none" stroke="#3c3ecc" d="M957.833,-280.267C959.95,-274.34 962.221,-267.981 964.372,-261.959"/>
<ellipse fill="none" stroke="#3c3ecc" cx="956.397" cy="-284.288" rx="4.00001" ry="4.00001"/>
<polygon fill="#3c3ecc" stroke="#3c3ecc" points="964.467,-261.693 972.068,-253.789 966.149,-256.984 967.83,-252.275 967.83,-252.275 967.83,-252.275 966.149,-256.984 963.592,-250.762 964.467,-261.693 964.467,-261.693"/>
</g>
<!-- LogInstance -->
<g id="node6" class="node"><title>LogInstance</title>
<ellipse fill="none" stroke="black" cx="1131" cy="-234" rx="53.4184" ry="18"/>
<text text-anchor="middle" x="1131" y="-230.3" font-family="Times,serif" font-size="14.00">LogInstance</text>
</g>
<!-- TempCluster -->
<g id="node7" class="node"><title>TempCluster</title>
<ellipse fill="none" stroke="black" cx="1298" cy="-234" rx="57.2927" ry="18"/>
<text text-anchor="middle" x="1298" y="-230.3" font-family="Times,serif" font-size="14.00">TempCluster</text>
</g>
<!-- Prosumer -->
<g id="node13" class="node"><title>Prosumer</title>
<ellipse fill="none" stroke="black" cx="656" cy="-162" rx="44.271" ry="18"/>
<text text-anchor="middle" x="656" y="-158.3" font-family="Times,serif" font-size="14.00">Prosumer</text>
</g>
<!-- TempCluster&#45;&gt;Prosumer -->
<g id="edge9" class="edge"><title>TempCluster&#45;&gt;Prosumer</title>
<path fill="none" stroke="#3f1aa1" d="M1245.91,-219.634C1239.57,-218.272 1233.15,-217.017 1227,-216 1038.5,-184.847 811.73,-170.617 710.002,-165.445"/>
<polygon fill="#3f1aa1" stroke="#3f1aa1" points="1246.02,-219.659 1254.79,-226.238 1250.9,-220.753 1255.78,-221.847 1255.78,-221.847 1255.78,-221.847 1250.9,-220.753 1256.76,-217.456 1246.02,-219.659 1246.02,-219.659"/>
<polygon fill="#3f1aa1" stroke="#3f1aa1" points="709.957,-165.443 700.194,-160.449 704.964,-165.193 699.97,-164.943 699.97,-164.943 699.97,-164.943 704.964,-165.193 699.745,-169.438 709.957,-165.443 709.957,-165.443"/>
</g>
<!-- Meter -->
<g id="node9" class="node"><title>Meter</title>
<ellipse fill="none" stroke="black" cx="593" cy="-90" rx="32.2457" ry="18"/>
<text text-anchor="middle" x="593" y="-86.3" font-family="Times,serif" font-size="14.00">Meter</text>
</g>
<!-- Role -->
<g id="node10" class="node"><title>Role</title>
<ellipse fill="none" stroke="black" cx="514" cy="-90" rx="26.949" ry="18"/>
<text text-anchor="middle" x="514" y="-86.3" font-family="Times,serif" font-size="14.00">Role</text>
</g>
<!-- User -->
<g id="node20" class="node"><title>User</title>
<ellipse fill="none" stroke="black" cx="514" cy="-18" rx="26.949" ry="18"/>
<text text-anchor="middle" x="514" y="-14.3" font-family="Times,serif" font-size="14.00">User</text>
</g>
<!-- Role&#45;&gt;User -->
<g id="edge13" class="edge"><title>Role&#45;&gt;User</title>
<path fill="none" stroke="#bfcc24" d="M514,-61.6651C514,-56.6867 514,-51.4906 514,-46.5072"/>
<polygon fill="#bfcc24" stroke="#bfcc24" points="514,-61.6966 509.5,-71.6966 514,-66.6966 514,-71.6966 514,-71.6966 514,-71.6966 514,-66.6966 518.5,-71.6967 514,-61.6966 514,-61.6966"/>
<polygon fill="#bfcc24" stroke="#bfcc24" points="514,-46.1043 518.5,-36.1043 514,-41.1043 514,-36.1043 514,-36.1043 514,-36.1043 514,-41.1043 509.5,-36.1044 514,-46.1043 514,-46.1043"/>
</g>
<!-- Instance -->
<g id="node11" class="node"><title>Instance</title>
<ellipse fill="none" stroke="black" cx="1145" cy="-306" rx="39.9464" ry="18"/>
<text text-anchor="middle" x="1145" y="-302.3" font-family="Times,serif" font-size="14.00">Instance</text>
</g>
<!-- Instance&#45;&gt;LogInstance -->
<g id="edge15" class="edge"><title>Instance&#45;&gt;LogInstance</title>
<path fill="none" stroke="#d075f1" d="M1140,-279.987C1138.85,-274.249 1137.62,-268.121 1136.46,-262.293"/>
<ellipse fill="none" stroke="#d075f1" cx="1140.83" cy="-284.133" rx="4.00001" ry="4.00001"/>
<polygon fill="#d075f1" stroke="#d075f1" points="1136.42,-262.081 1138.87,-251.393 1135.44,-257.178 1134.46,-252.275 1134.46,-252.275 1134.46,-252.275 1135.44,-257.178 1130.04,-253.158 1136.42,-262.081 1136.42,-262.081"/>
</g>
<!-- EnergyTypeProsumer -->
<g id="node12" class="node"><title>EnergyTypeProsumer</title>
<ellipse fill="none" stroke="black" cx="1224" cy="-18" rx="88.0886" ry="18"/>
<text text-anchor="middle" x="1224" y="-14.3" font-family="Times,serif" font-size="14.00">EnergyTypeProsumer</text>
</g>
<!-- Prosumer&#45;&gt;Meter -->
<g id="edge20" class="edge"><title>Prosumer&#45;&gt;Meter</title>
<path fill="none" stroke="#5b7838" d="M635.796,-138.551C628.779,-130.755 620.9,-122 613.833,-114.148"/>
<ellipse fill="none" stroke="#5b7838" cx="638.712" cy="-141.791" rx="4.00002" ry="4.00002"/>
<polygon fill="#5b7838" stroke="#5b7838" points="613.789,-114.099 610.444,-103.655 610.444,-110.382 607.099,-106.666 607.099,-106.666 607.099,-106.666 610.444,-110.382 603.754,-109.676 613.789,-114.099 613.789,-114.099"/>
</g>
<!-- Prosumer&#45;&gt;Role -->
<g id="edge21" class="edge"><title>Prosumer&#45;&gt;Role</title>
<path fill="none" stroke="#eadc15" d="M621.65,-144.067C598.126,-132.471 567.209,-117.23 544.545,-106.057"/>
<ellipse fill="none" stroke="#eadc15" cx="625.369" cy="-145.9" rx="4.00002" ry="4.00002"/>
<polygon fill="#eadc15" stroke="#eadc15" points="544.352,-105.962 537.372,-97.5044 539.867,-103.751 535.383,-101.541 535.383,-101.541 535.383,-101.541 539.867,-103.751 533.393,-105.577 544.352,-105.962 544.352,-105.962"/>
</g>
<!-- Prosumer&#45;&gt;EnergyTypeProsumer -->
<g id="edge23" class="edge"><title>Prosumer&#45;&gt;EnergyTypeProsumer</title>
<path fill="none" stroke="#b256da" d="M700.895,-149.776C801.398,-124.651 1044.74,-63.8156 1160.62,-34.8459"/>
<ellipse fill="none" stroke="#b256da" cx="696.711" cy="-150.822" rx="4.00001" ry="4.00001"/>
<polygon fill="#b256da" stroke="#b256da" points="1160.72,-34.8212 1171.51,-36.7614 1165.57,-33.6084 1170.42,-32.3957 1170.42,-32.3957 1170.42,-32.3957 1165.57,-33.6084 1169.33,-28.0301 1160.72,-34.8212 1160.72,-34.8212"/>
</g>
<!-- EnergyType -->
<g id="node16" class="node"><title>EnergyType</title>
<ellipse fill="none" stroke="black" cx="1224" cy="-90" rx="53.4184" ry="18"/>
<text text-anchor="middle" x="1224" y="-86.3" font-family="Times,serif" font-size="14.00">EnergyType</text>
</g>
<!-- Prosumer&#45;&gt;EnergyType -->
<g id="edge24" class="edge"><title>Prosumer&#45;&gt;EnergyType</title>
<path fill="none" stroke="#6c15b8" d="M707.849,-154.61C813.431,-141.598 1052.81,-112.097 1164.52,-98.3306"/>
<polygon fill="#6c15b8" stroke="#6c15b8" points="707.691,-154.63 697.216,-151.387 702.729,-155.241 697.766,-155.853 697.766,-155.853 697.766,-155.853 702.729,-155.241 698.317,-160.319 707.691,-154.63 707.691,-154.63"/>
<polygon fill="#6c15b8" stroke="#6c15b8" points="1164.67,-98.3115 1175.15,-101.554 1169.64,-97.6999 1174.6,-97.0883 1174.6,-97.0883 1174.6,-97.0883 1169.64,-97.6999 1174.05,-92.6221 1164.67,-98.3115 1164.67,-98.3115"/>
</g>
<!-- DayAhead -->
<g id="node18" class="node"><title>DayAhead</title>
<ellipse fill="none" stroke="black" cx="1496" cy="-90" rx="48.1437" ry="18"/>
<text text-anchor="middle" x="1496" y="-86.3" font-family="Times,serif" font-size="14.00">DayAhead</text>
</g>
<!-- Prosumer&#45;&gt;DayAhead -->
<g id="edge19" class="edge"><title>Prosumer&#45;&gt;DayAhead</title>
<path fill="none" stroke="#8d0304" d="M707.394,-156.717C855.812,-144.349 1284.33,-108.639 1439.26,-95.7287"/>
<ellipse fill="none" stroke="#8d0304" cx="703.088" cy="-157.076" rx="4" ry="4"/>
<polygon fill="#8d0304" stroke="#8d0304" points="1439.53,-95.706 1449.87,-99.3599 1444.51,-95.2907 1449.49,-94.8754 1449.49,-94.8754 1449.49,-94.8754 1444.51,-95.2907 1449.12,-90.391 1439.53,-95.706 1439.53,-95.706"/>
</g>
<!-- Prosumer&#45;&gt;DataPoint -->
<g id="edge18" class="edge"><title>Prosumer&#45;&gt;DataPoint</title>
<path fill="none" stroke="#1a4c1f" d="M609.805,-150.831C550.474,-137.771 447.931,-115.199 387.187,-101.827"/>
<ellipse fill="none" stroke="#1a4c1f" cx="614.051" cy="-151.766" rx="4.00001" ry="4.00001"/>
<polygon fill="#1a4c1f" stroke="#1a4c1f" points="386.847,-101.753 378.048,-95.2079 381.964,-100.678 377.081,-99.6027 377.081,-99.6027 377.081,-99.6027 381.964,-100.678 376.113,-103.997 386.847,-101.753 386.847,-101.753"/>
</g>
<!-- Prosumer&#45;&gt;User -->
<g id="edge22" class="edge"><title>Prosumer&#45;&gt;User</title>
<path fill="none" stroke="#4c876a" d="M655.412,-133.698C653.649,-114.472 648.443,-89.1962 634,-72 612.699,-46.6392 576.876,-32.9887 549.903,-25.9278"/>
<polygon fill="#4c876a" stroke="#4c876a" points="655.429,-133.96 651.595,-144.234 655.757,-138.95 656.085,-143.939 656.085,-143.939 656.085,-143.939 655.757,-138.95 660.575,-143.644 655.429,-133.96 655.429,-133.96"/>
<polygon fill="#4c876a" stroke="#4c876a" points="549.765,-25.8944 541.11,-19.1609 544.906,-24.714 540.047,-23.5337 540.047,-23.5337 540.047,-23.5337 544.906,-24.714 538.985,-27.9065 549.765,-25.8944 549.765,-25.8944"/>
</g>
<!-- Cluster -->
<g id="node14" class="node"><title>Cluster</title>
<ellipse fill="none" stroke="black" cx="514" cy="-234" rx="36.096" ry="18"/>
<text text-anchor="middle" x="514" y="-230.3" font-family="Times,serif" font-size="14.00">Cluster</text>
</g>
<!-- Cluster&#45;&gt;Role -->
<g id="edge27" class="edge"><title>Cluster&#45;&gt;Role</title>
<path fill="none" stroke="#4c8d25" d="M514,-207.558C514,-182.444 514,-144.164 514,-118.393"/>
<ellipse fill="none" stroke="#4c8d25" cx="514" cy="-211.871" rx="4" ry="4"/>
<polygon fill="#4c8d25" stroke="#4c8d25" points="514,-118.189 518.5,-108.189 514,-113.189 514,-108.189 514,-108.189 514,-108.189 514,-113.189 509.5,-108.189 514,-118.189 514,-118.189"/>
</g>
<!-- Cluster&#45;&gt;Prosumer -->
<g id="edge26" class="edge"><title>Cluster&#45;&gt;Prosumer</title>
<path fill="none" stroke="#e76ad7" d="M546.135,-217.159C567.992,-206.384 596.952,-192.108 619.651,-180.918"/>
<ellipse fill="none" stroke="#e76ad7" cx="542.322" cy="-219.038" rx="4.00002" ry="4.00002"/>
<polygon fill="#e76ad7" stroke="#e76ad7" points="619.673,-180.908 630.632,-180.523 624.157,-178.697 628.642,-176.486 628.642,-176.486 628.642,-176.486 624.157,-178.697 626.652,-172.45 619.673,-180.908 619.673,-180.908"/>
</g>
<!-- ConnectionType -->
<g id="node15" class="node"><title>ConnectionType</title>
<ellipse fill="none" stroke="black" cx="624" cy="-306" rx="69.3156" ry="18"/>
<text text-anchor="middle" x="624" y="-302.3" font-family="Times,serif" font-size="14.00">ConnectionType</text>
</g>
<!-- ConnectionType&#45;&gt;Prosumer -->
<g id="edge29" class="edge"><title>ConnectionType&#45;&gt;Prosumer</title>
<path fill="none" stroke="#557187" d="M629.65,-279.929C635.33,-254.725 644.058,-215.994 649.894,-190.095"/>
<ellipse fill="none" stroke="#557187" cx="628.739" cy="-283.969" rx="4.00001" ry="4.00001"/>
<polygon fill="#557187" stroke="#557187" points="649.928,-189.945 656.516,-181.179 651.027,-185.067 652.126,-180.189 652.126,-180.189 652.126,-180.189 651.027,-185.067 647.736,-179.2 649.928,-189.945 649.928,-189.945"/>
</g>
<!-- EnergyType&#45;&gt;EnergyTypeProsumer -->
<g id="edge31" class="edge"><title>EnergyType&#45;&gt;EnergyTypeProsumer</title>
<path fill="none" stroke="#4d45b2" d="M1224,-63.6398C1224,-58.0629 1224,-52.1319 1224,-46.4761"/>
<ellipse fill="none" stroke="#4d45b2" cx="1224" cy="-67.6966" rx="4" ry="4"/>
<polygon fill="#4d45b2" stroke="#4d45b2" points="1224,-46.1043 1228.5,-36.1043 1224,-41.1043 1224,-36.1043 1224,-36.1043 1224,-36.1043 1224,-41.1043 1219.5,-36.1044 1224,-46.1043 1224,-46.1043"/>
</g>
<!-- DayAheadHour -->
<g id="node17" class="node"><title>DayAheadHour</title>
<ellipse fill="none" stroke="black" cx="1534" cy="-18" rx="65.9423" ry="18"/>
<text text-anchor="middle" x="1534" y="-14.3" font-family="Times,serif" font-size="14.00">DayAheadHour</text>
</g>
<!-- DayAhead&#45;&gt;DayAheadHour -->
<g id="edge34" class="edge"><title>DayAhead&#45;&gt;DayAheadHour</title>
<path fill="none" stroke="#91be53" d="M1509.12,-64.8269C1512.55,-58.5146 1516.26,-51.6811 1519.74,-45.2658"/>
<ellipse fill="none" stroke="#91be53" cx="1507.11" cy="-68.5395" rx="4.00002" ry="4.00002"/>
<polygon fill="#91be53" stroke="#91be53" points="1519.85,-45.0638 1528.58,-38.4222 1522.24,-40.6696 1524.62,-36.2753 1524.62,-36.2753 1524.62,-36.2753 1522.24,-40.6696 1520.67,-34.1284 1519.85,-45.0638 1519.85,-45.0638"/>
</g>
<!-- BuildingType -->
<g id="node21" class="node"><title>BuildingType</title>
<ellipse fill="none" stroke="black" cx="771" cy="-306" rx="59.1941" ry="18"/>
<text text-anchor="middle" x="771" y="-302.3" font-family="Times,serif" font-size="14.00">BuildingType</text>
</g>
<!-- BuildingType&#45;&gt;Prosumer -->
<g id="edge38" class="edge"><title>BuildingType&#45;&gt;Prosumer</title>
<path fill="none" stroke="#b86edf" d="M726.07,-288.507C708.722,-280.052 690.164,-268.081 678,-252 664.533,-234.196 659.219,-209.186 657.166,-190.211"/>
<ellipse fill="none" stroke="#b86edf" cx="729.781" cy="-290.231" rx="4.00002" ry="4.00002"/>
<polygon fill="#b86edf" stroke="#b86edf" points="657.155,-190.069 660.798,-179.726 656.734,-185.087 656.314,-180.105 656.314,-180.105 656.314,-180.105 656.734,-185.087 651.83,-180.483 657.155,-190.069 657.155,-190.069"/>
</g>
<!-- Clustering -->
<g id="node22" class="node"><title>Clustering</title>
<ellipse fill="none" stroke="black" cx="1288" cy="-306" rx="47.169" ry="18"/>
<text text-anchor="middle" x="1288" y="-302.3" font-family="Times,serif" font-size="14.00">Clustering</text>
</g>
<!-- Clustering&#45;&gt;TempCluster -->
<g id="edge40" class="edge"><title>Clustering&#45;&gt;TempCluster</title>
<path fill="none" stroke="#ed009c" d="M1291.62,-279.64C1292.44,-273.92 1293.31,-267.828 1294.14,-262.042"/>
<ellipse fill="none" stroke="#ed009c" cx="1291.04" cy="-283.737" rx="4.00001" ry="4.00001"/>
<polygon fill="#ed009c" stroke="#ed009c" points="1294.14,-262.004 1300.01,-252.741 1294.85,-257.054 1295.56,-252.104 1295.56,-252.104 1295.56,-252.104 1294.85,-257.054 1291.1,-251.468 1294.14,-262.004 1294.14,-262.004"/>
</g>
<!-- Object -->
<g id="node23" class="node"><title>Object</title>
<ellipse fill="none" stroke="black" cx="266" cy="-399" rx="34.1708" ry="18"/>
<text text-anchor="middle" x="266" y="-395.3" font-family="Times,serif" font-size="14.00">Object</text>
</g>
<!-- Object&#45;&gt;Ability -->
<g id="edge1" class="edge"><title>Object&#45;&gt;Ability</title>
<path fill="none" stroke="black" d="M266,-380.884C266,-364.614 266,-340.284 266,-324.04"/>
</g>
<!-- ActiveRecord::Base -->
<g id="node24" class="node"><title>ActiveRecord::Base</title>
<ellipse fill="none" stroke="black" cx="994" cy="-399" rx="81.3646" ry="18"/>
<text text-anchor="middle" x="994" y="-395.3" font-family="Times,serif" font-size="14.00">ActiveRecord::Base</text>
</g>
<!-- ActiveRecord::Base&#45;&gt;Interval -->
<g id="edge3" class="edge"><title>ActiveRecord::Base&#45;&gt;Interval</title>
<path fill="none" stroke="black" d="M916.435,-393.612C756.679,-383.909 402.293,-358.714 360,-324 315.84,-287.754 308.766,-213.648 307.915,-180.135"/>
</g>
<!-- ActiveRecord::Base&#45;&gt;DayAheadEnergyPrice -->
<g id="edge4" class="edge"><title>ActiveRecord::Base&#45;&gt;DayAheadEnergyPrice</title>
<path fill="none" stroke="black" d="M965.883,-381.978C941.794,-367.809 906.57,-346.019 878,-324 859.316,-309.6 856.507,-303.809 839,-288 825.487,-275.798 810.092,-262.205 798.28,-251.841"/>
</g>
<!-- ActiveRecord::Base&#45;&gt;EnergyMarket -->
<g id="edge7" class="edge"><title>ActiveRecord::Base&#45;&gt;EnergyMarket</title>
<path fill="none" stroke="black" d="M985.536,-380.884C977.491,-364.614 965.459,-340.284 957.426,-324.04"/>
</g>
<!-- ActiveRecord::Base&#45;&gt;LogInstance -->
<g id="edge8" class="edge"><title>ActiveRecord::Base&#45;&gt;LogInstance</title>
<path fill="none" stroke="black" d="M1008.15,-381.17C1034.53,-349.773 1090.96,-282.637 1117.14,-251.496"/>
</g>
<!-- ActiveRecord::Base&#45;&gt;TempCluster -->
<g id="edge10" class="edge"><title>ActiveRecord::Base&#45;&gt;TempCluster</title>
<path fill="none" stroke="black" d="M1070.25,-392.833C1162.65,-384.8 1310.22,-365.672 1344,-324 1362.4,-301.301 1336.84,-270.066 1317.09,-251.273"/>
</g>
<!-- ActiveRecord::Base&#45;&gt;IntraDayEnergyPrice -->
<g id="edge11" class="edge"><title>ActiveRecord::Base&#45;&gt;IntraDayEnergyPrice</title>
<path fill="none" stroke="black" d="M1003.86,-380.838C1015.16,-358.857 1030.68,-319.804 1019,-288 1013.84,-273.95 1003.12,-261.076 993.439,-251.535"/>
</g>
<!-- ActiveRecord::Base&#45;&gt;Meter -->
<g id="edge12" class="edge"><title>ActiveRecord::Base&#45;&gt;Meter</title>
<path fill="none" stroke="black" d="M913.361,-396.719C797.127,-392.973 591.327,-378.588 545,-324 534.647,-311.801 542.05,-303.726 545,-288 548.165,-271.127 554.099,-268.453 559,-252 574.332,-200.527 585.482,-137.827 590.323,-108.149"/>
</g>
<!-- ActiveRecord::Base&#45;&gt;Role -->
<g id="edge14" class="edge"><title>ActiveRecord::Base&#45;&gt;Role</title>
<path fill="none" stroke="black" d="M914.295,-395.549C790.85,-390.226 561.054,-373.75 498,-324 431.949,-271.886 483.485,-151.176 505.383,-107.309"/>
</g>
<!-- ActiveRecord::Base&#45;&gt;Instance -->
<g id="edge16" class="edge"><title>ActiveRecord::Base&#45;&gt;Instance</title>
<path fill="none" stroke="black" d="M1020.65,-381.941C1049.43,-364.592 1094.83,-337.238 1122.07,-320.816"/>
</g>
<!-- ActiveRecord::Base&#45;&gt;EnergyTypeProsumer -->
<g id="edge17" class="edge"><title>ActiveRecord::Base&#45;&gt;EnergyTypeProsumer</title>
<path fill="none" stroke="black" d="M1072.69,-394.548C1175.01,-388.22 1345.26,-370.776 1384,-324 1464.09,-227.286 1305.12,-84.0051 1245.4,-35.6362"/>
</g>
<!-- ActiveRecord::Base&#45;&gt;Prosumer -->
<g id="edge25" class="edge"><title>ActiveRecord::Base&#45;&gt;Prosumer</title>
<path fill="none" stroke="black" d="M1067.66,-391.34C1112.18,-383.081 1165.65,-364.714 1194,-324 1203.85,-309.859 1211.14,-235.739 1193,-216 1159.88,-179.957 822.918,-167.44 700.306,-164.059"/>
</g>
<!-- ActiveRecord::Base&#45;&gt;Cluster -->
<g id="edge28" class="edge"><title>ActiveRecord::Base&#45;&gt;Cluster</title>
<path fill="none" stroke="black" d="M912.851,-397.754C789.226,-395.459 562.69,-383.066 512,-324 494.99,-304.179 501.31,-271.741 507.57,-251.983"/>
</g>
<!-- ActiveRecord::Base&#45;&gt;ConnectionType -->
<g id="edge30" class="edge"><title>ActiveRecord::Base&#45;&gt;ConnectionType</title>
<path fill="none" stroke="black" d="M941.773,-385.155C870.061,-367.518 742.092,-336.044 672.43,-318.911"/>
</g>
<!-- ActiveRecord::Base&#45;&gt;EnergyType -->
<g id="edge32" class="edge"><title>ActiveRecord::Base&#45;&gt;EnergyType</title>
<path fill="none" stroke="black" d="M1071.12,-393.356C1167.48,-385.789 1324.23,-367.066 1361,-324 1392.18,-287.483 1383.62,-259.826 1364,-216 1340.96,-164.551 1285.13,-125.554 1251.34,-105.674"/>
</g>
<!-- ActiveRecord::Base&#45;&gt;DayAheadHour -->
<g id="edge33" class="edge"><title>ActiveRecord::Base&#45;&gt;DayAheadHour</title>
<path fill="none" stroke="black" d="M1069.39,-392.069C1187.11,-381.883 1408.41,-358.748 1479,-324 1530.33,-298.734 1572,-292.211 1572,-235 1572,-235 1572,-235 1572,-161 1572,-114.553 1552.79,-62.3766 1541.69,-36.0929"/>
</g>
<!-- ActiveRecord::Base&#45;&gt;DayAhead -->
<g id="edge35" class="edge"><title>ActiveRecord::Base&#45;&gt;DayAhead</title>
<path fill="none" stroke="black" d="M1074.2,-395.876C1191.22,-391.044 1400.55,-375.276 1453,-324 1513.3,-265.052 1504.6,-151.101 1498.74,-108.039"/>
</g>
<!-- ActiveRecord::Base&#45;&gt;DataPoint -->
<g id="edge36" class="edge"><title>ActiveRecord::Base&#45;&gt;DataPoint</title>
<path fill="none" stroke="black" d="M912.594,-398.952C767.45,-398.91 472.206,-390.397 398,-324 336.704,-269.154 377.132,-223.217 355,-144 351.62,-131.901 347.289,-118.423 343.844,-108.086"/>
</g>
<!-- ActiveRecord::Base&#45;&gt;User -->
<g id="edge37" class="edge"><title>ActiveRecord::Base&#45;&gt;User</title>
<path fill="none" stroke="black" d="M915.089,-394.77C787.35,-388.25 542.278,-369.999 470,-324 430.169,-298.651 412,-282.214 412,-235 412,-235 412,-235 412,-161 412,-103.935 467.009,-54.1027 496.233,-31.6556"/>
</g>
<!-- ActiveRecord::Base&#45;&gt;BuildingType -->
<g id="edge39" class="edge"><title>ActiveRecord::Base&#45;&gt;BuildingType</title>
<path fill="none" stroke="black" d="M956.926,-382.871C914.569,-365.587 845.842,-337.541 804.872,-320.822"/>
</g>
<!-- ActiveRecord::Base&#45;&gt;Clustering -->
<g id="edge41" class="edge"><title>ActiveRecord::Base&#45;&gt;Clustering</title>
<path fill="none" stroke="black" d="M1039.29,-383.981C1097.92,-365.833 1198.89,-334.581 1252.37,-318.029"/>
</g>
</g>
</svg>
